<svg xmlns="http://www.w3.org/2000/svg" width="328" height="972" fill="none"><mask id="b" width="328" height="972" x="0" y="0" mask-type="alpha" maskUnits="userSpaceOnUse"><path fill="url(#a)" d="M0 0h328v972H0z"/></mask><g mask="url(#b)"><path fill="url(#c)" d="M-513 0H841v972H-513z"/><path fill="url(#d)" d="m139 337.5-304 185-65-308.5 369 123.5Z"/><path fill="url(#e)" d="M139 337.5-198.5-405-230 214l369 123.5Z"/><g filter="url(#f)"><path fill="#FFBA00" fill-rule="evenodd" d="M45.225 74.97c-9.372-9.372-24.568-9.372-33.94 0L-.03 86.285c-9.373 9.373-9.373 24.569 0 33.941l16.97 16.971 15.942 15.942c9.94 9.941 26.058 9.941 35.998 0a2.546 2.546 0 0 0 0-3.6l-21.959-21.959c-5.623-5.623-5.623-14.741 0-20.364 8.436-8.436 8.436-22.112 0-30.547l-1.697-1.697Z" clip-rule="evenodd"/></g><g filter="url(#g)" opacity=".64"><path fill="#FFBA00" fill-rule="evenodd" d="M260 130.25a7.25 7.25 0 0 0-7.25-7.25H250c-5.523 0-10 4.477-10 10v11.045a7.954 7.954 0 0 0 7.955 7.955.795.795 0 0 0 .795-.795V142a4.5 4.5 0 0 1 4.5-4.5 6.75 6.75 0 0 0 6.75-6.75v-.5Z" clip-rule="evenodd"/></g><g filter="url(#h)"><path fill="#E732FB" fill-rule="evenodd" d="M134.033 81.182c-3.431-12.803-16.591-20.401-29.394-16.97l-15.455 4.14c-12.803 3.431-20.401 16.591-16.97 29.395l6.211 23.182 5.835 21.777c3.639 13.579 17.597 21.638 31.176 17.999a2.545 2.545 0 0 0 1.8-3.117l-8.038-29.997c-2.058-7.682 2.501-15.578 10.183-17.636 11.522-3.088 18.361-14.932 15.273-26.455l-.621-2.318Z" clip-rule="evenodd"/></g><g filter="url(#i)" opacity=".64"><path fill="#E732FB" fill-rule="evenodd" d="M278.365 151.652a7.269 7.269 0 0 0-2.661-9.93l-2.098-1.212c-4.636-2.676-10.564-1.088-13.24 3.548l-2.423 4.197-3.415 5.914a7.71 7.71 0 0 0 2.822 10.532.77.77 0 0 0 1.053-.282l4.703-8.146a4.363 4.363 0 0 1 5.959-1.597 6.542 6.542 0 0 0 8.937-2.394l.363-.63Z" clip-rule="evenodd"/></g><g filter="url(#j)" opacity=".4"><g opacity=".4"><path fill="#364250" d="m244.746 259.141-6.916 1.853 1.95 7.279-2.173.582-4.416-16.481 10.21-2.736.479 1.789-8.037 2.153 1.511 5.637 6.916-1.853.476 1.777Zm7.622 5.759-2.095.561-3.281-12.248 2.094-.561 3.282 12.248Zm-6.417-14.89a1.304 1.304 0 0 1 .076-.942c.148-.29.426-.49.834-.599.407-.11.748-.076 1.022.102.274.177.456.435.547.775.091.34.062.651-.089.934-.151.283-.43.479-.837.588-.408.109-.747.079-1.019-.091-.265-.171-.443-.427-.534-.767Zm11.804 5.112 1.518-5.199 2.445-.655-2.384 7.129 5.791 5.085-2.423.649-4.058-3.826-1.602 5.342-2.433.652 2.472-7.298-5.629-4.983 2.422-.649 3.881 3.753Zm13.913-8.521.421 1.344c.615-1.297 1.684-2.15 3.209-2.559 1.713-.459 3.054-.115 4.025 1.033a4.82 4.82 0 0 1 1.203-1.851c.559-.538 1.284-.927 2.174-1.165 2.687-.72 4.434.336 5.242 3.169l2.199 8.207-2.095.561-2.165-8.082c-.235-.876-.61-1.475-1.125-1.798-.517-.33-1.247-.369-2.191-.116-.777.208-1.359.615-1.747 1.22-.39.598-.521 1.3-.394 2.107l2.178 8.128-2.106.564-2.15-8.026c-.477-1.78-1.587-2.437-3.331-1.97-1.373.368-2.156 1.204-2.348 2.509l2.396 8.943-2.094.561-3.282-12.248 1.981-.531Zm24.827 3.187.393-9.944 2.241-.601-1.136 15.458c-.216 2.241-1.154 3.585-2.814 4.03l-.406.072-.82.062-.455-1.698.578-.106c.71-.19 1.222-.481 1.538-.873.323-.394.51-1.007.563-1.838l.13-1.369-7.614-10.941 2.286-.613 5.516 8.361Z"/><path fill="#fff" d="m244.746 259.141.518 1.932 1.932-.518-.518-1.931-1.932.517Zm-6.916 1.853-.518-1.932-1.931.518.517 1.932 1.932-.518Zm1.95 7.279.518 1.932 1.932-.518-.518-1.932-1.932.518Zm-2.173.582-1.932.518.518 1.932 1.932-.518-.518-1.932Zm-4.416-16.481-.518-1.932-1.932.518.518 1.932 1.932-.518Zm10.21-2.736 1.932-.517-.518-1.932-1.932.517.518 1.932Zm.479 1.789.518 1.932 1.932-.518-.518-1.932-1.932.518Zm-8.037 2.153-.517-1.932-1.932.518.518 1.932 1.931-.518Zm1.511 5.637-1.932.518.518 1.932 1.932-.518-.518-1.932Zm6.916-1.853 1.932-.518-.518-1.931-1.932.517.518 1.932Zm-.041-.155-6.917 1.853 1.036 3.864 6.916-1.853-1.035-3.864Zm-8.331 4.303 1.95 7.278 3.864-1.035-1.95-7.278-3.864 1.035Zm3.365 4.829-2.174.582 1.036 3.864 2.173-.582-1.035-3.864Zm.276 1.996-4.416-16.481-3.864 1.036 4.416 16.481 3.864-1.036Zm-5.83-14.031 10.21-2.736-1.036-3.864-10.21 2.736 1.036 3.864Zm7.76-4.15.479 1.788 3.864-1.035-.479-1.788-3.864 1.035Zm1.894-.661-8.037 2.153 1.035 3.864 8.037-2.153-1.035-3.864Zm-9.451 4.603 1.51 5.637 3.864-1.035-1.511-5.638-3.863 1.036Zm3.96 7.051 6.916-1.853-1.036-3.864-6.916 1.853 1.036 3.864Zm4.466-3.267.476 1.777 3.864-1.035-.476-1.778-3.864 1.036Zm10.03 7.018.517 1.932 1.932-.518-.518-1.932-1.931.518Zm-2.095.561-1.931.518.517 1.932 1.932-.518-.518-1.932Zm-3.281-12.248-.518-1.931-1.932.517.518 1.932 1.932-.518Zm2.094-.561 1.932-.517-.518-1.932-1.932.518.518 1.931Zm-3.059-3.584-1.781-.911-.008.016-.008.017 1.797.878Zm.458 1.709-1.09 1.677.015.01.015.01 1.06-1.697Zm5.365 12.191-2.094.561 1.035 3.864 2.094-.561-1.035-3.864Zm.355 1.975-3.281-12.247-3.864 1.035 3.282 12.248 3.863-1.036Zm-4.696-9.798 2.094-.561-1.035-3.863-2.094.561 1.035 3.863Zm-.355-1.975 3.282 12.248 3.863-1.036-3.281-12.247-3.864 1.035Zm.729-3.677c.007.025.02.091.013.186a.752.752 0 0 1-.073.268l-3.593-1.757a3.3 3.3 0 0 0-.21 2.338l3.863-1.035Zm-.076.486a.977.977 0 0 1-.293.345c-.097.07-.158.082-.136.076l-1.035-3.863c-.784.21-1.62.688-2.097 1.62l3.561 1.822Zm-.429.421c.023-.006-.036.014-.155.002a.991.991 0 0 1-.427-.152l2.174-3.358c-.879-.569-1.843-.565-2.627-.355l1.035 3.863Zm-.582-.15a.765.765 0 0 1-.297-.386l3.863-1.036a3.278 3.278 0 0 0-1.392-1.936l-2.174 3.358Zm-.297-.386a.642.642 0 0 1-.014-.22.827.827 0 0 1 .09-.304l3.531 1.88a3.232 3.232 0 0 0 .256-2.392l-3.863 1.036Zm.076-.524a.983.983 0 0 1 .294-.337c.091-.065.146-.074.117-.067l1.035 3.864c.766-.205 1.599-.666 2.085-1.58l-3.531-1.88Zm.411-.404c-.029.008.023-.011.135-.001a.982.982 0 0 1 .423.146l-2.119 3.393c.879.548 1.831.531 2.596.326l-1.035-3.864Zm.588.164c.082.054.16.128.221.215a.58.58 0 0 1 .088.178l-3.863 1.035c.203.758.648 1.454 1.375 1.926l2.179-3.354Zm10.181 6.022-1.391 1.438 2.382 2.302.928-3.179-1.919-.561Zm1.518-5.199-.517-1.932-1.087.291-.315 1.08 1.919.561Zm2.445-.655 1.897.634 1.18-3.53-3.594.964.517 1.932Zm-2.384 7.129-1.897-.634-.421 1.26.998.877 1.32-1.503Zm5.791 5.085.517 1.932 3.612-.968-2.81-2.467-1.319 1.503Zm-2.423.649-1.372 1.455.812.765 1.078-.288-.518-1.932Zm-4.058-3.826 1.372-1.455-2.358-2.223-.93 3.103 1.916.575Zm-1.602 5.342.518 1.932 1.078-.289.32-1.068-1.916-.575Zm-2.433.652-1.894-.641-1.2 3.541 3.611-.968-.517-1.932Zm2.472-7.298 1.895.641.426-1.258-.995-.881-1.326 1.498Zm-5.629-4.983-.518-1.931-3.595.963 2.787 2.466 1.326-1.498Zm2.422-.649 1.39-1.437-.814-.788-1.094.294.518 1.931Zm5.8 4.314 1.519-5.2-3.839-1.121-1.519 5.199 3.839 1.122Zm.117-3.829 2.445-.655-1.035-3.863-2.445.655 1.035 3.863Zm.031-3.221-2.385 7.13 3.794 1.268 2.384-7.129-3.793-1.269Zm-1.808 9.267 5.791 5.085 2.639-3.006-5.79-5.085-2.64 3.006Zm6.593 1.65-2.422.649 1.035 3.864 2.422-.649-1.035-3.864Zm-.533 1.126-4.058-3.826-2.744 2.91 4.058 3.826 2.744-2.91Zm-7.346-2.946-1.601 5.343 3.831 1.149 1.602-5.343-3.832-1.149Zm-.203 3.986-2.434.652 1.035 3.863 2.434-.652-1.035-3.863Zm-.022 3.225 2.473-7.299-3.789-1.283-2.472 7.299 3.788 1.283Zm1.904-9.438-5.63-4.982-2.651 2.995 5.63 4.982 2.651-2.995Zm-6.438-1.553 2.423-.649-1.036-3.863-2.422.649 1.035 3.863Zm.515-1.143 3.88 3.753 2.781-2.876-3.881-3.752-2.78 2.875Zm19.184-6.206 1.909-.597-.574-1.831-1.853.497.518 1.931Zm.421 1.344-1.909.597 1.527 4.877 2.189-4.618-1.807-.856Zm7.234-1.526-1.527 1.291 2.241 2.649 1.169-3.266-1.883-.674Zm1.203-1.851-1.387-1.442-.007.007 1.394 1.435Zm7.416 2.004 1.931-.517-.004-.016-.004-.015-1.923.548Zm2.199 8.207.517 1.932 1.932-.518-.518-1.932-1.931.518Zm-2.095.561-1.931.518.517 1.931 1.932-.517-.518-1.932Zm-3.29-9.88-1.077 1.686.008.004.007.005 1.062-1.695Zm-3.938 1.104 1.675 1.092.005-.006.004-.007-1.684-1.079Zm-.394 2.107-1.976.312.017.104.027.102 1.932-.518Zm2.178 8.128.517 1.932 1.932-.518-.517-1.932-1.932.518Zm-2.106.564-1.931.518.517 1.931 1.932-.517-.518-1.932Zm-7.829-7.487-1.979-.291-.06.409.107.4 1.932-.518Zm2.396 8.943.518 1.932 1.932-.518-.518-1.932-1.932.518Zm-2.094.561-1.932.518.518 1.931 1.932-.517-.518-1.932Zm-3.282-12.248-.517-1.932-1.932.518.517 1.932 1.932-.518Zm.072.067.421 1.343 3.817-1.195-.42-1.343-3.818 1.195Zm4.137 1.602c.337-.71.898-1.209 1.919-1.483l-1.035-3.864c-2.028.544-3.605 1.75-4.499 3.634l3.615 1.713Zm1.919-1.483c.616-.165 1.02-.146 1.277-.081.234.061.463.188.704.473l3.054-2.583c-.73-.862-1.657-1.48-2.764-1.764-1.085-.278-2.209-.203-3.306.091l1.035 3.864Zm5.391-.225c.143-.399.372-.759.713-1.091l-2.787-2.869a6.828 6.828 0 0 0-1.692 2.612l3.766 1.348Zm.706-1.084c.274-.263.681-.507 1.306-.674l-1.035-3.864c-1.156.31-2.199.843-3.044 1.655l2.773 2.883Zm1.306-.674c1.014-.272 1.514-.125 1.773.032.282.17.701.609 1.027 1.753l3.847-1.096c-.481-1.689-1.34-3.195-2.804-4.08-1.489-.901-3.206-.921-4.878-.473l1.035 3.864Zm2.792 1.755 2.199 8.206 3.863-1.035-2.199-8.206-3.863 1.035Zm3.613 5.757-2.094.561 1.035 3.864 2.094-.561-1.035-3.864Zm.355 1.975-2.165-8.082-3.864 1.035 2.166 8.083 3.863-1.036Zm-2.165-8.082c-.303-1.129-.882-2.277-1.995-2.974l-2.124 3.389c-.082-.051.088-.001.255.62l3.864-1.035Zm-1.98-2.965c-1.208-.772-2.613-.677-3.785-.363l1.035 3.863c.332-.088.533-.1.631-.095.086.005.049.019-.035-.034l2.154-3.371Zm-3.785-.363c-1.197.32-2.225.997-2.914 2.073l3.368 2.158c.086-.135.223-.272.581-.368l-1.035-3.863Zm-2.905 2.06c-.7 1.072-.887 2.291-.695 3.511l3.952-.623c-.062-.394.013-.58.093-.704l-3.35-2.184Zm-.651 3.717 2.178 8.127 3.864-1.035-2.178-8.127-3.864 1.035Zm3.592 5.678-2.105.564 1.035 3.864 2.105-.564-1.035-3.864Zm.344 1.978-2.15-8.025-3.864 1.035 2.151 8.026 3.863-1.036Zm-2.15-8.025c-.316-1.178-.936-2.341-2.104-3.032-1.177-.697-2.496-.669-3.676-.353l1.035 3.864c.563-.151.671-.029.604-.069-.058-.034.116.022.277.625l3.864-1.035Zm-5.78-3.385c-.961.257-1.858.719-2.56 1.469-.71.758-1.104 1.689-1.25 2.681l3.958.583c.046-.313.14-.454.213-.531.081-.087.261-.228.674-.338l-1.035-3.864Zm-3.763 4.959 2.396 8.942 3.864-1.035-2.396-8.942-3.864 1.035Zm3.81 6.493-2.094.561 1.036 3.864 2.094-.561-1.036-3.864Zm.356 1.975-3.282-12.247-3.864 1.035 3.282 12.248 3.864-1.036Zm-4.696-9.798 1.981-.531-1.036-3.863-1.98.53 1.035 3.864Zm26.29.724-1.669 1.102 3.422 5.188.246-6.211-1.999-.079Zm.393-9.944-.518-1.932-1.423.381-.058 1.472 1.999.079Zm2.241-.601 1.995.147.206-2.807-2.719.728.518 1.932Zm-1.136 15.458 1.991.192.002-.023.002-.023-1.995-.146Zm-2.814 4.03.351 1.969.084-.015.082-.023-.517-1.931Zm-.406.072.151 1.994.101-.008.099-.017-.351-1.969Zm-.82.062-1.932.517.429 1.602 1.654-.125-.151-1.994Zm-.455-1.698-.362-1.967-2.131.392.561 2.093 1.932-.518Zm.578-.106.362 1.967.079-.015.077-.021-.518-1.931Zm1.538-.873-1.547-1.269-.006.007-.005.007 1.558 1.255Zm.563-1.838-1.991-.189-.003.032-.002.032 1.996.125Zm.13-1.369 1.991.19.07-.731-.419-.602-1.642 1.143Zm-7.614-10.941-.518-1.932-2.751.737 1.627 2.337 1.642-1.142Zm2.286-.613 1.67-1.101-.795-1.204-1.393.373.518 1.932Zm7.515 8.44.392-9.944-3.997-.158-.392 9.944 3.997.158Zm-1.089-8.091 2.242-.601-1.036-3.864-2.241.601 1.035 3.864Zm-.271-2.679-1.135 15.457 3.989.293 1.136-15.457-3.99-.293Zm-1.131 15.412c-.087.9-.303 1.432-.515 1.735-.186.266-.428.448-.827.555l1.035 3.863c1.261-.337 2.318-1.05 3.071-2.127.727-1.04 1.088-2.301 1.217-3.642l-3.981-.384Zm-1.175 2.253-.405.072.701 3.938.406-.072-.702-3.938Zm-.206.046-.82.063.302 3.988.82-.062-.302-3.989Zm1.263 1.539-.455-1.698-3.864 1.036.455 1.697 3.864-1.035Zm-2.025.787.578-.106-.724-3.934-.578.106.724 3.934Zm.734-.142c.939-.251 1.899-.707 2.577-1.55l-3.115-2.509c.047-.059-.018.067-.497.196l1.035 3.863Zm2.566-1.536c.71-.866.949-1.973 1.013-2.98l-3.992-.251c-.019.303-.06.502-.097.622-.036.119-.057.121-.017.072l3.093 2.537Zm1.008-2.916.13-1.369-3.982-.38-.13 1.37 3.982.379Zm-.219-2.702-7.615-10.941-3.283 2.285 7.615 10.941 3.283-2.285Zm-8.739-7.866 2.287-.613-1.036-3.864-2.286.613 1.035 3.864Zm.1-1.444 5.516 8.362 3.339-2.203-5.516-8.361-3.339 2.202Z"/></g><g opacity=".4"><path fill="#364250" d="M174.291 308.718c-1.721-1.035-2.903-2.056-3.548-3.062-.635-1.011-.798-2.09-.491-3.237.348-1.298 1.152-2.231 2.412-2.799 1.27-.574 2.735-.638 4.395-.194 1.132.304 2.081.792 2.847 1.467.773.676 1.298 1.464 1.574 2.363.285.901.304 1.808.06 2.721l-2.185-.585c.267-.996.159-1.862-.323-2.598-.48-.743-1.297-1.27-2.452-1.579-1.072-.287-1.973-.274-2.704.04-.722.308-1.195.881-1.419 1.718-.18.672-.05 1.317.391 1.937.45.614 1.307 1.296 2.569 2.047 1.271.753 2.228 1.467 2.872 2.141.654.668 1.083 1.362 1.287 2.079.212.72.205 1.499-.019 2.337-.358 1.335-1.166 2.268-2.424 2.796-1.255.521-2.755.548-4.498.081a8.095 8.095 0 0 1-2.997-1.495c-.863-.7-1.462-1.5-1.796-2.398-.326-.896-.36-1.823-.103-2.782l2.184.586c-.267.996-.112 1.882.464 2.66.586.771 1.494 1.322 2.724 1.651 1.147.308 2.089.309 2.826.005.736-.304 1.213-.86 1.429-1.667.216-.807.1-1.506-.348-2.095-.447-.597-1.356-1.31-2.727-2.138Zm8.886 10.255-2.094-.561 3.282-12.248 2.094.561-3.282 12.248Zm1.889-16.103c.091-.34.269-.599.536-.779.274-.177.615-.211 1.022-.102.408.109.686.309.834.6.149.29.178.606.087.945-.091.34-.273.594-.545.764-.272.17-.611.2-1.019.091-.407-.109-.686-.305-.837-.588-.143-.281-.169-.592-.078-.931Zm8.391 2.552-.795 2.965 2.287.613-.434 1.619-2.287-.613-2.035 7.595c-.131.491-.128.888.009 1.191.139.297.454.51.944.642.242.064.586.108 1.033.131l-.455 1.698a6.271 6.271 0 0 1-1.668-.205c-.936-.25-1.566-.722-1.89-1.416-.323-.693-.346-1.56-.067-2.602l2.035-7.595-2.23-.598.434-1.618 2.23.597.795-2.966 2.094.562Zm5.688 18.072c-1.66-.445-2.865-1.35-3.616-2.716-.748-1.373-.877-2.973-.388-4.799l.103-.385c.326-1.215.846-2.236 1.561-3.064.725-.833 1.574-1.406 2.548-1.719a5.068 5.068 0 0 1 2.935-.087c1.592.426 2.689 1.283 3.291 2.568.602 1.286.641 2.906.117 4.86l-.233.872-8.297-2.224c-.294 1.216-.205 2.287.267 3.214.481.922 1.242 1.522 2.283 1.801.74.198 1.407.215 2.001.051a4.893 4.893 0 0 0 1.668-.839l1.012 1.339c-1.449 1.302-3.199 1.678-5.252 1.128Zm2.682-11.05a2.886 2.886 0 0 0-2.377.358c-.737.458-1.322 1.223-1.756 2.296l6.136 1.644.042-.159c.225-1.08.158-1.979-.199-2.698-.355-.726-.971-1.206-1.846-1.441Z"/><path fill="#fff" d="m174.291 308.718 1.034-1.712-.003-.002-1.031 1.714Zm-3.548-3.062-1.694 1.064.005.008.005.007 1.684-1.079Zm1.921-6.036.822 1.823.002-.001-.824-1.822Zm7.242 1.273-1.322 1.501.005.004 1.317-1.505Zm1.574 2.363-1.911.588.004.014 1.907-.602Zm.06 2.721-.518 1.932 1.932.518.518-1.932-1.932-.518Zm-2.185-.585-1.932-.518-.517 1.932 1.932.518.517-1.932Zm-.323-2.598-1.68 1.085.007.011 1.673-1.096Zm-5.156-1.539.785 1.839.004-.001-.789-1.838Zm-1.028 3.655-1.63 1.159.009.012.008.012 1.613-1.183Zm2.569 2.047-1.022 1.719.003.002 1.019-1.721Zm2.872 2.141-1.445 1.382.008.008.008.008 1.429-1.398Zm1.287 2.079-1.924.547.003.009.002.008 1.919-.564Zm-2.443 5.133.767 1.847.008-.003-.775-1.844Zm-7.495-1.414-1.259 1.553.01.009 1.249-1.562Zm-1.796-2.398-1.879.684.005.012 1.874-.696Zm-.103-2.782.517-1.932-1.932-.517-.517 1.932 1.932.517Zm2.184.586 1.932.517.518-1.932-1.932-.517-.518 1.932Zm.464 2.66-1.606 1.191.006.009.007.009 1.593-1.209Zm6.631-2.106-1.602 1.198.005.007.005.006 1.592-1.211Zm-1.696-3.852c-1.614-.971-2.493-1.799-2.895-2.427l-3.368 2.158c.887 1.384 2.373 2.597 4.2 3.696l2.063-3.427Zm-2.885-2.411c-.341-.543-.416-1.05-.253-1.657l-3.864-1.035c-.452 1.688-.199 3.339.729 4.819l3.388-2.127Zm-.253-1.657c.187-.699.571-1.163 1.302-1.493l-1.644-3.647c-1.789.807-3.014 2.209-3.522 4.105l3.864 1.035Zm1.304-1.494c.757-.342 1.732-.438 3.054-.084l1.035-3.863c-1.999-.536-3.954-.503-5.736.302l1.647 3.645Zm3.054-.084c.878.236 1.54.593 2.042 1.036l2.643-3.002c-1.029-.906-2.265-1.526-3.65-1.897l-1.035 3.863Zm2.047 1.04c.52.455.822.934.98 1.446l3.823-1.176c-.396-1.287-1.144-2.383-2.17-3.281l-2.633 3.011Zm.984 1.46c.17.537.181 1.056.035 1.602l3.864 1.035a6.768 6.768 0 0 0-.084-3.841l-3.815 1.204Zm2.484.187-2.184-.585-1.035 3.864 2.184.585 1.035-3.864Zm-.77 1.865c.386-1.443.267-2.917-.582-4.212l-3.346 2.192c.116.176.212.434.064.984l3.864 1.036Zm-.575-4.201c-.832-1.288-2.151-2.034-3.614-2.426l-1.036 3.864c.846.226 1.161.533 1.29.732l3.36-2.17Zm-3.614-2.426c-1.337-.358-2.731-.415-4.011.134l1.578 3.676c.182-.079.591-.162 1.397.054l1.036-3.864Zm-4.008.132c-1.35.577-2.201 1.681-2.565 3.041l3.864 1.035c.085-.316.18-.358.272-.397l-1.571-3.679Zm-2.565 3.041c-.35 1.306-.056 2.559.693 3.613l3.26-2.318c-.083-.116-.096-.177-.098-.186l-.001-.018c0-.007.001-.025.01-.056l-3.864-1.035Zm.71 3.637c.696.949 1.841 1.799 3.16 2.583l2.045-3.438c-1.207-.717-1.775-1.232-1.979-1.511l-3.226 2.366Zm3.163 2.585c1.193.707 1.978 1.313 2.446 1.802l2.891-2.764c-.821-.86-1.951-1.681-3.298-2.479l-2.039 3.441Zm2.462 1.818c.478.49.7.902.792 1.228l3.848-1.093c-.315-1.11-.952-2.084-1.781-2.932l-2.859 2.797Zm.797 1.245c.093.316.112.716-.032 1.255l3.864 1.035c.304-1.136.336-2.293.006-3.417l-3.838 1.127Zm-.032 1.255c-.2.748-.588 1.185-1.266 1.47l1.549 3.688c1.837-.772 3.065-2.199 3.581-4.123l-3.864-1.035Zm-1.258 1.467c-.733.304-1.758.386-3.214-.004l-1.036 3.863c2.03.544 4.004.573 5.783-.165l-1.533-3.694Zm-3.214-.004a6.091 6.091 0 0 1-2.265-1.124l-2.499 3.123a10.07 10.07 0 0 0 3.728 1.864l1.036-3.863Zm-2.255-1.116c-.631-.512-.991-1.029-1.181-1.541l-3.749 1.392c.477 1.285 1.314 2.366 2.411 3.255l2.519-3.106Zm-1.176-1.529c-.18-.494-.207-1.001-.052-1.58l-3.863-1.035c-.359 1.337-.316 2.685.156 3.983l3.759-1.368Zm-2.501-.166 2.185.585 1.035-3.863-2.185-.586-1.035 3.864Zm.77-1.864c-.413 1.541-.177 3.065.79 4.369l3.213-2.383c-.186-.251-.26-.499-.139-.951l-3.864-1.035Zm.803 4.387c.928 1.222 2.276 1.966 3.8 2.374l1.035-3.863c-.937-.251-1.405-.609-1.649-.93l-3.186 2.419Zm3.8 2.374c1.372.368 2.807.458 4.106-.078l-1.527-3.697c-.174.072-.623.158-1.544-.088l-1.035 3.863Zm4.106-.078c1.344-.555 2.23-1.624 2.598-2.998l-3.864-1.036a.602.602 0 0 1-.106.239.375.375 0 0 1-.155.098l1.527 3.697Zm2.598-2.998c.353-1.318.186-2.675-.689-3.825l-3.183 2.423c.037.048.04.07.042.083.004.021.014.106-.034.283l3.864 1.036Zm-.679-3.811c-.695-.93-1.898-1.808-3.294-2.652l-2.069 3.424c1.346.813 1.962 1.36 2.16 1.624l3.203-2.396Zm4.558 9.315-.517 1.932 1.932.517.517-1.932-1.932-.517Zm-2.094-.561-1.932-.518-.517 1.932 1.932.518.517-1.932Zm3.282-12.248.518-1.932-1.932-.517-.518 1.931 1.932.518Zm2.094.561 1.932.518.518-1.932-1.932-.518-.518 1.932Zm-.857-4.634-1.087-1.679-.015.01-.015.01 1.117 1.659Zm-.458 1.71-1.782.907.008.016.008.016 1.766-.939Zm-1.449 13.24-2.094-.561-1.035 3.864 2.094.561 1.035-3.864Zm-.68 1.888 3.282-12.247-3.864-1.036-3.282 12.248 3.864 1.035Zm.832-10.833 2.095.561 1.035-3.864-2.094-.561-1.036 3.864Zm.68-1.888-3.281 12.247 3.863 1.035 3.282-12.247-3.864-1.035Zm2.471-2.82a.596.596 0 0 1-.083.167.776.776 0 0 1-.196.196l-2.234-3.319a3.31 3.31 0 0 0-1.351 1.92l3.864 1.036Zm-.309.383a.991.991 0 0 1-.427.152c-.119.012-.178-.008-.156-.002l1.036-3.864c-.784-.21-1.748-.213-2.627.355l2.174 3.359Zm-.583.15c.023.006-.038-.006-.135-.076a.967.967 0 0 1-.293-.345l3.561-1.822c-.477-.932-1.313-1.41-2.097-1.621l-1.036 3.864Zm-.428-.421a.76.76 0 0 1-.065-.484l3.864 1.036a3.284 3.284 0 0 0-.238-2.374l-3.561 1.822Zm-.065-.484a.659.659 0 0 1 .099-.197.834.834 0 0 1 .229-.217l2.118 3.393c.745-.465 1.209-1.166 1.418-1.943l-3.864-1.036Zm.328-.414a.982.982 0 0 1 .423-.146c.111-.01.164.009.135.001l-1.036 3.864c.766.205 1.718.222 2.596-.326l-2.118-3.393Zm.558-.145c-.029-.008.025.002.117.067.101.07.212.184.293.337l-3.531 1.879c.487.914 1.32 1.376 2.085 1.581l1.036-3.864Zm.427.436a.805.805 0 0 1 .084.297.614.614 0 0 1-.012.198l-3.864-1.036c-.203.758-.166 1.583.228 2.356l3.564-1.815Zm6.531 2.529 1.932.517.517-1.932-1.931-.517-.518 1.932Zm-.795 2.965-1.932-.517-.517 1.931 1.932.518.517-1.932Zm2.287.613 1.932.518.517-1.932-1.932-.518-.517 1.932Zm-.434 1.619-.518 1.931 1.932.518.518-1.932-1.932-.517Zm-2.287-.613.518-1.932-1.932-.518-.517 1.932 1.931.518Zm-2.026 8.786-1.823.823.006.014.006.014 1.811-.851Zm1.977.773 1.931.517.641-2.389-2.471-.126-.101 1.998Zm-.455 1.698.011 2 1.526-.009.394-1.474-1.931-.517Zm-1.59-11.818 1.932.517.518-1.931-1.932-.518-.518 1.932Zm-2.23-.598-1.931-.517-.518 1.932 1.932.517.517-1.932Zm.434-1.618.518-1.932-1.932-.518-.518 1.932 1.932.518Zm2.23.597-.518 1.932 1.932.518.518-1.932-1.932-.518Zm.795-2.966.517-1.931-1.931-.518-.518 1.932 1.932.517Zm.162.044-.795 2.966 3.864 1.035.795-2.966-3.864-1.035Zm.62 5.415 2.286.613 1.035-3.864-2.286-.613-1.035 3.864Zm.872-1.837-.434 1.619 3.864 1.035.434-1.618-3.864-1.036Zm2.016.205-2.287-.613-1.035 3.864 2.286.612 1.036-3.863Zm-4.736.801-2.036 7.596 3.864 1.035 2.035-7.595-3.863-1.036Zm-2.036 7.596c-.191.713-.286 1.636.118 2.531l3.646-1.645a.732.732 0 0 1 .072.283c0 .023-.003-.017.028-.134l-3.864-1.035Zm.13 2.559c.502 1.067 1.493 1.523 2.237 1.723l1.036-3.864c-.097-.026-.076-.035.002.018.09.062.24.196.346.422l-3.621 1.701Zm2.237 1.723c.445.119.953.171 1.449.196l.203-3.995a3.734 3.734 0 0 1-.616-.065l-1.036 3.864Zm-.381-2.319-.455 1.698 3.863 1.035.455-1.698-3.863-1.035Zm1.465.216a4.312 4.312 0 0 1-1.139-.136l-1.035 3.863a8.29 8.29 0 0 0 2.197.273l-.023-4Zm-1.139-.136c-.529-.142-.585-.31-.595-.331l-3.624 1.693c.638 1.365 1.842 2.142 3.184 2.501l1.035-3.863Zm-.595-.331c-.056-.122-.153-.468.053-1.238l-3.864-1.035c-.351 1.312-.404 2.701.187 3.966l3.624-1.693Zm.053-1.238 2.035-7.596-3.863-1.035-2.036 7.596 3.864 1.035Zm.621-10.045-2.23-.598-1.035 3.864 2.23.598 1.035-3.864Zm-.816 1.852.434-1.619-3.864-1.035-.433 1.619 3.863 1.035Zm-2.015-.204 2.229.597 1.036-3.864-2.23-.597-1.035 3.864Zm4.679-.817.795-2.966-3.864-1.035-.795 2.966 3.864 1.035Zm-1.655-1.552 2.094.561 1.036-3.863-2.095-.561-1.035 3.863Zm4.684 13.986-1.756.957.004.006 1.752-.963Zm1.276-8.248-1.509-1.312-.004.005 1.513 1.307Zm2.548-1.719.613 1.904.004-.002-.617-1.902Zm6.11 8.213-.518 1.931 1.932.518.518-1.932-1.932-.517Zm-8.297-2.224.517-1.931-1.981-.531-.481 1.993 1.945.469Zm.267 3.214-1.783.907.005.009.005.01 1.773-.926Zm5.952 1.013 1.596-1.206-1.211-1.602-1.597 1.217 1.212 1.591Zm1.012 1.339 1.337 1.487 1.367-1.228-1.108-1.465-1.596 1.206Zm-4.947-9.564 1.055 1.7.01-.007-1.065-1.693Zm-1.756 2.296-1.854-.749-.846 2.096 2.183.585.517-1.932Zm6.136 1.644-.518 1.932 1.932.517.517-1.931-1.931-.518Zm.042-.159 1.932.518.015-.055.011-.055-1.958-.408Zm-.199-2.698-1.796.88.005.011 1.791-.891Zm-4.01 7.677c-1.194-.32-1.921-.911-2.381-1.747l-3.505 1.926c1.041 1.895 2.724 3.115 4.85 3.685l1.036-3.864Zm-2.377-1.741c-.453-.831-.599-1.884-.213-3.324l-3.864-1.036c-.592 2.213-.479 4.359.564 6.274l3.513-1.914Zm-.213-3.324.103-.385-3.864-1.036-.103.385 3.864 1.036Zm.103-.385c.259-.967.652-1.707 1.143-2.274l-3.027-2.615c-.94 1.088-1.588 2.391-1.98 3.853l3.864 1.036Zm1.138-2.269c.505-.581 1.052-.935 1.652-1.128l-1.226-3.808c-1.348.434-2.499 1.225-3.444 2.311l3.018 2.625Zm1.656-1.13a3.064 3.064 0 0 1 1.8-.057l1.035-3.864a7.07 7.07 0 0 0-4.069.116l1.234 3.805Zm1.8-.057c1.125.301 1.688.822 1.998 1.484l3.622-1.696c-.893-1.909-2.525-3.1-4.585-3.652l-1.035 3.864Zm1.998 1.484c.332.709.449 1.805-.004 3.494l3.864 1.036c.595-2.22.634-4.364-.238-6.226l-3.622 1.696Zm-.004 3.494-.233.872 3.864 1.035.233-.871-3.864-1.036Zm2.216-.542-8.297-2.223-1.035 3.863 8.297 2.223 1.035-3.863Zm-10.759-.761c-.381 1.581-.3 3.156.429 4.59l3.565-1.813c-.213-.421-.31-.988-.105-1.838l-3.889-.939Zm.439 4.609c.751 1.438 1.979 2.389 3.539 2.807l1.035-3.864c-.523-.14-.817-.39-1.028-.794l-3.546 1.851Zm3.539 2.807c1.001.268 2.039.326 3.051.046l-1.067-3.855c-.176.049-.471.073-.949-.055l-1.035 3.864Zm3.051.046a6.891 6.891 0 0 0 2.347-1.175l-2.424-3.182a2.88 2.88 0 0 1-.99.502l1.067 3.855Zm-.46-1.56 1.012 1.339 3.191-2.412-1.012-1.339-3.191 2.412Zm1.27-1.355c-.893.803-1.928 1.078-3.397.684l-1.036 3.864c2.636.706 5.103.228 7.107-1.573l-2.674-2.975Zm-.716-10.365a4.879 4.879 0 0 0-3.959.596l2.13 3.386c.267-.168.486-.201.794-.119l1.035-3.863Zm-3.949.59c-1.201.746-2.016 1.91-2.555 3.246l3.709 1.498c.327-.809.682-1.176.956-1.345l-2.11-3.399Zm-1.218 5.927 6.135 1.644 1.035-3.864-6.135-1.644-1.035 3.864Zm8.584.23.043-.159-3.864-1.035-.042.158 3.863 1.036Zm.069-.269c.282-1.357.254-2.749-.366-3.996l-3.582 1.781c.095.19.199.597.032 1.4l3.916.815Zm-.361-3.985c-.642-1.312-1.766-2.13-3.125-2.493l-1.035 3.863c.393.105.499.248.568.389l3.592-1.759Z"/></g><g opacity=".4"><path fill="#364250" d="m216.273 83.39-2.184.586-2.041-7.618-8.309 2.226 2.041 7.618-2.173.582-4.416-16.48 2.173-.583 1.899 7.086 8.308-2.226-1.898-7.086 2.184-.586 4.416 16.481Zm8.675-2.081c-1.66.445-3.156.263-4.489-.544-1.334-.816-2.246-2.136-2.736-3.963l-.103-.384c-.325-1.215-.385-2.36-.18-3.434.211-1.084.66-2.005 1.347-2.763a5.067 5.067 0 0 1 2.498-1.543c1.592-.427 2.97-.234 4.134.579 1.164.812 2.008 2.195 2.532 4.15l.233.871-8.297 2.224c.354 1.2.967 2.082 1.838 2.65.878.557 1.837.696 2.878.417.74-.198 1.326-.517 1.758-.956.432-.44.774-.96 1.026-1.56l1.546.653c-.604 1.852-1.932 3.053-3.985 3.603Zm-3.202-10.91a2.886 2.886 0 0 0-1.88 1.498c-.409.765-.533 1.72-.372 2.866l6.135-1.644-.042-.158c-.346-1.048-.853-1.794-1.522-2.237-.671-.452-1.444-.56-2.319-.325Zm12.627 8.142-2.094.56-4.659-17.386 2.095-.561 4.658 17.387Zm5.637-1.51-2.094.56-4.659-17.386 2.095-.561 4.658 17.386Zm1.136-6.99c-.321-1.2-.376-2.342-.165-3.425.218-1.086.677-2.002 1.375-2.747.705-.747 1.598-1.265 2.677-1.554 1.668-.447 3.169-.23 4.505.649 1.343.877 2.272 2.275 2.785 4.191l.04.147c.319 1.193.376 2.326.171 3.4-.2 1.065-.656 1.975-1.367 2.732-.704.755-1.607 1.28-2.708 1.575-1.66.445-3.162.229-4.505-.649-1.336-.88-2.259-2.27-2.768-4.172l-.04-.147Zm2.172-.315c.364 1.358.97 2.365 1.817 3.02.854.652 1.809.837 2.866.554 1.064-.285 1.798-.927 2.202-1.925.402-1.005.401-2.259-.001-3.76-.36-1.344-.972-2.344-1.836-3.003-.858-.667-1.816-.86-2.872-.577-1.034.277-1.757.912-2.171 1.904-.413.993-.415 2.255-.005 3.787Zm14.372-2.42-1.89.507-3.317-11.79 2.196-.588 3.011 11.872Zm-1.152 4.168c-.091-.34-.065-.65.078-.931.148-.29.426-.49.834-.6.407-.11.748-.075 1.022.102.272.17.454.425.545.764.091.34.061.651-.09.934-.153.276-.433.468-.84.577-.408.11-.746.083-1.016-.08-.265-.171-.442-.427-.533-.766Z"/><path fill="#fff" d="m216.273 83.39.518 1.932 1.932-.517-.518-1.932-1.932.517Zm-2.184.586-1.932.517.518 1.932 1.931-.517-.517-1.932Zm-2.041-7.618 1.931-.518-.517-1.932-1.932.518.518 1.932Zm-8.309 2.226-.518-1.932-1.931.518.517 1.932 1.932-.518Zm2.041 7.618.518 1.932 1.932-.518-.518-1.931-1.932.517Zm-2.173.582-1.932.518.518 1.932 1.932-.518-.518-1.931Zm-4.416-16.48-.518-1.933-1.932.518.518 1.932 1.932-.518Zm2.173-.583 1.932-.518-.518-1.931-1.931.517.517 1.932Zm1.899 7.086-1.932.518.518 1.931 1.932-.517-.518-1.932Zm8.308-2.226.518 1.932 1.932-.518-.518-1.932-1.932.518Zm-1.898-7.086-.518-1.932-1.932.518.518 1.931 1.932-.517Zm2.184-.586 1.932-.517-.517-1.932-1.932.518.517 1.931Zm3.899 14.55-2.185.585 1.035 3.864 2.185-.586-1.035-3.863Zm.265 2-2.042-7.619-3.863 1.035 2.041 7.618 3.864-1.035Zm-4.491-9.033-8.309 2.226 1.036 3.864 8.308-2.226-1.035-3.864Zm-9.723 4.676 2.041 7.618 3.864-1.035-2.041-7.618-3.864 1.035Zm3.456 5.168-2.174.583 1.036 3.863 2.173-.582-1.035-3.864Zm.276 1.997-4.416-16.481-3.864 1.035 4.416 16.481 3.864-1.035Zm-5.83-14.032 2.173-.582-1.035-3.864-2.174.582 1.036 3.864Zm-.277-1.996 1.899 7.086 3.864-1.036-1.899-7.086-3.864 1.036Zm4.349 8.5 8.308-2.226-1.035-3.864-8.309 2.226 1.036 3.864Zm9.722-4.676-1.898-7.086-3.864 1.035 1.899 7.086 3.863-1.035Zm-3.313-4.636 2.185-.586-1.035-3.863-2.185.585 1.035 3.864Zm-.264-2 4.416 16.481 3.863-1.035-4.416-16.481-3.863 1.035Zm10.533 13.338-1.042 1.706.005.004 1.037-1.71Zm-3.019-7.781-1.963-.382-.001.006 1.964.376Zm1.347-2.763 1.482 1.342.003-.003-1.485-1.339Zm9.397 4.057.518 1.932 1.932-.517-.518-1.932-1.932.517Zm-8.297 2.224-.518-1.932-1.98.53.58 1.968 1.918-.566Zm1.838 2.65-1.09 1.676.009.006.009.005 1.072-1.688Zm5.662-2.1.778-1.842-1.849-.782-.775 1.853 1.846.771Zm1.546.653 1.901.62.57-1.746-1.693-.716-.778 1.843Zm-9.067-5.808 1.764.944.005-.01-1.769-.934Zm-.372 2.866-1.98.279.315 2.238 2.183-.585-.518-1.932Zm6.135-1.644.518 1.932 1.932-.518-.518-1.931-1.932.517Zm-.042-.158 1.932-.518-.015-.055-.018-.054-1.899.627Zm-1.522-2.237-1.116 1.66.011.006 1.105-1.666Zm.366 8.653c-1.194.32-2.12.172-2.935-.323l-2.074 3.421c1.85 1.12 3.917 1.336 6.044.766l-1.035-3.864Zm-2.929-.32c-.809-.493-1.461-1.332-1.847-2.772l-3.864 1.035c.593 2.212 1.765 4.015 3.626 5.151l2.085-3.413Zm-1.847-2.772-.103-.385-3.864 1.035.103.385 3.864-1.035Zm-.103-.385c-.259-.967-.288-1.804-.148-2.54l-3.928-.752c-.27 1.412-.18 2.864.212 4.327l3.864-1.035Zm-.149-2.534c.147-.755.444-1.336.866-1.803l-2.965-2.684c-.951 1.05-1.552 2.31-1.827 3.723l3.926.764Zm.869-1.806c.441-.489.94-.792 1.53-.95l-1.035-3.864a7.073 7.073 0 0 0-3.466 2.136l2.971 2.678Zm1.53-.95c1.125-.301 1.873-.132 2.473.287l2.289-3.28c-1.729-1.207-3.737-1.423-5.797-.87l1.035 3.863Zm2.473.287c.641.448 1.291 1.338 1.744 3.028l3.864-1.036c-.595-2.219-1.633-4.096-3.319-5.272l-2.289 3.28Zm1.744 3.028.233.871 3.864-1.035-.233-.872-3.864 1.036Zm1.648-1.578-8.298 2.223 1.036 3.864 8.297-2.224-1.035-3.863Zm-9.698 4.72c.46 1.56 1.318 2.884 2.666 3.76l2.181-3.352c-.395-.257-.763-.7-1.011-1.539l-3.836 1.131Zm2.684 3.772c1.369.87 2.909 1.08 4.468.662l-1.035-3.864c-.523.14-.903.071-1.288-.174l-2.145 3.376Zm4.468.662c1.001-.268 1.93-.737 2.666-1.485l-2.852-2.806c-.128.13-.371.3-.849.427l1.035 3.864Zm2.666-1.485a6.888 6.888 0 0 0 1.445-2.192l-3.691-1.543c-.158.38-.362.682-.606.93l2.852 2.805Zm-1.179-1.122 1.546.654 1.557-3.685-1.546-.653-1.557 3.684Zm.423-1.808c-.372 1.142-1.131 1.897-2.6 2.29l1.035 3.865c2.635-.707 4.533-2.354 5.368-4.916l-3.803-1.24Zm-5.803-8.62a4.88 4.88 0 0 0-3.13 2.498l3.537 1.867a.896.896 0 0 1 .628-.5l-1.035-3.864Zm-3.125 2.487c-.667 1.246-.791 2.662-.589 4.089l3.96-.558c-.121-.864.004-1.36.155-1.643l-3.526-1.888Zm1.909 5.742 6.135-1.644-1.036-3.864-6.135 1.644 1.036 3.864Zm7.549-4.093-.042-.159-3.864 1.035.042.159 3.864-1.035Zm-.075-.268c-.434-1.316-1.154-2.507-2.315-3.277l-2.211 3.333c.177.117.47.417.727 1.197l3.799-1.253Zm-2.305-3.27c-1.212-.815-2.595-.961-3.953-.597l1.035 3.864c.393-.106.556-.035.686.052l2.232-3.32Zm9.192 9.477.518 1.931 1.932-.517-.518-1.932-1.932.518Zm-2.094.56-1.932.518.518 1.932 1.932-.517-.518-1.932Zm-4.659-17.386-.517-1.932-1.932.518.518 1.932 1.931-.518Zm2.095-.561 1.931-.518-.517-1.931-1.932.517.518 1.932Zm4.141 15.455-2.094.56 1.035 3.865 2.094-.562-1.035-3.863Zm.355 1.975-4.659-17.387-3.863 1.036 4.658 17.386 3.864-1.035Zm-6.073-14.937 2.094-.561-1.035-3.864-2.094.561 1.035 3.864Zm-.355-1.975 4.658 17.386 3.864-1.035-4.659-17.387-3.863 1.036ZM240.01 77.03l.518 1.932 1.932-.518-.518-1.931-1.932.517Zm-2.094.561-1.932.518.518 1.932 1.932-.518-.518-1.932Zm-4.659-17.386-.517-1.932-1.932.517.518 1.932 1.931-.517Zm2.095-.561 1.931-.518-.517-1.932-1.932.518.518 1.932Zm4.141 15.454-2.094.561 1.035 3.864 2.094-.56-1.035-3.865Zm.355 1.976-4.659-17.387-3.863 1.035 4.658 17.387 3.864-1.035Zm-6.073-14.938 2.094-.56-1.035-3.864-2.094.56 1.035 3.864Zm-.355-1.975 4.658 17.387 3.864-1.035-4.659-17.387-3.863 1.035Zm7.561 6.455-1.961-.395-.002.012 1.963.383Zm1.375-2.747-1.454-1.373-.006.006 1.46 1.367Zm7.182-.905-1.1 1.67.006.004 1.094-1.674Zm2.996 7.738-1.965-.376-.001.007 1.966.37Zm-1.367 2.732-1.458-1.37-.005.006 1.463 1.364Zm-7.213.926-1.1 1.67.006.004 1.094-1.674Zm1.181-1.614-1.224 1.582.009.007 1.215-1.59Zm5.068-1.37 1.854.75.003-.008-1.857-.743Zm-1.837-6.764-1.228 1.579.008.006.008.006 1.212-1.59Zm-5.288 4.911c-.253-.943-.28-1.775-.134-2.525l-3.926-.765c-.277 1.418-.194 2.87.197 4.326l3.863-1.036Zm-.137-2.513c.152-.753.452-1.322.874-1.773l-2.919-2.735c-.973 1.04-1.59 2.3-1.876 3.719l3.921.79Zm.869-1.767c.429-.455.987-.794 1.741-.996l-1.036-3.864c-1.404.376-2.631 1.073-3.613 2.113l2.908 2.747Zm1.741-.996c1.165-.313 2.07-.151 2.887.387l2.2-3.34c-1.854-1.221-3.953-1.492-6.123-.911l1.036 3.864Zm2.893.391c.84.549 1.53 1.476 1.947 3.035l3.864-1.035c-.609-2.275-1.776-4.142-3.623-5.349l-2.188 3.35Zm1.947 3.035.04.147 3.864-1.035-.04-.147-3.864 1.035Zm.04.147c.251.939.28 1.765.138 2.506l3.929.752c.269-1.407.184-2.847-.203-4.293l-3.864 1.035Zm.137 2.513c-.133.706-.42 1.265-.859 1.732l2.915 2.739c.984-1.047 1.608-2.31 1.875-3.732l-3.931-.74Zm-.864 1.737c-.422.453-.984.799-1.763 1.007l1.035 3.864c1.425-.382 2.668-1.086 3.654-2.143l-2.926-2.728Zm-1.763 1.007c-1.155.31-2.063.151-2.893-.391l-2.188 3.348c1.856 1.213 3.951 1.487 6.116.907l-1.035-3.864Zm-2.887-.387c-.838-.552-1.523-1.477-1.936-3.02l-3.864 1.036c.606 2.26 1.766 4.117 3.6 5.324l2.2-3.34Zm-1.936-3.02-.04-.147-3.863 1.036.039.147 3.864-1.035Zm-1.731.573c.441 1.649 1.236 3.089 2.524 4.085l2.447-3.165c-.406-.313-.821-.886-1.108-1.955l-3.863 1.035Zm2.533 4.092c1.357 1.037 2.955 1.337 4.598.897l-1.035-3.864c-.469.126-.783.057-1.134-.212l-2.429 3.179Zm4.598.897c1.654-.443 2.893-1.511 3.539-3.106l-3.708-1.501c-.162.4-.391.616-.866.743l1.035 3.864Zm3.542-3.114c.618-1.548.541-3.278.074-5.021l-3.864 1.035c.338 1.26.261 2.038.075 2.501l3.715 1.485Zm.074-5.021c-.442-1.65-1.251-3.082-2.556-4.075l-2.424 3.181c.424.323.838.892 1.116 1.93l3.864-1.036Zm-2.54-4.063c-1.356-1.055-2.96-1.375-4.618-.93l1.036 3.863c.455-.122.766-.057 1.126.224l2.456-3.157Zm-4.618-.93c-1.636.438-2.848 1.504-3.499 3.066l3.692 1.539c.176-.423.411-.626.843-.742l-1.036-3.864Zm-3.499 3.066c-.647 1.554-.563 3.31-.09 5.073l3.863-1.035c-.348-1.3-.261-2.068-.081-2.5l-3.692-1.538Zm16.213 2.137.518 1.932 1.906-.511-.486-1.913-1.938.492Zm-1.89.506-1.926.542.535 1.901 1.908-.51-.517-1.933Zm-3.317-11.79-.518-1.931-1.956.524.549 1.95 1.925-.542Zm2.196-.588 1.938-.491-.498-1.965-1.958.525.518 1.931Zm1.937 15.108-1.781-.911-.001.003 1.782.908Zm1.856-.498-1.086 1.68.013.008.014.009 1.059-1.697Zm.455 1.698 1.749.97.009-.015.008-.015-1.766-.94Zm-1.856.498-1.09 1.677.029.019.031.018 1.03-1.715Zm.101-6.866-1.89.506 1.035 3.864 1.891-.506-1.036-3.864Zm.553 1.897-3.317-11.79-3.85 1.084 3.316 11.789 3.851-1.083ZM253 57.956l2.196-.589-1.035-3.863-2.196.588L253 57.956Zm-.26-2.029 3.011 11.871 3.877-.983-3.011-11.871-3.877.983Zm5.729 15.029a.572.572 0 0 1 .013.197.824.824 0 0 1-.084.297l-3.564-1.815c-.394.773-.431 1.598-.228 2.356l3.863-1.035Zm-.073.497a.972.972 0 0 1-.293.346c-.097.07-.158.082-.135.076l-1.036-3.864c-.784.21-1.62.689-2.097 1.62l3.561 1.822Zm-.428.422c.022-.006-.037.014-.156.002a.975.975 0 0 1-.426-.153l2.173-3.358c-.879-.569-1.843-.565-2.627-.355l1.036 3.864Zm-.555-.133a.819.819 0 0 1-.23-.218.618.618 0 0 1-.098-.197l3.863-1.035a3.234 3.234 0 0 0-1.417-1.943l-2.118 3.393Zm-.328-.415a.791.791 0 0 1 .077-.523l3.531 1.879a3.235 3.235 0 0 0 .255-2.391l-3.863 1.035Zm.093-.553a.968.968 0 0 1 .292-.329c.087-.059.135-.066.099-.057l1.036 3.864c.747-.2 1.576-.645 2.071-1.54l-3.498-1.938Zm.391-.386c-.035.01.01-.008.114 0a.973.973 0 0 1 .418.138l-2.06 3.429c.876.527 1.816.497 2.564.297l-1.036-3.864Zm.591.175a.79.79 0 0 1 .221.215.576.576 0 0 1 .088.178l-3.863 1.035c.203.758.648 1.454 1.375 1.927l2.179-3.355Z"/></g><g opacity=".4"><path fill="#364250" d="M256.492 351.632c-.226-.902-.314-1.638-.265-2.21.049-.571.279-1.251.69-2.041l1.074-1.925c.442-.887.552-1.742.332-2.564-.212-.793-.586-1.356-1.12-1.69-.536-.341-1.201-.406-1.993-.194-.77.207-1.334.576-1.693 1.109-.358.533-.446 1.143-.262 1.829l-2.094.562c-.312-1.227-.142-2.328.51-3.304.658-.985 1.674-1.661 3.048-2.029 1.426-.383 2.638-.295 3.637.263 1.004.547 1.685 1.489 2.043 2.825.354 1.32.091 2.786-.788 4.396l-.906 1.553c-.387.759-.427 1.712-.119 2.859l-2.094.561Zm.87 3.613c-.091-.34-.065-.65.079-.931.148-.29.426-.49.834-.599.407-.11.748-.076 1.022.102.272.169.453.424.544.764.091.339.062.651-.089.934-.153.275-.433.467-.84.577-.408.109-.747.082-1.016-.08-.265-.172-.443-.427-.534-.767Z"/><path fill="#fff" d="m256.492 351.632-1.941.486.494 1.973 1.964-.527-.517-1.932Zm.425-4.251-1.746-.974-.014.025-.013.025 1.773.924Zm1.074-1.925 1.747.974.022-.041.021-.041-1.79-.892Zm-.788-4.254-1.074 1.687.007.005.007.004 1.06-1.696Zm-3.948 2.744.518 1.932 1.932-.517-.518-1.932-1.932.517Zm-2.094.562-1.938.493.5 1.962 1.956-.524-.518-1.931Zm.51-3.304 1.663 1.112v-.001l-1.663-1.111Zm6.685-1.766-.975 1.746.008.005.009.004.958-1.755Zm1.255 7.221 1.728 1.008.014-.024.014-.026-1.756-.958Zm-.906 1.553-1.727-1.007-.029.048-.025.051 1.781.908Zm-.119 2.859.517 1.932 1.932-.517-.518-1.932-1.931.517Zm-1.145 3.243-1.781-.911-.002.004 1.783.907Zm1.856-.497-1.087 1.679.014.009.014.008 1.059-1.696Zm.455 1.698 1.749.969.008-.015.008-.015-1.765-.939Zm-1.856.497-1.09 1.677.029.019.03.018 1.031-1.714Zm.536-4.865c-.201-.803-.235-1.296-.212-1.553l-3.986-.343c-.076.885.067 1.866.317 2.867l3.881-.971Zm-.212-1.553c.017-.204.122-.618.471-1.289l-3.547-1.848c-.473.908-.829 1.856-.91 2.794l3.986.343Zm.444-1.239 1.074-1.925-3.494-1.948-1.073 1.925 3.493 1.948Zm1.117-2.007c.622-1.248.841-2.604.474-3.974l-3.864 1.035c.074.276.072.629-.19 1.155l3.58 1.784Zm.474-3.974c-.303-1.129-.911-2.192-1.992-2.868l-2.12 3.392a.258.258 0 0 1 .074.082c.045.068.112.199.174.429l3.864-1.035Zm-1.978-2.859c-1.137-.724-2.417-.751-3.585-.438l1.035 3.863c.216-.058.336-.056.382-.052.022.002.029.005.027.005l-.004-.002-.003-.002 2.148-3.374Zm-3.585-.438c-1.119.3-2.145.9-2.834 1.923l3.318 2.234c.029-.043.132-.181.551-.294l-1.035-3.863ZM251.858 341c-.718 1.068-.85 2.286-.535 3.464l3.864-1.035a.677.677 0 0 1-.024-.171v-.001l-.001.001.003-.005.011-.019-3.318-2.234Zm.88 1.015-2.094.561 1.035 3.863 2.094-.561-1.035-3.863Zm.361 1.999c-.184-.725-.075-1.234.235-1.698l-3.325-2.224c-.995 1.488-1.226 3.181-.786 4.909l3.876-.987Zm.235-1.699c.337-.504.899-.94 1.902-1.208l-1.035-3.864c-1.744.467-3.213 1.384-4.193 2.85l3.326 2.222Zm1.902-1.208c1.076-.289 1.722-.159 2.145.077l1.95-3.493c-1.575-.879-3.353-.924-5.13-.448l1.035 3.864Zm2.162.086c.425.232.821.662 1.069 1.587l3.864-1.035c-.468-1.745-1.435-3.2-3.017-4.063l-1.916 3.511Zm1.069 1.587c.181.675.108 1.604-.611 2.921l3.511 1.916c1.039-1.903 1.491-3.905.964-5.872l-3.864 1.035Zm-.583 2.871-.906 1.554 3.455 2.015.906-1.553-3.455-2.016Zm-.96 1.653c-.687 1.346-.655 2.849-.27 4.285l3.863-1.035c-.229-.858-.117-1.262-.03-1.433l-3.563-1.817Zm1.144 1.835-2.094.562 1.035 3.863 2.094-.561-1.035-3.864Zm1.226 5.588a.603.603 0 0 1 .013.198.83.83 0 0 1-.084.297l-3.565-1.815c-.393.772-.43 1.598-.227 2.356l3.863-1.036Zm-.073.498a.977.977 0 0 1-.293.345c-.097.07-.158.082-.136.076l-1.035-3.863c-.784.21-1.62.688-2.097 1.62l3.561 1.822Zm-.429.421c.023-.006-.036.014-.155.002a.991.991 0 0 1-.427-.152l2.174-3.358c-.879-.569-1.843-.565-2.627-.355l1.035 3.863Zm-.554-.133a.823.823 0 0 1-.23-.217.615.615 0 0 1-.098-.198l3.863-1.035a3.235 3.235 0 0 0-1.417-1.943l-2.118 3.393Zm-.328-.415a.636.636 0 0 1-.014-.22.827.827 0 0 1 .09-.303l3.531 1.879a3.23 3.23 0 0 0 .256-2.391l-3.863 1.035Zm.093-.553a.967.967 0 0 1 .292-.328c.087-.06.134-.067.099-.057l1.035 3.863c.747-.2 1.576-.644 2.072-1.539l-3.498-1.939Zm.391-.385c-.035.009.01-.008.114 0a.977.977 0 0 1 .418.138l-2.061 3.428c.877.527 1.817.498 2.564.297l-1.035-3.863Zm.591.175c.082.053.16.127.221.215a.59.59 0 0 1 .088.177l-3.863 1.036c.203.757.648 1.454 1.375 1.926l2.179-3.354Z"/></g></g><g filter="url(#k)" opacity=".64" style="mix-blend-mode:screen"><path fill="#fff" d="M39 190c0-29.271 23.729-53 53-53h99.996c24.145 0 45.238 16.319 51.302 39.689l47.474 182.976c12.613 48.612-43.163 85.871-83.241 55.605L60.061 303.904A53 53 0 0 1 39 261.609V190Z"/></g><g filter="url(#l)"><path fill="#fff" d="m137.606 237.827-35.273 7.84 7.84-35.274a66.378 66.378 0 0 1-7.84-31.393c0-36.82 29.847-66.667 66.667-66.667S235.666 142.18 235.666 179 205.82 245.667 169 245.667a66.385 66.385 0 0 1-31.394-7.84Zm1.934-14.087 4.353 2.333a53.02 53.02 0 0 0 25.107 6.26A53.334 53.334 0 1 0 115.666 179c0 8.893 2.167 17.453 6.267 25.107l2.327 4.353-4.367 19.647 19.647-4.367ZM135.666 179H149a20 20 0 0 0 40 0h13.333a33.332 33.332 0 1 1-66.667 0Z"/></g><g opacity=".24"><path fill="#364250" d="M24.593 216.259c-.092 1.815-.667 3.251-1.724 4.307-1.05 1.048-2.503 1.633-4.359 1.756-2.011.133-3.672-.482-4.984-1.844-1.303-1.362-2.035-3.252-2.194-5.668l-.109-1.637c-.104-1.583.085-2.993.567-4.23.49-1.238 1.232-2.211 2.226-2.919.994-.716 2.173-1.118 3.538-1.208 1.808-.12 3.292.291 4.45 1.232 1.158.934 1.885 2.287 2.182 4.061l-2.256.149c-.285-1.344-.775-2.298-1.47-2.863-.687-.565-1.615-.809-2.784-.732-1.435.095-2.526.699-3.275 1.814-.74 1.113-1.046 2.649-.917 4.605l.109 1.649c.122 1.847.605 3.291 1.449 4.332.844 1.04 1.96 1.515 3.347 1.423 1.247-.082 2.184-.426 2.81-1.031.632-.613 1.011-1.629 1.137-3.047l2.257-.149Zm10.904 4.706c-.142-.241-.272-.679-.392-1.313-.937 1.111-2.103 1.713-3.498 1.805-1.248.082-2.296-.201-3.145-.849-.842-.657-1.299-1.527-1.37-2.611-.087-1.317.344-2.372 1.294-3.162.957-.8 2.344-1.259 4.16-1.379l2.105-.139-.066-.994c-.05-.756-.315-1.342-.797-1.756-.482-.422-1.163-.604-2.044-.546-.772.051-1.406.288-1.902.713-.497.424-.727.913-.69 1.466l-2.175.144c-.042-.632.14-1.254.546-1.868.413-.623.99-1.131 1.731-1.524.75-.394 1.584-.621 2.503-.682 1.458-.096 2.625.195 3.5.873.873.67 1.368 1.644 1.484 2.92l.385 5.823c.076 1.162.285 2.076.627 2.742l.012.187-2.268.15Zm-3.699-1.411a3.812 3.812 0 0 0 1.895-.654c.585-.391.995-.876 1.23-1.455l-.17-2.596-1.696.112c-2.65.175-3.925 1.038-3.822 2.589.044.678.306 1.193.783 1.546.477.352 1.07.504 1.78.458Zm10.125-11.72.175 1.585c.886-1.28 2.109-1.971 3.668-2.074 2.674-.177 4.122 1.243 4.345 4.258l.552 8.361-2.163.142-.553-8.372c-.068-.911-.323-1.572-.765-1.981-.434-.41-1.084-.586-1.95-.529-.701.046-1.305.274-1.81.683a3.822 3.822 0 0 0-1.142 1.555l.595 9.016-2.163.143-.836-12.652 2.047-.135Zm21.873 8.08 2.32-9.678 2.315-.153-4.122 14.941c-.648 2.156-1.83 3.292-3.545 3.405l-.411-.008-.817-.099-.116-1.754.588.008c.732-.048 1.292-.234 1.678-.557.393-.323.697-.888.91-1.692l.394-1.318-5.34-12.214 2.362-.156 3.784 9.275Zm6.226-3.7c-.081-1.239.087-2.37.505-3.392.425-1.023 1.053-1.831 1.883-2.426.837-.596 1.814-.931 2.928-1.004 1.723-.114 3.154.391 4.293 1.513 1.147 1.122 1.785 2.674 1.916 4.654l.01.152c.082 1.231-.083 2.354-.494 3.368-.403 1.005-1.027 1.81-1.872 2.413-.837.604-1.825.943-2.963 1.018-1.715.113-3.146-.391-4.292-1.513-1.14-1.123-1.774-2.666-1.904-4.631l-.01-.152Zm2.192.114c.093 1.403.491 2.508 1.194 3.315.711.806 1.612 1.174 2.704 1.101 1.099-.072 1.944-.559 2.534-1.459.59-.908.834-2.137.731-3.689-.092-1.387-.497-2.488-1.216-3.302-.712-.822-1.614-1.197-2.705-1.125-1.068.071-1.902.553-2.5 1.445-.599.893-.846 2.131-.742 3.714Zm20.193 3.622c-.776 1.046-1.98 1.622-3.609 1.73-1.348.089-2.403-.233-3.164-.965-.753-.741-1.185-1.88-1.294-3.415l-.544-8.232 2.164-.143.54 8.174c.126 1.918.969 2.825 2.528 2.722 1.653-.109 2.711-.798 3.175-2.065l-.607-9.203 2.163-.143.836 12.652-2.058.136-.13-1.248Z"/><path fill="#fff" d="m24.593 216.259 1.997.101.113-2.244-2.242.148.132 1.995Zm-1.724 4.307 1.412 1.416.001-.001-1.413-1.415Zm-9.343-.088-1.445 1.383.005.005 1.44-1.388Zm-1.736-11.535-1.86-.736-.004.01 1.864.726Zm2.226-2.919 1.16 1.63.009-.007-1.169-1.623Zm7.988.024-1.261 1.553.006.004 1.255-1.557Zm2.182 4.061.132 1.995 2.206-.145-.365-2.181-1.973.331Zm-2.256.149-1.957.414.359 1.696 1.73-.115-.132-1.995Zm-1.47-2.863-1.27 1.545.01.007 1.26-1.552Zm-6.059 1.082-1.66-1.116-.005.008 1.665 1.108Zm6.797 10.978 1.39 1.438.002-.002-1.392-1.436Zm1.138-3.047-.132-1.995-1.71.113-.15 1.706 1.992.176Zm.26-.249c-.073 1.431-.506 2.358-1.14 2.992l2.826 2.83c1.48-1.479 2.197-3.423 2.308-5.621l-3.995-.201Zm-1.14 2.991c-.627.626-1.579 1.077-3.078 1.176l.264 3.992c2.212-.147 4.166-.866 5.64-2.336l-2.826-2.832Zm-3.078 1.176c-1.467.097-2.539-.329-3.411-1.235l-2.881 2.775c1.75 1.817 4 2.62 6.556 2.452l-.264-3.992Zm-3.407-1.23c-.895-.936-1.506-2.334-1.644-4.418l-3.991.264c.181 2.749 1.034 5.13 2.745 6.919l2.89-2.765Zm-1.644-4.418-.108-1.637-3.991.264.108 1.637 3.991-.264Zm-.108-1.637c-.089-1.346.077-2.456.434-3.372l-3.727-1.452c-.607 1.558-.818 3.269-.698 5.088l3.991-.264Zm.43-3.363c.362-.912.876-1.561 1.527-2.024l-2.32-3.26c-1.337.952-2.308 2.249-2.926 3.813l3.72 1.471Zm1.536-2.031c.655-.472 1.465-.767 2.5-.836l-.263-3.991c-1.693.112-3.242.622-4.574 1.581l2.337 3.246Zm2.5-.836c1.42-.093 2.371.232 3.058.79l2.522-3.105c-1.63-1.325-3.645-1.821-5.843-1.676l.264 3.991Zm3.064.794c.7.565 1.23 1.438 1.465 2.834l3.945-.661c-.36-2.15-1.285-3.984-2.9-5.286l-2.51 3.113Zm3.306.508-2.257.149.263 3.991 2.257-.149-.263-3.991Zm-.169 1.731c-.33-1.565-.968-3.029-2.164-4.001l-2.523 3.104c.194.158.536.602.774 1.725l3.913-.828Zm-2.155-3.993c-1.192-.981-2.675-1.283-4.187-1.184l.264 3.992c.826-.055 1.2.131 1.382.281l2.541-3.089Zm-4.187-1.184c-2.002.133-3.681 1.025-4.803 2.694l3.32 2.231c.376-.559.88-.876 1.747-.933l-.264-3.992Zm-4.808 2.702c-1.074 1.615-1.393 3.646-1.248 5.845l3.992-.264c-.114-1.714.18-2.753.587-3.366l-3.331-2.215Zm-1.248 5.845.11 1.649 3.99-.264-.108-1.649-3.992.264Zm.11 1.649c.138 2.106.704 3.996 1.89 5.46l3.107-2.52c-.5-.617-.901-1.615-1.006-3.204l-3.992.264Zm1.89 5.46c1.271 1.567 3.027 2.291 5.033 2.159l-.264-3.992c-.769.051-1.245-.173-1.662-.687l-3.107 2.52Zm5.033 2.159c1.517-.101 2.98-.538 4.068-1.589l-2.781-2.876c-.164.158-.574.409-1.55.473l.263 3.992Zm4.07-1.591c1.134-1.1 1.593-2.686 1.737-4.306l-3.984-.353c-.108 1.215-.407 1.66-.538 1.787l2.784 2.872Zm-.123-2.487 2.256-.149-.263-3.991-2.257.149.264 3.991Zm13.029 2.561-1.726 1.011.624 1.066 1.233-.081-.131-1.996Zm-.392-1.313 1.965-.372-.784-4.133-2.71 3.216 1.529 1.289Zm-6.643.956-1.23 1.577.008.006.008.006 1.214-1.589Zm-.076-5.773 1.28 1.537.002-.002-1.282-1.535Zm6.265-1.518.132 1.995 1.995-.131-.131-1.996-1.996.132Zm-.863-2.75-1.318 1.504.007.006.007.006 1.304-1.516Zm-4.637 1.633.132 1.996 1.996-.132-.132-1.996-1.996.132Zm-2.174.144-1.996.132.132 1.995 1.995-.132-.131-1.995Zm.546-1.868-1.667-1.106-.002.003 1.669 1.103Zm1.731-1.524-.93-1.77-.008.003.938 1.767Zm6.002.191-1.225 1.58.008.007 1.217-1.587Zm1.485 2.92 1.996-.132-.002-.024-.002-.024-1.992.18Zm1.012 8.565 1.995-.132-.027-.412-.188-.368-1.78.912Zm.012.187.132 1.996 1.996-.132-.132-1.995-1.996.131Zm-2.841-3.37 1.852.753.174-.426-.03-.459-1.996.132Zm-.172-2.596 1.996-.132-.132-1.996-1.996.132.132 1.996Zm2.47 5.106c.045.076.032.078-.013-.071a6.292 6.292 0 0 1-.14-.604l-3.93.745c.122.641.3 1.384.632 1.951l3.452-2.021Zm-3.646-1.592c-.602.714-1.272 1.044-2.101 1.098l.263 3.992c1.962-.13 3.624-1.003 4.896-2.512l-3.058-2.578Zm-2.101 1.098c-.851.057-1.399-.137-1.8-.443l-2.427 3.179c1.298.991 2.847 1.364 4.49 1.256l-.263-3.992Zm-1.783-.43c-.384-.3-.57-.64-.605-1.166l-3.991.264c.108 1.641.836 3.041 2.136 4.056l2.46-3.154Zm-.605-1.166c-.048-.729.159-1.144.579-1.493l-2.56-3.075c-1.48 1.233-2.136 2.926-2.01 4.832l3.991-.264Zm.58-1.495c.514-.429 1.431-.814 3.011-.919l-.264-3.991c-2.052.136-3.91.67-5.31 1.839l2.564 3.071Zm3.011-.919 2.105-.139-.264-3.991-2.105.139.264 3.991Zm3.969-2.266-.066-.994-3.991.264.065.994 3.992-.264Zm-.066-.994c-.078-1.18-.523-2.309-1.488-3.14l-2.61 3.032c.018.015.03.029.045.06.017.039.05.132.062.312l3.991-.264Zm-1.475-3.128c-1.012-.887-2.288-1.118-3.494-1.038l.264 3.991c.275-.018.44.007.524.03.074.02.083.036.07.025l2.636-3.008Zm-3.494-1.038c-1.12.074-2.188.435-3.07 1.188l2.599 3.041c.111-.095.311-.21.735-.238l-.264-3.991Zm-3.07 1.188c-.88.752-1.472 1.819-1.386 3.119l3.991-.264a.459.459 0 0 1-.04.202c-.029.06-.043.05.034-.016l-2.599-3.041Zm.478.992-2.175.143.263 3.991 2.175-.143-.263-3.991Zm-.048 2.007c-.008-.127.013-.323.22-.634l-3.338-2.205c-.606.917-.948 1.966-.873 3.103l3.991-.264Zm.217-.63c.207-.312.518-.606 1.003-.863l-1.876-3.534c-.998.53-1.84 1.252-2.46 2.185l3.333 2.212Zm.996-.86c.48-.252 1.039-.412 1.704-.456l-.263-3.992c-1.174.078-2.285.372-3.303.908l1.862 3.54Zm1.704-.456c1.13-.075 1.763.164 2.142.457l2.45-3.161c-1.37-1.063-3.069-1.406-4.855-1.288l.263 3.992Zm2.15.464c.357.274.636.694.71 1.513l3.984-.36c-.157-1.734-.868-3.26-2.26-4.327l-2.434 3.174Zm.706 1.465.385 5.823 3.991-.263-.384-5.824-3.992.264Zm.385 5.823c.086 1.299.328 2.516.843 3.522l3.56-1.824c-.168-.327-.344-.937-.412-1.961l-3.991.263Zm.627 2.742.013.187 3.99-.263-.011-.188-3.992.264Zm1.876-1.94-2.268.15.264 3.991 2.268-.15-.264-3.991Zm-5.703 2.729a5.82 5.82 0 0 0 2.874-.986l-2.223-3.326c-.304.203-.6.3-.915.321l.264 3.991Zm2.874-.986c.874-.585 1.567-1.37 1.972-2.365l-3.705-1.507c-.066.164-.194.349-.49.546l2.223 3.326Zm2.115-3.25-.171-2.596-3.991.263.171 2.596 3.991-.263Zm-2.299-4.46-1.695.112.264 3.991 1.695-.112-.264-3.991Zm-1.695.112c-1.455.096-2.86.391-3.933 1.118-1.233.836-1.85 2.124-1.753 3.599l3.991-.264c-.006-.097.013-.086-.015-.029-.028.058-.051.054.02.006.2-.136.758-.36 1.953-.439l-.263-3.991Zm-5.686 4.717c.077 1.17.568 2.268 1.592 3.023l2.374-3.219a.212.212 0 0 1 .043.055c.005.009.003.008-.002-.009a.638.638 0 0 1-.016-.114l-3.991.264Zm1.592 3.023c.93.686 2.016.916 3.099.844l-.264-3.991c-.335.022-.436-.053-.46-.072l-2.375 3.219Zm13.092-12.871 1.988-.22-.21-1.902-1.91.126.132 1.996Zm.175 1.585-1.988.22.587 5.316 3.045-4.397-1.644-1.139Zm8.013 2.184 1.995-.132v-.015l-1.995.147Zm.552 8.361.132 1.995 1.995-.132-.131-1.995-1.996.132Zm-2.163.142-1.996.132.132 1.996 1.995-.132-.131-1.996Zm-.553-8.372 1.995-.132v-.017l-1.995.149Zm-.765-1.981-1.373 1.454.007.007.007.006 1.359-1.467Zm-4.902 1.709-1.852-.755-.174.427.03.46 1.996-.132Zm.595 9.016.132 1.996 1.996-.132-.132-1.996-1.996.132Zm-2.163.143-1.996.132.132 1.995 1.996-.132-.132-1.995Zm-.836-12.652-.131-1.996-1.996.132.132 1.995 1.995-.131Zm.059.084.175 1.586 3.976-.439-.175-1.586-3.976.439Zm3.807 2.505c.538-.777 1.203-1.155 2.156-1.218l-.264-3.991c-2.165.143-3.945 1.148-5.18 2.932l3.288 2.277Zm2.156-1.218c.961-.063 1.362.172 1.56.365.24.236.566.791.658 2.045l3.99-.294c-.13-1.762-.64-3.424-1.849-4.607-1.25-1.226-2.91-1.613-4.623-1.5l.264 3.991Zm2.217 2.395.552 8.36 3.992-.263-.553-8.361-3.99.264Zm2.416 6.233-2.163.143.263 3.991 2.164-.143-.264-3.991Zm-.036 2.007-.553-8.373-3.99.264.552 8.372 3.991-.263Zm-.554-8.39c-.087-1.162-.436-2.406-1.4-3.3l-2.718 2.935c-.081-.075.08.002.13.663l3.988-.298Zm-1.387-3.287c-.992-.937-2.287-1.147-3.453-1.07l.263 3.992c.273-.018.42.007.481.023.048.014.016.013-.036-.036l2.745-2.909Zm-3.453-1.07c-1.079.071-2.085.434-2.938 1.125l2.518 3.109c.158-.128.358-.221.683-.242l-.263-3.992Zm-2.938 1.125a5.816 5.816 0 0 0-1.735 2.354l3.704 1.511c.134-.329.316-.568.549-.756l-2.517-3.109Zm-1.879 3.241.596 9.016 3.99-.264-.594-9.015-3.992.263Zm2.46 6.888-2.164.143.264 3.991 2.163-.142-.264-3.992Zm-.036 2.007-.836-12.652-3.991.263.835 12.653 3.992-.264Zm-2.7-10.525 2.046-.135-.263-3.991-2.046.135.263 3.991Zm23.788 5.95-1.852.755 2.347 5.755 1.45-6.044-1.945-.466Zm2.32-9.678-.132-1.996-1.47.097-.343 1.432 1.945.467Zm2.315-.153 1.928.532.749-2.713-2.808.185.131 1.996Zm-4.122 14.941 1.916.575.006-.021.006-.022-1.928-.532Zm-3.545 3.405-.039 1.999.086.002.085-.006-.132-1.995Zm-.411-.008-.24 1.985.1.012.1.002.04-1.999Zm-.817-.099-1.996.132.11 1.655 1.646.199.24-1.986Zm-.116-1.754.028-2-2.166-.03.142 2.162 1.996-.132Zm.588.008-.028 2 .08.001.08-.005-.132-1.996Zm1.678-.557-1.27-1.545-.007.006-.007.006 1.284 1.533Zm.91-1.692-1.916-.574-.01.031-.008.031 1.934.512Zm.394-1.318 1.916.573.21-.703-.293-.672-1.833.802Zm-5.34-12.214-.132-1.996-2.841.188 1.14 2.609 1.833-.801Zm2.362-.156 1.852-.756-.545-1.335-1.439.095.132 1.996Zm5.728 9.741 2.321-9.678-3.89-.933-2.32 9.678 3.89.933Zm.508-8.149 2.315-.152-.263-3.992-2.316.153.264 3.991Zm.255-2.68-4.122 14.941 3.856 1.064 4.122-14.941-3.856-1.064Zm-4.109 14.897c-.26.867-.576 1.346-.843 1.602-.233.224-.506.356-.919.383l.264 3.991c1.303-.086 2.478-.578 3.426-1.489.915-.879 1.515-2.045 1.903-3.336l-3.831-1.151Zm-1.59 1.981-.412-.008-.078 3.999.411.008.078-3.999Zm-.211.006-.817-.099-.48 3.972.817.098.48-3.971Zm.938 1.755-.115-1.754-3.992.264.116 1.754 3.992-.264Zm-2.139.378.588.008.056-4-.588-.008-.056 4Zm.747.004c.97-.064 2-.325 2.83-1.019l-2.567-3.067c.058-.049-.03.062-.526.095l.264 3.991Zm2.816-1.008c.866-.711 1.316-1.75 1.574-2.726l-3.867-1.023a2.783 2.783 0 0 1-.215.591c-.06.11-.08.108-.031.068l2.54 3.09Zm1.557-2.664.394-1.318-3.832-1.147-.394 1.318 3.832 1.147Zm.31-2.693-5.34-12.213-3.664 1.602 5.34 12.214 3.665-1.603Zm-7.04-9.416 2.362-.156-.264-3.992-2.362.156.264 3.992Zm.378-1.397 3.784 9.275 3.703-1.511-3.783-9.275-3.704 1.511Zm12.367 1.428-1.847-.769-.005.012 1.852.757Zm1.883-2.426-1.16-1.63-.006.004 1.166 1.626Zm7.221.509-1.404 1.425.005.005 1.399-1.43Zm1.432 8.174-1.853-.751-.003.006 1.856.745Zm-1.872 2.413-1.163-1.627-.007.005 1.17 1.622Zm-7.255-.495-1.405 1.424.006.005 1.398-1.429Zm1.472-1.354-1.508 1.314.008.008 1.5-1.322Zm5.238-.358 1.672 1.097.005-.007-1.677-1.09Zm-.485-6.991-1.512 1.31.007.007.006.008 1.499-1.325Zm-6.143 3.788c-.064-.974.07-1.796.36-2.503l-3.703-1.514c-.546 1.337-.748 2.776-.648 4.281l3.991-.264Zm.355-2.491c.295-.71.7-1.21 1.202-1.57l-2.33-3.251c-1.158.83-2.009 1.948-2.565 3.283l3.693 1.538Zm1.196-1.565c.51-.363 1.123-.587 1.901-.638l-.263-3.992c-1.451.096-2.79.541-3.956 1.37l2.318 3.26Zm1.901-.638c1.204-.08 2.06.255 2.757.942l2.808-2.849c-1.58-1.558-3.587-2.233-5.828-2.085l.263 3.992Zm2.762.947c.717.701 1.213 1.745 1.32 3.355l3.99-.263c-.154-2.35-.935-4.408-2.512-5.951l-2.798 2.859Zm1.32 3.355.01.152 3.991-.263-.01-.152-3.991.263Zm.01.152c.064.97-.069 1.786-.352 2.486l3.707 1.502c.538-1.328.735-2.757.636-4.251l-3.991.263Zm-.355 2.492c-.267.667-.658 1.159-1.179 1.531l2.326 3.255c1.17-.836 2.026-1.953 2.566-3.297l-3.713-1.489Zm-1.185 1.536c-.502.361-1.12.591-1.926.645l.264 3.991c1.471-.097 2.828-.546 4-1.391l-2.338-3.245Zm-1.926.645c-1.193.078-2.053-.254-2.762-.948l-2.797 2.859c1.584 1.551 3.586 2.228 5.823 2.08l-.264-3.991Zm-2.757-.943c-.714-.704-1.206-1.744-1.31-3.338l-3.992.264c.154 2.335.93 4.382 2.494 5.923l2.808-2.849Zm-1.31-3.338-.01-.152-3.992.264.01.152 3.991-.264Zm-1.81.225c.112 1.703.612 3.27 1.681 4.498l3.016-2.628c-.337-.386-.633-1.03-.706-2.133l-3.991.263Zm1.689 4.506c1.13 1.282 2.638 1.887 4.335 1.775l-.263-3.991c-.485.032-.78-.097-1.072-.429l-3 2.645Zm4.335 1.775c1.709-.113 3.132-.919 4.075-2.358l-3.344-2.194c-.237.362-.504.528-.994.561l.263 3.991Zm4.08-2.365c.908-1.398 1.169-3.11 1.05-4.911l-3.992.264c.086 1.302-.14 2.049-.412 2.468l3.354 2.179Zm1.05-4.911c-.113-1.704-.628-3.266-1.714-4.494l-2.997 2.649c.353.399.649 1.038.72 2.109l3.99-.264Zm-1.7-4.479c-1.125-1.299-2.637-1.924-4.35-1.811l.265 3.991c.47-.031.762.093 1.06.439l3.025-2.619Zm-4.35-1.811c-1.69.111-3.086.921-4.028 2.327l3.322 2.227c.255-.38.525-.534.97-.563l-.263-3.991Zm-4.028 2.327c-.938 1.398-1.197 3.136-1.076 4.958l3.991-.263c-.089-1.343.147-2.08.407-2.468l-3.323-2.227Zm21.112 8.449 1.99-.206-.53-5.113-3.066 4.127 1.606 1.192Zm-6.773.765-1.402 1.426.007.007.008.007 1.387-1.44ZM84.34 213.3l-1.996.132.001.01 1.995-.142Zm-.544-8.232-.132-1.995-1.995.131.132 1.996 1.995-.132Zm2.164-.143 1.995-.131-.132-1.996-1.995.132.132 1.995Zm6.244 8.831 1.878.688.145-.398-.028-.422-1.995.132Zm-.608-9.203-.132-1.996-1.996.132.132 1.996 1.996-.132Zm2.163-.143 1.996-.132-.132-1.995-1.996.132.132 1.995Zm.836 12.652.131 1.996 1.996-.132-.132-1.995-1.995.131Zm-2.058.136-1.99.207.199 1.916 1.922-.127-.132-1.996Zm-1.736-2.44c-.34.459-.93.847-2.134.926l.263 3.992c2.054-.136 3.87-.901 5.083-2.533l-3.212-2.385Zm-2.134.926c-.954.063-1.397-.171-1.645-.41l-2.775 2.881c1.273 1.226 2.94 1.636 4.683 1.521l-.263-3.992Zm-1.63-.395c-.278-.273-.612-.864-.702-2.131l-3.99.284c.128 1.804.657 3.489 1.887 4.699l2.805-2.852Zm-.701-2.121-.544-8.232-3.991.264.543 8.232 3.992-.264Zm-2.408-6.104 2.163-.143-.263-3.991-2.163.143.263 3.991Zm.036-2.007.54 8.174 3.991-.264-.54-8.173-3.991.263Zm.54 8.174c.078 1.177.391 2.416 1.257 3.348.935 1.007 2.19 1.318 3.399 1.238l-.264-3.992c-.189.013-.265-.012-.268-.013 0 0 .01.004.027.015s.03.022.037.03c.023.024-.148-.15-.197-.89l-3.991.264Zm4.656 4.586c1.064-.071 2.1-.337 2.992-.918.917-.596 1.56-1.445 1.93-2.455l-3.756-1.376c-.095.258-.214.387-.355.478-.167.109-.487.241-1.075.279l.264 3.992Zm5.04-4.193-.609-9.203-3.99.264.607 9.203 3.991-.264Zm-2.472-7.075 2.163-.143-.264-3.991-2.163.142.264 3.992Zm.035-2.007.836 12.652 3.991-.263-.835-12.653-3.992.264Zm2.7 10.525-2.058.136.263 3.991 2.058-.136-.263-3.991Zm.063 1.925-.13-1.248-3.978.412.13 1.249 3.978-.413Z"/></g></g><defs><filter id="k" width="381.589" height="417.186" x="-25" y="73" color-interpolation-filters="sRGB" filterUnits="userSpaceOnUse"><feFlood flood-opacity="0" result="BackgroundImageFix"/><feBlend in="SourceGraphic" in2="BackgroundImageFix" result="shape"/><feGaussianBlur result="effect1_foregroundBlur" stdDeviation="32"/></filter><filter id="f" width="193.137" height="193.137" x="-57" y="42" color-interpolation-filters="sRGB" filterUnits="userSpaceOnUse"><feFlood flood-opacity="0" result="BackgroundImageFix"/><feColorMatrix in="SourceAlpha" values="0 0 0 0 0 0 0 0 0 0 0 0 0 0 0 0 0 0 127 0"/><feOffset dy="24"/><feGaussianBlur stdDeviation="20"/><feColorMatrix values="0 0 0 0 0.145098 0 0 0 0 0.835294 0 0 0 0 0.909804 0 0 0 0.4 0"/><feBlend in2="BackgroundImageFix" result="effect1_dropShadow"/><feBlend in="SourceGraphic" in2="effect1_dropShadow" result="shape"/></filter><filter id="h" width="166.666" height="189.293" x="26.002" y="42" color-interpolation-filters="sRGB" filterUnits="userSpaceOnUse"><feFlood flood-opacity="0" result="BackgroundImageFix"/><feColorMatrix in="SourceAlpha" values="0 0 0 0 0 0 0 0 0 0 0 0 0 0 0 0 0 0 127 0"/><feOffset dy="24"/><feGaussianBlur stdDeviation="20"/><feColorMatrix values="0 0 0 0 0.145098 0 0 0 0 0.835294 0 0 0 0 0.909804 0 0 0 0.4 0"/><feBlend in2="BackgroundImageFix" result="effect1_dropShadow"/><feBlend in="SourceGraphic" in2="effect1_dropShadow" result="shape"/></filter><filter id="i" width="111.327" height="114.874" x="210.673" y="119.664" color-interpolation-filters="sRGB" filterUnits="userSpaceOnUse"><feFlood flood-opacity="0" result="BackgroundImageFix"/><feColorMatrix in="SourceAlpha" values="0 0 0 0 0 0 0 0 0 0 0 0 0 0 0 0 0 0 127 0"/><feOffset dy="24"/><feGaussianBlur stdDeviation="20"/><feColorMatrix values="0 0 0 0 0.145098 0 0 0 0 0.835294 0 0 0 0 0.909804 0 0 0 0.4 0"/><feBlend in2="BackgroundImageFix" result="effect1_dropShadow"/><feBlend in="SourceGraphic" in2="effect1_dropShadow" result="shape"/></filter><filter id="j" width="1371" height="827.15" x="-515.756" y="36.979" color-interpolation-filters="sRGB" filterUnits="userSpaceOnUse"><feFlood flood-opacity="0" result="BackgroundImageFix"/><feColorMatrix in="SourceAlpha" values="0 0 0 0 0 0 0 0 0 0 0 0 0 0 0 0 0 0 127 0"/><feOffset dy="24"/><feGaussianBlur stdDeviation="20"/><feColorMatrix values="0 0 0 0 0.145098 0 0 0 0 0.835294 0 0 0 0 0.909804 0 0 0 0.4 0"/><feBlend in2="BackgroundImageFix" result="effect1_dropShadow"/><feBlend in="SourceGraphic" in2="effect1_dropShadow" result="shape"/></filter><filter id="g" width="100" height="109" x="200" y="107" color-interpolation-filters="sRGB" filterUnits="userSpaceOnUse"><feFlood flood-opacity="0" result="BackgroundImageFix"/><feColorMatrix in="SourceAlpha" values="0 0 0 0 0 0 0 0 0 0 0 0 0 0 0 0 0 0 127 0"/><feOffset dy="24"/><feGaussianBlur stdDeviation="20"/><feColorMatrix values="0 0 0 0 0.145098 0 0 0 0 0.835294 0 0 0 0 0.909804 0 0 0 0.4 0"/><feBlend in2="BackgroundImageFix" result="effect1_dropShadow"/><feBlend in="SourceGraphic" in2="effect1_dropShadow" result="shape"/></filter><filter id="l" width="213.333" height="213.333" x="62.333" y="96.333" color-interpolation-filters="sRGB" filterUnits="userSpaceOnUse"><feFlood flood-opacity="0" result="BackgroundImageFix"/><feColorMatrix in="SourceAlpha" values="0 0 0 0 0 0 0 0 0 0 0 0 0 0 0 0 0 0 127 0"/><feOffset dy="24"/><feGaussianBlur stdDeviation="20"/><feColorMatrix values="0 0 0 0 0.145098 0 0 0 0 0.835294 0 0 0 0 0.909804 0 0 0 0.4 0"/><feBlend in2="BackgroundImageFix" result="effect1_dropShadow"/><feBlend in="SourceGraphic" in2="effect1_dropShadow" result="shape"/></filter><linearGradient id="a" x1="164" x2="164" y1="0" y2="375.5" gradientUnits="userSpaceOnUse"><stop stop-color="#F2F1F9"/><stop offset="1" stop-color="#fff"/></linearGradient><linearGradient id="c" x1="164" x2="164" y1="0" y2="375.5" gradientUnits="userSpaceOnUse"><stop stop-color="#F2F1F9"/><stop offset="1" stop-color="#fff"/></linearGradient><linearGradient id="d" x1="-182.5" x2="-31.685" y1="425.5" y2="214.907" gradientUnits="userSpaceOnUse"><stop stop-color="#437BFF"/><stop offset="1" stop-color="#25D5E8"/></linearGradient><linearGradient id="e" x1="-209" x2="-65.139" y1="197" y2="27.06" gradientUnits="userSpaceOnUse"><stop stop-color="#437BFF"/><stop offset="1" stop-color="#25D5E8"/></linearGradient></defs></svg>