<svg xmlns="http://www.w3.org/2000/svg" width="1080" height="880" fill="none"><mask id="a" width="1080" height="880" x="0" y="0" mask-type="alpha" maskUnits="userSpaceOnUse"><path fill="#C4C4C4" d="M0 0h1080v880H0z"/></mask><g mask="url(#a)"><g filter="url(#b)"><path fill="url(#c)" d="m1339.52 329.295 29.43 182.396-161.45 283.64L555.724 543.29l783.796-213.995Z"/></g><path fill="url(#d)" d="m1337.27 265.595 36.81 228.294-202.06 355.033-815.585-315.414 980.835-267.913Z" opacity=".1"/><path fill="url(#e)" d="m1339.52 329.295 29.43 182.396-161.45 283.64L555.724 543.29l783.796-213.995Z"/><path fill="url(#f)" d="m1374.01 494.174-201.99 354.749-815.602-315.347 1017.592-39.402Z" opacity=".1"/><path fill="url(#g)" d="m1368.95 511.691-161.45 283.64L555.726 543.29l813.224-31.599Z"/><mask id="i" width="877" height="670" x="536" y="147" mask-type="alpha" maskUnits="userSpaceOnUse"><path fill="url(#h)" d="m1339.52 329.295 29.43 182.396-161.45 283.64L555.724 543.29l783.796-213.995Z"/></mask><g mask="url(#i)"><path stroke="#fff" d="M1095.65 742.517s45.31 78.423 87.26 69.009c41.95-9.413 105.31-35.625 112.12 30.044 6.82 65.669-54.95 233.14 66.9 233.87 121.86.73 290.72-124.903 278.26 40.75-12.47 165.66-308.07 530.91-654.119 328.34-346.053-202.57-31.415-274.49 33.949-318 65.36-43.52 53.97-46.57-22.035-118.2-76.008-71.625 66.455-177.272 72.535-226.92 6.08-49.648 21.73-50.046.46-45.504-21.26 4.541-251.789-9.578-243.602 78.297 8.188 87.875-83.186 215.717-147.261 135.077-64.074-80.636-71.101-149.16-172.777-160.537-101.675-11.377-262.663-121.154-114.392-271.827 148.27-150.673 312.756-160.547 321.526-62.996 8.77 97.551 24.976 147.394 91.254 107.376 66.277-40.017 190.076-137.14 181.412-34.315-8.664 102.825 64.32 174.603 80.3 168.884 15.98-5.719 37.27-2.237 24.4-57.904-12.86-55.667-63.57-151.698-13.82-191.808 49.74-40.11-31.78-102.405-88.625-143.631-56.84-41.226 482.125 108.959 482.125 108.959s-5.35 117.007-64.02 104.175c-58.68-12.832-121.1-44.002-116.51 25.115 4.59 69.118-19.65 121.843-77.23 104.968-57.59-16.875-126.33 45.594-96.68 53.538" opacity=".2" style="mix-blend-mode:darken"/></g></g><defs><linearGradient id="c" x1="917.864" x2="1174.78" y1="328.167" y2="587.829" gradientUnits="userSpaceOnUse"><stop stop-color="#25D5E8"/><stop offset="1" stop-color="#437BFF"/></linearGradient><linearGradient id="d" x1="1163.47" x2="771.881" y1="283.226" y2="674.721" gradientUnits="userSpaceOnUse"><stop stop-color="#25D5E8"/><stop offset="1" stop-color="#00D3BD"/></linearGradient><linearGradient id="e" x1="1200.63" x2="887.798" y1="343.373" y2="656.205" gradientUnits="userSpaceOnUse"><stop stop-color="#25D5E8"/><stop offset="1" stop-color="#00D3BD"/></linearGradient><linearGradient id="f" x1="767.138" x2="982.442" y1="422.775" y2="752.908" gradientUnits="userSpaceOnUse"><stop stop-color="#25D5E8"/><stop offset="1" stop-color="#437BFF"/></linearGradient><linearGradient id="g" x1="883.97" x2="1056.13" y1="454.666" y2="718.503" gradientUnits="userSpaceOnUse"><stop stop-color="#25D5E8"/><stop offset="1" stop-color="#437BFF"/></linearGradient><linearGradient id="h" x1="1200.63" x2="887.798" y1="343.373" y2="656.205" gradientUnits="userSpaceOnUse"><stop stop-color="#25D5E8"/><stop offset="1" stop-color="#00D3BD"/></linearGradient><filter id="b" width="1356.2" height="1149.01" x="296.375" y="-92.319" color-interpolation-filters="sRGB" filterUnits="userSpaceOnUse"><feFlood flood-opacity="0" result="BackgroundImageFix"/><feBlend in="SourceGraphic" in2="BackgroundImageFix" result="shape"/><feGaussianBlur result="effect1_foregroundBlur" stdDeviation="120"/></filter></defs></svg>