<svg xmlns="http://www.w3.org/2000/svg" width="88" height="88"><path fill="#ea4c89" fill-rule="evenodd" d="M44 24a20 20 0 1 0 20 20 20.006 20.006 0 0 0-20-20Zm13.21 9.219a17 17 0 0 1 3.861 10.629 40.337 40.337 0 0 0-11.887-.542c-.13-.282-.239-.586-.369-.889a51.49 51.49 0 0 0-1.128-2.473 22.863 22.863 0 0 0 9.523-6.725ZM44 26.95a17.045 17.045 0 0 1 11.323 4.3c-.3.434-2.885 3.883-8.959 6.161a92.225 92.225 0 0 0-6.377-10A17.372 17.372 0 0 1 44 26.95Zm-7.267 1.605a107.8 107.8 0 0 1 6.334 9.87 64.065 64.065 0 0 1-15.792 2.083 17.162 17.162 0 0 1 9.458-11.953Zm-9.826 15.467V43.5a62.418 62.418 0 0 0 17.549-2.429c.5.954.954 1.931 1.388 2.907-.217.065-.456.13-.672.2-8.808 2.837-13.493 10.603-13.883 11.254a17.043 17.043 0 0 1-4.382-11.41ZM44 61.093a16.964 16.964 0 0 1-10.477-3.6c.3-.629 3.774-7.31 13.406-10.672.043-.022.065-.022.108-.043a70.617 70.617 0 0 1 3.644 12.95A16.8 16.8 0 0 1 44 61.093Zm9.523-2.928A73.5 73.5 0 0 0 50.2 46a24.947 24.947 0 0 1 10.629.738 16.936 16.936 0 0 1-7.306 11.427Z"/></svg>