<svg xmlns="http://www.w3.org/2000/svg" width="88" height="88"><path fill="#ffba00" d="M44 24a20 20 0 1 1-20 20 20 20 0 0 1 20-20Z" data-name="Path 14"/><text fill="#fff" font-family="Roboto-Bold, Roboto" font-size="12" font-weight="700" letter-spacing=".064em" transform="translate(44 48)"><tspan x="-23.691" y="0">invision</tspan></text><g data-name="Invision"><path fill="#f36" d="M24 44a20 20 0 1 1 20 20 20 20 0 0 1-20-20Z"/><path fill="#fff" d="M48.571 51.271a5.646 5.646 0 0 1 .222-1.588l1.048-3.746A3.812 3.812 0 0 0 50 44.795a1.777 1.777 0 0 0-1.9-1.937c-1.493 0-2.477 1.042-2.985 3.106l-2.032 8.122h-3.561l.638-2.533a5.069 5.069 0 0 1-4.288 2.795 2.843 2.843 0 0 1-3.172-3.111 7.152 7.152 0 0 1 .19-1.578l1.618-6.594H32l.762-2.82h6.032l-2.381 9.434a5.935 5.935 0 0 0-.223 1.447c0 .6.3.778.763.883.283.064 2.539.034 3.767-2.7l1.564-6.247h-2.539l.762-2.819h5.429l-.7 3.179c.952-1.778 2.858-3.474 4.73-3.474 2 0 3.652 1.422 3.652 4.152a8.04 8.04 0 0 1-.349 2.314l-1.016 3.649a4.226 4.226 0 0 0-.159.985c0 .635.254.952.731.952s1.079-.35 1.778-2.285l1.4.539c-.826 2.89-2.318 4.1-4.191 4.1a2.9 2.9 0 0 1-3.241-3.083ZM35.206 36.126a2.159 2.159 0 1 1 2.159 2.129 2.134 2.134 0 0 1-2.159-2.129Z" data-name="Combined Shape"/></g></svg>