<svg xmlns="http://www.w3.org/2000/svg" width="88" height="88"><defs><radialGradient id="a" cx=".399" cy=".333" r=".652" gradientUnits="objectBoundingBox"><stop offset="0" stop-color="#0e0e17" stop-opacity=".851"/><stop offset=".767" stop-color="#0e0e17"/></radialGradient></defs><g transform="translate(-365 -502)"><rect width="40" height="40" fill="#e732fb" data-name="Rectangle 70" rx="20" transform="translate(389 526)"/><text fill="#fff" font-family="Roboto-Bold, Roboto" font-size="12" font-weight="700" letter-spacing=".064em" transform="translate(409 550)"><tspan x="-8.095" y="0">XD</tspan></text><path fill="#ff2bc2" d="M389 546a20 20 0 1 1 20 20 20 20 0 0 1-20-20Z"/><path fill="url(#a)" d="M0 18a18 18 0 1 1 18 18A18 18 0 0 1 0 18Z" data-name="path0_fill" transform="translate(391 528)"/><path fill="#fed7f0" d="M415.452 553.427a4.91 4.91 0 0 1-3.62-1.367 5.7 5.7 0 0 1-1.417-4.13 5.867 5.867 0 0 1 1.432-3.993 5.161 5.161 0 0 1 3.931-1.627 5.981 5.981 0 0 1 .7.027v-3.521a.136.136 0 0 1 .136-.135h2.186c.112 0 .135.043.135.108v12.378a9.616 9.616 0 0 0 .065 1.326c0 .094 0 .109-.081.149a8.116 8.116 0 0 1-3.467.785Zm.244-9.1c-1.727 0-2.843 1.371-2.843 3.494a4.051 4.051 0 0 0 .772 2.681 2.421 2.421 0 0 0 1.91.812 2.519 2.519 0 0 0 .934-.149v-6.698h.013a1.835 1.835 0 0 0-.782-.14Zm-6.188 8.978h-2.357a.265.265 0 0 1-.284-.176 519.768 519.768 0 0 1-2.654-5.562h-.027a211.274 211.274 0 0 1-2.573 5.579.26.26 0 0 1-.244.149h-2.248a.115.115 0 0 1-.113-.055.131.131 0 0 1 .032-.135l3.71-7.138-3.588-7.1a.127.127 0 0 1-.022-.133.13.13 0 0 1 .116-.067h2.33c.129 0 .2.023.244.149.231.488.466.979.692 1.454.613 1.284 1.247 2.611 1.84 3.936h.027a168.814 168.814 0 0 1 1.786-3.885c.227-.484.462-.984.69-1.474.072-.115.112-.18.246-.18h2.18a.11.11 0 0 1 .1.046.163.163 0 0 1-.02.157l-3.571 6.866 3.792 7.353a.163.163 0 0 1 .019.163.108.108 0 0 1-.104.053Z"/></g></svg>