<svg xmlns="http://www.w3.org/2000/svg" width="88" height="88"><g data-name="Group 3"><path fill="red" d="M65.08 33.837a5.528 5.528 0 0 0-3.89-3.915c-3.431-.926-17.19-.926-17.19-.926s-13.759 0-17.191.926a5.528 5.528 0 0 0-3.887 3.915c-.919 3.454-.919 10.659-.919 10.659s0 7.205.919 10.66a5.529 5.529 0 0 0 3.89 3.915c3.431.925 17.191.925 17.191.925s13.759 0 17.19-.925a5.529 5.529 0 0 0 3.89-3.915c.919-3.454.919-10.66.919-10.66s0-7.206-.919-10.659" data-name="Path 4"/></g><g data-name="Group 4"><path fill="#fff" d="M39.5 51.042 51 44.5l-11.5-6.542Z" data-name="Path 5"/></g></svg>