<svg xmlns="http://www.w3.org/2000/svg" xmlns:xlink="http://www.w3.org/1999/xlink" width="88" height="88"><defs><linearGradient id="c" x1=".662" x2=".464" y1=".102" y2=".283" gradientUnits="objectBoundingBox"><stop offset="0" stop-color="#c0cdf9"/><stop offset="1" stop-color="#07092d" stop-opacity=".286"/></linearGradient><linearGradient id="u" x1="1.556" x2="1.313" y1="1.278" y2=".835" gradientUnits="objectBoundingBox"><stop offset="0" stop-color="#729fcf"/><stop offset="1" stop-color="#729fcf" stop-opacity="0"/></linearGradient><linearGradient xlink:href="#a" id="d" x1=".478" x2="1.037" y1=".232" y2="1.192"/><linearGradient xlink:href="#a" id="i" x1=".606" x2=".614" y1="-.295" y2="1"/><linearGradient xlink:href="#a" id="j" x1=".591" x2=".591" y1="-.206" y2=".707"/><linearGradient id="a" x1=".339" x2=".769" y1=".385" y2=".812" gradientUnits="objectBoundingBox"><stop offset="0" stop-color="#fff"/><stop offset="1" stop-color="#fff" stop-opacity="0"/></linearGradient><linearGradient xlink:href="#a" id="l" x1=".63" x2=".639" y1="-.129" y2=".895"/><linearGradient xlink:href="#a" id="m" x1=".602" x2=".602" y1="-.304" y2=".736"/><linearGradient xlink:href="#a" id="q" x1=".182" x2=".722" y1=".5" y2=".712"/><linearGradient id="r" x1=".703" x2=".544" y1="-.086" y2="1.083" gradientUnits="objectBoundingBox"><stop offset="0" stop-color="#eeeeec"/><stop offset="1" stop-color="#eeeeec" stop-opacity="0"/></linearGradient><linearGradient xlink:href="#a" id="t" x1="4.214" x2="4.998" y1="11.585" y2="12.386"/><radialGradient xlink:href="#a" id="g" cx=".5" cy=".5" r="1.181" gradientTransform="matrix(.423 0 0 .423 .288 .288)"/><radialGradient xlink:href="#a" id="h" cx=".606" cy=".698" r="1.181" gradientTransform="matrix(.423 0 0 .423 .349 .558)"/><radialGradient xlink:href="#a" id="n" cx=".44" cy=".575" r="2.8" gradientTransform="matrix(.199 0 0 .148 .353 .49)"/><radialGradient id="o" cx=".475" cy=".338" r="1.228" gradientTransform="matrix(.407 0 0 .407 .282 .061)" gradientUnits="objectBoundingBox"><stop offset="0" stop-color="#fff" stop-opacity=".329"/><stop offset="1" stop-color="#fff" stop-opacity="0"/></radialGradient><radialGradient xlink:href="#a" id="p" cx=".467" cy=".961" r="1.336" gradientTransform="matrix(.443 -.267 .046 .361 .191 1.085)"/><radialGradient xlink:href="#a" id="k" cx=".5" cy=".5" r="3.384" gradientTransform="matrix(.148 0 0 .148 .426 .426)"/><radialGradient xlink:href="#a" id="e" cx="0" cy=".926" r="1.168" gradientTransform="matrix(.684 0 0 .669 .048 .381)"/><radialGradient xlink:href="#a" id="s" cx=".511" cy=".489" r=".544" gradientTransform="translate(-.138 -.132) scale(1.271)"/><radialGradient xlink:href="#a" id="f" cx=".421" cy=".954" r="1.49" gradientTransform="matrix(.684 0 0 .669 .133 .39)"/><clipPath id="b"><path fill="#fff" d="M9.88.803 1.053 9.842c-3.343 3.341 2.164 3.063 4.156 4.323.921.6-2.957 1.371-2.164 2.163.771.793 4.649 1.521 5.421 2.292.771.793-1.564 1.628-.793 2.42.75.793 2.55.043 2.871 1.842.236 1.328 3.3.664 4.671-.471.857-.728-1.478-.728-.707-1.521 1.928-1.949 3.642-.878 4.349-2.677.386-.964-2.914-1.649-2.035-2.27 2.1-1.478 9.813-2.228 6.256-5.783L13.929.8A2.953 2.953 0 0 0 9.88.803ZM7.759 14.665c.193 0 6.6.857 4.135 1.521-.943.253-5.271-1.521-4.135-1.521Zm12.258 3.552c0 .45 3.492.707 3.3-.107-.282-1.371-2.917-1.264-3.3.107ZM5.123 20.594c.793.685 1.993-.15 2.378-1.114-.771-1.006-3.62.065-2.378 1.114Zm14.462-1.435c-.986.9.171 1.842 1.136 1.221.257-.171-.021-1.007-1.135-1.221Z" opacity=".25"/></clipPath></defs><g transform="translate(-589 -502)"><rect width="40" height="40" fill="#437bff" data-name="Rectangle 72" rx="20" transform="translate(613 526)"/><text fill="#fff" font-family="Roboto-Bold, Roboto" font-size="12" font-weight="700" letter-spacing=".064em" transform="translate(633 550)"><tspan x="-10.272" y="0">svg</tspan></text><rect width="40" height="40" fill="#437bff" data-name="Rectangle 82" rx="20" transform="translate(613 526)"/><rect width="36" height="36" fill="#f1f0f8" data-name="Rectangle 84" rx="18" transform="translate(615 528)"/><g opacity=".783"><path d="m630.86 534.904-8.912 9.125c-3.374 3.373 2.185 3.092 4.2 4.368.93.605-2.985 1.384-2.185 2.184.779.8 4.694 1.535 5.472 2.314.779.8-1.579 1.643-.8 2.443.757.8 2.574.043 2.9 1.86.238 1.341 3.331.67 4.715-.476.865-.735-1.492-.735-.714-1.535 1.947-1.968 3.677-.887 4.391-2.7.389-.973-2.942-1.665-2.055-2.292 2.12-1.492 9.907-2.249 6.316-5.838l-9.236-9.45a2.981 2.981 0 0 0-4.088 0Zm10.231 17.58c0 .454 3.526.714 3.331-.108-.281-1.387-2.942-1.276-3.331.108Zm-15.033 2.4c.8.692 2.012-.151 2.4-1.124-.778-1.017-3.655.064-2.4 1.124Zm14.6-1.449c-.995.908.173 1.86 1.146 1.233.26-.173-.021-1.017-1.146-1.233Z"/><path d="m630.86 535.115-8.912 9.125c-3.374 3.373 2.185 3.092 4.2 4.368.93.605-2.985 1.384-2.185 2.184.779.8 4.694 1.535 5.472 2.314.779.8-1.579 1.643-.8 2.443.757.8 2.574.043 2.9 1.86.238 1.341 3.331.67 4.715-.476.865-.735-1.492-.735-.714-1.535 1.947-1.968 3.677-.887 4.391-2.7.389-.973-2.942-1.665-2.055-2.292 2.12-1.492 9.907-2.249 6.316-5.838l-9.236-9.45a2.981 2.981 0 0 0-4.088 0Zm10.231 17.58c0 .454 3.526.714 3.331-.108-.281-1.384-2.942-1.276-3.331.108Zm-15.033 2.4c.8.692 2.012-.151 2.4-1.124-.778-1.017-3.655.064-2.4 1.124Zm14.6-1.449c-.995.908.173 1.86 1.146 1.233.26-.173-.021-1.017-1.146-1.233Z" opacity=".576"/></g><path d="m630.86 534.692-8.912 9.125c-3.374 3.373 2.185 3.092 4.2 4.368.93.605-2.985 1.384-2.185 2.184.779.8 4.694 1.535 5.472 2.314.779.8-1.579 1.643-.8 2.443.757.8 2.574.043 2.9 1.86.238 1.341 3.331.67 4.715-.476.865-.735-1.492-.735-.714-1.535 1.947-1.968 3.677-.887 4.391-2.7.389-.973-2.942-1.665-2.055-2.292 2.12-1.492 9.907-2.249 6.316-5.838l-9.236-9.45a2.981 2.981 0 0 0-4.092-.003Zm10.231 17.58c0 .454 3.526.714 3.331-.108-.281-1.384-2.942-1.276-3.331.108Zm-15.033 2.4c.8.692 2.012-.151 2.4-1.124-.778-1.016-3.655.065-2.4 1.124Zm14.6-1.449c-.995.908.173 1.86 1.146 1.233.26-.173-.021-1.016-1.146-1.232Z"/><path fill="none" d="m630.86 534.692-8.912 9.125c-3.374 3.373 2.185 3.092 4.2 4.368.93.605-2.985 1.384-2.185 2.184.779.8 4.694 1.535 5.472 2.314.779.8-1.579 1.643-.8 2.443.757.8 2.574.043 2.9 1.86.238 1.341 3.331.67 4.715-.476.865-.735-1.492-.735-.714-1.535 1.947-1.968 3.677-.887 4.391-2.7.389-.973-2.942-1.665-2.055-2.292 2.12-1.492 9.907-2.249 6.316-5.838l-9.236-9.45a2.981 2.981 0 0 0-4.092-.003Zm10.231 17.58c0 .454 3.526.714 3.331-.108-.281-1.384-2.942-1.276-3.331.108Zm-15.033 2.4c.8.692 2.012-.151 2.4-1.124-.778-1.016-3.655.065-2.4 1.124Zm14.6-1.449c-.995.908.173 1.86 1.146 1.233.26-.173-.021-1.016-1.146-1.232Z"/><g clip-path="url(#b)" data-name="Group 34" transform="translate(620.999 533.994)"><path fill="url(#c)" d="m17.763 9.438-8.827 9.039C5.593 21.818 11.1 21.54 13.092 22.8c.921.6-2.957 1.371-2.164 2.163.771.793 4.649 1.521 5.421 2.292.771.793-1.564 1.628-.793 2.42.75.793 2.55.043 2.871 1.842.236 1.328 3.3.664 4.671-.471.857-.728-1.478-.728-.707-1.521 1.928-1.949 3.642-.878 4.349-2.677.386-.964-2.914-1.649-2.035-2.27 2.1-1.478 9.813-2.228 6.256-5.783l-9.149-9.36a2.953 2.953 0 0 0-4.049.003ZM15.642 23.3c.193 0 6.6.857 4.135 1.521-.943.253-5.271-1.521-4.135-1.521ZM27.9 26.852c0 .45 3.492.707 3.3-.107-.282-1.371-2.917-1.264-3.3.107Zm-14.894 2.377c.793.685 1.993-.15 2.378-1.114-.771-1.006-3.62.065-2.378 1.114Zm14.462-1.435c-.986.9.171 1.842 1.136 1.221.257-.171-.021-1.007-1.135-1.221Z" opacity=".67" transform="translate(-7.883 -8.635)"/></g><path fill="url(#a)" d="M13.933 22.071c-2.423 2.4 1.834 1.724 5.108 3.011l6.767-11.893a2.156 2.156 0 0 0-3.274 0Z" opacity=".505" transform="translate(608.808 522.253)"/><path fill="url(#d)" d="m42.012 13.307 3.526 3.59a1.034 1.034 0 0 1 .13 1.189l-1.752-1.427-.346 2.1-1.449-.778-2.358 1.492-.779-3.135-1.255 2.725-3.136-.022c-.606 0-.519-.627.108-1.254 1.233-1.362 3.634-3.676 4.391-4.476a2.1 2.1 0 0 1 2.92-.004Z" transform="translate(592.395 522.034)"/><path fill="url(#e)" fill-rule="evenodd" d="M57.213 107.382s.383.584.344.859c-.077.539-1.238.808-.981 1.288s1.171.205 1.94.7.56 1.5 1.117 1.754c1.086.494 3.938-.852 3.795-.823s-2.815.584-3.416.1c-.686-.555-.882-.943-1.388-1.271-.474-.308-1.14-.433-1.295-.685s.31-.577.343-1.062c.018-.293-.459-.86-.459-.86Z" opacity=".217" transform="translate(572.355 444.916)"/><path fill="url(#f)" fill-rule="evenodd" d="M57.213 107.382s.383.584.344.859c-.077.539-1.238.808-.981 1.288s1.171.205 1.94.7.56 1.5 1.117 1.754c1.086.494 3.938-.852 3.795-.823-4.736.018-3.852-1.2-5.678-2-.264-.116-.111-.431-.079-.916.019-.295-.458-.862-.458-.862Z" opacity=".276" transform="translate(572.355 444.916)"/><path fill="url(#g)" fill-rule="evenodd" d="M93.73 84.44c4.251-1.564 5.616-1.779 7.017-3.178-1.622 1.369-5.052 2.1-7.848 3.321Z" opacity=".453" transform="translate(543.886 465.367)"/><path fill="url(#h)" fill-rule="evenodd" d="M93.73 84.44c7-2.48 5.817-2.466 7.017-3.178-2.226.852-6.385.943-7.848 3.321Z" opacity=".512" transform="translate(543.886 465.167)"/><path fill="url(#i)" d="M119 104.033c0 .154-.407.279-.909.279s-.909-.125-.909-.279.407-.279.909-.279.909.125.909.279Z" opacity=".286" transform="translate(524.732 447.556)"/><path fill="url(#j)" d="M160.227 224.071c0 .332-.548.6-1.224.6s-1.224-.269-1.224-.6.548-.6 1.224-.6 1.224.268 1.224.6Z" opacity=".621" transform="translate(483.819 327.841)"/><path fill="url(#k)" fill-rule="evenodd" d="M113.023 107.1c.432.4 2.836.6 3.229-.115-.771.549-2.487.356-3.229.115Z" transform="translate(528.13 445.145)"/><path fill="url(#l)" d="M.645.353a.339.339 0 0 1-.323.353A.339.339 0 0 1 0 .353.339.339 0 0 1 .322 0a.339.339 0 0 1 .323.353Z" opacity=".286" transform="rotate(-26.87 1478.796 -1063.533)"/><path fill="url(#m)" d="M.941.528a.5.5 0 0 1-.471.528A.5.5 0 0 1 0 .528.5.5 0 0 1 .471 0a.5.5 0 0 1 .47.528Z" opacity=".621" transform="rotate(-26.87 1478.824 -1063.144)"/><path fill="url(#n)" fill-rule="evenodd" d="M0 0c.187.4 1.336 1.021 1.251.093C1.087.7.321.241 0 0Z" transform="rotate(-26.87 1480.6 -1063.403)"/><path fill="url(#o)" fill-rule="evenodd" d="M36.025 98.138c0-.071 4.45 1.356 5.213 2.119a15.739 15.739 0 0 0-4.282-2.033 4.936 4.936 0 0 1-.931-.086Z" transform="translate(588.416 452.156)"/><path fill="url(#i)" d="M33.969 98.106c.036.107-.293.273-.734.37s-.829.088-.865-.019.293-.273.734-.37.829-.087.865.019Z" opacity=".286" transform="translate(593.815 455.244)"/><path fill="url(#j)" d="M33.571 98.289c.078.231-.341.524-.936.655s-1.139.049-1.217-.182.341-.524.936-.655 1.139-.049 1.217.182Z" opacity=".621" transform="translate(594.566 455.225)"/><path fill="url(#p)" fill-rule="evenodd" d="M42.491 114.6a1.082 1.082 0 0 0 .9.68 1.933 1.933 0 0 0 1.5-1.1 1.992 1.992 0 0 1-1.582 1.024c-.471-.011-.818-.604-.818-.604Z" opacity=".616" transform="translate(583.375 439.475)"/><path fill="none" stroke="#707070" d="M632.871 534.199a2.5 2.5 0 0 0-1.791.716l-8.909 9.122c-.815.814-1.01 1.347-.96 1.649a.688.688 0 0 0 .257.419 2.609 2.609 0 0 0 .683.392 18.875 18.875 0 0 0 2.1.642 7.8 7.8 0 0 1 2.062.784.664.664 0 0 1 .223.223.5.5 0 0 1 .054.338.714.714 0 0 1-.318.439 6.391 6.391 0 0 1-1.034.568 5.934 5.934 0 0 0-.953.527.559.559 0 0 0-.128.142s-.025-.059.02-.014a3.438 3.438 0 0 0 .967.52c.475.188 1.056.377 1.643.568s1.18.378 1.683.574a3.433 3.433 0 0 1 1.183.649.86.86 0 0 1 .25.487.873.873 0 0 1-.095.48 2.818 2.818 0 0 1-.548.7 2.8 2.8 0 0 0-.439.534.254.254 0 0 0-.034.135c0 .027.008.053.068.115l.007.007c.258.273.819.311 1.453.459a2.1 2.1 0 0 1 .933.432 1.888 1.888 0 0 1 .588 1.128c.038.215.152.32.426.405a2.782 2.782 0 0 0 1.149.034 5.883 5.883 0 0 0 2.629-1.1c.039-.033.028-.024.041-.041a2.336 2.336 0 0 0-.3-.176 1.55 1.55 0 0 1-.595-.405.612.612 0 0 1-.122-.453.8.8 0 0 1 .243-.439 5.454 5.454 0 0 1 2.8-1.487 3.469 3.469 0 0 0 .94-.345 1.437 1.437 0 0 0 .588-.764.1.1 0 0 0-.007-.108.775.775 0 0 0-.189-.223 5.737 5.737 0 0 0-.879-.554 4.668 4.668 0 0 1-.9-.581.684.684 0 0 1-.257-.46.613.613 0 0 1 .284-.514 10.659 10.659 0 0 1 2.467-1.074c.976-.338 2.025-.688 2.88-1.088a3.354 3.354 0 0 0 1.683-1.324 1 1 0 0 0 .014-.77 3.075 3.075 0 0 0-.771-1.1l-9.229-9.449-.007-.007a2.713 2.713 0 0 0-1.853-.712Zm9.936 17.3a1.553 1.553 0 0 0-1.318.689 1.445 1.445 0 0 0 .223.074 5.958 5.958 0 0 0 1.122.122 4.134 4.134 0 0 0 1.068-.095.655.655 0 0 0 .2-.081.775.775 0 0 0-.412-.527 1.741 1.741 0 0 0-.879-.182Zm-15.249 1.96a2.124 2.124 0 0 0-1.3.372.473.473 0 0 0-.2.284c-.005.069.017.16.2.318v.007a.809.809 0 0 0 1 .02 2.147 2.147 0 0 0 .784-.838.989.989 0 0 0-.483-.165Zm13.194.135a.659.659 0 0 0-.155.318.32.32 0 0 0 .108.277.758.758 0 0 0 .858.027.43.43 0 0 0-.074-.182 1.359 1.359 0 0 0-.735-.442Z" data-name="87235"/><path fill="url(#q)" fill-rule="evenodd" d="M39.053 83.676c-.538.159-2.281.817-2.033 1.32.237.482 4.29.676 4.911 2.112.271.626-.622 1.1-.4 1.742a8.969 8.969 0 0 0 2.375 2.33.839.839 0 0 0 1.19-1.063c-.57-1.1 1.948-2.45 3.089-3.062.666-.357-1.373-2.112-1.373-2.112Z" opacity=".325" transform="translate(588.934 464.809)"/><path fill="url(#r)" fill-rule="evenodd" d="M41.3 76.93c.483.354 1.436.141 2.008.4 1.373.618 3.062 1.307 2.751.087l-.349.29-.007-.553-.812.2s-.629-.5-.917-.671c-.06-.035-.369.28-.369.28l-.056-.334a10.305 10.305 0 0 0-1.15-.059c-.839.007-1.406.138-1.1.363Z" transform="translate(586.891 472.041)"/><path fill="url(#s)" fill-rule="evenodd" d="M79.793 91.095c-.186.684 2.284 1.613 2.1 2.085-.408 1.039-2.638.331-4.344 2.508-.244.312.343 1.425.264 1.293s-.683-1.052-.528-1.5c.485-1.42 5.177-1.949 4.317-2.627-.494-.393-2.271-1.47-1.809-1.759Z" opacity=".478" transform="translate(557.41 459)"/><path fill="#fff" d="M642.762 551.501c0 .062-.121.112-.271.112s-.271-.05-.271-.112.121-.112.271-.112.271.05.271.112ZM640.953 553.573c0 .062-.077.112-.172.112s-.172-.05-.172-.112.077-.112.172-.112.172.05.172.112ZM627.262 553.474c0 .062-.136.112-.3.112s-.3-.05-.3-.112.136-.112.3-.112.3.05.3.112Z" opacity=".586"/><path fill="url(#t)" d="M27.554 76.243c-1.547.957-3.953 1.3-1.32 1.94-.314-.698.678-.621 1.32-1.94Z" opacity=".251" transform="translate(599.536 472.294)"/><path fill="url(#u)" d="M3.466 20.656s2.386-.225 2.938-.913c.323-.4-1.283-.873-.937-1.267 1.3-1.484 2.4-1.422 3.913-2.044s.954-.926.465-1.2c-.838-.467-2.7-.965-2.086-2.074s6.057-2.666 6.057-2.666c1.647-.563 1.441-1.58.634-2.429L9.592 3.234s.241 4.581-.739 6.547c-1.212 2.428-7.662 5.138-4.964 5.438a1.987 1.987 0 0 1 1.8 1.161c.8 1.507-2.218 4.276-2.218 4.276Z" opacity=".363" transform="translate(629.116 536.593)"/></g></svg>