<svg xmlns="http://www.w3.org/2000/svg" width="200" height="200" fill="none"><rect width="200" height="200" fill="#fff" rx="100"/><path fill="#437BFF" fill-rule="evenodd" d="M108 32H92v83h16V32Zm0 24-8 10-8-10h16Z" clip-rule="evenodd"/><path fill="#FFBA00" d="M92 32h16v18H92z"/><path fill="#fff" d="M92 50h16v6H92zM92 109h16v6H92z"/><path fill="#E732FB" d="M60 115h80l-40 48-40-48Z"/><path fill="#FFBA00" d="M92 50h16l-8 10-8-10Z"/><path fill="#fff" d="M92 115h16l-8 10-8-10Z"/><path fill="#437BFF" d="M92 109h16l-8 10-8-10Z"/><path fill="#fff" d="M92 32h16l-8 10-8-10Z"/></svg>