<svg xmlns="http://www.w3.org/2000/svg" width="88" height="88"><g transform="translate(-701 -502)"><rect width="40" height="40" fill="#00d3bd" data-name="Rectangle 73" rx="20" transform="translate(725 526)"/><text fill="#fff" font-family="Roboto-Bold, Roboto" font-size="12" font-weight="700" letter-spacing=".064em" transform="translate(745 550)"><tspan x="-13.322" y="0">html</tspan></text><path fill="#25d5e8" d="M725 546a20 20 0 1 1 20 20 20 20 0 0 1-20-20Z"/><path fill="#e44d26" d="m736.264 556.933-1.931-21.6h21.217l-1.933 21.6-8.684 2.4Z"/><path fill="#f16529" d="m744.942 557.42 7.039-1.937 1.661-18.411h-8.7Z" data-name="Shape"/><path fill="#ebebeb" d="M744.942 545.036h-3.488l-.241-2.709h3.729v-2.646h-6.609l.063.71.648 7.29h5.9ZM744.942 552.016h-.011l-2.915-.804-.186-2.14h-2.627l.367 4.213 5.36 1.526h.012Z" data-name="Shape"/><path fill="#fff" d="M744.942 545.072v2.677h3.225l-.3 3.472-2.925.805v2.785l5.368-1.521.039-.452.616-7.047.064-.719h-6.087ZM744.942 539.681v2.609h6.372l.053-.586.121-1.323.063-.7Z" data-name="Shape"/></g></svg>