<svg xmlns="http://www.w3.org/2000/svg" width="88" height="88"><path fill="#0057ff" d="M55.1 57a10.076 10.076 0 0 1-6.437-2.217c-1.852-1.468-2.791-3.9-2.791-7.219 0-3.11.847-5.529 2.517-7.19a8.93 8.93 0 0 1 6.535-2.5 10.55 10.55 0 0 1 4.3.847 7.386 7.386 0 0 1 3.156 2.667 8.757 8.757 0 0 1 1.46 3.729A23.047 23.047 0 0 1 64 48.7H50.678a4.331 4.331 0 0 0 1.915 3.8 4.922 4.922 0 0 0 2.636.68 4.1 4.1 0 0 0 2.651-.826 3.93 3.93 0 0 0 .986-1.241h4.88a5.927 5.927 0 0 1-1.771 3.26A8.988 8.988 0 0 1 55.1 57Zm-.178-15.236a3.838 3.838 0 0 0-2.853 1.029 4.9 4.9 0 0 0-1.275 2.791h8.237a3.949 3.949 0 0 0-1.271-2.851 4.262 4.262 0 0 0-2.838-.969ZM35.139 56.386H24V32h11.945c3 .044 5.155.918 6.406 2.6a6.18 6.18 0 0 1 1.134 3.72 5.41 5.41 0 0 1-1.143 3.592 5.944 5.944 0 0 1-1.886 1.388 5.569 5.569 0 0 1 2.858 2.153 6.415 6.415 0 0 1 .962 3.573 7.069 7.069 0 0 1-1.1 3.888 6.8 6.8 0 0 1-1.749 1.919 6.9 6.9 0 0 1-2.792 1.225 17.47 17.47 0 0 1-3.496.328ZM28.928 45.65v6.5h6a5.951 5.951 0 0 0 2.5-.43 3.077 3.077 0 0 0 1.626-3.043 2.629 2.629 0 0 0-1.574-2.618 6.323 6.323 0 0 0-2.472-.413Zm0-9.415v5.381h6.011a5.05 5.05 0 0 0 2.616-.606 2.3 2.3 0 0 0 1-2.139 2.2 2.2 0 0 0-1.326-2.256 9.526 9.526 0 0 0-2.923-.38Zm31.226-.063H49.56v-3.035h10.594v3.033Z"/></svg>