<svg xmlns="http://www.w3.org/2000/svg" width="88" height="88"><path fill="#0078d7" d="M44.081 56.215c-6.681 0-9.734-3.4-9.734-5.9a2.165 2.165 0 0 1 2.285-2.165c2.861 0 2.112 4.291 7.45 4.291 2.728 0 4.331-1.642 4.331-3.185 0-.927-.53-1.987-2.331-2.41l-5.96-1.5c-4.788-1.218-5.622-3.88-5.622-6.35 0-5.125 4.688-6.979 9.151-6.979 4.112 0 9 2.271 9 5.344a2.127 2.127 0 0 1-2.39 2.033c-2.443 0-2.033-3.43-6.946-3.43-2.443 0-3.728 1.146-3.728 2.748s1.9 2.145 3.569 2.51l4.4.993c4.821 1.086 6.105 3.913 6.105 6.622 0 4.165-3.225 7.383-9.582 7.383m18.45-8.82a19.115 19.115 0 0 0 .285-3.311 18.819 18.819 0 0 0-22.077-18.612A11.072 11.072 0 0 0 35.188 24a11.257 11.257 0 0 0-9.714 16.826 18.832 18.832 0 0 0 21.8 21.918 11.065 11.065 0 0 0 5.542 1.477A11.257 11.257 0 0 0 62.529 47.4"/></svg>