<svg xmlns="http://www.w3.org/2000/svg" width="88" height="88"><defs><clipPath id="a"><path d="M0 39.998h40v-40H0Z"/></clipPath></defs><g clip-path="url(#a)" transform="translate(24.032 23.966)"><path fill="#1778f2" d="M20.001-.002a20 20 0 0 0-20 20 20 20 0 0 0 16.551 19.7V25.516h-4.827v-5.518h4.827v-4.406c0-5.013 3.31-8.007 7.879-8.007a34.8 34.8 0 0 1 4.535.359v5.154h-2.58c-2.484 0-2.936 1.563-2.936 3.146v3.754h5.517l-.965 5.518H23.45v14.182a20 20 0 0 0 16.552-19.7 20 20 0 0 0-20-20"/></g><path fill="#fff" d="m52.033 49.485.966-5.518h-5.513v-3.751c0-1.583.452-3.146 2.936-3.146h2.582v-5.157a34.821 34.821 0 0 0-4.536-.359c-4.569 0-7.878 2.994-7.878 8.007v4.406h-4.828v5.518h4.824v14.174a20.213 20.213 0 0 0 3.448.3 20.216 20.216 0 0 0 3.449-.3V49.485Z"/></svg>