<svg xmlns="http://www.w3.org/2000/svg" xmlns:xlink="http://www.w3.org/1999/xlink" width="88" height="88"><defs><linearGradient id="a" x1=".5" x2=".5" y2="1" gradientUnits="objectBoundingBox"><stop offset="0" stop-color="#1400c8"/><stop offset=".51" stop-color="#b900b4"/><stop offset="1" stop-color="#f50000"/></linearGradient><linearGradient xlink:href="#a" id="b" x1="1" x2="0" y2=".928"/></defs><path fill="url(#b)" d="M-6445.245-9412.459a14.521 14.521 0 0 1-4.856-.93 9.783 9.783 0 0 1-3.542-2.3 9.839 9.839 0 0 1-2.308-3.544 14.651 14.651 0 0 1-.928-4.856c-.1-2.13-.121-2.813-.121-8.243s.023-6.113.121-8.248a14.648 14.648 0 0 1 .928-4.854 9.808 9.808 0 0 1 2.308-3.542 9.764 9.764 0 0 1 3.542-2.306 14.587 14.587 0 0 1 4.856-.933c2.132-.095 2.813-.121 8.246-.121s6.113.026 8.246.121a14.587 14.587 0 0 1 4.854.933 9.754 9.754 0 0 1 3.544 2.306 9.794 9.794 0 0 1 2.306 3.542 14.691 14.691 0 0 1 .93 4.854c.1 2.135.121 2.813.121 8.248s-.024 6.113-.121 8.243a14.694 14.694 0 0 1-.93 4.856 9.826 9.826 0 0 1-2.306 3.544 9.774 9.774 0 0 1-3.544 2.3 14.521 14.521 0 0 1-4.854.93c-2.133.1-2.816.121-8.246.121s-6.114-.021-8.246-.121Zm.164-36.157a11.153 11.153 0 0 0-3.715.688 6.18 6.18 0 0 0-2.3 1.5 6.214 6.214 0 0 0-1.5 2.3 11.136 11.136 0 0 0-.688 3.715c-.095 2.106-.116 2.742-.116 8.082s.021 5.971.116 8.08a11.153 11.153 0 0 0 .688 3.715 6.221 6.221 0 0 0 1.5 2.3 6.265 6.265 0 0 0 2.3 1.5 11.167 11.167 0 0 0 3.715.686c2.109.095 2.74.116 8.082.116s5.973-.021 8.082-.116a11.14 11.14 0 0 0 3.713-.686 6.276 6.276 0 0 0 2.3-1.5 6.209 6.209 0 0 0 1.495-2.3 11.026 11.026 0 0 0 .688-3.715c.1-2.109.119-2.74.119-8.08s-.021-5.976-.119-8.082a11.009 11.009 0 0 0-.688-3.715 6.2 6.2 0 0 0-1.495-2.3 6.191 6.191 0 0 0-2.3-1.5 11.126 11.126 0 0 0-3.713-.687c-2.109-.1-2.742-.116-8.082-.116s-5.974.017-8.083.115Zm-2.189 16.28a10.273 10.273 0 0 1 10.27-10.271 10.271 10.271 0 0 1 10.27 10.271 10.271 10.271 0 0 1-10.27 10.27 10.272 10.272 0 0 1-10.271-10.27Zm3.6 0a6.668 6.668 0 0 0 6.668 6.666 6.666 6.666 0 0 0 6.666-6.666A6.668 6.668 0 0 0-6437-9439a6.67 6.67 0 0 0-6.668 6.664Zm14.943-10.675a2.4 2.4 0 0 1 2.4-2.4 2.4 2.4 0 0 1 2.4 2.4 2.4 2.4 0 0 1-2.4 2.4 2.4 2.4 0 0 1-2.398-2.4Z" data-name="Union 2" transform="translate(6481 9476.337)"/></svg>