<svg xmlns="http://www.w3.org/2000/svg" width="88" height="88"><g transform="translate(-471 -502)"><rect width="40" height="40" fill="#25d5e8" data-name="Rectangle 71" rx="20" transform="translate(495 526)"/><text fill="#fff" font-family="Roboto-Bold, Roboto" font-size="12" font-weight="700" letter-spacing=".064em" transform="translate(515 550)"><tspan x="-9.071" y="0">Fig</tspan></text><path fill="#333" d="M495 546a20 20 0 1 1 20 20 20 20 0 0 1-20-20Z"/><path fill="#0acf83" d="M511 558a4 4 0 0 0 4-4v-4h-4a4 4 0 0 0 0 8Z" data-name="5"/><path fill="#a259ff" d="M507 546a4 4 0 0 1 4-4h4v8h-4a4 4 0 0 1-4-4Z" data-name="4"/><g data-name="3"><g data-name="path2_fill-link"><path fill="#f24e1e" d="M507 538a4 4 0 0 1 4-4h4v8h-4a4 4 0 0 1-4-4Z" data-name="path2_fill"/></g></g><path fill="#ff7262" d="M515 534h4a4 4 0 0 1 0 8h-4Z" data-name="2"/><path fill="#1abcfe" d="M523 546a4 4 0 1 1-4-4 4 4 0 0 1 4 4Z" data-name="1"/></g></svg>