<svg width="1200" height="720" viewBox="0 0 1200 720" fill="none" xmlns="http://www.w3.org/2000/svg">
<mask id="mask0_1166_798" style="mask-type:alpha" maskUnits="userSpaceOnUse" x="0" y="0" width="1200" height="720">
<rect width="1200" height="720" fill="#D9D9D9"/>
</mask>
<g mask="url(#mask0_1166_798)">
<rect width="1200" height="720" transform="matrix(1 0 0 -1 0 720)" fill="url(#paint0_linear_1166_798)"/>
<path opacity="0.04" d="M721 0H1200V720H0C510.997 474.774 673.988 317.958 721 0Z" fill="url(#paint1_radial_1166_798)"/>
<path opacity="0.4" d="M1091 0H1200V720H370C696.139 617.839 868.98 520.358 1091 0Z" fill="white"/>
<path fill-rule="evenodd" clip-rule="evenodd" d="M-100.045 5.49782C-57.4196 9.38528 8.00189 26.6989 65.676 65.9986C123.337 105.289 173.242 166.545 184.914 258.343C199.541 373.388 244.098 450.003 297.467 487.279C316.452 500.54 336.546 508.817 356.791 512.073C356.338 512.118 355.885 512.16 355.432 512.199C332.338 510.195 309.249 501.598 287.599 486.46C234.596 449.398 190.178 373.089 175.59 258.217C163.888 166.082 113.841 104.591 56.0555 65.1723C-1.71678 25.7621 -67.2349 8.4023 -109.954 4.50196L-110.045 5.49782C-67.467 9.38526 -2.11813 26.6988 55.492 65.9984C113.089 105.289 162.939 166.545 174.598 258.343C189.208 373.388 233.716 450.003 287.026 487.279C306.943 501.206 328.081 509.635 349.332 512.525C324.611 511.379 299.779 502.668 276.599 486.46C223.596 449.398 179.178 373.089 164.59 258.217C152.888 166.082 102.841 104.591 45.0555 65.1723C-12.7168 25.7621 -78.2349 8.4023 -120.954 4.50196L-121.045 5.49782C-78.467 9.38526 -13.1181 26.6988 44.492 65.9984C102.089 105.289 151.939 166.545 163.598 258.343C178.208 373.388 222.716 450.003 276.026 487.279C295.749 501.07 316.669 509.47 337.711 512.439C313.526 510.994 289.273 502.314 266.599 486.46C213.596 449.398 169.178 373.089 154.59 258.217C142.888 166.082 92.8407 104.591 35.0555 65.1723C-22.7168 25.7621 -88.2349 8.4023 -130.954 4.50196L-131.045 5.49782C-88.467 9.38526 -23.1181 26.6988 34.492 65.9984C92.0892 105.289 141.939 166.545 153.598 258.343C168.208 373.388 212.716 450.003 266.026 487.279C292.697 505.928 321.559 514.72 349.947 513.553C353.451 513.697 356.952 513.69 360.446 513.532C364.038 513.694 367.627 513.697 371.208 513.542C374.714 513.693 378.217 513.694 381.713 513.543C385.295 513.697 388.875 513.693 392.447 513.532C395.951 513.69 399.452 513.697 402.947 513.553C406.451 513.697 409.952 513.69 413.446 513.532C417.038 513.694 420.627 513.697 424.208 513.542C427.714 513.693 431.217 513.694 434.713 513.543C438.295 513.697 441.875 513.693 445.446 513.532C448.951 513.69 452.452 513.697 455.947 513.553C487.743 514.856 519.339 503.746 547.018 480.081C554.276 473.876 561.961 468.678 569.998 464.478C584.527 470.726 599.112 479.153 613.491 489.728C678.076 537.23 738.415 628.046 770.514 759.119L771.486 758.881C739.346 627.647 678.906 536.6 614.083 488.923C599.9 478.49 585.502 470.133 571.144 463.887C572.268 463.315 573.398 462.763 574.535 462.23C590.866 468.646 607.309 477.826 623.491 489.728C688.076 537.23 748.415 628.046 780.514 759.119L781.486 758.881C749.346 627.647 688.906 536.6 624.083 488.923C608.134 477.192 591.915 468.085 575.786 461.653C577.042 461.082 578.306 460.535 579.577 460.01C597.859 466.451 616.339 476.378 634.491 489.728C699.076 537.23 759.415 628.046 791.514 759.119L792.486 758.881C760.346 627.647 699.906 536.6 635.083 488.923C617.216 475.781 599.009 465.932 580.969 459.447C582.159 458.974 583.356 458.522 584.56 458.09C604.739 464.396 625.229 474.97 645.317 489.728C709.973 537.231 770.379 628.046 802.514 759.119L803.486 758.881C771.311 627.647 710.803 536.599 645.909 488.922C626.167 474.419 606.013 463.926 586.125 457.54C587.195 457.173 588.27 456.821 589.349 456.486C611.258 462.52 633.614 473.637 655.491 489.728C720.076 537.23 780.415 628.046 812.514 759.119L813.486 758.881C781.346 627.647 720.906 536.6 656.083 488.923C634.628 473.142 612.684 462.11 591.127 455.949C592.26 455.616 593.399 455.301 594.543 455.003C618.297 460.591 642.677 472.213 666.491 489.728C731.076 537.23 791.415 628.046 823.514 759.119L824.486 758.881C792.346 627.647 731.906 536.6 667.083 488.923C643.8 471.798 619.942 460.265 596.627 454.481C597.518 454.266 598.411 454.061 599.308 453.867C624.705 458.912 650.924 470.924 676.491 489.728C741.076 537.23 801.415 628.046 833.514 759.119L834.486 758.881C802.346 627.647 741.906 536.6 677.083 488.923C652.185 470.61 626.629 458.691 601.782 453.36C602.717 453.178 603.656 453.008 604.597 452.848C631.761 457.145 660.003 469.511 687.491 489.728C752.076 537.23 812.415 628.046 844.514 759.119L845.486 758.881C813.346 627.647 752.906 536.6 688.083 488.923C661.49 469.363 634.146 457.098 607.718 452.363C608.411 452.264 609.106 452.171 609.802 452.084C638.679 455.501 668.929 468.137 698.317 489.728C762.973 537.231 823.379 628.046 855.514 759.119L856.486 758.881C824.311 627.647 763.803 536.599 698.909 488.922C670.789 468.263 641.832 455.742 614.001 451.635C614.278 451.611 614.554 451.587 614.831 451.564C645.243 453.997 677.351 466.825 708.491 489.728C773.076 537.23 833.415 628.046 865.514 759.119L866.486 758.881C834.346 627.647 773.906 536.6 709.083 488.923C680.202 467.68 650.435 455.041 621.917 451.308C653.48 452.913 687.012 465.84 719.491 489.728C784.076 537.23 844.415 628.046 876.514 759.119L877.486 758.881C845.346 627.647 784.906 536.6 720.083 488.923C691.456 467.867 661.959 455.265 633.671 451.408C664.72 453.395 697.613 466.282 729.491 489.728C794.076 537.23 854.415 628.046 886.514 759.119L887.486 758.881C855.346 627.647 794.906 536.6 730.083 488.923C693.443 461.974 655.378 448.872 620.247 450.232C616.722 450.098 613.222 450.104 609.751 450.252C606.176 450.102 602.626 450.097 599.105 450.238C595.578 450.1 592.075 450.102 588.602 450.246C584.957 450.097 581.338 450.099 577.751 450.252C574.223 450.104 570.721 450.098 567.246 450.232C563.722 450.098 560.222 450.104 556.751 450.252C553.175 450.102 549.626 450.097 546.105 450.238C542.578 450.1 539.075 450.102 535.601 450.246C531.957 450.097 528.338 450.099 524.751 450.252C521.223 450.104 517.721 450.098 514.247 450.232C483.471 449.059 454.576 458.624 430.368 479.321C421.421 486.971 412.064 493.299 402.423 498.311C395.711 494.95 389.09 490.999 382.599 486.46C329.596 449.398 285.178 373.089 270.59 258.217C258.888 166.082 208.841 104.591 151.056 65.1723C93.2832 25.7621 27.7651 8.4023 -14.9545 4.50196L-15.0454 5.49782C27.533 9.38526 92.8819 26.6988 150.492 65.9984C208.089 105.289 257.939 166.545 269.598 258.343C284.208 373.388 328.716 450.003 382.026 487.279C388.347 491.699 394.791 495.565 401.323 498.877C400.057 499.52 398.786 500.141 397.511 500.739C389.055 496.903 380.726 492.142 372.599 486.46C319.596 449.398 275.178 373.089 260.59 258.217C248.888 166.082 198.841 104.591 141.056 65.1723C83.2832 25.7621 17.7651 8.4023 -24.9545 4.50196L-25.0454 5.49782C17.533 9.38526 82.8819 26.6988 140.492 65.9984C198.089 105.289 247.939 166.545 259.598 258.343C274.208 373.388 318.716 450.003 372.026 487.279C379.953 492.822 388.073 497.494 396.317 501.293C394.916 501.933 393.51 502.546 392.099 503.133C381.722 498.949 371.51 493.39 361.599 486.46C308.596 449.398 264.178 373.089 249.59 258.217C237.888 166.082 187.841 104.591 130.056 65.1723C72.2832 25.7621 6.76514 8.4023 -35.9545 4.50196L-36.0454 5.49782C6.53297 9.38526 71.8819 26.6988 129.492 65.9984C187.089 105.289 236.939 166.545 248.598 258.343C263.208 373.388 307.716 450.003 361.026 487.279C370.697 494.042 380.656 499.508 390.777 503.673C389.493 504.19 388.205 504.685 386.913 505.157C374.689 500.809 362.657 494.574 351.04 486.46C297.978 449.398 253.511 373.089 238.906 258.217C227.191 166.081 177.088 104.591 119.239 65.1722C61.4029 25.762 -4.18771 8.40228 -46.9545 4.50195L-47.0454 5.49782C-4.4196 9.38528 61.0019 26.6989 118.676 65.9986C176.337 105.289 226.242 166.545 237.914 258.343C252.541 373.388 297.098 450.003 350.467 487.279C361.796 495.193 373.521 501.331 385.436 505.687C384.207 506.119 382.974 506.531 381.738 506.923C367.704 502.572 353.881 495.747 340.599 486.46C287.596 449.398 243.178 373.089 228.59 258.217C216.888 166.082 166.841 104.591 109.056 65.1723C51.2832 25.7621 -14.2349 8.4023 -56.9545 4.50196L-57.0454 5.49782C-14.467 9.38526 50.8819 26.6988 108.492 65.9984C166.089 105.289 215.939 166.545 227.598 258.343C242.208 373.388 286.716 450.003 340.026 487.279C352.958 496.322 366.404 503.046 380.062 507.442C378.81 507.82 377.555 508.178 376.297 508.515C360.357 504.328 344.631 496.971 329.599 486.46C276.596 449.398 232.178 373.089 217.59 258.217C205.888 166.082 155.841 104.591 98.0555 65.1723C40.2832 25.7621 -25.2349 8.4023 -67.9545 4.50196L-68.0454 5.49782C-25.467 9.38526 39.8819 26.6988 97.492 65.9984C155.089 105.289 204.939 166.545 216.598 258.343C231.208 373.388 275.716 450.003 329.026 487.279C343.62 497.484 358.87 504.737 374.339 509.022C373.341 509.272 372.342 509.509 371.342 509.733C353.678 505.844 336.215 498.078 319.599 486.46C266.596 449.398 222.178 373.089 207.59 258.217C195.888 166.082 145.841 104.591 88.0555 65.1723C30.2832 25.7621 -35.2349 8.4023 -77.9545 4.50196L-78.0454 5.49782C-35.467 9.38526 29.8819 26.6988 87.492 65.9984C145.089 105.289 194.939 166.545 206.598 258.343C221.208 373.388 265.716 450.003 319.026 487.279C335.091 498.513 351.952 506.17 369.024 510.228C367.978 510.441 366.931 510.639 365.882 510.824C346.336 507.424 326.95 499.291 308.599 486.46C255.596 449.398 211.178 373.089 196.59 258.217C184.888 166.082 134.841 104.591 77.0555 65.1723C19.2832 25.7621 -46.2349 8.4023 -88.9545 4.50196L-89.0454 5.49782C-46.467 9.38526 18.8819 26.6988 76.492 65.9984C134.089 105.289 183.939 166.545 195.598 258.343C210.208 373.388 254.716 450.003 308.026 487.279C325.64 499.596 344.211 507.613 362.969 511.301C362.202 511.417 361.435 511.526 360.666 511.627C339.315 508.848 318.062 500.445 298.04 486.46C244.978 449.398 200.511 373.089 185.906 258.217C174.191 166.081 124.088 104.591 66.2391 65.1722C8.40286 25.762 -57.1877 8.40228 -99.9545 4.50195L-100.045 5.49782ZM402.431 499.433C401.196 500.069 399.956 500.684 398.712 501.277C400.003 501.849 401.296 502.398 402.591 502.927C403.837 502.403 405.079 501.858 406.317 501.293C405.019 500.694 403.723 500.074 402.431 499.433ZM407.519 501.84C406.318 502.398 405.114 502.936 403.906 503.455C405.324 504.017 406.746 504.553 408.17 505.063C409.376 504.619 410.578 504.156 411.777 503.673C410.354 503.088 408.935 502.477 407.519 501.84ZM413.099 503.133C411.633 502.542 410.171 501.923 408.712 501.277C419.895 495.943 430.727 488.88 441.018 480.081C462.106 462.052 486.804 452.525 513.235 451.278C490.736 454.351 469.707 463.642 451.368 479.321C439.258 489.674 426.398 497.608 413.099 503.133ZM413.105 504.212C411.954 504.686 410.799 505.143 409.642 505.581C410.933 506.027 412.226 506.452 413.52 506.856C414.677 506.487 415.831 506.1 416.982 505.696C415.688 505.223 414.395 504.728 413.105 504.212ZM418.461 505.167C417.114 504.687 415.769 504.185 414.426 503.66C427.484 498.115 440.113 490.259 452.018 480.081C471.93 463.057 495.062 453.614 519.831 451.564C520.289 451.6 520.746 451.639 521.205 451.681C499.706 455.112 479.609 464.275 461.991 479.321C448.291 491.021 433.63 499.631 418.461 505.167ZM418.466 506.229C417.376 506.623 416.284 507.002 415.19 507.365C416.389 507.721 417.59 508.06 418.792 508.381C419.884 508.084 420.974 507.771 422.062 507.442C420.862 507.056 419.663 506.652 418.466 506.229ZM423.738 506.923C422.471 506.531 421.206 506.118 419.943 505.685C434.815 500.098 449.19 491.569 462.64 480.081C481.164 464.262 502.471 454.988 525.29 452.11C526.026 452.198 526.762 452.293 527.499 452.393C507.537 456.283 488.865 465.217 472.368 479.321C457.139 492.342 440.721 501.535 423.738 506.923ZM423.743 507.971C422.737 508.287 421.73 508.59 420.72 508.88C421.926 509.183 423.133 509.467 424.342 509.733C425.342 509.509 426.341 509.272 427.339 509.022C426.139 508.69 424.94 508.339 423.743 507.971ZM429.297 508.515C428.002 508.175 426.708 507.814 425.416 507.432C442.034 501.95 458.095 492.84 473.018 480.081C490.161 465.424 509.69 456.387 530.597 452.848C531.676 453.019 532.756 453.202 533.838 453.398C515.629 457.712 498.574 466.32 483.368 479.321C466.518 493.728 448.212 503.449 429.297 508.515ZM429.3 509.549C428.42 509.783 427.539 510.006 426.657 510.22C427.564 510.402 428.471 510.574 429.379 510.736C430.262 510.576 431.144 510.407 432.025 510.228C431.116 510.012 430.208 509.785 429.3 509.549ZM434.342 509.733C433.312 509.506 432.283 509.266 431.255 509.013C449.707 503.791 467.555 494.157 484.018 480.081C499.707 466.667 517.395 457.96 536.308 453.867C537.355 454.075 538.403 454.295 539.452 454.527C522.888 459.13 507.347 467.37 493.368 479.321C475.05 494.983 455.013 505.106 434.342 509.733ZM434.344 510.757C433.637 510.914 432.929 511.064 432.22 511.208C433.117 511.347 434.013 511.476 434.91 511.594C435.597 511.503 436.283 511.405 436.969 511.301C436.094 511.129 435.219 510.948 434.344 510.757ZM439.882 510.824C438.806 510.637 437.732 510.436 436.657 510.22C456.74 505.356 476.191 495.323 494.018 480.081C508.382 467.8 524.422 459.464 541.543 455.003C542.879 455.317 544.217 455.651 545.556 456.003C530.822 460.8 516.961 468.555 504.368 479.321C484.442 496.358 462.481 506.842 439.882 510.824ZM439.884 511.839C439.494 511.908 439.104 511.974 438.714 512.038C438.967 512.063 439.219 512.088 439.472 512.112C439.715 512.135 439.958 512.157 440.202 512.179C440.569 512.146 440.936 512.112 441.302 512.076C440.83 512 440.357 511.921 439.884 511.839ZM445.184 511.63C444.386 511.526 443.588 511.415 442.79 511.295C464.595 506.94 485.755 496.551 505.018 480.081C517.92 469.05 532.174 461.202 547.349 456.486C548.713 456.862 550.079 457.257 551.447 457.672C538.473 462.521 526.228 469.725 514.991 479.321C493.503 497.673 469.651 508.421 445.184 511.63ZM450.432 512.199C449.974 512.159 449.515 512.117 449.056 512.072C472.395 508.272 495.095 497.628 515.64 480.081C527.133 470.267 539.696 462.972 553.027 458.16C554.402 458.593 555.779 459.045 557.157 459.517C545.907 464.282 535.247 470.875 525.368 479.321C502.382 498.974 476.689 509.906 450.432 512.199ZM468.051 512.447C495.48 510.828 522.396 499.816 546.368 479.321C553.469 473.25 560.973 468.137 568.81 463.972C567.384 463.37 565.959 462.79 564.535 462.23C554.846 466.772 545.63 472.718 537.018 480.081C515.776 498.243 492.227 509.01 468.051 512.447ZM569.951 463.373C571.044 462.807 572.143 462.26 573.248 461.73C571.87 461.201 570.493 460.691 569.116 460.202C568 460.667 566.89 461.151 565.786 461.653C567.174 462.206 568.562 462.78 569.951 463.373ZM574.494 461.143C575.707 460.579 576.928 460.037 578.157 459.517C576.839 459.066 575.522 458.632 574.207 458.217C572.962 458.669 571.725 459.142 570.494 459.637C571.826 460.121 573.16 460.623 574.494 461.143ZM579.541 458.941C580.679 458.476 581.822 458.03 582.972 457.602C581.724 457.226 580.478 456.866 579.233 456.522C578.069 456.885 576.911 457.267 575.758 457.666C577.018 458.075 578.279 458.5 579.541 458.941ZM584.528 457.035C585.533 456.677 586.543 456.333 587.556 456.003C586.392 455.697 585.23 455.405 584.068 455.128C583.044 455.4 582.023 455.685 581.006 455.985C582.179 456.32 583.353 456.671 584.528 457.035ZM589.321 455.444C590.361 455.124 591.405 454.818 592.452 454.527C591.403 454.295 590.355 454.075 589.308 453.867C588.241 454.098 587.179 454.344 586.12 454.604C587.186 454.872 588.253 455.152 589.321 455.444ZM594.518 453.973C595.289 453.774 596.063 453.582 596.838 453.398C595.929 453.234 595.021 453.078 594.114 452.931C593.335 453.066 592.557 453.209 591.782 453.36C592.693 453.555 593.605 453.76 594.518 453.973ZM599.286 452.846C600.022 452.688 600.759 452.537 601.499 452.393C600.815 452.3 600.131 452.212 599.448 452.129C598.684 452.227 597.922 452.331 597.162 452.443C597.869 452.572 598.577 452.706 599.286 452.846ZM604.577 451.835C604.939 451.774 605.301 451.715 605.664 451.657C605.341 451.629 605.017 451.601 604.694 451.575C604.312 451.607 603.93 451.641 603.548 451.677C603.891 451.728 604.234 451.781 604.577 451.835ZM407.511 500.739C406.181 500.136 404.854 499.509 403.53 498.86C413.009 493.868 422.212 487.61 431.018 480.081C451.672 462.422 475.79 452.921 501.607 451.365C479.345 454.525 458.536 463.788 440.368 479.321C429.909 488.263 418.889 495.4 407.511 500.739ZM536.368 479.321C511.93 500.215 484.433 511.253 456.452 512.53C480.838 509.188 504.6 498.393 526.018 480.081C536.112 471.451 547.034 464.769 558.577 460.01C560.133 460.559 561.69 461.132 563.248 461.73C553.799 466.255 544.799 472.113 536.368 479.321ZM567.71 459.707C566.632 460.169 565.56 460.648 564.493 461.143C562.984 460.554 561.476 459.989 559.969 459.447C561.043 459.021 562.122 458.611 563.207 458.217C564.706 458.69 566.207 459.187 567.71 459.707ZM572.633 457.729C571.442 458.176 570.258 458.643 569.08 459.131C567.638 458.621 566.198 458.133 564.758 457.666C565.949 457.253 567.146 456.86 568.349 456.486C569.775 456.879 571.203 457.293 572.633 457.729ZM577.445 456.04C576.35 456.397 575.26 456.771 574.175 457.162C572.824 456.738 571.475 456.334 570.127 455.949C571.221 455.628 572.319 455.323 573.422 455.035C574.761 455.351 576.102 455.686 577.445 456.04ZM582.01 454.651C581.071 454.915 580.136 455.192 579.205 455.48C577.968 455.141 576.733 454.818 575.499 454.511C576.432 454.285 577.368 454.071 578.308 453.867C579.54 454.112 580.774 454.373 582.01 454.651ZM586.838 453.398C585.903 453.62 584.972 453.853 584.044 454.097C582.955 453.838 581.868 453.593 580.782 453.36C581.717 453.178 582.656 453.008 583.597 452.848C584.676 453.019 585.756 453.202 586.838 453.398ZM589.965 452.702C589.738 452.749 589.512 452.797 589.286 452.846C588.429 452.677 587.573 452.516 586.718 452.363C587.293 452.281 587.87 452.203 588.448 452.129C589.326 452.236 590.206 452.35 591.086 452.474C590.712 452.548 590.338 452.624 589.965 452.702ZM595.404 451.699C594.967 451.769 594.53 451.842 594.094 451.917C593.578 451.834 593.063 451.754 592.548 451.677C592.975 451.637 593.403 451.599 593.831 451.564C594.355 451.606 594.879 451.651 595.404 451.699ZM431.096 512.042C430.524 511.949 429.952 511.852 429.381 511.751C428.826 511.851 428.27 511.946 427.714 512.038C428.287 512.096 428.86 512.15 429.432 512.199C429.987 512.151 430.542 512.099 431.096 512.042ZM426.532 511.215C425.803 511.069 425.073 510.916 424.344 510.757C423.494 510.945 422.643 511.125 421.79 511.295C422.497 511.401 423.203 511.501 423.91 511.594C424.785 511.477 425.659 511.351 426.532 511.215ZM422.024 510.228C420.947 509.972 419.871 509.701 418.795 509.417C417.751 509.698 416.705 509.966 415.657 510.22C416.732 510.436 417.806 510.637 418.882 510.824C419.931 510.639 420.978 510.441 422.024 510.228ZM416.864 508.889C415.749 508.576 414.636 508.248 413.524 507.904C412.359 508.272 411.192 508.623 410.022 508.956C411.128 509.23 412.234 509.489 413.342 509.733C414.518 509.469 415.692 509.188 416.864 508.889ZM411.853 507.375C410.625 506.977 409.399 506.561 408.175 506.126C406.926 506.582 405.672 507.017 404.416 507.432C405.635 507.792 406.855 508.134 408.076 508.457C409.338 508.117 410.597 507.756 411.853 507.375ZM406.702 505.593C405.331 505.089 403.963 504.56 402.598 504.008C401.283 504.556 399.965 505.08 398.642 505.581C400.005 506.052 401.371 506.499 402.738 506.924C404.063 506.503 405.384 506.06 406.702 505.593ZM401.282 503.469C400.025 502.946 398.771 502.403 397.519 501.84C396.16 502.472 394.795 503.078 393.426 503.66C394.672 504.147 395.92 504.615 397.17 505.063C398.545 504.557 399.916 504.025 401.282 503.469ZM392.105 504.212C390.872 504.72 389.635 505.207 388.395 505.674C389.588 506.083 390.782 506.474 391.978 506.847C393.223 506.449 394.464 506.031 395.701 505.593C394.501 505.151 393.302 504.691 392.105 504.212ZM397.175 506.126C396.002 506.554 394.826 506.964 393.647 507.355C394.943 507.741 396.241 508.106 397.541 508.449C398.717 508.132 399.891 507.796 401.062 507.442C399.765 507.025 398.469 506.586 397.175 506.126ZM402.742 507.971C401.659 508.312 400.573 508.637 399.485 508.948C400.612 509.227 401.74 509.491 402.869 509.739C403.958 509.496 405.045 509.238 406.13 508.964C405 508.649 403.871 508.318 402.742 507.971ZM408.079 509.491C407.118 509.748 406.155 509.993 405.19 510.227C406.17 510.423 407.151 510.607 408.132 510.78C409.098 510.608 410.062 510.424 411.025 510.228C410.042 509.994 409.06 509.749 408.079 509.491ZM413.345 510.757C412.567 510.929 411.788 511.094 411.008 511.252C411.894 511.386 412.78 511.511 413.667 511.627C414.435 511.526 415.202 511.417 415.969 511.301C415.094 511.129 414.219 510.948 413.345 510.757ZM418.884 511.839C418.433 511.918 417.982 511.994 417.53 512.068C417.917 512.106 418.303 512.142 418.69 512.177C418.92 512.156 419.15 512.135 419.381 512.113C419.619 512.09 419.858 512.067 420.096 512.042C419.692 511.977 419.288 511.909 418.884 511.839ZM558.541 458.941C559.567 458.522 560.598 458.118 561.633 457.729C560.322 457.329 559.012 456.948 557.704 456.584C556.66 456.911 555.621 457.254 554.586 457.611C555.903 458.036 557.221 458.48 558.541 458.941ZM563.175 457.162C564.297 456.758 565.424 456.372 566.556 456.003C565.335 455.682 564.116 455.377 562.898 455.087C561.749 455.39 560.606 455.709 559.467 456.047C560.702 456.402 561.938 456.774 563.175 457.162ZM568.321 455.444C569.323 455.135 570.329 454.84 571.339 454.558C570.23 454.313 569.123 454.081 568.017 453.861C566.995 454.082 565.976 454.316 564.961 454.564C566.08 454.844 567.2 455.137 568.321 455.444ZM573.397 454.004C574.209 453.794 575.022 453.592 575.838 453.398C574.875 453.224 573.913 453.059 572.952 452.905C572.131 453.046 571.313 453.196 570.496 453.354C571.462 453.561 572.429 453.777 573.397 454.004ZM578.286 452.846C579.022 452.688 579.759 452.537 580.499 452.393C579.762 452.293 579.026 452.198 578.29 452.11C577.533 452.206 576.778 452.308 576.024 452.418C576.777 452.554 577.531 452.697 578.286 452.846ZM584.097 451.748C584.199 451.732 584.301 451.715 584.404 451.699C583.997 451.662 583.591 451.626 583.186 451.593C582.934 451.614 582.683 451.636 582.432 451.659C582.631 451.689 582.829 451.719 583.028 451.749C583.211 451.777 583.394 451.806 583.577 451.835C583.75 451.806 583.924 451.777 584.097 451.748ZM555.926 456.101C554.945 456.423 553.968 456.758 552.996 457.106C551.705 456.703 550.415 456.317 549.127 455.949C550.104 455.662 551.084 455.389 552.068 455.128C553.352 455.435 554.638 455.759 555.926 456.101ZM560.828 454.61C559.773 454.906 558.722 455.216 557.676 455.542C556.49 455.214 555.304 454.902 554.12 454.604C555.179 454.344 556.241 454.098 557.308 453.867C558.479 454.1 559.653 454.348 560.828 454.61ZM565.542 453.392C564.649 453.603 563.76 453.825 562.873 454.056C561.842 453.813 560.811 453.581 559.782 453.36C560.675 453.186 561.57 453.023 562.468 452.87C563.491 453.033 564.516 453.207 565.542 453.392ZM569.901 452.448C569.264 452.573 568.629 452.704 567.995 452.84C567.186 452.681 566.378 452.529 565.571 452.383C566.196 452.294 566.821 452.209 567.448 452.129C567.824 452.175 568.199 452.222 568.575 452.27C568.81 452.301 569.044 452.331 569.278 452.363C569.486 452.391 569.693 452.419 569.901 452.448ZM574.205 451.681C573.78 451.748 573.356 451.818 572.932 451.891C572.471 451.817 572.009 451.746 571.548 451.677L571.771 451.656L571.94 451.641C572.059 451.63 572.178 451.62 572.297 451.609C572.475 451.594 572.653 451.579 572.831 451.564C572.933 451.572 573.034 451.58 573.136 451.589C573.237 451.597 573.338 451.605 573.439 451.614C573.619 451.629 573.799 451.645 573.98 451.661L574.205 451.681ZM409.791 512.073C409.239 511.984 408.687 511.892 408.135 511.795C407.661 511.879 407.188 511.96 406.714 512.038C406.957 512.062 407.2 512.086 407.443 512.109C407.773 512.141 408.103 512.171 408.433 512.199C408.885 512.16 409.338 512.118 409.791 512.073ZM405.252 511.258C404.458 511.101 403.665 510.936 402.872 510.763C402.094 510.935 401.315 511.1 400.536 511.257C401.327 511.377 402.119 511.49 402.91 511.594C403.691 511.49 404.472 511.378 405.252 511.258ZM400.547 510.234C399.546 509.996 398.544 509.746 397.544 509.484C396.583 509.741 395.621 509.987 394.657 510.22C395.656 510.421 396.656 510.609 397.656 510.785C398.621 510.613 399.585 510.43 400.547 510.234ZM395.597 508.957C394.391 508.621 393.186 508.267 391.983 507.895C390.898 508.239 389.81 508.567 388.72 508.88C389.926 509.183 391.134 509.467 392.342 509.733C393.428 509.489 394.514 509.231 395.597 508.957ZM390.312 507.367C389.18 507 388.048 506.618 386.919 506.219C385.754 506.641 384.587 507.046 383.416 507.432C384.54 507.764 385.665 508.081 386.792 508.381C387.968 508.061 389.141 507.723 390.312 507.367ZM381.742 507.971C380.582 508.336 379.42 508.683 378.255 509.013C379.283 509.266 380.312 509.506 381.342 509.733C382.518 509.469 383.692 509.188 384.864 508.889C383.822 508.597 382.782 508.291 381.742 507.971ZM386.795 509.417C385.751 509.698 384.705 509.966 383.657 510.22C384.732 510.436 385.806 510.637 386.882 510.824C387.931 510.639 388.978 510.441 390.025 510.228C388.947 509.972 387.871 509.701 386.795 509.417ZM392.345 510.757C391.494 510.945 390.643 511.125 389.79 511.295C390.588 511.415 391.386 511.526 392.184 511.63C393.048 511.517 393.91 511.394 394.772 511.262C394.424 511.193 394.076 511.123 393.729 511.051C393.267 510.956 392.806 510.857 392.345 510.757ZM397.658 511.8C397.124 511.894 396.59 511.985 396.056 512.072C396.515 512.117 396.974 512.159 397.432 512.199C397.987 512.151 398.542 512.099 399.096 512.042C398.617 511.964 398.137 511.884 397.658 511.8ZM547.321 455.444C548.214 455.169 549.11 454.904 550.01 454.651C548.774 454.373 547.54 454.112 546.308 453.867C545.411 454.061 544.518 454.266 543.627 454.481C544.857 454.786 546.088 455.107 547.321 455.444ZM552.044 454.097C552.972 453.853 553.903 453.62 554.838 453.398C553.756 453.202 552.676 453.019 551.597 452.848C550.656 453.008 549.717 453.178 548.782 453.36C549.868 453.593 550.955 453.838 552.044 454.097ZM557.286 452.846C557.985 452.696 558.686 452.552 559.388 452.414C558.525 452.296 557.663 452.186 556.803 452.084C556.106 452.171 555.411 452.264 554.718 452.363C555.573 452.516 556.429 452.677 557.286 452.846ZM562.449 451.856C562.767 451.802 563.085 451.75 563.404 451.699C562.879 451.651 562.355 451.606 561.831 451.564C561.554 451.587 561.278 451.611 561.001 451.635C561.134 451.655 561.267 451.675 561.401 451.695C561.516 451.712 561.631 451.73 561.746 451.747L561.899 451.771C562.082 451.799 562.265 451.827 562.449 451.856ZM543.838 453.398C543.409 453.5 542.98 453.604 542.552 453.711C542.207 453.797 541.862 453.884 541.518 453.973C540.605 453.76 539.693 453.555 538.782 453.36C539.129 453.292 539.477 453.226 539.825 453.162C540.254 453.083 540.684 453.006 541.114 452.931C542.021 453.078 542.929 453.234 543.838 453.398ZM548.499 452.393C547.759 452.537 547.022 452.688 546.286 452.846C545.577 452.706 544.869 452.572 544.162 452.443C544.922 452.331 545.684 452.227 546.448 452.129C547.131 452.212 547.815 452.3 548.499 452.393ZM552.664 451.657C552.46 451.69 552.257 451.722 552.053 451.756C551.894 451.782 551.736 451.808 551.577 451.835C551.419 451.81 551.261 451.785 551.102 451.761C550.918 451.732 550.733 451.704 550.548 451.677C550.93 451.641 551.312 451.607 551.694 451.575C552.017 451.601 552.341 451.629 552.664 451.657ZM388.302 512.076C388.071 512.039 387.84 512.001 387.609 511.962C387.367 511.922 387.126 511.881 386.884 511.839C386.494 511.908 386.104 511.974 385.714 512.038C386.21 512.088 386.706 512.135 387.202 512.179C387.569 512.146 387.936 512.112 388.302 512.076ZM383.969 511.301C383.094 511.129 382.219 510.948 381.344 510.757C380.637 510.914 379.929 511.064 379.22 511.208C380.117 511.347 381.013 511.476 381.91 511.594C382.597 511.503 383.283 511.405 383.969 511.301ZM379.024 510.228C378.116 510.012 377.208 509.786 376.3 509.549C375.421 509.783 374.539 510.006 373.657 510.22C374.564 510.402 375.471 510.574 376.379 510.736C377.262 510.576 378.144 510.407 379.024 510.228ZM371.344 510.757C370.494 510.945 369.643 511.125 368.79 511.295C369.497 511.401 370.203 511.501 370.91 511.594C371.785 511.477 372.659 511.351 373.532 511.215C372.803 511.069 372.073 510.916 371.344 510.757ZM376.381 511.751C375.826 511.851 375.27 511.946 374.714 512.038C375.015 512.068 375.316 512.098 375.618 512.126C375.889 512.151 376.161 512.176 376.432 512.199C376.987 512.151 377.542 512.099 378.096 512.042C377.524 511.949 376.952 511.852 376.381 511.751ZM536.286 452.846C536.885 452.717 537.485 452.593 538.086 452.474C537.206 452.35 536.326 452.236 535.448 452.129C534.87 452.203 534.293 452.281 533.718 452.363C534.573 452.516 535.429 452.677 536.286 452.846ZM541.094 451.917C541.53 451.842 541.967 451.769 542.404 451.699C541.879 451.651 541.355 451.606 540.831 451.564C540.403 451.599 539.975 451.637 539.548 451.677C539.811 451.716 540.074 451.756 540.337 451.797C540.589 451.836 540.842 451.876 541.094 451.917ZM531.404 451.699C531.269 451.72 531.135 451.742 531.001 451.764L530.746 451.806L530.577 451.835C530.195 451.775 529.814 451.716 529.432 451.659L529.642 451.64L529.862 451.621L530.027 451.606L530.186 451.593C530.591 451.626 530.997 451.662 531.404 451.699ZM366.294 511.909C366.157 511.886 366.021 511.863 365.884 511.839C365.752 511.862 365.621 511.885 365.489 511.908L365.35 511.931L365.154 511.965C365.04 511.984 364.926 512.003 364.811 512.022L364.662 512.046L364.53 512.068C364.917 512.106 365.303 512.142 365.689 512.177C366.158 512.135 366.627 512.09 367.096 512.042C366.828 511.999 366.561 511.955 366.294 511.909Z" fill="url(#paint2_radial_1166_798)"/>
</g>
<defs>
<linearGradient id="paint0_linear_1166_798" x1="600" y1="0" x2="600" y2="720" gradientUnits="userSpaceOnUse">
<stop stop-color="#FFECF5"/>
<stop offset="1" stop-color="#FFFDC7"/>
</linearGradient>
<radialGradient id="paint1_radial_1166_798" cx="0" cy="0" r="1" gradientUnits="userSpaceOnUse" gradientTransform="translate(65.6321 491.549) rotate(-9.51539) scale(1198.55 2507.96)">
<stop stop-color="#FBF432"/>
<stop offset="0.138" stop-color="#FFBA00"/>
<stop offset="0.452" stop-color="#F7437B"/>
<stop offset="0.519" stop-color="#F6328D"/>
<stop offset="0.559" stop-color="#F332A2"/>
<stop offset="0.687" stop-color="#E732FB"/>
<stop offset="0.825" stop-color="#C93FFC"/>
<stop offset="1" stop-color="#437BFF"/>
</radialGradient>
<radialGradient id="paint2_radial_1166_798" cx="0" cy="0" r="1" gradientUnits="userSpaceOnUse" gradientTransform="translate(887 699) rotate(-144.029) scale(1083.63 947.588)">
<stop stop-color="#FBF432"/>
<stop offset="0.206" stop-color="#FFBA00"/>
<stop offset="0.719" stop-color="#F6328D"/>
<stop offset="1" stop-color="#E732FB"/>
</radialGradient>
</defs>
</svg>
