<svg width="560" height="344" fill="none" xmlns="http://www.w3.org/2000/svg"><g clip-path="url(#a)"><path fill="#fff" d="M0 0h560v344H0z"/><mask id="b" mask-type="alpha" maskUnits="userSpaceOnUse" x="-132" y="-130" width="824" height="756"><path d="M692 248c0-208.765-184.457-378-412-378S-132 39.235-132 248 52.457 626 280 626s412-169.235 412-378Z" fill="#fff"/></mask><g mask="url(#b)"><path d="M556-45.151h-680v392h680v-392Z" fill="url(#c)"/><path d="M753.657 391.981 76.591 222.498 23.238 104.83l638.14-172.836L913 279.98 753.657 391.981Z" fill="url(#d)"/><path opacity=".08" d="M753.657 391.981 76.591 222.498-6.761 94.832 661.38-108.001 913 279.979 753.657 391.981Z" fill="url(#e)"/><path opacity=".08" d="M753.657 391.981 76.591 222.498-46.761 86.832 621.38-148 913 279.979 753.657 391.981Z" fill="url(#f)"/><path d="m23.238 104.83 638.14-172.835L913 279.978 23.238 104.83Z" fill="url(#g)"/><g style="mix-blend-mode:overlay" filter="url(#h)"><path d="m405.162-5.392-74.478-43C275.202-80.424 204.258-61.415 172.225-5.933l-80 138.564c-32.032 55.482-13.023 126.426 42.459 158.459l74.478 43c55.482 32.033 126.427 13.023 158.459-42.459l80-138.564C479.654 97.585 460.644 26.64 405.162-5.392Z" fill="#fff" style="mix-blend-mode:overlay"/></g><g filter="url(#i)"><path opacity=".4" d="M433.92 147.629c17.231-64.286-20.914-130.369-85.2-147.6-64.286-17.231-130.369 20.914-147.6 85.2-17.231 64.286 20.914 130.369 85.2 147.6 64.286 17.231 130.369-20.914 147.6-85.2Z" fill="#fff"/></g><g filter="url(#j)"><path opacity=".24" d="M447.846 225.602c33.137-57.395 13.472-130.786-43.923-163.923S273.137 48.207 240 105.602s-13.472 130.786 43.923 163.923 130.786 13.472 163.923-43.923Z" fill="#fff"/></g><g filter="url(#k)"><path d="M415 158.849c0-72.902-59.098-132-132-132s-132 59.098-132 132 59.098 132 132 132 132-59.098 132-132Z" fill="#fff"/></g><g filter="url(#l)"><path d="M383 158.849c0-55.228-44.772-100-100-100s-100 44.772-100 100 44.772 100 100 100 100-44.772 100-100Z" fill="#fff"/></g><path d="M322.923 102.849h-4v48h4v-48Z" fill="#437BFF"/><path d="M322.923 154.849h-4v32h4v-32Z" fill="#82E397"/><path d="M246.923 102.849h-4v48h4v-48Z" fill="#437BFF"/><path d="M246.923 154.849h-4v32h4v-32Z" fill="#82E397"/><path d="m282.923 269.849-71-27v-40l43 16 28 9 28-9 43-16v40l-71 27Z" fill="#E732FB"/><path d="M254.923 142.849v-32l28 16 28-16v32l-28 8-28-8Z" fill="#FFBA00"/><path d="M254.923 202.849v-44l28 8 28-8v44l-28 8-28-8Z" fill="#F6328D"/></g></g><defs><linearGradient id="c" x1="216" y1="-45.151" x2="216" y2="346.849" gradientUnits="userSpaceOnUse"><stop stop-color="#F2F1F9"/><stop offset="1" stop-color="#fff"/></linearGradient><linearGradient id="d" x1="165.774" y1="376.967" x2="768.194" y2="29.159" gradientUnits="userSpaceOnUse"><stop stop-color="#25D5E8"/><stop offset="1" stop-color="#00D3BD"/></linearGradient><linearGradient id="e" x1="152.626" y1="370.898" x2="762.279" y2="18.915" gradientUnits="userSpaceOnUse"><stop stop-color="#25D5E8"/><stop offset="1" stop-color="#00D3BD"/></linearGradient><linearGradient id="f" x1="119.358" y1="374.559" x2="755.547" y2="7.255" gradientUnits="userSpaceOnUse"><stop stop-color="#25D5E8"/><stop offset="1" stop-color="#00D3BD"/></linearGradient><linearGradient id="g" x1="700.145" y1="342.943" x2="553.579" y2="-81.642" gradientUnits="userSpaceOnUse"><stop stop-color="#25D5E8"/><stop offset="1" stop-color="#437BFF"/></linearGradient><filter id="i" x="132.981" y="-92.11" width="369.077" height="369.078" filterUnits="userSpaceOnUse" color-interpolation-filters="sRGB"><feFlood flood-opacity="0" result="BackgroundImageFix"/><feColorMatrix in="SourceAlpha" values="0 0 0 0 0 0 0 0 0 0 0 0 0 0 0 0 0 0 127 0"/><feOffset dy="-24"/><feGaussianBlur stdDeviation="32"/><feColorMatrix values="0 0 0 0 0.145098 0 0 0 0 0.835294 0 0 0 0 0.909804 0 0 0 0.078 0"/><feBlend in2="BackgroundImageFix" result="effect1_dropShadow"/><feBlend in="SourceGraphic" in2="effect1_dropShadow" result="shape"/></filter><filter id="h" x="-43.335" y="-183.952" width="626.517" height="653.603" filterUnits="userSpaceOnUse" color-interpolation-filters="sRGB"><feFlood flood-opacity="0" result="BackgroundImageFix"/><feBlend in="SourceGraphic" in2="BackgroundImageFix" result="shape"/><feGaussianBlur stdDeviation="60" result="effect1_foregroundBlur"/></filter><filter id="j" x="159.903" y="-42.418" width="368.04" height="368.04" filterUnits="userSpaceOnUse" color-interpolation-filters="sRGB"><feFlood flood-opacity="0" result="BackgroundImageFix"/><feColorMatrix in="SourceAlpha" values="0 0 0 0 0 0 0 0 0 0 0 0 0 0 0 0 0 0 127 0"/><feOffset dy="-24"/><feGaussianBlur stdDeviation="32"/><feColorMatrix values="0 0 0 0 0.145098 0 0 0 0 0.835294 0 0 0 0 0.909804 0 0 0 0.078 0"/><feBlend in2="BackgroundImageFix" result="effect1_dropShadow"/><feBlend in="SourceGraphic" in2="effect1_dropShadow" result="shape"/></filter><filter id="k" x="87" y="-61.151" width="392" height="392" filterUnits="userSpaceOnUse" color-interpolation-filters="sRGB"><feFlood flood-opacity="0" result="BackgroundImageFix"/><feColorMatrix in="SourceAlpha" values="0 0 0 0 0 0 0 0 0 0 0 0 0 0 0 0 0 0 127 0"/><feOffset dy="-24"/><feGaussianBlur stdDeviation="32"/><feColorMatrix values="0 0 0 0 0.145098 0 0 0 0 0.835294 0 0 0 0 0.909804 0 0 0 0.161 0"/><feBlend in2="BackgroundImageFix" result="effect1_dropShadow"/><feBlend in="SourceGraphic" in2="effect1_dropShadow" result="shape"/></filter><filter id="l" x="119" y="-29.151" width="328" height="328" filterUnits="userSpaceOnUse" color-interpolation-filters="sRGB"><feFlood flood-opacity="0" result="BackgroundImageFix"/><feColorMatrix in="SourceAlpha" values="0 0 0 0 0 0 0 0 0 0 0 0 0 0 0 0 0 0 127 0"/><feOffset dy="-24"/><feGaussianBlur stdDeviation="32"/><feColorMatrix values="0 0 0 0 0.145098 0 0 0 0 0.835294 0 0 0 0 0.909804 0 0 0 0.161 0"/><feBlend in2="BackgroundImageFix" result="effect1_dropShadow"/><feBlend in="SourceGraphic" in2="effect1_dropShadow" result="shape"/></filter><clipPath id="a"><path fill="#fff" d="M0 0h560v344H0z"/></clipPath></defs></svg>