<svg xmlns="http://www.w3.org/2000/svg" width="680" height="680" fill="none"><mask id="b" width="680" height="680" x="0" y="0" mask-type="alpha" maskUnits="userSpaceOnUse"><path fill="url(#a)" d="M0 0h680v680H0z"/></mask><g mask="url(#b)"><path fill="url(#c)" d="M0 0h680v680H0z"/><g opacity=".12"><path fill="url(#d)" d="m855.823 1312.31-886.45-871.856 1003.7-362.813 528.207 730.482-645.457 504.187Z" opacity=".08"/><path fill="url(#e)" d="M978.363 1188.58 91.913 316.725 1095.61-46.089l528.21 730.483-645.457 504.186Z" opacity=".12"/><path fill="url(#f)" d="M843.266 1228.16 61.499 459.265 946.67 139.297l465.83 644.218-569.234 444.645Z"/><path fill="url(#g)" d="M61.499 459.265 946.67 139.298 1412.5 783.515 61.499 459.265Z"/></g><path fill="url(#h)" d="m13.558 635-422.285-415.333L69.413 46.832 321.04 394.815 13.558 635Z"/><path fill="url(#i)" d="M-408.727 219.668 69.413 46.832 321.04 394.816l-729.767-175.148Z"/><g filter="url(#j)" opacity=".24"><path fill="#00D3BD" d="M80.416 580.416c132.779-132.777 132.779-348.054 0-480.832-132.777-132.779-348.054-132.779-480.833 0-132.777 132.778-132.777 348.055 0 480.832 132.779 132.779 348.056 132.779 480.833 0Z"/></g><g filter="url(#k)"><path fill="#fff" fill-rule="evenodd" d="M263.244 160c66.96-38.66 152.584-15.717 191.243 51.244 38.66 66.96 15.717 152.584-51.243 191.243-66.961 38.66-152.584 15.717-191.244-51.243C173.34 284.283 196.283 198.66 263.244 160Zm42 72.746c26.784-15.464 61.033-6.287 76.497 20.498 15.464 26.784 6.287 61.033-20.497 76.497-26.785 15.464-61.034 6.287-76.498-20.497-15.464-26.785-6.287-61.034 20.498-76.498Z" clip-rule="evenodd"/></g><path fill="#E732FB" fill-rule="evenodd" d="M283.244 194.641c47.828-27.614 108.988-11.226 136.602 36.603 27.614 47.828 11.226 108.988-36.602 136.602-47.829 27.614-108.989 11.226-136.603-36.602-27.614-47.829-11.226-108.989 36.603-136.603Zm18 31.177c30.61-17.673 69.752-7.185 87.425 23.426 17.673 30.61 7.185 69.752-23.425 87.425-30.611 17.673-69.753 7.185-87.426-23.425-17.673-30.611-7.185-69.753 23.426-87.426Z" clip-rule="evenodd"/><g filter="url(#l)"><path fill="#fff" d="m369.387 375.846 27.713-16 88 152.42-27.713 16z"/></g><g filter="url(#m)"><path fill="#fff" d="m385.531 435.808 55.426-32 58 100.459-55.426 32z"/></g><path fill="#FFBA00" d="m407.387 441.664 27.713-16 50 86.603-27.713 16z"/><g filter="url(#n)" opacity=".8" style="mix-blend-mode:screen"><path fill="#00D3BD" d="M450.416 492.416c132.779-132.777 132.779-348.054 0-480.832-132.777-132.779-348.054-132.779-480.833 0-132.777 132.778-132.777 348.055 0 480.832 132.779 132.779 348.056 132.779 480.833 0Z"/></g></g><defs><linearGradient id="c" x1="680" x2="0" y1="644" y2="644" gradientUnits="userSpaceOnUse"><stop stop-color="#fff"/><stop offset="1" stop-color="#F2F1F9"/></linearGradient><linearGradient id="i" x1="149.581" x2="28.977" y1="441.915" y2="73.474" gradientUnits="userSpaceOnUse"><stop stop-color="#25D5E8"/><stop offset="1" stop-color="#437BFF"/></linearGradient><linearGradient id="h" x1="-262.264" x2="209.219" y1="473.347" y2="201.137" gradientUnits="userSpaceOnUse"><stop stop-color="#25D5E8"/><stop offset="1" stop-color="#00D3BD"/></linearGradient><linearGradient id="g" x1="1095.08" x2="871.811" y1="870.708" y2="188.62" gradientUnits="userSpaceOnUse"><stop stop-color="#25D5E8"/><stop offset="1" stop-color="#437BFF"/></linearGradient><linearGradient id="f" x1="332.642" x2="1205.49" y1="928.898" y2="424.959" gradientUnits="userSpaceOnUse"><stop stop-color="#25D5E8"/><stop offset="1" stop-color="#00D3BD"/></linearGradient><linearGradient id="a" x1="680" x2="0" y1="644" y2="644" gradientUnits="userSpaceOnUse"><stop stop-color="#fff"/><stop offset="1" stop-color="#F2F1F9"/></linearGradient><linearGradient id="e" x1="399.363" x2="1389.09" y1="849.244" y2="277.825" gradientUnits="userSpaceOnUse"><stop stop-color="#25D5E8"/><stop offset="1" stop-color="#00D3BD"/></linearGradient><linearGradient id="d" x1="276.823" x2="1266.55" y1="972.974" y2="401.555" gradientUnits="userSpaceOnUse"><stop stop-color="#25D5E8"/><stop offset="1" stop-color="#00D3BD"/></linearGradient><filter id="k" width="622.487" height="622.487" x="22" y="10" color-interpolation-filters="sRGB" filterUnits="userSpaceOnUse"><feFlood flood-opacity="0" result="BackgroundImageFix"/><feColorMatrix in="SourceAlpha" values="0 0 0 0 0 0 0 0 0 0 0 0 0 0 0 0 0 0 127 0"/><feOffset dy="40"/><feGaussianBlur stdDeviation="60"/><feColorMatrix values="0 0 0 0 0 0 0 0 0 0.827451 0 0 0 0 0.741176 0 0 0 0.4 0"/><feBlend in2="BackgroundImageFix" result="effect1_dropShadow"/><feBlend in="SourceGraphic" in2="effect1_dropShadow" result="shape"/></filter><filter id="n" width="1160" height="1160" x="-370" y="-328" color-interpolation-filters="sRGB" filterUnits="userSpaceOnUse"><feFlood flood-opacity="0" result="BackgroundImageFix"/><feBlend in="SourceGraphic" in2="BackgroundImageFix" result="shape"/><feGaussianBlur result="effect1_foregroundBlur" stdDeviation="120"/></filter><filter id="m" width="353.426" height="372.459" x="265.531" y="323.808" color-interpolation-filters="sRGB" filterUnits="userSpaceOnUse"><feFlood flood-opacity="0" result="BackgroundImageFix"/><feColorMatrix in="SourceAlpha" values="0 0 0 0 0 0 0 0 0 0 0 0 0 0 0 0 0 0 127 0"/><feOffset dy="40"/><feGaussianBlur stdDeviation="60"/><feColorMatrix values="0 0 0 0 0 0 0 0 0 0.827451 0 0 0 0 0.741176 0 0 0 0.4 0"/><feBlend in2="BackgroundImageFix" result="effect1_dropShadow"/><feBlend in="SourceGraphic" in2="effect1_dropShadow" result="shape"/></filter><filter id="l" width="355.713" height="408.42" x="249.387" y="247.846" color-interpolation-filters="sRGB" filterUnits="userSpaceOnUse"><feFlood flood-opacity="0" result="BackgroundImageFix"/><feColorMatrix in="SourceAlpha" values="0 0 0 0 0 0 0 0 0 0 0 0 0 0 0 0 0 0 127 0"/><feOffset dy="8"/><feGaussianBlur stdDeviation="60"/><feColorMatrix values="0 0 0 0 0 0 0 0 0 0.827451 0 0 0 0 0.741176 0 0 0 0.8 0"/><feBlend in2="BackgroundImageFix" result="effect1_dropShadow"/><feBlend in="SourceGraphic" in2="effect1_dropShadow" result="shape"/></filter><filter id="j" width="1160" height="1160" x="-740" y="-240" color-interpolation-filters="sRGB" filterUnits="userSpaceOnUse"><feFlood flood-opacity="0" result="BackgroundImageFix"/><feBlend in="SourceGraphic" in2="BackgroundImageFix" result="shape"/><feGaussianBlur result="effect1_foregroundBlur" stdDeviation="120"/></filter></defs></svg>