<svg xmlns="http://www.w3.org/2000/svg" width="677" height="356" fill="none"><g clip-path="url(#a)"><path fill="#437BFF" d="M0 0h677v356H0z"/><path fill="url(#b)" d="m429.365 50 377.008 8.715-185.049 199.598L400 179.12 429.365 50Z" opacity=".08"/><path fill="url(#c)" d="M707 410.5 436.921 628.902l-103.147-285.35 207.674-150.168L707 410.5Z"/><path fill="url(#d)" d="M436.921 628.901 333.774 343.552l207.674-150.169-104.527 435.518Z"/><g filter="url(#e)" style="mix-blend-mode:overlay"><path fill="#fff" d="m622.427 128.246-37.138-21.442c-27.666-15.972-63.041-6.494-79.014 21.172l-39.891 69.093c-15.972 27.666-6.494 63.041 21.172 79.014l37.137 21.442c27.666 15.973 63.042 6.494 79.014-21.172l39.891-69.093c15.973-27.666 6.494-63.042-21.171-79.014Z" style="mix-blend-mode:overlay"/></g><g filter="url(#f)"><path fill="#fff" d="m645.209 168.808-104.088-60.105-74.129 128.375 104.088 60.105 74.129-128.375Z" opacity=".4"/></g><g filter="url(#g)"><path fill="#fff" d="m651.355 193.383-85.333-85.344-105.258 105.243 85.332 85.345 105.259-105.244Z" opacity=".24"/></g><g filter="url(#h)"><path fill="#fff" d="M629.627 162.512 525.67 134.639l-34.385 128.246 103.957 27.872 34.385-128.245Z"/></g><g filter="url(#i)"><path fill="#fff" d="m615.722 175.376-84.526-22.662-26.049 97.156 84.526 22.662 26.049-97.156Z"/></g><path fill="#E732FB" d="m559.226 168.516-23.121-6.199-6.199 23.121 23.121 6.199 6.199-23.121Z"/><path fill="#82E397" d="m585.907 250.018-68.4-18.339-3.099 11.561 68.399 18.339 3.1-11.561Z"/><path fill="#25D5E8" d="m596.239 211.483-68.4-18.338-3.099 11.56 68.399 18.339 3.1-11.561Z"/><path fill="#00D3BD" d="m591.073 230.751-68.4-18.339-3.099 11.56 68.399 18.339 3.1-11.56Z"/><path fill="#FFBA00" d="m602.954 186.436-37.572-10.074-3.099 11.561 37.571 10.073 3.1-11.56Z"/><path fill="url(#j)" d="M0 0h677v356H0z" style="mix-blend-mode:multiply"/></g><defs><filter id="e" width="432.733" height="446.239" x="338.625" y="-20.955" color-interpolation-filters="sRGB" filterUnits="userSpaceOnUse"><feFlood flood-opacity="0" result="BackgroundImageFix"/><feBlend in="SourceGraphic" in2="BackgroundImageFix" result="shape"/><feGaussianBlur result="effect1_foregroundBlur" stdDeviation="60"/></filter><filter id="f" width="306.775" height="317.038" x="402.713" y="20.319" color-interpolation-filters="sRGB" filterUnits="userSpaceOnUse"><feFlood flood-opacity="0" result="BackgroundImageFix"/><feColorMatrix in="SourceAlpha" values="0 0 0 0 0 0 0 0 0 0 0 0 0 0 0 0 0 0 127 0"/><feOffset dy="-24.105"/><feGaussianBlur stdDeviation="32.139"/><feColorMatrix values="0 0 0 0 0.145098 0 0 0 0 0.835294 0 0 0 0 0.909804 0 0 0 0.078 0"/><feBlend in2="BackgroundImageFix" result="effect1_dropShadow"/><feBlend in="SourceGraphic" in2="effect1_dropShadow" result="shape"/></filter><filter id="g" width="319.149" height="319.146" x="396.485" y="19.655" color-interpolation-filters="sRGB" filterUnits="userSpaceOnUse"><feFlood flood-opacity="0" result="BackgroundImageFix"/><feColorMatrix in="SourceAlpha" values="0 0 0 0 0 0 0 0 0 0 0 0 0 0 0 0 0 0 127 0"/><feOffset dy="-24.105"/><feGaussianBlur stdDeviation="32.139"/><feColorMatrix values="0 0 0 0 0.145098 0 0 0 0 0.835294 0 0 0 0 0.909804 0 0 0 0.078 0"/><feBlend in2="BackgroundImageFix" result="effect1_dropShadow"/><feBlend in="SourceGraphic" in2="effect1_dropShadow" result="shape"/></filter><filter id="h" width="266.9" height="284.676" x="427.006" y="46.255" color-interpolation-filters="sRGB" filterUnits="userSpaceOnUse"><feFlood flood-opacity="0" result="BackgroundImageFix"/><feColorMatrix in="SourceAlpha" values="0 0 0 0 0 0 0 0 0 0 0 0 0 0 0 0 0 0 127 0"/><feOffset dy="-24.105"/><feGaussianBlur stdDeviation="32.139"/><feColorMatrix values="0 0 0 0 0.145098 0 0 0 0 0.835294 0 0 0 0 0.909804 0 0 0 0.161 0"/><feBlend in2="BackgroundImageFix" result="effect1_dropShadow"/><feBlend in="SourceGraphic" in2="effect1_dropShadow" result="shape"/></filter><filter id="i" width="239.133" height="248.377" x="440.868" y="64.33" color-interpolation-filters="sRGB" filterUnits="userSpaceOnUse"><feFlood flood-opacity="0" result="BackgroundImageFix"/><feColorMatrix in="SourceAlpha" values="0 0 0 0 0 0 0 0 0 0 0 0 0 0 0 0 0 0 127 0"/><feOffset dy="-24.105"/><feGaussianBlur stdDeviation="32.139"/><feColorMatrix values="0 0 0 0 0.145098 0 0 0 0 0.835294 0 0 0 0 0.909804 0 0 0 0.161 0"/><feBlend in2="BackgroundImageFix" result="effect1_dropShadow"/><feBlend in="SourceGraphic" in2="effect1_dropShadow" result="shape"/></filter><linearGradient id="b" x1="663.108" x2="509.378" y1="-23.999" y2="242.269" gradientUnits="userSpaceOnUse"><stop stop-color="#25D5E8"/><stop offset="1" stop-color="#00D3BD"/></linearGradient><linearGradient id="c" x1="658" x2="534.5" y1="350.5" y2="239.5" gradientUnits="userSpaceOnUse"><stop stop-color="#25D5E8"/><stop offset="1" stop-color="#00D3BD"/></linearGradient><linearGradient id="d" x1="610" x2="402" y1="312" y2="413.5" gradientUnits="userSpaceOnUse"><stop stop-color="#25D5E8"/><stop offset="1" stop-color="#437BFF"/></linearGradient><linearGradient id="j" x1="677" x2="0" y1="288" y2="288" gradientUnits="userSpaceOnUse"><stop stop-color="#437BFF"/><stop offset=".349" stop-color="#437BFF" stop-opacity=".161"/><stop offset="1" stop-color="#437BFF" stop-opacity="0"/></linearGradient><clipPath id="a"><path fill="#fff" d="M0 0h677v356H0z"/></clipPath></defs></svg>