<svg width="1373" height="2441" fill="none" xmlns="http://www.w3.org/2000/svg"><g clip-path="url(#a)"><path fill="#fff" d="M0 0h1373v2441H0z"/><path d="M1377 321H0v2441h1377V321Z" fill="url(#b)"/><g opacity=".8" filter="url(#c)"><path d="M1102 958c30.93 0 56-25.072 56-56s-25.07-56-56-56-56 25.072-56 56 25.07 56 56 56Z" fill="#fff"/></g><g opacity=".8" filter="url(#d)"><path d="M683 1035c151.878 0 275-123.122 275-275S834.878 485 683 485 408 608.122 408 760s123.122 275 275 275Z" fill="url(#e)"/></g><path style="mix-blend-mode:overlay" opacity=".8" d="m608.565 1006.22 9.782-25.65a15.643 15.643 0 0 1-13.491.644c-6.316-2.408-10.383-6.63-12.14-12.532-1.757-5.902-1.06-12.982 2.126-21.339l.3-.777c3.224-8.455 7.419-14.2 12.658-17.435 5.2-3.137 10.95-3.616 17.267-1.208a16.42 16.42 0 0 1 10.261 11.036l2.681-4.988 14.382 5.484-27.792 72.885-16.034-6.12Zm6.571-61.596a42.168 42.168 0 0 0-4.334 9.032c-1.889 4.956-2.542 8.714-2 11.371a7.1 7.1 0 0 0 4.839 5.406c3.6 1.372 6.641.974 9.039-1.229l7.781-20.407c-.323-3.24-2.331-5.564-6.024-6.971a9.085 9.085 0 0 0-3.235-.654c-2.337-.004-4.338 1.155-6.066 3.447v.005Zm122.933-7.814 16.548-4.539 20.632 75.219-16.548 4.54-20.632-75.22Zm-58.9 56.277c-4.109-3.369-6.26-8.017-6.455-13.943l-.365-24.333c-.078-5.095-.969-8.93-2.466-11.612l-.014-.832 17.054-.261a21.908 21.908 0 0 1 1.739 4.862c3.059-4 7.4-6.043 13.116-6.13a19.543 19.543 0 0 1 13.271 4.473 15.037 15.037 0 0 1 5.589 11.771c.091 5.927-2.023 10.536-6.344 13.619-4.425 3.084-10.745 4.741-19.167 4.871l-5.3.081.044 2.911c.077 4.991 2.3 7.558 6.668 7.491 4.055-.062 6.1-2.069 6.043-6.125l17.054-.261a15.144 15.144 0 0 1-6.562 13c-4.42 3.4-10.218 5.15-17.185 5.256a48.65 48.65 0 0 1-.66.005c-6.665-.002-12.08-1.585-16.057-4.847l-.003.004Zm18.629-40.019a9.63 9.63 0 0 0-5.281 1.537 8.359 8.359 0 0 0-2.969 3.062l.135 8.839 4.991-.077c5.927-.091 8.9-2.84 8.82-8.144a5.165 5.165 0 0 0-1.618-3.823 5.834 5.834 0 0 0-3.958-1.395l-.12.001Zm76.743-28.43 15.292-7.786 35.393 69.508-15.292 7.786-35.393-69.508Zm-221.856 22.141c-5.255-.281-10.436-2.557-15.551-6.977-5.508-4.759-8.827-9.826-10.024-15.122a15.511 15.511 0 0 1 3.539-14.119l12.984 11.219c-2.924 3.383-2.621 6.532.921 9.591a6.696 6.696 0 0 0 4.4 1.743 4.443 4.443 0 0 0 3.865-1.608 4.358 4.358 0 0 0 .648-4.251 21.044 21.044 0 0 0-3.866-6.5 63.047 63.047 0 0 1-5.026-7.228c-4.46-7.565-4.2-14.072.631-19.66 3.263-3.777 7.568-5.418 12.992-4.855 5.492.484 10.84 3.044 16.191 7.667a28.672 28.672 0 0 1 7.822 10.194 20.495 20.495 0 0 1 2.05 10.838 15.679 15.679 0 0 1-3.622 8.965l-12.12-10.472c1.553-1.957 2.147-3.917 1.715-5.8a10.78 10.78 0 0 0-3.566-5.417 8.283 8.283 0 0 0-4.965-2.366 4.582 4.582 0 0 0-3.718 1.6 4.067 4.067 0 0 0-.58 4.171c.569 1.728 2.228 4.262 4.842 7.757a45.08 45.08 0 0 1 5.5 9.7 17.758 17.758 0 0 1 1.129 8.4 13.52 13.52 0 0 1-3.311 7.172 14.95 14.95 0 0 1-11.826 5.39c-.347 0-.699-.011-1.054-.032Zm292.674-8.86c-6.907-.407-13.472-3.749-19.548-10.026l-.434-.449c-6-6.2-8.987-12.722-9.1-19.564-.107-6.988 2.79-13.267 8.618-18.909 5.6-5.425 11.826-8.119 18.444-8.012 6.692.035 12.973 2.785 18.767 8.322l2.1 2.02a33.06 33.06 0 0 1 7.883 12.778 22.986 22.986 0 0 1 .221 13.537 27.538 27.538 0 0 1-7.7 12.231c-5.578 5.4-11.572 8.1-18.1 8.1-.383-.001-.761-.01-1.152-.028h.001Zm-11.273-39.459c-4.333 4.196-3.32 9.729 3.04 16.6l1.229 1.271c6.872 7.1 12.588 8.368 17.071 4.028 4.11-3.979 3.386-9.212-2.1-15.627l-2.17-2.242c-3.544-3.661-6.746-5.773-9.531-6.406a8.023 8.023 0 0 0-7.54 2.378l.001-.002Zm64.006-19.349 7.538-16.107c4.189 1.845 7.593 2.176 10.264 1.13 2.622-1.184 4.93-3.664 6.781-7.62 1.9-4.05 1.755-7.675-.378-10.97-2.133-3.295-6.5-6.484-13.046-9.664l-4.71-2.2c-7.159-3.351-12.686-4.789-16.632-4.454-3.852.379-6.77 2.688-8.842 7.115-1.719 3.674-2.193 6.897-1.424 9.668.864 2.815 3.11 5.13 6.929 7.032l-7.538 16.107a26.952 26.952 0 0 1-10.577-9.543 25.888 25.888 0 0 1-3.842-13.625 37.447 37.447 0 0 1 3.736-15.591c4.1-8.76 10.282-14.364 18.408-16.762 7.988-2.347 17.279-1.1 27.735 3.794l3.391 1.588a44.874 44.874 0 0 1 15.564 11.412 27.595 27.595 0 0 1 6.769 15.224 29.725 29.725 0 0 1-2.914 16.779c-3.792 8.1-9.044 13.68-15.575 16.594a25.408 25.408 0 0 1-10.46 2.217 32.484 32.484 0 0 1-11.177-2.124ZM450.649 677.723l6.814-16.427 55.621 23.072 11.875-28.626 12.68 5.26-18.69 45.053-68.3-28.332Zm69.236-38.03-1.124-.925a33.643 33.643 0 0 1-9.5-11.86 22.259 22.259 0 0 1-1.958-13.33 27.339 27.339 0 0 1 6.324-13.249c4.891-5.942 10.637-9.159 17.173-9.572 6.536-.413 13.063 2.131 19.727 7.617l5.14 4.23-21.618 26.257a12.383 12.383 0 0 0 8.118 1.428 11.835 11.835 0 0 0 7.177-4.465c3.436-4.175 4.7-8.657 3.647-13.431l12.1-.14a21.739 21.739 0 0 1-.29 11.48 32.042 32.042 0 0 1-5.989 11.368c-5.353 6.5-11.642 10.218-18.882 10.994-.994.118-1.993.177-2.994.178-6.035.001-11.737-2.206-17.051-6.58Zm9.606-34.254c-2.13.133-4.014 1.276-5.732 3.364-3.173 3.855-2.52 8.3 2.024 13.251l10.972-13.33-1.044-.859a8.57 8.57 0 0 0-5.619-2.455 6.68 6.68 0 0 0-.601.029ZM831.673 631.9c-4.238-4-6.419-8.051-6.607-11.944-.118-3.97 1.676-8 5.6-12.158l18.689-19.828-5.071-4.78 8.132-8.627 5.071 4.779 9.416-9.99 12.487 11.77-9.416 9.99 6.584 6.205-8.132 8.628-6.584-6.206-17.263 18.315c-1.355 1.438-2.127 2.712-2.092 3.888-.041 1.104.733 2.404 2.323 3.9a24.685 24.685 0 0 0 3.316 2.7l-8.417 8.931a33.509 33.509 0 0 1-8.036-5.573Zm-248.581-25.615c-3.915-.664-7.51-3.213-10.822-7.878l-15.775-22.217-5.682 4.035-6.864-9.668 5.682-4.034-7.947-11.193 13.991-9.934 7.948 11.193 7.377-5.238 6.864 9.667-7.378 5.238 14.571 20.522c1.144 1.611 2.241 2.617 3.4 2.814 1.075.257 2.503-.247 4.284-1.511a24.585 24.585 0 0 0 3.3-2.723l7.1 10.007a33.5 33.5 0 0 1-7.043 6.786c-4.036 2.866-7.823 4.265-11.236 4.265-.593 0-1.184-.043-1.77-.131Zm200.621-12.982 30.536-45.64 13.4 8.963-3.5 6.167c5.428-2.876 10.216-2.925 14.538-.034a16.704 16.704 0 0 1 3.63 3.179l-9.107 13.052-4.436-3.469c-4.5-3.007-8.273-3.532-11.478-1.547l-19.315 28.872-14.268-9.543Zm-22.37-10.157a21.963 21.963 0 0 1 .037-5.163c-4.246 2.705-9.022 3.135-14.423 1.253a19.55 19.55 0 0 1-10.933-8.765 15.031 15.031 0 0 1-1.206-12.974c1.949-5.6 5.518-9.2 10.634-10.613 5.215-1.377 11.72-.763 19.675 2.009l5.008 1.744.958-2.75c1.642-4.714.436-7.889-3.689-9.325-3.83-1.335-6.445-.153-7.78 3.677l-16.106-5.611a15.148 15.148 0 0 1 10.626-9.955c5.318-1.671 11.365-1.327 17.945.966s11.336 5.711 14.037 10.286c2.701 4.575 3.127 9.68 1.274 15.312l-8.006 22.982c-1.677 4.812-2.157 8.719-1.671 11.752l-.274.786-16.106-5.611Zm-10.014-20.889a5.179 5.179 0 0 0 .207 4.147 5.863 5.863 0 0 0 3.352 2.709 9.622 9.622 0 0 0 5.488.37 8.37 8.37 0 0 0 3.84-1.856l2.908-8.348-4.714-1.643a13.015 13.015 0 0 0-4.24-.813c-3.285 0-5.581 1.819-6.841 5.434Zm-106.944 14c-5.245-1.071-9.43-3.124-12.578-6.259a22.875 22.875 0 0 1-6.458-11.779l17.462-3.882c.858 3.858 2.505 6.475 4.942 7.851 2.333 1.4 5.785 1.592 10.355.575a11.761 11.761 0 0 0 6.4-3.34 6.562 6.562 0 0 0 1.263-5.82 7.29 7.29 0 0 0-3.971-5.4c-2.143-1.015-5.606-1.736-10.514-2.244a95.61 95.61 0 0 1-12.037-1.909c-10.378-2.594-16.447-7.851-18.23-15.871a17.315 17.315 0 0 1 1.1-11.326 23.797 23.797 0 0 1 8.348-9.419 40.881 40.881 0 0 1 13.755-5.723 33.724 33.724 0 0 1 14.642-.272 22.177 22.177 0 0 1 11.3 5.8 20.503 20.503 0 0 1 6.047 10.907l-17.357 3.865a8.783 8.783 0 0 0-4.253-6.193c-2.087-1.24-4.704-1.51-7.851-.811-3.046.677-5.449 1.85-6.859 3.655a6.396 6.396 0 0 0-1.59 5.787c.429 1.929 1.805 3.327 4.072 4.422 2.37 1.071 6.16 1.827 11.5 2.345a68.575 68.575 0 0 1 13.536 2.425c8.709 2.751 14.044 8.064 15.8 15.983a18.27 18.27 0 0 1-3.891 16.526c-3.88 4.592-10.073 7.886-18.3 9.714a43.148 43.148 0 0 1-9.4 1.061 39.521 39.521 0 0 1-7.233-.67v.002Zm71.934-3.429c-5.81-.4-10.069-2.145-12.687-5.033-2.611-2.993-3.781-7.241-3.393-12.948l1.85-27.185-6.952-.473.8-11.828 6.952.472.932-13.7 17.128 1.167-.932 13.7 9.027.615-.8 11.828-9.027-.614-1.709 25.11c-.134 1.971.078 3.445.851 4.332.667.879 2.091 1.393 4.273 1.542 1.423.116 2.854.109 4.276-.022l-.833 12.244a34.086 34.086 0 0 1-7.571.869 34.724 34.724 0 0 1-2.185-.078v.002Z" fill="url(#f)"/><g opacity=".8" filter="url(#g)"><path d="M1102 958c30.93 0 56-25.072 56-56s-25.07-56-56-56-56 25.072-56 56 25.07 56 56 56Z" fill="url(#h)"/></g><g opacity=".8" filter="url(#i)"><path d="M1102 958c30.93 0 56-25.072 56-56s-25.07-56-56-56-56 25.072-56 56 25.07 56 56 56Z" fill="#fff"/></g><g opacity=".64" filter="url(#j)"><path d="M374 1281c48.601 0 88-39.4 88-88s-39.399-88-88-88-88 39.4-88 88 39.399 88 88 88Z" fill="url(#k)"/></g><g opacity=".64" filter="url(#l)"><path d="M374 1281c48.601 0 88-39.4 88-88s-39.399-88-88-88-88 39.4-88 88 39.399 88 88 88Z" fill="#fff"/></g><path d="M706 788.955s78.83 78.787 125.7 54.236c46.87-24.551 113.83-75.887 142.845 0s8.928 294.619 154.005 256.679c145.08-37.95 305.78-241.056 343.72-40.18 37.95 200.88-197.08 729.18-672.932 598.61-475.853-130.57-124.766-316.27-60.932-388.81 63.834-72.54 49.326-72.54-63.834-133.47-113.16-60.93 22.528-231.88 13.941-292.83-8.587-60.95 9.889-66.407-13.941-54.236s-302.34 68.81-264.62 170.654c37.72 101.842-30.176 282.902-132.02 207.462-101.844-75.44-132.02-154.65-256.5-135.79-124.48 18.86-350.8-60.356-222.548-286.676S119.506 454.16 161 567.32c41.494 113.16 76.632 167.244 142.667 98.568s182.255-223.55 204.706-98.568c22.451 124.982 132.067 187.054 149.236 175.168 17.169-11.886 43.583-14.528 10.565-76.6-33.018-62.072-123.88-160.067-77.524-223.588 46.356-63.521-70.393-111.6-151.086-142.5-80.693-30.9 607.776-24.042 607.776-24.042s30.91 140.785-42.92 144.219c-73.827 3.434-157.954-13.735-130.484 66.959s15.452 151.086-58.374 149.369c-73.826-1.717-135.634 94.429-97.863 94.429" stroke="#F6328D" style="mix-blend-mode:multiply" opacity=".56"/><path d="M706 788.955s78.83 78.787 125.7 54.236c46.87-24.551 113.83-75.887 142.845 0s8.928 294.619 154.005 256.679c145.08-37.95 305.78-241.056 343.72-40.18 37.95 200.88-197.08 729.18-672.932 598.61-475.853-130.57-124.766-316.27-60.932-388.81 63.834-72.54 49.326-72.54-63.834-133.47-113.16-60.93 22.528-231.88 13.941-292.83-8.587-60.95 9.889-66.407-13.941-54.236s-302.34 68.81-264.62 170.654c37.72 101.842-30.176 282.902-132.02 207.462-101.844-75.44-132.02-154.65-256.5-135.79-124.48 18.86-350.8-60.356-222.548-286.676S119.506 454.16 161 567.32c41.494 113.16 76.632 167.244 142.667 98.568s182.255-223.55 204.706-98.568c22.451 124.982 132.067 187.054 149.236 175.168 17.169-11.886 43.583-14.528 10.565-76.6-33.018-62.072-123.88-160.067-77.524-223.588 46.356-63.521-70.393-111.6-151.086-142.5-80.693-30.9 607.776-24.042 607.776-24.042s30.91 140.785-42.92 144.219c-73.827 3.434-157.954-13.735-130.484 66.959s15.452 151.086-58.374 149.369c-73.826-1.717-135.634 94.429-97.863 94.429" stroke="#F6328D" style="mix-blend-mode:screen"/><g opacity=".72" filter="url(#m)"><path d="M.5 715c38.384 0 69.5-31.116 69.5-69.5S38.884 576 .5 576-69 607.116-69 645.5-37.884 715 .5 715Z" fill="url(#n)"/></g><g opacity=".8" filter="url(#o)"><path d="M.5 715c38.384 0 69.5-31.116 69.5-69.5S38.884 576 .5 576-69 607.116-69 645.5-37.884 715 .5 715Z" fill="#fff"/></g><g filter="url(#p)"><path d="M683 893c73.454 0 133-59.546 133-133 0-73.454-59.546-133-133-133-73.454 0-133 59.546-133 133 0 73.454 59.546 133 133 133Z" fill="url(#q)"/></g><g filter="url(#r)"><path d="M683 839c43.63 0 79-35.37 79-79s-35.37-79-79-79-79 35.37-79 79 35.37 79 79 79Z" fill="url(#s)"/></g><path d="M683 826c36.451 0 66-29.549 66-66s-29.549-66-66-66-66 29.549-66 66 29.549 66 66 66Z" fill="url(#t)"/><g filter="url(#u)"><path d="M683 802c23.196 0 42-18.804 42-42s-18.804-42-42-42-42 18.804-42 42 18.804 42 42 42Z" fill="url(#v)"/></g><g style="mix-blend-mode:overlay" filter="url(#w)"><path d="M683 783c12.703 0 23-10.297 23-23s-10.297-23-23-23-23 10.297-23 23 10.297 23 23 23Z" fill="url(#x)" style="mix-blend-mode:overlay"/></g><g style="mix-blend-mode:multiply" filter="url(#y)"><path d="M629.143 755.8c12.449-6.459 17.785-12.506 20.275-2.191 2.49 10.315 2.134 21.7 12.094 15.3 9.96-6.4 22.053-14.228 27.033-5.335s16.362 20.63 16.362 30.59-19.563 23.12-30.59 25.966c-11.027 2.846-17.429 7.114-24.9 8.892-7.471 1.778-28.1 1.423-34.147-16.006-6.047-17.429 13.873-57.216 13.873-57.216Z" fill="#437BFF"/></g><g style="mix-blend-mode:screen" filter="url(#z)"><path d="M635.768 765.488c8.105-4.58 11.579-8.868 13.2-1.553 1.621 7.315 1.389 15.386 7.874 10.846 6.485-4.54 14.358-10.089 17.6-3.784 3.242 6.305 10.652 14.63 10.652 21.692 0 7.062-12.737 16.4-19.915 18.413-7.178 2.013-11.347 5.045-16.21 6.306-4.863 1.261-18.294 1.009-22.231-11.35-3.937-12.359 9.03-40.57 9.03-40.57Z" fill="#FBF432"/></g><path d="m607.017 774.659 38.893-22.455 5.72 33.543-38.893 22.455-5.72-33.543Z" fill="#00D3BD"/><path d="m638.926 829.925 38.892-22.455-26.189-21.725-38.893 22.455 26.19 21.725Z" fill="#25D5E8"/><path d="m676.663 761.741-29.17 16.841 19.643 16.294 29.168-16.84-19.641-16.295Z" fill="#437BFF"/><path d="m700.594 803.193-29.169 16.841-4.29-25.158 29.169-16.84 4.29 25.157Z" fill="#437BFF"/><g style="mix-blend-mode:multiply" filter="url(#A)"><path d="M777.306 706.821c36.451 0 37.485-25.506 37.485 10.945 0 13.2 18.31 50.268 12.86 62.931-3.345 7.771-12.871 1.526-20.521 3.831-12.845 3.873-25.148 11.927-26.267 12.039-2.736.274-51.987-2.676-51.987-39.127 0-12.029 18.18-7.329 21.342-15.049 6.104-14.909 2.666-35.57 27.088-35.57Z" fill="#437BFF"/></g><g style="mix-blend-mode:screen" filter="url(#B)"><path d="M789.764 729.815c12.733 0 13.094-11.613 13.094 4.983 0 6.008 6.4 22.887 4.492 28.652-1.168 3.538-4.5.695-7.168 1.744-4.487 1.763-8.785 5.43-9.176 5.481-.956.125-18.16-1.218-18.16-17.814 0-5.477 6.351-3.337 7.455-6.852 2.133-6.789.932-16.194 9.463-16.194Z" fill="#FBF432"/></g><g style="mix-blend-mode:multiply" filter="url(#C)"><path d="M619.975 755.8c12.7 0 18.332 1.642 21.068 20.247 1.44 9.787-11.826 17.73-13.68 28.953-1.583 9.586 12.586 8.259 8.208 14.279C622.869 819.279 607 817.7 607 805s.273-49.2 12.975-49.2Z" fill="#437BFF"/></g><path d="M598.5 765c12.929 0 15.413-13.862 23.618-13.668 14.037.332 15.151 16.149 15.151 28.877 0 6.971-19.021 21.175-18 24.42 1.939 6.183 13.317 9.613 11.052 12.834C625.5 824.316 607.81 820 598.5 820a27.497 27.497 0 0 1-19.445-8.055 27.497 27.497 0 0 1 0-38.89A27.497 27.497 0 0 1 598.5 765Z" fill="url(#D)"/><path d="M598.5 765c12.929 0 15.413-13.862 23.618-13.668 14.037.332 15.151 16.149 15.151 28.877 0 6.971-19.021 21.175-18 24.42 1.939 6.183 13.317 9.613 11.052 12.834C625.5 824.316 607.81 820 598.5 820a27.497 27.497 0 0 1-19.445-8.055 27.497 27.497 0 0 1 0-38.89A27.497 27.497 0 0 1 598.5 765Z" fill="url(#E)"/><path d="M-16.727 848.794s133.1-65.991 305.348-89.479c172.248-23.488 270.353 14.928 270.353 14.928l16.246 55.537s-66.42 24.194-224.411 118.651C192.818 1042.89-16.727 1307.61-16.727 1307.61V848.794Z" fill="url(#F)"/><path d="M-16.727 848.794s133.1-65.991 305.348-89.479c172.248-23.488 270.353 14.928 270.353 14.928l16.246 55.537s-66.42 24.194-224.411 118.651C192.818 1042.89-16.727 1307.61-16.727 1307.61V848.794Z" fill="url(#G)"/><path style="mix-blend-mode:overlay" opacity=".8" d="M-43.667 1190.2s85.238-95.74 234.206-191.942c62.155-40.141 152.685-85.568 266.326-131.015 78.517-31.4 119.24-46.081 119.24-46.081l-.885 8.62s-66.42 24.192-224.411 118.649C192.818 1042.89-16.727 1307.61-16.727 1307.61l-26.94-117.41Z" fill="url(#H)"/><path d="m795.038 741.068 10.493 39.158-27.95 13.707-44.362-36.301 38.034-10.191c.06.483.153.961.28 1.431a10.183 10.183 0 0 0 19.671-5.27 10.288 10.288 0 0 0-.473-1.379l4.307-1.155Z" fill="#00D3BD"/><path d="m805.531 780.226-10.493-39.158 19.671-5.271 12.047 44.96-21.225-.531Z" fill="#25D5E8"/><path d="m795.74 707.17 9.18 34.263-3.687.989a8.922 8.922 0 0 0-10.911-6.299 8.918 8.918 0 0 0-6.3 10.91l-33.193 8.894 17.734-46.915 27.177-1.842Z" fill="#437BFF"/><path d="m795.74 707.17 9.18 34.263 17.211-4.611-10.541-39.339-15.85 9.687Z" fill="#437BFF"/><g style="mix-blend-mode:multiply" filter="url(#I)"><path d="M803 727a14 14 0 0 1 14 14c0 1.67-5.219-19.678-2.756-20.5 2.766-3.456 5.646-2.024 9.576 6.5 6.67 14.461 12.48 42.608-2.188 45.761C792.355 779.054 789 748.732 789 741a14 14 0 0 1 14-14Z" fill="#437BFF"/></g><path d="M560.087 770.048c8.913-6.061 24.955-11.408 28.877 0 3.922 11.408 12.492 46.585 12.848 51.041.356 4.456-21.106 18.042-28.414 10.734-7.308-7.308-22.224-55.714-13.311-61.775Z" fill="url(#J)"/><path d="M824.061 772.206a23.013 23.013 0 0 0 14.332-10.223 22.997 22.997 0 0 0 2.905-17.362c-2.857-12.374-14.692-28.321-27.07-25.463-3.8.877 5.583 11.444 2.581 15.142-1.618 1.991-6.669-6.904-15.142-1.75-10.151 6.174-6.651 16.09-5.19 22.419a22.996 22.996 0 0 0 27.584 17.237Z" fill="url(#K)"/><path d="M824.061 772.206a23.013 23.013 0 0 0 14.332-10.223 22.997 22.997 0 0 0 2.905-17.362c-2.857-12.374-14.692-28.321-27.07-25.463-3.8.877 5.583 11.444 2.581 15.142-1.618 1.991-6.669-6.904-15.142-1.75-10.151 6.174-6.651 16.09-5.19 22.419a22.996 22.996 0 0 0 27.584 17.237Z" fill="url(#L)"/><path d="M1373 500.5s-60.79 6.8-151.78 31.181c-68.86 18.45-157.66 56.006-220.37 92.213-108.109 62.412-156.25 98.982-156.25 98.982l7.28 31.768s178.3-31.236 333.58-16.644c155.28 14.592 187.54 95 187.54 95V500.5Z" fill="url(#M)"/><path opacity=".4" d="M1373 500.5s-60.79 6.8-151.78 31.181c-68.86 18.45-157.66 56.006-220.37 92.213-108.109 62.412-156.25 98.982-156.25 98.982l7.28 31.768s178.3-31.236 333.58-16.644c155.28 14.592 187.54 95 187.54 95V500.5Z" fill="url(#N)"/><path style="mix-blend-mode:overlay" opacity=".4" d="M1373 764.521s-92.12-70.763-279.15-61.462c-187.018 9.301-243.296 43.718-243.296 43.718l1.321 7.867S1030.18 723.408 1185.46 738c155.28 14.592 187.54 95 187.54 95v-68.479Z" fill="url(#O)"/><path d="M843.711 721.021c1.582 0 12.551 33.751 9.282 35.228-3.269 1.477-10.864 4.641-13.184 4.008-2.32-.633-11.391-34.068-8.649-37.338 2.742-3.27 12.551-1.898 12.551-1.898Z" fill="url(#P)"/><g style="mix-blend-mode:overlay" filter="url(#Q)"><path d="M683 1348c324.74 0 588-263.26 588-588 0-324.743-263.26-588-588-588-324.743 0-588 263.257-588 588 0 324.74 263.257 588 588 588Z" fill="url(#R)" style="mix-blend-mode:overlay"/></g><g style="mix-blend-mode:overlay" filter="url(#S)"><path d="M683 859c54.676 0 99-44.324 99-99s-44.324-99-99-99-99 44.324-99 99 44.324 99 99 99Z" fill="url(#T)" style="mix-blend-mode:overlay"/></g><g opacity=".8" filter="url(#U)"><path d="M924 1261c18.778 0 34-15.22 34-34s-15.222-34-34-34-34 15.22-34 34 15.222 34 34 34Z" fill="url(#V)"/></g><g opacity=".4" filter="url(#W)"><path d="M279 519c18.778 0 34-15.222 34-34s-15.222-34-34-34-34 15.222-34 34 15.222 34 34 34Z" fill="url(#X)"/></g><g opacity=".8" filter="url(#Y)"><path d="M924 1261c18.778 0 34-15.22 34-34s-15.222-34-34-34-34 15.22-34 34 15.222 34 34 34Z" fill="#fff"/></g><g opacity=".4" filter="url(#Z)"><path d="M279 519c18.778 0 34-15.222 34-34s-15.222-34-34-34-34 15.222-34 34 15.222 34 34 34Z" fill="#fff"/></g><g filter="url(#aa)"><path d="M495 387c34.242 0 62-27.758 62-62 0-34.242-27.758-62-62-62-34.242 0-62 27.758-62 62 0 34.242 27.758 62 62 62Z" fill="#FDFEFE"/></g><g opacity=".4" filter="url(#ab)"><path d="M550 407c34.242 0 62-27.758 62-62 0-34.242-27.758-62-62-62-34.242 0-62 27.758-62 62 0 34.242 27.758 62 62 62Z" fill="#FDFEFE"/></g><g filter="url(#ac)"><path d="M1043 379c34.24 0 62-27.758 62-62 0-34.242-27.76-62-62-62-34.24 0-62 27.758-62 62 0 34.242 27.76 62 62 62Z" fill="#FDFEFE"/></g><g opacity=".4" filter="url(#ad)"><path d="M1040 412c34.24 0 62-27.758 62-62 0-34.242-27.76-62-62-62-34.24 0-62 27.758-62 62 0 34.242 27.76 62 62 62Z" fill="#FDFEFE"/></g><g filter="url(#ae)"><path d="M1043 334c9.39 0 17-7.611 17-17s-7.61-17-17-17-17 7.611-17 17 7.61 17 17 17Z" fill="#FDFEFE"/></g></g><defs><filter id="ae" x="968" y="242" width="150" height="150" filterUnits="userSpaceOnUse" color-interpolation-filters="sRGB"><feFlood flood-opacity="0" result="BackgroundImageFix"/><feBlend in="SourceGraphic" in2="BackgroundImageFix" result="shape"/><feGaussianBlur stdDeviation="29" result="effect1_foregroundBlur"/></filter><filter id="c" x="926" y="726" width="352" height="352" filterUnits="userSpaceOnUse" color-interpolation-filters="sRGB"><feFlood flood-opacity="0" result="BackgroundImageFix"/><feBlend in="SourceGraphic" in2="BackgroundImageFix" result="shape"/><feGaussianBlur stdDeviation="60" result="effect1_foregroundBlur"/></filter><filter id="g" x="926" y="726" width="352" height="352" filterUnits="userSpaceOnUse" color-interpolation-filters="sRGB"><feFlood flood-opacity="0" result="BackgroundImageFix"/><feBlend in="SourceGraphic" in2="BackgroundImageFix" result="shape"/><feGaussianBlur stdDeviation="60" result="effect1_foregroundBlur"/></filter><filter id="i" x="926" y="726" width="352" height="352" filterUnits="userSpaceOnUse" color-interpolation-filters="sRGB"><feFlood flood-opacity="0" result="BackgroundImageFix"/><feBlend in="SourceGraphic" in2="BackgroundImageFix" result="shape"/><feGaussianBlur stdDeviation="60" result="effect1_foregroundBlur"/></filter><filter id="j" x="166" y="985" width="416" height="416" filterUnits="userSpaceOnUse" color-interpolation-filters="sRGB"><feFlood flood-opacity="0" result="BackgroundImageFix"/><feBlend in="SourceGraphic" in2="BackgroundImageFix" result="shape"/><feGaussianBlur stdDeviation="60" result="effect1_foregroundBlur"/></filter><filter id="l" x="166" y="985" width="416" height="416" filterUnits="userSpaceOnUse" color-interpolation-filters="sRGB"><feFlood flood-opacity="0" result="BackgroundImageFix"/><feBlend in="SourceGraphic" in2="BackgroundImageFix" result="shape"/><feGaussianBlur stdDeviation="60" result="effect1_foregroundBlur"/></filter><filter id="m" x="-189" y="456" width="379" height="379" filterUnits="userSpaceOnUse" color-interpolation-filters="sRGB"><feFlood flood-opacity="0" result="BackgroundImageFix"/><feBlend in="SourceGraphic" in2="BackgroundImageFix" result="shape"/><feGaussianBlur stdDeviation="60" result="effect1_foregroundBlur"/></filter><filter id="o" x="-189" y="456" width="379" height="379" filterUnits="userSpaceOnUse" color-interpolation-filters="sRGB"><feFlood flood-opacity="0" result="BackgroundImageFix"/><feBlend in="SourceGraphic" in2="BackgroundImageFix" result="shape"/><feGaussianBlur stdDeviation="60" result="effect1_foregroundBlur"/></filter><filter id="p" x="492" y="569" width="382" height="382" filterUnits="userSpaceOnUse" color-interpolation-filters="sRGB"><feFlood flood-opacity="0" result="BackgroundImageFix"/><feBlend in="SourceGraphic" in2="BackgroundImageFix" result="shape"/><feGaussianBlur stdDeviation="29" result="effect1_foregroundBlur"/></filter><filter id="r" x="484" y="561" width="398" height="398" filterUnits="userSpaceOnUse" color-interpolation-filters="sRGB"><feFlood flood-opacity="0" result="BackgroundImageFix"/><feBlend in="SourceGraphic" in2="BackgroundImageFix" result="shape"/><feGaussianBlur stdDeviation="60" result="effect1_foregroundBlur"/></filter><filter id="u" x="583" y="660" width="200" height="200" filterUnits="userSpaceOnUse" color-interpolation-filters="sRGB"><feFlood flood-opacity="0" result="BackgroundImageFix"/><feBlend in="SourceGraphic" in2="BackgroundImageFix" result="shape"/><feGaussianBlur stdDeviation="29" result="effect1_foregroundBlur"/></filter><filter id="w" x="648" y="725" width="70" height="70" filterUnits="userSpaceOnUse" color-interpolation-filters="sRGB"><feFlood flood-opacity="0" result="BackgroundImageFix"/><feBlend in="SourceGraphic" in2="BackgroundImageFix" result="shape"/><feGaussianBlur stdDeviation="6" result="effect1_foregroundBlur"/></filter><filter id="y" x="514.127" y="648.06" width="290.78" height="281.668" filterUnits="userSpaceOnUse" color-interpolation-filters="sRGB"><feFlood flood-opacity="0" result="BackgroundImageFix"/><feBlend in="SourceGraphic" in2="BackgroundImageFix" result="shape"/><feGaussianBlur stdDeviation="50" result="effect1_foregroundBlur"/></filter><filter id="z" x="525.994" y="660" width="259.1" height="257.909" filterUnits="userSpaceOnUse" color-interpolation-filters="sRGB"><feFlood flood-opacity="0" result="BackgroundImageFix"/><feBlend in="SourceGraphic" in2="BackgroundImageFix" result="shape"/><feGaussianBlur stdDeviation="50" result="effect1_foregroundBlur"/></filter><filter id="A" x="628.876" y="598.145" width="299.788" height="298.438" filterUnits="userSpaceOnUse" color-interpolation-filters="sRGB"><feFlood flood-opacity="0" result="BackgroundImageFix"/><feBlend in="SourceGraphic" in2="BackgroundImageFix" result="shape"/><feGaussianBlur stdDeviation="50" result="effect1_foregroundBlur"/></filter><filter id="B" x="748.846" y="701.865" width="82.859" height="92.818" filterUnits="userSpaceOnUse" color-interpolation-filters="sRGB"><feFlood flood-opacity="0" result="BackgroundImageFix"/><feBlend in="SourceGraphic" in2="BackgroundImageFix" result="shape"/><feGaussianBlur stdDeviation="12" result="effect1_foregroundBlur"/></filter><filter id="C" x="549" y="697.8" width="150.152" height="179.479" filterUnits="userSpaceOnUse" color-interpolation-filters="sRGB"><feFlood flood-opacity="0" result="BackgroundImageFix"/><feBlend in="SourceGraphic" in2="BackgroundImageFix" result="shape"/><feGaussianBlur stdDeviation="29" result="effect1_foregroundBlur"/></filter><filter id="I" x="745" y="674.755" width="129.784" height="142.86" filterUnits="userSpaceOnUse" color-interpolation-filters="sRGB"><feFlood flood-opacity="0" result="BackgroundImageFix"/><feBlend in="SourceGraphic" in2="BackgroundImageFix" result="shape"/><feGaussianBlur stdDeviation="22" result="effect1_foregroundBlur"/></filter><filter id="Q" x="-25" y="52" width="1416" height="1416" filterUnits="userSpaceOnUse" color-interpolation-filters="sRGB"><feFlood flood-opacity="0" result="BackgroundImageFix"/><feBlend in="SourceGraphic" in2="BackgroundImageFix" result="shape"/><feGaussianBlur stdDeviation="60" result="effect1_foregroundBlur"/></filter><filter id="S" x="464" y="541" width="438" height="438" filterUnits="userSpaceOnUse" color-interpolation-filters="sRGB"><feFlood flood-opacity="0" result="BackgroundImageFix"/><feBlend in="SourceGraphic" in2="BackgroundImageFix" result="shape"/><feGaussianBlur stdDeviation="60" result="effect1_foregroundBlur"/></filter><filter id="U" x="770" y="1073" width="308" height="308" filterUnits="userSpaceOnUse" color-interpolation-filters="sRGB"><feFlood flood-opacity="0" result="BackgroundImageFix"/><feBlend in="SourceGraphic" in2="BackgroundImageFix" result="shape"/><feGaussianBlur stdDeviation="60" result="effect1_foregroundBlur"/></filter><filter id="W" x="125" y="331" width="308" height="308" filterUnits="userSpaceOnUse" color-interpolation-filters="sRGB"><feFlood flood-opacity="0" result="BackgroundImageFix"/><feBlend in="SourceGraphic" in2="BackgroundImageFix" result="shape"/><feGaussianBlur stdDeviation="60" result="effect1_foregroundBlur"/></filter><filter id="Y" x="770" y="1073" width="308" height="308" filterUnits="userSpaceOnUse" color-interpolation-filters="sRGB"><feFlood flood-opacity="0" result="BackgroundImageFix"/><feBlend in="SourceGraphic" in2="BackgroundImageFix" result="shape"/><feGaussianBlur stdDeviation="60" result="effect1_foregroundBlur"/></filter><filter id="Z" x="125" y="331" width="308" height="308" filterUnits="userSpaceOnUse" color-interpolation-filters="sRGB"><feFlood flood-opacity="0" result="BackgroundImageFix"/><feBlend in="SourceGraphic" in2="BackgroundImageFix" result="shape"/><feGaussianBlur stdDeviation="60" result="effect1_foregroundBlur"/></filter><filter id="aa" x="389" y="219" width="212" height="212" filterUnits="userSpaceOnUse" color-interpolation-filters="sRGB"><feFlood flood-opacity="0" result="BackgroundImageFix"/><feBlend in="SourceGraphic" in2="BackgroundImageFix" result="shape"/><feGaussianBlur stdDeviation="22" result="effect1_foregroundBlur"/></filter><filter id="ab" x="444" y="239" width="212" height="212" filterUnits="userSpaceOnUse" color-interpolation-filters="sRGB"><feFlood flood-opacity="0" result="BackgroundImageFix"/><feBlend in="SourceGraphic" in2="BackgroundImageFix" result="shape"/><feGaussianBlur stdDeviation="22" result="effect1_foregroundBlur"/></filter><filter id="ac" x="923" y="197" width="240" height="240" filterUnits="userSpaceOnUse" color-interpolation-filters="sRGB"><feFlood flood-opacity="0" result="BackgroundImageFix"/><feBlend in="SourceGraphic" in2="BackgroundImageFix" result="shape"/><feGaussianBlur stdDeviation="29" result="effect1_foregroundBlur"/></filter><filter id="ad" x="920" y="230" width="240" height="240" filterUnits="userSpaceOnUse" color-interpolation-filters="sRGB"><feFlood flood-opacity="0" result="BackgroundImageFix"/><feBlend in="SourceGraphic" in2="BackgroundImageFix" result="shape"/><feGaussianBlur stdDeviation="29" result="effect1_foregroundBlur"/></filter><filter id="d" x="288" y="365" width="790" height="790" filterUnits="userSpaceOnUse" color-interpolation-filters="sRGB"><feFlood flood-opacity="0" result="BackgroundImageFix"/><feBlend in="SourceGraphic" in2="BackgroundImageFix" result="shape"/><feGaussianBlur stdDeviation="60" result="effect1_foregroundBlur"/></filter><radialGradient id="F" cx="0" cy="0" r="1" gradientUnits="userSpaceOnUse" gradientTransform="rotate(103.415 -57.528 648.571) scale(704.729 502.059)"><stop stop-color="#FBF432"/><stop offset=".206" stop-color="#FFBA00"/><stop offset=".719" stop-color="#82E397"/><stop offset="1" stop-color="#25D5E8"/></radialGradient><radialGradient id="X" cx="0" cy="0" r="1" gradientUnits="userSpaceOnUse" gradientTransform="matrix(34 0 0 34 279 485)"><stop stop-color="#fff"/><stop offset=".745" stop-color="#25D5E8"/><stop offset="1" stop-color="#82E397"/></radialGradient><radialGradient id="h" cx="0" cy="0" r="1" gradientUnits="userSpaceOnUse" gradientTransform="matrix(56 0 0 56 1102 902)"><stop stop-color="#fff"/><stop offset=".745" stop-color="#437BFF"/><stop offset="1" stop-color="#E732FB" stop-opacity=".322"/></radialGradient><radialGradient id="k" cx="0" cy="0" r="1" gradientUnits="userSpaceOnUse" gradientTransform="matrix(88 0 0 88 374 1193)"><stop stop-color="#fff"/><stop offset=".745" stop-color="#437BFF"/><stop offset="1" stop-color="#E732FB" stop-opacity=".322"/></radialGradient><radialGradient id="n" cx="0" cy="0" r="1" gradientUnits="userSpaceOnUse" gradientTransform="matrix(69.5 0 0 69.5 .5 645.5)"><stop stop-color="#fff"/><stop offset=".745" stop-color="#437BFF"/><stop offset="1" stop-color="#E732FB" stop-opacity=".322"/></radialGradient><radialGradient id="q" cx="0" cy="0" r="1" gradientUnits="userSpaceOnUse" gradientTransform="matrix(133 0 0 133 683 760)"><stop stop-color="#25D5E8"/><stop offset="1" stop-color="#00D3BD"/></radialGradient><radialGradient id="s" cx="0" cy="0" r="1" gradientUnits="userSpaceOnUse" gradientTransform="matrix(79 0 0 79 683 760)"><stop stop-color="#FDFDFD"/><stop offset="1" stop-color="#F1F0F8"/></radialGradient><radialGradient id="t" cx="0" cy="0" r="1" gradientUnits="userSpaceOnUse" gradientTransform="matrix(66 0 0 66 683 760)"><stop stop-color="#FDFDFD"/><stop offset="1" stop-color="#F1F0F8"/></radialGradient><radialGradient id="v" cx="0" cy="0" r="1" gradientUnits="userSpaceOnUse" gradientTransform="matrix(42 0 0 42 683 760)"><stop stop-color="#25D5E8"/><stop offset="1" stop-color="#00D3BD"/></radialGradient><radialGradient id="x" cx="0" cy="0" r="1" gradientUnits="userSpaceOnUse" gradientTransform="matrix(23 0 0 23 683 760)"><stop stop-color="#FDFDFD"/><stop offset="1" stop-color="#F1F0F8"/></radialGradient><radialGradient id="E" cx="0" cy="0" r="1" gradientUnits="userSpaceOnUse" gradientTransform="matrix(35.86382 4.22565 -7.26541 61.66285 592.579 821.866)"><stop stop-color="#fff" stop-opacity="0"/><stop offset=".571" stop-color="#fff" stop-opacity=".196"/><stop offset="1" stop-color="#fff"/></radialGradient><radialGradient id="f" cx="0" cy="0" r="1" gradientUnits="userSpaceOnUse" gradientTransform="matrix(376.44074 -9.63391 10.10391 394.80573 701.118 750.239)"><stop stop-color="#fff"/><stop offset=".335" stop-color="#fff" stop-opacity=".957"/><stop offset=".423" stop-color="#fff" stop-opacity=".82"/><stop offset="1" stop-color="#fff" stop-opacity="0"/></radialGradient><radialGradient id="e" cx="0" cy="0" r="1" gradientUnits="userSpaceOnUse" gradientTransform="matrix(275 0 0 275 683 760)"><stop stop-color="#fff"/><stop offset=".745" stop-color="#437BFF"/><stop offset="1" stop-color="#E732FB" stop-opacity=".322"/></radialGradient><radialGradient id="J" cx="0" cy="0" r="1" gradientUnits="userSpaceOnUse" gradientTransform="matrix(-30.50014 25.99991 -74.5885 -87.49877 602 790)"><stop stop-color="#FFBA00"/><stop offset="1" stop-color="#F6328D"/></radialGradient><radialGradient id="L" cx="0" cy="0" r="1" gradientUnits="userSpaceOnUse" gradientTransform="rotate(-13 3797.868 -3287.541) scale(29.6007 48.1742)"><stop stop-color="#fff" stop-opacity="0"/><stop offset=".487" stop-color="#fff" stop-opacity=".196"/><stop offset="1" stop-color="#fff"/></radialGradient><radialGradient id="M" cx="0" cy="0" r="1" gradientUnits="userSpaceOnUse" gradientTransform="rotate(-9.97 4606.884 -4643.277) scale(528.481 1156.61)"><stop stop-color="#FBF432"/><stop offset=".138" stop-color="#FFBA00"/><stop offset=".452" stop-color="#F7437B"/><stop offset=".519" stop-color="#F6328D"/><stop offset=".559" stop-color="#F332A2"/><stop offset=".687" stop-color="#E732FB"/><stop offset=".825" stop-color="#C93FFC"/><stop offset="1" stop-color="#437BFF"/></radialGradient><radialGradient id="N" cx="0" cy="0" r="1" gradientUnits="userSpaceOnUse" gradientTransform="matrix(720.35127 44.7513 -48.4185 779.38147 830.35 1007.51)"><stop stop-color="#fff" stop-opacity="0"/><stop offset="1" stop-color="#fff"/></radialGradient><radialGradient id="P" cx="0" cy="0" r="1" gradientUnits="userSpaceOnUse" gradientTransform="rotate(-110.993 680.984 75.993) scale(46.057 30.0628)"><stop stop-color="#F6328D"/><stop offset="1" stop-color="#FFBA00"/></radialGradient><radialGradient id="R" cx="0" cy="0" r="1" gradientUnits="userSpaceOnUse" gradientTransform="matrix(588 0 0 588 683 760)"><stop stop-color="#82E397"/><stop offset="1" stop-color="#25D5E8"/></radialGradient><radialGradient id="T" cx="0" cy="0" r="1" gradientUnits="userSpaceOnUse" gradientTransform="matrix(99 0 0 99 683 760)"><stop stop-color="#82E397"/><stop offset="1" stop-color="#25D5E8"/></radialGradient><radialGradient id="V" cx="0" cy="0" r="1" gradientUnits="userSpaceOnUse" gradientTransform="matrix(34 0 0 34 924 1227)"><stop stop-color="#fff"/><stop offset=".745" stop-color="#437BFF"/><stop offset="1" stop-color="#E732FB" stop-opacity=".322"/></radialGradient><linearGradient id="G" x1="279.246" y1="751.71" x2="279.246" y2="1307.61" gradientUnits="userSpaceOnUse"><stop stop-color="#fff" stop-opacity="0"/><stop offset="1" stop-color="#fff"/></linearGradient><linearGradient id="K" x1="817.992" y1="763.594" x2="837.066" y2="755.227" gradientUnits="userSpaceOnUse"><stop stop-color="#FBF231"/><stop offset="1" stop-color="#FCD25E"/></linearGradient><linearGradient id="b" x1="688.5" y1="321" x2="688.5" y2="2762" gradientUnits="userSpaceOnUse"><stop stop-color="#fff"/><stop offset="1" stop-color="#F2F1F9"/></linearGradient><linearGradient id="H" x1="537.679" y1="821.162" x2="90.301" y2="1600.63" gradientUnits="userSpaceOnUse"><stop stop-color="#fff" stop-opacity="0"/><stop offset="1" stop-color="#fff"/></linearGradient><linearGradient id="D" x1="630.112" y1="751.33" x2="601.559" y2="820.275" gradientUnits="userSpaceOnUse"><stop stop-color="#FBF231"/><stop offset="1" stop-color="#FCD25E"/></linearGradient><linearGradient id="O" x1="850.554" y1="801.743" x2="1371.47" y2="830.876" gradientUnits="userSpaceOnUse"><stop stop-color="#fff" stop-opacity="0"/><stop offset="1" stop-color="#fff"/></linearGradient><clipPath id="a"><path fill="#fff" d="M0 0h1373v2441H0z"/></clipPath></defs></svg>