<svg xmlns="http://www.w3.org/2000/svg" width="680" height="392" fill="none"><g clip-path="url(#a)"><path fill="url(#b)" d="M680 0H0v392h680V0Z"/><path fill="url(#c)" d="m141.985-117.159 756.073 17.478-371.107 400.285L83.095 141.785l58.89-258.944Z" opacity=".08"/><path fill="url(#d)" d="m87.952-118.408 810.107 18.725-407.63 398.893-465.58-140.17 63.103-277.448Z" opacity=".08"/><path fill="url(#e)" d="m230.488-115.113 667.571 15.43-327.663 388.751-391.908-175.55 52-228.631Z"/><path fill="url(#f)" d="m898.059-99.682-327.664 388.75-391.907-175.55 719.571-213.2Z"/><g filter="url(#g)" style="mix-blend-mode:overlay"><path fill="#fff" d="m529.162 39.759-74.478-43c-55.482-32.032-126.426-13.023-158.459 42.459l-80 138.564c-32.032 55.482-13.023 126.426 42.459 158.459l74.478 43c55.482 32.033 126.427 13.023 158.459-42.459l80-138.564c32.033-55.482 13.023-126.426-42.459-158.459Z"/></g><g filter="url(#h)"><path fill="#fff" d="M574.852 121.105 366.108.567 217.445 258.018l208.744 120.538 148.663-257.451Z" opacity=".4"/></g><g filter="url(#i)"><path fill="#fff" d="M587.176 170.39 416.045-.765 204.954 210.296l171.131 171.155L587.176 170.39Z" opacity=".24"/></g><g filter="url(#j)"><path fill="#fff" d="M543.601 108.478 335.12 52.581l-68.958 257.191 208.482 55.897 68.957-257.191Z"/></g><g filter="url(#k)"><path fill="#fff" d="m515.718 134.278-169.513-45.45-52.24 194.843 169.513 45.449 52.24-194.842Z"/></g><path fill="#E732FB" d="m402.415 120.519-46.368-12.432-12.432 46.368 46.368 12.432 12.432-46.368Z"/><path fill="#82E397" d="m455.923 283.969-137.172-36.778-6.216 23.184 137.172 36.778 6.216-23.184Z"/><path fill="#25D5E8" d="m476.643 206.689-137.172-36.778-6.216 23.184 137.172 36.778 6.216-23.184Z"/><path fill="#00D3BD" d="m466.283 245.329-137.172-36.778-6.216 23.184 137.172 36.778 6.216-23.184Z"/><path fill="#FFBA00" d="m490.111 156.457-75.348-20.202-6.216 23.184 75.348 20.202 6.216-23.184Z"/></g><defs><linearGradient id="b" x1="340" x2="340" y1="0" y2="392" gradientUnits="userSpaceOnUse"><stop stop-color="#F2F1F9"/><stop offset="1" stop-color="#fff"/></linearGradient><linearGradient id="c" x1="610.746" x2="302.448" y1="-265.561" y2="268.428" gradientUnits="userSpaceOnUse"><stop stop-color="#25D5E8"/><stop offset="1" stop-color="#00D3BD"/></linearGradient><linearGradient id="d" x1="590.214" x2="259.881" y1="-277.417" y2="294.737" gradientUnits="userSpaceOnUse"><stop stop-color="#25D5E8"/><stop offset="1" stop-color="#00D3BD"/></linearGradient><linearGradient id="e" x1="644.379" x2="372.168" y1="-246.144" y2="225.339" gradientUnits="userSpaceOnUse"><stop stop-color="#25D5E8"/><stop offset="1" stop-color="#00D3BD"/></linearGradient><linearGradient id="f" x1="303.427" x2="592.093" y1="-13" y2="245.777" gradientUnits="userSpaceOnUse"><stop stop-color="#25D5E8"/><stop offset="1" stop-color="#437BFF"/></linearGradient><filter id="h" width="485.965" height="506.547" x="153.166" y="-87.817" color-interpolation-filters="sRGB" filterUnits="userSpaceOnUse"><feFlood flood-opacity="0" result="BackgroundImageFix"/><feColorMatrix in="SourceAlpha" values="0 0 0 0 0 0 0 0 0 0 0 0 0 0 0 0 0 0 127 0"/><feOffset dy="-24.105"/><feGaussianBlur stdDeviation="32.139"/><feColorMatrix values="0 0 0 0 0.145098 0 0 0 0 0.835294 0 0 0 0 0.909804 0 0 0 0.078 0"/><feBlend in2="BackgroundImageFix" result="effect1_dropShadow"/><feBlend in="SourceGraphic" in2="effect1_dropShadow" result="shape"/></filter><filter id="g" width="711.396" height="738.482" x="38.225" y="-181.241" color-interpolation-filters="sRGB" filterUnits="userSpaceOnUse"><feFlood flood-opacity="0" result="BackgroundImageFix"/><feBlend in="SourceGraphic" in2="BackgroundImageFix" result="shape"/><feGaussianBlur result="effect1_foregroundBlur" stdDeviation="60"/></filter><filter id="i" width="510.78" height="510.774" x="140.675" y="-89.149" color-interpolation-filters="sRGB" filterUnits="userSpaceOnUse"><feFlood flood-opacity="0" result="BackgroundImageFix"/><feColorMatrix in="SourceAlpha" values="0 0 0 0 0 0 0 0 0 0 0 0 0 0 0 0 0 0 127 0"/><feOffset dy="-24.105"/><feGaussianBlur stdDeviation="32.139"/><feColorMatrix values="0 0 0 0 0.145098 0 0 0 0 0.835294 0 0 0 0 0.909804 0 0 0 0.078 0"/><feBlend in2="BackgroundImageFix" result="effect1_dropShadow"/><feBlend in="SourceGraphic" in2="effect1_dropShadow" result="shape"/></filter><filter id="j" width="405.996" height="441.647" x="201.883" y="-35.803" color-interpolation-filters="sRGB" filterUnits="userSpaceOnUse"><feFlood flood-opacity="0" result="BackgroundImageFix"/><feColorMatrix in="SourceAlpha" values="0 0 0 0 0 0 0 0 0 0 0 0 0 0 0 0 0 0 127 0"/><feOffset dy="-24.105"/><feGaussianBlur stdDeviation="32.139"/><feColorMatrix values="0 0 0 0 0.145098 0 0 0 0 0.835294 0 0 0 0 0.909804 0 0 0 0.161 0"/><feBlend in2="BackgroundImageFix" result="effect1_dropShadow"/><feBlend in="SourceGraphic" in2="effect1_dropShadow" result="shape"/></filter><filter id="k" width="350.311" height="368.849" x="229.686" y=".445" color-interpolation-filters="sRGB" filterUnits="userSpaceOnUse"><feFlood flood-opacity="0" result="BackgroundImageFix"/><feColorMatrix in="SourceAlpha" values="0 0 0 0 0 0 0 0 0 0 0 0 0 0 0 0 0 0 127 0"/><feOffset dy="-24.105"/><feGaussianBlur stdDeviation="32.139"/><feColorMatrix values="0 0 0 0 0.145098 0 0 0 0 0.835294 0 0 0 0 0.909804 0 0 0 0.161 0"/><feBlend in2="BackgroundImageFix" result="effect1_dropShadow"/><feBlend in="SourceGraphic" in2="effect1_dropShadow" result="shape"/></filter><clipPath id="a"><path fill="#fff" d="M0 0h680v392H0z"/></clipPath></defs></svg>