<svg width="680" height="392" fill="none" xmlns="http://www.w3.org/2000/svg"><g clip-path="url(#a)"><path d="M680 0H0v392h680V0Z" fill="url(#b)"/><path d="m-49.512-115.113 947.571 15.43L701.762 110.78 450.391 289.065 58.488 113.518l-108-228.631Z" fill="url(#c)"/><path d="m-49.512-115.113 947.571 15.43-839.57 213.201-108-228.631Z" fill="url(#d)"/><g style="mix-blend-mode:overlay" opacity=".64" filter="url(#e)"><path d="M631.502 260.502C698.328 144.755 658.67-3.25 542.923-70.076c-115.746-66.827-263.751-27.169-330.578 88.578l-56 96.995c-66.826 115.747-27.168 263.752 88.578 330.578 115.747 66.827 263.752 27.169 330.579-88.578l56-96.995Z" fill="#fff"/></g><g filter="url(#f)"><path opacity=".4" d="M597.083 235.216C644.579 152.95 616.393 47.756 534.126.26 451.86-47.236 346.666-19.05 299.17 63.216c-47.497 82.267-19.31 187.46 62.956 234.957 82.267 47.496 187.46 19.31 234.957-62.957Z" fill="#fff"/></g><g filter="url(#g)"><path opacity=".24" d="M480.409 296.128c67.561-67.56 67.561-177.098 0-244.659-67.56-67.56-177.098-67.56-244.659 0-67.56 67.561-67.56 177.099 0 244.659 67.561 67.561 177.099 67.561 244.659 0Z" fill="#fff"/></g><g filter="url(#h)"><path opacity=".24" d="M644.409 318.328c67.561-67.56 67.561-177.098 0-244.659-67.56-67.56-177.098-67.56-244.659 0-67.56 67.561-67.56 177.099 0 244.659 67.561 67.561 177.099 67.561 244.659 0Z" fill="#fff"/></g><g filter="url(#i)"><path d="M547.34 207c0-72.902-59.099-132-132-132-72.902 0-132 59.098-132 132s59.098 132 132 132c72.901 0 132-59.098 132-132Z" fill="#fff"/></g><g filter="url(#j)"><path d="M515.34 206.82c0-55.229-44.772-100-100-100-55.229 0-100 44.771-100 100 0 55.228 44.771 100 100 100 55.228 0 100-44.772 100-100Z" fill="#fff"/></g><path d="m393.923 162.819 66 44-66 44v-88Z" fill="#E732FB"/><path d="M393.923 264.819v-6l78-52-78-52v-6l87 58-87 58Z" fill="#FFBA00"/><path d="M386 163h-12v88h12v-88Z" fill="#F6328D"/><path d="M386 149h-12v4h12v-4Z" fill="#437BFF"/><path d="M386 261h-12v4h12v-4Z" fill="#82E397"/></g><defs><filter id="e" x="-84.655" y="-311.076" width="957.156" height="998.151" filterUnits="userSpaceOnUse" color-interpolation-filters="sRGB"><feFlood flood-opacity="0" result="BackgroundImageFix"/><feBlend in="SourceGraphic" in2="BackgroundImageFix" result="shape"/><feGaussianBlur stdDeviation="60" result="effect1_foregroundBlur"/></filter><filter id="f" x="149.17" y="-173.74" width="597.913" height="597.913" filterUnits="userSpaceOnUse" color-interpolation-filters="sRGB"><feFlood flood-opacity="0" result="BackgroundImageFix"/><feColorMatrix in="SourceAlpha" values="0 0 0 0 0 0 0 0 0 0 0 0 0 0 0 0 0 0 127 0"/><feOffset dy="-24"/><feGaussianBlur stdDeviation="32"/><feColorMatrix values="0 0 0 0 0.145098 0 0 0 0 0.835294 0 0 0 0 0.909804 0 0 0 0.078 0"/><feBlend in2="BackgroundImageFix" result="effect1_dropShadow"/><feBlend in="SourceGraphic" in2="effect1_dropShadow" result="shape"/></filter><filter id="g" x="49.421" y="-158.86" width="617.318" height="617.318" filterUnits="userSpaceOnUse" color-interpolation-filters="sRGB"><feFlood flood-opacity="0" result="BackgroundImageFix"/><feColorMatrix in="SourceAlpha" values="0 0 0 0 0 0 0 0 0 0 0 0 0 0 0 0 0 0 127 0"/><feOffset dy="-24"/><feGaussianBlur stdDeviation="32"/><feColorMatrix values="0 0 0 0 0.145098 0 0 0 0 0.835294 0 0 0 0 0.909804 0 0 0 0.078 0"/><feBlend in2="BackgroundImageFix" result="effect1_dropShadow"/><feBlend in="SourceGraphic" in2="effect1_dropShadow" result="shape"/></filter><filter id="h" x="213.421" y="-136.66" width="617.318" height="617.318" filterUnits="userSpaceOnUse" color-interpolation-filters="sRGB"><feFlood flood-opacity="0" result="BackgroundImageFix"/><feColorMatrix in="SourceAlpha" values="0 0 0 0 0 0 0 0 0 0 0 0 0 0 0 0 0 0 127 0"/><feOffset dy="-24"/><feGaussianBlur stdDeviation="32"/><feColorMatrix values="0 0 0 0 0.145098 0 0 0 0 0.835294 0 0 0 0 0.909804 0 0 0 0.078 0"/><feBlend in2="BackgroundImageFix" result="effect1_dropShadow"/><feBlend in="SourceGraphic" in2="effect1_dropShadow" result="shape"/></filter><filter id="i" x="219.34" y="-13" width="392" height="392" filterUnits="userSpaceOnUse" color-interpolation-filters="sRGB"><feFlood flood-opacity="0" result="BackgroundImageFix"/><feColorMatrix in="SourceAlpha" values="0 0 0 0 0 0 0 0 0 0 0 0 0 0 0 0 0 0 127 0"/><feOffset dy="-24"/><feGaussianBlur stdDeviation="32"/><feColorMatrix values="0 0 0 0 0.145098 0 0 0 0 0.835294 0 0 0 0 0.909804 0 0 0 0.161 0"/><feBlend in2="BackgroundImageFix" result="effect1_dropShadow"/><feBlend in="SourceGraphic" in2="effect1_dropShadow" result="shape"/></filter><filter id="j" x="251.34" y="18.82" width="328" height="328" filterUnits="userSpaceOnUse" color-interpolation-filters="sRGB"><feFlood flood-opacity="0" result="BackgroundImageFix"/><feColorMatrix in="SourceAlpha" values="0 0 0 0 0 0 0 0 0 0 0 0 0 0 0 0 0 0 127 0"/><feOffset dy="-24"/><feGaussianBlur stdDeviation="32"/><feColorMatrix values="0 0 0 0 0.145098 0 0 0 0 0.835294 0 0 0 0 0.909804 0 0 0 0.161 0"/><feBlend in2="BackgroundImageFix" result="effect1_dropShadow"/><feBlend in="SourceGraphic" in2="effect1_dropShadow" result="shape"/></filter><linearGradient id="b" x1="340" y1="0" x2="340" y2="392" gradientUnits="userSpaceOnUse"><stop stop-color="#F2F1F9"/><stop offset="1" stop-color="#fff"/></linearGradient><linearGradient id="c" x1="539.379" y1="-306.766" x2="237.168" y2="216.679" gradientUnits="userSpaceOnUse"><stop stop-color="#25D5E8"/><stop offset="1" stop-color="#00D3BD"/></linearGradient><linearGradient id="d" x1="366.63" y1="144.859" x2="-13.454" y2="20.495" gradientUnits="userSpaceOnUse"><stop stop-color="#25D5E8"/><stop offset="1" stop-color="#437BFF"/></linearGradient><clipPath id="a"><path fill="#fff" d="M0 0h680v392H0z"/></clipPath></defs></svg>