<svg xmlns="http://www.w3.org/2000/svg" width="64.002" height="64.001"><path transform="translate(17527.002 2784.002)" d="M-17495-2720a31.794 31.794 0 0 1-12.455-2.515 31.889 31.889 0 0 1-10.172-6.858 31.856 31.856 0 0 1-6.857-10.172A31.815 31.815 0 0 1-17527-2752a31.815 31.815 0 0 1 2.516-12.457 31.856 31.856 0 0 1 6.857-10.172 31.889 31.889 0 0 1 10.172-6.858A31.794 31.794 0 0 1-17495-2784a31.8 31.8 0 0 1 12.457 2.515 31.889 31.889 0 0 1 10.172 6.858 31.856 31.856 0 0 1 6.857 10.172A31.815 31.815 0 0 1-17463-2752a31.815 31.815 0 0 1-2.516 12.456 31.856 31.856 0 0 1-6.857 10.172 31.889 31.889 0 0 1-10.172 6.858A31.8 31.8 0 0 1-17495-2720Zm-9-45v26l22-13-22-13Z" fill="#437bff" opacity=".8" style="opacity:1"/></svg>