<svg width="1200" height="720" viewBox="0 0 1200 720" fill="none" xmlns="http://www.w3.org/2000/svg">
<mask id="mask0_1166_798" style="mask-type:alpha" maskUnits="userSpaceOnUse" x="0" y="0" width="1200" height="720">
<rect width="1200" height="720" fill="#D9D9D9"/>
</mask>
<g mask="url(#mask0_1166_798)">
<rect width="1200" height="720" transform="matrix(1 0 0 -1 0 720)" fill="url(#paint0_linear_1166_798)"/>
<path opacity="0.04" d="M721 0H1200V720H0C510.997 474.774 673.988 317.958 721 0Z" fill="url(#paint1_radial_1166_798)"/>
<path opacity="0.4" d="M1091 0H1200V720H370C696.139 617.839 868.98 520.358 1091 0Z" fill="white"/>
<path fill-rule="evenodd" clip-rule="evenodd" d="M-100.012 5.12443C-57.3329 9.01672 8.15199 26.3476 65.8869 65.6887C123.619 105.028 173.598 166.371 185.285 258.296C199.904 373.276 244.428 449.776 297.681 486.972C317.511 500.822 338.548 509.221 359.7 512.128C358.279 512.302 356.857 512.452 355.433 512.576C332.263 510.571 309.098 501.951 287.384 486.767C234.266 449.625 189.814 373.201 175.217 258.264C163.532 166.256 113.559 104.853 55.8439 65.4822C-1.86755 26.1134 -67.3222 8.77097 -109.989 4.87546L-110.012 5.12443C-67.3802 9.01671 -1.96788 26.3476 55.703 65.6887C113.371 105.028 163.295 166.371 174.969 258.296C189.572 373.276 234.046 449.776 287.241 486.972C308.546 501.869 331.248 510.46 353.985 512.693C352.64 512.794 351.293 512.872 349.946 512.928C324.947 511.898 299.821 503.155 276.384 486.767C223.266 449.625 178.814 373.201 164.217 258.264C152.532 166.256 102.559 104.853 44.8439 65.4822C-12.8676 26.1134 -78.3222 8.77097 -120.989 4.87546L-121.012 5.12443C-78.3802 9.01671 -12.9679 26.3476 44.703 65.6887C102.371 105.028 152.295 166.371 163.969 258.296C178.572 373.276 223.046 449.776 276.241 486.972C298.771 502.726 322.863 511.427 346.906 513.015C319.628 513.456 291.997 504.677 266.384 486.767C213.266 449.625 168.814 373.201 154.217 258.264C142.532 166.256 92.5586 104.853 34.8439 65.4822C-22.8676 26.1134 -88.3222 8.77097 -130.989 4.87546L-131.012 5.12443C-88.3802 9.01671 -22.9679 26.3476 34.703 65.6887C92.3707 105.028 142.295 166.371 153.969 258.296C168.572 373.276 213.046 449.776 266.241 486.972C292.848 505.577 321.634 514.346 349.946 513.178C353.45 513.322 356.951 513.315 360.445 513.156C364.037 513.319 367.626 513.322 371.207 513.167C374.713 513.318 378.216 513.319 381.712 513.168C385.294 513.322 388.874 513.318 392.446 513.156C395.95 513.315 399.452 513.322 402.946 513.178C406.45 513.322 409.951 513.315 413.445 513.156C417.037 513.319 420.626 513.322 424.207 513.167C427.713 513.318 431.216 513.319 434.712 513.168C438.294 513.322 441.874 513.318 445.446 513.156C448.95 513.315 452.452 513.322 455.946 513.178C487.657 514.482 519.165 503.401 546.774 479.796C554.102 473.531 561.863 468.29 569.98 464.063C584.593 470.33 599.26 478.796 613.713 489.426C678.387 536.994 738.764 627.896 770.878 759.03L771.121 758.97C738.997 627.797 678.594 536.836 613.861 489.225C599.457 478.63 584.837 470.182 570.266 463.915C571.673 463.187 573.091 462.489 574.519 461.822C590.934 468.254 607.458 477.471 623.713 489.426C688.387 536.994 748.764 627.896 780.878 759.03L781.121 758.97C748.997 627.797 688.594 536.836 623.861 489.225C607.665 477.312 591.196 468.113 574.831 461.677C576.396 460.952 577.974 460.262 579.563 459.609C597.929 466.062 616.491 476.024 634.713 489.426C699.387 536.994 759.764 627.896 791.878 759.03L792.121 758.97C759.997 627.797 699.594 536.836 634.861 489.225C616.71 475.874 598.216 465.932 579.91 459.467C581.445 458.843 582.991 458.252 584.547 457.694C604.811 464.01 625.382 474.618 645.539 489.426C710.284 536.994 770.728 627.896 802.878 759.03L803.121 758.97C770.961 627.796 710.492 536.836 645.687 489.225C625.617 474.48 605.129 463.892 584.938 457.555C586.396 457.039 587.863 456.552 589.338 456.095C611.333 462.136 633.769 473.286 655.713 489.426C720.387 536.994 780.764 627.896 812.878 759.03L813.121 758.97C780.997 627.797 720.594 536.836 655.861 489.225C634.022 473.162 611.689 462.033 589.782 455.959C591.356 455.478 592.94 455.031 594.533 454.617C618.374 460.21 642.835 471.864 666.713 489.426C731.387 536.994 791.764 627.896 823.878 759.03L824.121 758.97C791.997 627.797 731.594 536.836 666.861 489.225C643.115 471.76 618.784 460.127 595.052 454.483C596.461 454.124 597.877 453.791 599.299 453.484C624.783 458.532 651.084 470.576 676.713 489.426C741.387 536.994 801.764 627.896 833.878 759.03L834.121 758.97C801.997 627.797 741.594 536.836 676.861 489.225C651.399 470.497 625.263 458.475 599.915 453.353C601.465 453.027 603.023 452.733 604.589 452.468C631.841 456.767 660.165 469.165 687.713 489.426C752.387 536.994 812.764 627.896 844.878 759.03L845.121 758.97C812.997 627.797 752.594 536.836 687.861 489.225C660.536 469.127 632.436 456.752 605.365 452.34C606.836 452.102 608.312 451.891 609.795 451.707C638.761 455.124 669.092 467.793 698.539 489.426C763.284 536.994 823.728 627.896 855.878 759.03L856.121 758.97C823.961 627.796 763.492 536.836 698.687 489.225C669.556 467.823 639.545 455.179 610.837 451.582C612.161 451.429 613.491 451.297 614.824 451.187C645.327 453.621 677.517 466.482 708.713 489.426C773.387 536.994 833.764 627.896 865.878 759.03L866.121 758.97C833.997 627.797 773.594 536.836 708.861 489.225C678.158 466.642 646.475 453.81 616.376 451.069C617.665 450.979 618.959 450.909 620.256 450.858C652.392 452.088 686.612 465.081 719.713 489.426C784.387 536.994 844.764 627.896 876.878 759.03L877.121 758.97C844.997 627.797 784.594 536.836 719.861 489.225C687.846 465.677 654.766 452.731 623.526 450.773C657.586 450.322 694.291 463.373 729.713 489.426C794.387 536.994 854.764 627.896 886.878 759.03L887.121 758.97C854.997 627.797 794.594 536.836 729.861 489.225C693.27 462.312 655.289 449.247 620.252 450.608C616.727 450.473 613.227 450.48 609.756 450.628C606.181 450.478 602.631 450.473 599.111 450.613C595.583 450.475 592.081 450.477 588.607 450.622C584.962 450.473 581.344 450.475 577.757 450.628C574.229 450.48 570.726 450.473 567.253 450.608C563.727 450.473 560.227 450.48 556.756 450.628C553.181 450.478 549.631 450.473 546.111 450.613C542.584 450.475 539.081 450.477 535.607 450.622C531.962 450.473 528.344 450.475 524.756 450.628C521.229 450.48 517.726 450.473 514.252 450.608C483.551 449.435 454.74 458.977 430.611 479.606C421.59 487.32 412.151 493.693 402.426 498.732C395.639 495.344 388.945 491.355 382.384 486.767C329.266 449.625 284.814 373.201 270.217 258.264C258.532 166.256 208.559 104.853 150.844 65.4822C93.1324 26.1134 27.6778 8.77097 -14.9889 4.87546L-15.0116 5.12443C27.6198 9.01671 93.0321 26.3476 150.703 65.6887C208.371 105.028 258.295 166.371 269.969 258.296C284.572 373.276 329.046 449.776 382.241 486.972C388.76 491.53 395.409 495.498 402.151 498.874C400.612 499.667 399.066 500.426 397.514 501.152C388.983 497.294 380.58 492.498 372.384 486.767C319.266 449.625 274.814 373.201 260.217 258.264C248.532 166.256 198.559 104.853 140.844 65.4822C83.1324 26.1134 17.6778 8.77097 -24.9889 4.87546L-25.0116 5.12443C17.6198 9.01671 83.0321 26.3476 140.703 65.6887C198.371 105.028 248.295 166.371 259.969 258.296C274.572 373.276 319.046 449.776 372.241 486.972C380.387 492.668 388.737 497.442 397.215 501.291C395.518 502.08 393.813 502.829 392.101 503.538C381.649 499.337 371.364 493.745 361.384 486.767C308.266 449.625 263.814 373.201 249.217 258.264C237.532 166.256 187.559 104.853 129.844 65.4822C72.1324 26.1134 6.67781 8.77097 -35.9889 4.87546L-36.0116 5.12443C6.61977 9.01671 72.0321 26.3476 129.703 65.6887C187.371 105.028 237.295 166.371 248.969 258.296C263.572 373.276 308.046 449.776 361.241 486.972C371.16 493.908 381.383 499.477 391.771 503.674C390.158 504.336 388.54 504.964 386.915 505.556C374.615 501.195 362.51 494.929 350.825 486.767C297.648 449.625 253.147 373.201 238.533 258.264C226.835 166.255 176.806 104.853 119.028 65.4821C61.2522 26.1134 -4.27494 8.77096 -46.9889 4.87546L-47.0116 5.12443C-4.33292 9.01672 61.152 26.3476 118.887 65.6887C176.619 105.028 226.598 166.371 238.285 258.296C252.904 373.276 297.428 449.776 350.681 486.972C362.295 495.084 374.323 501.326 386.546 505.689C384.949 506.266 383.347 506.808 381.74 507.316C367.63 502.955 353.733 496.101 340.384 486.767C287.266 449.625 242.814 373.201 228.217 258.264C216.532 166.256 166.559 104.853 108.844 65.4822C51.1324 26.1134 -14.3222 8.77097 -56.9889 4.87546L-57.0116 5.12443C-14.3802 9.01671 51.0321 26.3476 108.703 65.6887C166.371 105.028 216.295 166.371 227.969 258.296C242.572 373.276 287.046 449.776 340.241 486.972C353.502 496.245 367.305 503.075 381.321 507.448C379.652 507.97 377.977 508.455 376.298 508.903C360.282 504.709 344.483 497.325 329.384 486.767C276.266 449.625 231.814 373.201 217.217 258.264C205.532 166.256 155.559 104.853 97.8439 65.4822C40.1324 26.1134 -25.3222 8.77097 -67.9889 4.87546L-68.0116 5.12443C-25.3802 9.01671 40.0321 26.3476 97.703 65.6887C155.371 105.028 205.295 166.371 216.969 258.296C231.572 373.276 276.046 449.776 329.241 486.972C344.23 497.453 359.911 504.813 375.809 509.032C374.323 509.422 372.835 509.784 371.342 510.117C353.604 506.223 336.066 498.432 319.384 486.767C266.266 449.625 221.814 373.201 207.217 258.264C195.532 166.256 145.559 104.853 87.8439 65.4822C30.1324 26.1134 -35.3222 8.77097 -77.9889 4.87546L-78.0116 5.12443C-35.3802 9.01671 30.0321 26.3476 87.703 65.6887C145.371 105.028 195.295 166.371 206.969 258.296C221.572 373.276 266.046 449.776 319.241 486.972C335.785 498.541 353.172 506.306 370.763 510.244C369.14 510.598 367.513 510.919 365.882 511.205C346.261 507.802 326.801 499.645 308.384 486.767C255.266 449.625 210.814 373.201 196.217 258.264C184.532 166.256 134.559 104.853 76.8439 65.4822C19.1324 26.1134 -46.3222 8.77097 -88.9889 4.87546L-89.0116 5.12443C-46.3802 9.01671 19.0321 26.3476 76.703 65.6887C134.371 105.028 184.295 166.371 195.969 258.296C210.572 373.276 255.046 449.776 308.241 486.972C326.474 499.721 345.729 507.851 365.155 511.331C363.661 511.584 362.165 511.808 360.667 512.005C339.24 509.225 317.913 500.798 297.825 486.767C244.648 449.625 200.147 373.201 185.533 258.264C173.835 166.255 123.806 104.853 66.0277 65.4821C8.25223 26.1134 -57.2749 8.77096 -99.9889 4.87546L-100.012 5.12443ZM402.428 499.012C400.897 499.804 399.359 500.562 397.814 501.288C399.403 502.002 400.996 502.683 402.594 503.333C404.14 502.685 405.681 502.004 407.215 501.291C405.615 500.565 404.019 499.805 402.428 499.012ZM407.516 501.427C405.991 502.139 404.46 502.818 402.922 503.466C404.668 504.17 406.418 504.835 408.172 505.462C409.71 504.897 411.243 504.302 412.771 503.674C411.014 502.964 409.262 502.215 407.516 501.427ZM413.101 503.538C411.334 502.827 409.571 502.077 407.814 501.288C419.229 495.927 430.283 488.766 440.774 479.796C462.212 461.467 487.361 451.904 514.256 450.858C515.594 450.909 516.935 450.981 518.28 451.073C493.961 453.382 471.237 462.827 451.611 479.606C439.428 490.022 426.485 497.996 413.101 503.538ZM413.103 503.808C411.587 504.434 410.066 505.029 408.54 505.593C410.197 506.179 411.858 506.731 413.521 507.249C415.05 506.763 416.574 506.246 418.093 505.699C416.426 505.104 414.762 504.473 413.103 503.808ZM418.462 505.565C416.782 504.969 415.106 504.338 413.433 503.671C426.757 498.123 439.642 490.169 451.774 479.796C471.762 462.707 494.977 453.238 519.824 451.187C521.297 451.305 522.775 451.447 524.255 451.613C501.69 454.639 480.606 463.916 462.234 479.606C448.461 491.369 433.717 500.016 418.462 505.565ZM418.464 505.831C416.96 506.377 415.452 506.892 413.939 507.378C415.554 507.875 417.173 508.338 418.793 508.77C420.306 508.359 421.816 507.918 423.321 507.448C421.699 506.942 420.08 506.403 418.464 505.831ZM423.74 507.316C422.101 506.81 420.465 506.27 418.833 505.696C434.014 500.134 448.685 491.506 462.396 479.796C480.996 463.912 502.385 454.612 525.283 451.732C526.789 451.912 528.298 452.117 529.811 452.348C509.062 455.982 489.667 465.024 472.611 479.606C457.309 492.689 440.808 501.918 423.74 507.316ZM423.741 507.578C422.256 508.047 420.768 508.486 419.275 508.897C420.962 509.339 422.651 509.746 424.342 510.117C425.835 509.784 427.323 509.422 428.809 509.032C427.117 508.583 425.427 508.099 423.741 507.578ZM429.298 508.903C427.582 508.454 425.869 507.968 424.159 507.445C441.137 502.022 457.548 492.814 472.774 479.796C489.991 465.076 509.602 456.009 530.589 452.468C532.282 452.735 533.979 453.034 535.679 453.363C516.863 457.519 499.253 466.233 483.611 479.606C466.688 494.075 448.299 503.83 429.298 508.903ZM429.299 509.161C427.843 509.549 426.384 509.91 424.922 510.243C426.406 510.561 427.892 510.853 429.379 511.117C430.844 510.853 432.305 510.562 433.764 510.244C432.274 509.911 430.785 509.55 429.299 509.161ZM434.342 510.117C432.823 509.783 431.304 509.421 429.788 509.03C448.673 503.916 466.948 494.182 483.774 479.796C499.537 466.319 517.305 457.582 536.299 453.484C537.866 453.795 539.436 454.132 541.009 454.495C523.946 459.001 507.952 467.345 493.611 479.606C475.221 495.329 455.1 505.486 434.342 510.117ZM434.343 510.373C432.928 510.688 431.511 510.977 430.09 511.241C431.696 511.517 433.303 511.761 434.911 511.973C436.328 511.784 437.742 511.57 439.155 511.331C437.55 511.043 435.946 510.724 434.343 510.373ZM439.882 511.205C438.228 510.918 436.574 510.597 434.922 510.243C455.532 505.55 475.507 495.414 493.774 479.796C508.211 467.453 524.331 459.085 541.533 454.617C543.315 455.035 545.101 455.487 546.889 455.972C531.743 460.721 517.508 468.58 504.611 479.606C484.613 496.704 462.567 507.22 439.882 511.205ZM439.883 511.459C438.545 511.693 437.205 511.905 435.863 512.095C437.309 512.274 438.755 512.428 440.202 512.556C441.541 512.436 442.879 512.295 444.215 512.131C442.771 511.933 441.326 511.709 439.883 511.459ZM445.185 512.008C443.659 511.811 442.134 511.584 440.61 511.329C463.097 507.246 484.941 496.753 504.774 479.796C517.748 468.704 532.081 460.822 547.338 456.095C549.096 456.578 550.856 457.093 552.619 457.641C539.296 462.477 526.734 469.785 515.234 479.606C493.674 498.019 469.738 508.798 445.185 512.008ZM445.185 512.261C443.998 512.416 442.809 512.553 441.619 512.673C442.894 512.77 444.17 512.848 445.445 512.906C446.626 512.852 447.806 512.781 448.985 512.693C447.718 512.569 446.451 512.424 445.185 512.261ZM450.433 512.576C449.006 512.452 447.58 512.304 446.153 512.13C470.425 508.764 494.073 498.008 515.396 479.796C526.96 469.921 539.602 462.59 553.015 457.765C554.744 458.307 556.475 458.88 558.207 459.485C546.657 464.263 535.723 470.961 525.611 479.606C502.554 499.32 476.775 510.282 450.433 512.576ZM450.433 512.827C449.69 512.891 448.946 512.949 448.202 513C449.771 513.035 451.339 513.04 452.906 513.015C452.082 512.961 451.258 512.898 450.433 512.827ZM455.946 512.928C454.591 512.872 453.235 512.793 451.88 512.692C477.776 510.129 503.091 499.189 525.774 479.796C535.939 471.105 546.939 464.385 558.563 459.609C560.439 460.269 562.317 460.964 564.197 461.697C554.487 466.257 545.249 472.221 536.611 479.606C511.955 500.686 484.187 511.761 455.946 512.928ZM458.978 513.015C489.604 513.513 519.93 502.418 546.611 479.606C553.9 473.375 561.616 468.155 569.683 463.936C567.96 463.201 566.239 462.496 564.519 461.822C554.749 466.387 545.457 472.372 536.774 479.796C512.953 500.162 486.229 511.205 458.978 513.015ZM569.968 463.787C571.368 463.06 572.777 462.363 574.197 461.697C572.497 461.034 570.799 460.402 569.102 459.8C567.669 460.396 566.245 461.022 564.831 461.677C566.543 462.35 568.255 463.053 569.968 463.787ZM574.509 461.551C576.063 460.826 577.629 460.138 579.207 459.485C577.535 458.901 575.863 458.347 574.194 457.821C572.601 458.398 571.018 459.01 569.446 459.658C571.132 460.259 572.82 460.89 574.509 461.551ZM579.554 459.342C581.075 458.718 582.607 458.128 584.149 457.571C582.505 457.063 580.862 456.583 579.222 456.131C577.665 456.615 576.118 457.132 574.582 457.682C576.237 458.207 577.895 458.76 579.554 459.342ZM584.539 457.431C585.981 456.916 587.431 456.43 588.889 455.972C587.276 455.535 585.666 455.124 584.059 454.741C582.586 455.13 581.121 455.548 579.664 455.995C581.287 456.446 582.912 456.924 584.539 457.431ZM589.331 455.835C590.881 455.356 592.441 454.909 594.009 454.495C592.436 454.132 590.866 453.795 589.299 453.484C587.714 453.826 586.138 454.201 584.57 454.607C586.155 454.99 587.742 455.399 589.331 455.835ZM594.527 454.359C595.904 454.002 597.289 453.67 598.679 453.363C597.152 453.067 595.628 452.796 594.106 452.551C592.703 452.793 591.306 453.061 589.915 453.353C591.45 453.663 592.987 453.999 594.527 454.359ZM599.294 453.229C600.792 452.906 602.298 452.613 603.811 452.348C602.351 452.125 600.894 451.927 599.441 451.751C597.909 451.946 596.383 452.17 594.864 452.422C596.338 452.668 597.815 452.936 599.294 453.229ZM604.584 452.215C605.968 451.982 607.358 451.773 608.754 451.588C607.395 451.438 606.04 451.308 604.688 451.199C603.273 451.317 601.863 451.459 600.459 451.626C601.831 451.802 603.206 451.998 604.584 452.215ZM609.791 451.454C610.95 451.311 612.113 451.184 613.28 451.073C612.104 450.992 610.931 450.928 609.76 450.878C608.577 450.929 607.396 450.996 606.219 451.08C607.407 451.189 608.598 451.314 609.791 451.454ZM614.82 450.936C615.555 450.876 616.292 450.822 617.03 450.774C615.593 450.754 614.159 450.758 612.731 450.786C613.427 450.831 614.123 450.881 614.82 450.936ZM407.514 501.152C405.905 500.425 404.302 499.664 402.703 498.87C412.388 493.836 421.787 487.479 430.774 479.796C454.003 459.936 481.588 450.368 511.03 450.774C485.297 452.434 461.243 461.967 440.611 479.606C430.078 488.612 418.977 495.791 407.514 501.152ZM568.75 459.675C567.327 460.271 565.913 460.896 564.509 461.551C562.641 460.82 560.775 460.126 558.91 459.467C560.329 458.89 561.758 458.341 563.195 457.821C565.044 458.403 566.896 459.021 568.75 459.675ZM573.8 457.698C572.22 458.274 570.651 458.886 569.093 459.532C567.254 458.88 565.417 458.264 563.581 457.682C565.157 457.119 566.742 456.59 568.338 456.095C570.156 456.594 571.977 457.129 573.8 457.698ZM578.774 456.009C577.235 456.493 575.706 457.009 574.187 457.557C572.382 456.991 570.581 456.458 568.782 455.959C570.316 455.49 571.86 455.053 573.413 454.648C575.196 455.068 576.984 455.521 578.774 456.009ZM583.542 454.619C582.092 455.008 580.649 455.426 579.215 455.871C577.45 455.386 575.689 454.934 573.93 454.514C575.379 454.144 576.835 453.8 578.299 453.484C580.043 453.83 581.791 454.208 583.542 454.619ZM588.679 453.363C587.129 453.705 585.586 454.079 584.053 454.483C582.337 454.075 580.624 453.699 578.915 453.353C580.465 453.027 582.023 452.733 583.589 452.468C585.282 452.735 586.979 453.034 588.679 453.363ZM593.346 452.43C591.989 452.673 590.638 452.939 589.294 453.229C587.648 452.903 586.005 452.607 584.365 452.34C585.718 452.121 587.077 451.924 588.441 451.751C590.072 451.948 591.707 452.174 593.346 452.43ZM598.423 451.632C596.976 451.828 595.536 452.05 594.101 452.297C592.55 452.047 591.003 451.824 589.459 451.626C590.908 451.454 592.363 451.308 593.824 451.187C595.353 451.309 596.886 451.458 598.423 451.632ZM603.162 451.084C601.916 451.204 600.674 451.342 599.437 451.499C598.08 451.335 596.726 451.192 595.376 451.069C596.618 450.982 597.865 450.914 599.115 450.864C600.461 450.917 601.81 450.99 603.162 451.084ZM606.825 450.787C606.11 450.835 605.396 450.888 604.683 450.948C603.887 450.883 603.091 450.826 602.297 450.776C603.801 450.754 605.311 450.757 606.825 450.787ZM442.682 513C441.855 512.944 441.029 512.879 440.202 512.806C439.339 512.883 438.476 512.95 437.611 513.008C439.303 513.041 440.993 513.038 442.682 513ZM438.784 512.673C437.493 512.544 436.202 512.395 434.911 512.225C433.569 512.403 432.225 512.559 430.88 512.692C432.157 512.788 433.435 512.863 434.712 512.918C436.071 512.859 437.428 512.778 438.784 512.673ZM433.958 512.096C432.431 511.883 430.905 511.641 429.38 511.371C427.877 511.641 426.371 511.882 424.863 512.095C426.386 512.284 427.909 512.444 429.433 512.576C430.943 512.444 432.452 512.284 433.958 512.096ZM428.668 511.242C427.225 510.978 425.784 510.688 424.343 510.373C422.769 510.723 421.191 511.042 419.61 511.329C421.043 511.569 422.477 511.784 423.911 511.973C425.499 511.761 427.085 511.518 428.668 511.242ZM423.763 510.244C422.105 509.873 420.448 509.468 418.794 509.028C417.174 509.467 415.55 509.872 413.922 510.243C415.574 510.597 417.227 510.918 418.882 511.205C420.513 510.919 422.14 510.598 423.763 510.244ZM418.311 508.899C416.713 508.468 415.116 508.005 413.523 507.511C411.875 508.034 410.222 508.521 408.564 508.972C410.155 509.385 411.748 509.767 413.342 510.117C415.003 509.746 416.659 509.34 418.311 508.899ZM413.105 507.38C411.458 506.863 409.814 506.313 408.173 505.728C406.508 506.337 404.836 506.91 403.159 507.445C404.796 507.945 406.435 508.412 408.077 508.845C409.758 508.393 411.434 507.905 413.105 507.38ZM407.805 505.596C406.064 504.97 404.327 504.305 402.595 503.603C400.917 504.304 399.231 504.968 397.54 505.593C399.269 506.205 401.003 506.78 402.74 507.316C404.434 506.781 406.122 506.207 407.805 505.596ZM402.266 503.469C400.679 502.821 399.095 502.14 397.516 501.427C395.829 502.214 394.135 502.962 392.433 503.671C394.009 504.299 395.589 504.896 397.172 505.462C398.877 504.836 400.575 504.172 402.266 503.469ZM392.103 503.808C390.503 504.468 388.897 505.095 387.286 505.686C388.848 506.235 390.412 506.753 391.98 507.24C393.593 506.726 395.202 506.178 396.805 505.596C395.234 505.031 393.667 504.435 392.103 503.808ZM397.173 505.728C395.586 506.308 393.994 506.856 392.397 507.369C394.109 507.895 395.824 508.385 397.542 508.838C399.139 508.408 400.732 507.944 402.321 507.448C400.601 506.912 398.885 506.338 397.173 505.728ZM402.741 507.578C401.174 508.073 399.603 508.535 398.028 508.965C399.64 509.383 401.254 509.769 402.87 510.123C404.448 509.772 406.021 509.389 407.591 508.974C405.972 508.542 404.355 508.076 402.741 507.578ZM408.078 509.104C406.539 509.516 404.997 509.898 403.451 510.249C405.01 510.583 406.571 510.887 408.133 511.161C409.68 510.886 411.223 510.58 412.764 510.244C411.2 509.894 409.638 509.514 408.078 509.104ZM413.343 510.373C411.849 510.705 410.352 511.009 408.852 511.285C410.456 511.557 412.061 511.797 413.667 512.005C415.165 511.808 416.661 511.584 418.155 511.331C416.55 511.043 414.946 510.724 413.343 510.373ZM418.883 511.459C417.469 511.707 416.053 511.929 414.634 512.127C415.986 512.291 417.338 512.433 418.69 512.553C420.114 512.426 421.537 512.274 422.958 512.096C421.599 511.906 420.241 511.694 418.883 511.459ZM423.911 512.225C422.643 512.393 421.374 512.542 420.103 512.67C421.471 512.775 422.839 512.857 424.206 512.917C425.467 512.862 426.726 512.787 427.985 512.693C426.627 512.56 425.269 512.404 423.911 512.225ZM429.433 512.827C428.652 512.895 427.871 512.955 427.089 513.007C428.663 513.038 430.236 513.039 431.808 513.009C431.016 512.956 430.225 512.895 429.433 512.827ZM558.554 459.342C559.961 458.766 561.376 458.217 562.8 457.698C561.096 457.166 559.393 456.664 557.693 456.193C556.255 456.643 554.825 457.12 553.404 457.626C555.119 458.167 556.836 458.739 558.554 459.342ZM563.187 457.557C564.744 456.995 566.311 456.467 567.889 455.972C566.219 455.519 564.552 455.095 562.888 454.701C561.294 455.119 559.708 455.571 558.133 456.057C559.815 456.527 561.5 457.027 563.187 457.557ZM568.331 455.835C569.842 455.368 571.362 454.932 572.89 454.526C571.26 454.149 569.632 453.799 568.008 453.478C566.465 453.811 564.929 454.173 563.402 454.567C565.043 454.961 566.686 455.384 568.331 455.835ZM573.406 454.391C574.823 454.022 576.248 453.679 577.679 453.363C576.098 453.057 574.519 452.777 572.944 452.525C571.498 452.773 570.058 453.047 568.626 453.347C570.216 453.668 571.81 454.016 573.406 454.391ZM578.294 453.229C579.792 452.906 581.298 452.613 582.811 452.348C581.298 452.117 579.789 451.912 578.283 451.732C576.751 451.925 575.226 452.146 573.708 452.396C575.234 452.649 576.762 452.926 578.294 453.229ZM583.584 452.215C584.859 452 586.139 451.806 587.423 451.632C586.005 451.471 584.59 451.332 583.179 451.216C581.885 451.326 580.596 451.457 579.312 451.607C580.733 451.788 582.157 451.99 583.584 452.215ZM588.436 451.499C589.713 451.337 590.994 451.195 592.28 451.073C591.054 450.989 589.831 450.922 588.611 450.872C587.297 450.927 585.987 451.002 584.681 451.097C585.93 451.214 587.182 451.348 588.436 451.499ZM593.82 450.936C594.538 450.877 595.257 450.824 595.977 450.777C594.535 450.755 593.098 450.756 591.665 450.782C592.383 450.827 593.101 450.879 593.82 450.936ZM557.248 456.07C555.826 456.52 554.412 456.997 553.007 457.501C551.263 456.955 549.521 456.441 547.782 455.959C549.2 455.526 550.625 455.12 552.059 454.741C553.785 455.152 555.515 455.596 557.248 456.07ZM562.369 454.578C560.799 454.997 559.238 455.449 557.686 455.932C555.978 455.46 554.273 455.018 552.57 454.607C554.138 454.201 555.714 453.826 557.299 453.484C558.986 453.818 560.676 454.183 562.369 454.578ZM567.387 453.357C565.878 453.69 564.376 454.052 562.882 454.443C561.223 454.05 559.568 453.687 557.915 453.353C559.423 453.036 560.938 452.749 562.461 452.49C564.099 452.75 565.741 453.039 567.387 453.357ZM572.178 452.404C570.78 452.652 569.388 452.925 568.003 453.223C566.409 452.909 564.819 452.621 563.232 452.362C564.629 452.134 566.032 451.93 567.441 451.751C569.016 451.941 570.595 452.159 572.178 452.404ZM577.255 451.613C575.81 451.807 574.372 452.026 572.939 452.271C571.443 452.032 569.949 451.817 568.459 451.626C569.908 451.454 571.364 451.308 572.824 451.187C574.298 451.305 575.775 451.447 577.255 451.613ZM581.683 451.101C580.545 451.212 579.41 451.338 578.279 451.48C576.975 451.324 575.674 451.187 574.376 451.069C575.501 450.99 576.629 450.927 577.76 450.878C579.065 450.933 580.372 451.008 581.683 451.101ZM585.593 450.783C584.785 450.836 583.979 450.897 583.175 450.965C582.359 450.898 581.545 450.838 580.731 450.786C582.346 450.755 583.967 450.754 585.593 450.783ZM421.316 513.008C420.441 512.949 419.566 512.881 418.691 512.804C417.861 512.878 417.032 512.943 416.202 513C417.907 513.038 419.612 513.041 421.316 513.008ZM417.276 512.671C416.073 512.551 414.87 512.413 413.668 512.257C412.406 512.422 411.144 512.567 409.88 512.692C411.068 512.781 412.257 512.852 413.445 512.906C414.723 512.848 416 512.77 417.276 512.671ZM412.7 512.128C411.177 511.919 409.655 511.681 408.134 511.415C406.712 511.667 405.289 511.893 403.863 512.095C405.386 512.284 406.909 512.444 408.433 512.576C409.857 512.452 411.279 512.302 412.7 512.128ZM407.414 511.286C405.898 511.012 404.384 510.71 402.871 510.379C401.376 510.711 399.878 511.015 398.377 511.29C399.888 511.546 401.399 511.773 402.911 511.973C404.414 511.772 405.915 511.544 407.414 511.286ZM402.29 510.251C400.706 509.897 399.123 509.512 397.542 509.096C396.006 509.509 394.466 509.891 392.922 510.243C394.499 510.581 396.077 510.889 397.656 511.166C399.204 510.891 400.749 510.586 402.29 510.251ZM397.056 508.967C395.362 508.514 393.67 508.026 391.981 507.502C390.417 507.999 388.848 508.464 387.275 508.897C388.962 509.339 390.651 509.746 392.342 510.117C393.917 509.765 395.489 509.382 397.056 508.967ZM391.564 507.372C390.012 506.885 388.463 506.368 386.917 505.821C385.336 506.396 383.75 506.937 382.159 507.445C383.701 507.917 385.246 508.358 386.793 508.77C388.388 508.337 389.978 507.871 391.564 507.372ZM381.741 507.578C380.095 508.098 378.444 508.582 376.788 509.03C378.304 509.421 379.823 509.783 381.342 510.117C383.003 509.746 384.659 509.34 386.311 508.899C384.785 508.488 383.262 508.048 381.741 507.578ZM386.794 509.028C385.174 509.467 383.55 509.872 381.922 510.243C383.574 510.597 385.228 510.918 386.882 511.205C388.513 510.919 390.14 510.598 391.764 510.244C390.105 509.873 388.448 509.468 386.794 509.028ZM392.343 510.373C390.769 510.723 389.191 511.042 387.61 511.329C389.134 511.584 390.659 511.811 392.185 512.008C393.771 511.801 395.355 511.562 396.936 511.291C395.404 511.014 393.873 510.708 392.343 510.373ZM397.657 511.419C396.159 511.685 394.657 511.922 393.153 512.13C394.58 512.304 396.006 512.452 397.433 512.576C398.943 512.444 400.452 512.284 401.958 512.096C400.524 511.896 399.09 511.67 397.657 511.419ZM402.911 512.225C401.569 512.403 400.225 512.559 398.88 512.692C400.235 512.793 401.591 512.872 402.946 512.928C404.293 512.872 405.64 512.794 406.985 512.693C405.627 512.56 404.269 512.404 402.911 512.225ZM408.433 512.827C407.615 512.898 406.797 512.96 405.978 513.015C407.547 513.04 409.115 513.035 410.682 513C409.932 512.949 409.183 512.891 408.433 512.827ZM547.331 455.835C548.728 455.403 550.131 454.998 551.542 454.619C549.791 454.208 548.043 453.83 546.299 453.484C544.877 453.791 543.461 454.124 542.052 454.483C543.809 454.901 545.569 455.351 547.331 455.835ZM552.053 454.483C553.586 454.079 555.129 453.705 556.679 453.363C554.979 453.034 553.282 452.735 551.589 452.468C550.023 452.733 548.465 453.027 546.915 453.353C548.624 453.699 550.337 454.075 552.053 454.483ZM557.294 453.229C558.751 452.915 560.215 452.629 561.687 452.37C560.052 452.119 558.422 451.898 556.795 451.707C555.312 451.891 553.836 452.102 552.365 452.34C554.005 452.607 555.648 452.903 557.294 453.229ZM562.456 452.237C563.773 452.013 565.095 451.812 566.423 451.632C564.886 451.458 563.353 451.309 561.824 451.187C560.491 451.297 559.162 451.429 557.838 451.582C559.373 451.774 560.913 451.992 562.456 452.237ZM567.437 451.499C568.713 451.337 569.994 451.195 571.28 451.073C569.935 450.981 568.594 450.909 567.256 450.858C565.959 450.909 564.665 450.979 563.376 451.069C564.726 451.192 566.08 451.335 567.437 451.499ZM572.82 450.936C573.487 450.881 574.156 450.832 574.825 450.787C573.388 450.759 571.955 450.754 570.526 450.773C571.29 450.821 572.055 450.875 572.82 450.936ZM545.679 453.363C544.289 453.67 542.904 454.002 541.527 454.359C539.987 453.999 538.45 453.663 536.915 453.353C538.306 453.061 539.703 452.793 541.106 452.551C542.628 452.796 544.152 453.067 545.679 453.363ZM550.811 452.348C549.298 452.613 547.792 452.906 546.294 453.229C544.815 452.936 543.338 452.668 541.864 452.422C543.383 452.17 544.909 451.946 546.441 451.751C547.894 451.927 549.351 452.125 550.811 452.348ZM555.754 451.588C554.358 451.773 552.968 451.982 551.584 452.215C550.206 451.998 548.831 451.802 547.459 451.626C548.863 451.459 550.273 451.317 551.688 451.199C553.04 451.308 554.395 451.438 555.754 451.588ZM560.28 451.073C559.113 451.184 557.95 451.311 556.791 451.454C555.598 451.314 554.408 451.189 553.22 451.08C554.396 450.996 555.577 450.929 556.761 450.878C557.931 450.928 559.104 450.992 560.28 451.073ZM564.03 450.774C563.292 450.822 562.555 450.876 561.82 450.936C561.123 450.881 560.426 450.831 559.731 450.786C561.159 450.758 562.593 450.754 564.03 450.774ZM399.906 513.015C399.082 512.961 398.258 512.898 397.433 512.827C396.905 512.873 396.377 512.915 395.848 512.954C395.633 512.97 395.417 512.985 395.202 513C396.771 513.035 398.339 513.04 399.906 513.015ZM395.985 512.693C394.718 512.569 393.451 512.424 392.185 512.261C390.998 512.416 389.809 512.553 388.619 512.673C389.894 512.77 391.17 512.848 392.445 512.906C393.626 512.852 394.806 512.781 395.985 512.693ZM391.215 512.131C389.771 511.933 388.326 511.709 386.883 511.459C385.545 511.693 384.205 511.905 382.863 512.095C384.309 512.274 385.755 512.428 387.202 512.556C388.541 512.436 389.879 512.295 391.215 512.131ZM386.155 511.331C384.55 511.043 382.946 510.724 381.343 510.373C379.928 510.688 378.511 510.977 377.09 511.241C378.696 511.517 380.303 511.761 381.911 511.973C383.328 511.784 384.742 511.57 386.155 511.331ZM380.764 510.244C379.274 509.911 377.785 509.55 376.299 509.161C374.843 509.549 373.384 509.91 371.922 510.243C373.406 510.561 374.892 510.853 376.379 511.117C377.844 510.853 379.305 510.562 380.764 510.244ZM371.343 510.373C369.769 510.723 368.191 511.042 366.61 511.329C368.043 511.569 369.477 511.784 370.911 511.973C372.499 511.761 374.085 511.518 375.668 511.242C374.226 510.978 372.784 510.688 371.343 510.373ZM376.38 511.371C374.877 511.641 373.371 511.882 371.863 512.095C373.386 512.284 374.909 512.444 376.433 512.576C377.943 512.444 379.452 512.284 380.958 512.096C379.431 511.883 377.905 511.641 376.38 511.371ZM381.911 512.225C380.569 512.403 379.225 512.559 377.88 512.692C379.157 512.788 380.435 512.863 381.712 512.918C383.071 512.859 384.428 512.778 385.784 512.673C384.493 512.544 383.202 512.395 381.911 512.225ZM387.202 512.806C386.339 512.883 385.476 512.95 384.611 513.008C386.303 513.041 387.993 513.038 389.682 513C388.855 512.944 388.029 512.879 387.202 512.806ZM536.294 453.229C537.638 452.939 538.989 452.673 540.346 452.43C538.707 452.174 537.072 451.948 535.441 451.751C534.077 451.924 532.718 452.121 531.365 452.34C533.005 452.607 534.648 452.903 536.294 453.229ZM541.101 452.297C542.536 452.05 543.976 451.828 545.423 451.632C543.886 451.458 542.353 451.309 540.824 451.187C539.363 451.308 537.908 451.454 536.459 451.626C538.003 451.824 539.55 452.047 541.101 452.297ZM546.437 451.499C547.674 451.342 548.916 451.204 550.162 451.084C548.81 450.99 547.461 450.917 546.115 450.864C544.865 450.914 543.618 450.982 542.376 451.069C543.726 451.192 545.08 451.335 546.437 451.499ZM551.683 450.948C552.396 450.888 553.11 450.835 553.826 450.787C552.311 450.757 550.801 450.754 549.297 450.776C550.091 450.826 550.887 450.883 551.683 450.948ZM534.423 451.632C533.139 451.806 531.859 452 530.584 452.215C529.157 451.99 527.733 451.788 526.312 451.607C527.596 451.457 528.886 451.326 530.179 451.216C531.59 451.332 533.005 451.471 534.423 451.632ZM539.28 451.073C537.994 451.195 536.713 451.337 535.436 451.499C534.182 451.348 532.93 451.214 531.681 451.097C532.987 451.002 534.297 450.927 535.611 450.872C536.831 450.922 538.054 450.989 539.28 451.073ZM542.977 450.777C542.257 450.824 541.538 450.877 540.82 450.936C540.101 450.879 539.383 450.827 538.665 450.782C540.098 450.756 541.535 450.755 542.977 450.777ZM378.808 513.009C378.016 512.956 377.225 512.895 376.433 512.827C375.652 512.895 374.871 512.955 374.089 513.007C375.663 513.038 377.236 513.039 378.808 513.009ZM374.985 512.693C373.627 512.56 372.269 512.404 370.911 512.225C369.643 512.393 368.374 512.542 367.103 512.67C368.471 512.775 369.839 512.857 371.206 512.917C372.467 512.862 373.726 512.787 374.985 512.693ZM369.958 512.096C368.599 511.906 367.241 511.694 365.883 511.459C364.469 511.707 363.053 511.929 361.634 512.127C362.986 512.291 364.338 512.433 365.69 512.553C367.114 512.426 368.537 512.274 369.958 512.096ZM360.668 512.257C359.406 512.422 358.144 512.567 356.88 512.692C358.068 512.781 359.257 512.852 360.445 512.906C361.723 512.848 363 512.77 364.276 512.671C363.073 512.551 361.87 512.413 360.668 512.257ZM365.691 512.804C364.861 512.878 364.032 512.943 363.202 513C364.907 513.038 366.612 513.041 368.316 513.008C367.441 512.949 366.566 512.881 365.691 512.804ZM525.279 451.48C526.41 451.338 527.545 451.212 528.683 451.101C527.372 451.008 526.065 450.933 524.761 450.878C523.629 450.927 522.501 450.99 521.376 451.069C522.674 451.187 523.975 451.324 525.279 451.48ZM530.175 450.965C530.979 450.897 531.785 450.836 532.593 450.783C530.967 450.754 529.346 450.755 527.731 450.786C528.544 450.838 529.359 450.898 530.175 450.965ZM521.825 450.787C521.156 450.832 520.487 450.881 519.82 450.936C519.054 450.875 518.29 450.821 517.526 450.773C518.955 450.754 520.388 450.759 521.825 450.787ZM357.682 513C356.932 512.949 356.183 512.891 355.433 512.827C354.615 512.898 353.797 512.96 352.978 513.015C354.547 513.04 356.115 513.035 357.682 513Z" fill="url(#paint2_radial_1166_798)"/>
</g>
<defs>
<linearGradient id="paint0_linear_1166_798" x1="600" y1="0" x2="600" y2="720" gradientUnits="userSpaceOnUse">
<stop stop-color="#FFECF5"/>
<stop offset="1" stop-color="#FFFDC7"/>
</linearGradient>
<radialGradient id="paint1_radial_1166_798" cx="0" cy="0" r="1" gradientUnits="userSpaceOnUse" gradientTransform="translate(65.6321 491.549) rotate(-9.51539) scale(1198.55 2507.96)">
<stop stop-color="#FBF432"/>
<stop offset="0.138" stop-color="#FFBA00"/>
<stop offset="0.452" stop-color="#F7437B"/>
<stop offset="0.519" stop-color="#F6328D"/>
<stop offset="0.559" stop-color="#F332A2"/>
<stop offset="0.687" stop-color="#E732FB"/>
<stop offset="0.825" stop-color="#C93FFC"/>
<stop offset="1" stop-color="#437BFF"/>
</radialGradient>
<radialGradient id="paint2_radial_1166_798" cx="0" cy="0" r="1" gradientUnits="userSpaceOnUse" gradientTransform="translate(886.757 698.965) rotate(-144.033) scale(1083.3 947.249)">
<stop stop-color="#FBF432"/>
<stop offset="0.206" stop-color="#FFBA00"/>
<stop offset="0.719" stop-color="#F6328D"/>
<stop offset="0.76588" stop-color="#F3329F" stop-opacity="0.1"/>
<stop offset="0.8125" stop-color="#F132B2" stop-opacity="0.03"/>
<stop offset="0.902498" stop-color="#EF32C1" stop-opacity="0.03"/>
<stop offset="1" stop-color="#E732FB"/>
</radialGradient>
</defs>
</svg>
