<svg xmlns="http://www.w3.org/2000/svg" width="751.716" height="540.028"><defs><filter id="g" x="103.646" y="0" width="352.781" height="250.251" filterUnits="userSpaceOnUse"><feOffset dy="20"/><feGaussianBlur stdDeviation="13" result="blur-7"/><feFlood flood-color="#364250" flood-opacity=".059"/><feComposite operator="in" in2="blur-7"/><feComposite in="SourceGraphic"/></filter><filter id="a" x="160.461" y="172.018" width="352.781" height="250.251" filterUnits="userSpaceOnUse"><feOffset dy="20"/><feGaussianBlur stdDeviation="13" result="blur"/><feFlood flood-color="#364250" flood-opacity=".059"/><feComposite operator="in" in2="blur"/><feComposite in="SourceGraphic"/></filter><filter id="c" x="329.892" y="274.818" width="120.028" height="87.231" filterUnits="userSpaceOnUse"><feOffset dy="3"/><feGaussianBlur stdDeviation="3" result="blur-3"/><feFlood flood-color="#25d5e8" flood-opacity=".451"/><feComposite operator="in" in2="blur-3"/><feComposite in="SourceGraphic"/></filter><filter id="d" x="398.935" y="75.763" width="352.781" height="250.251" filterUnits="userSpaceOnUse"><feOffset dy="20"/><feGaussianBlur stdDeviation="13" result="blur-4"/><feFlood flood-color="#364250" flood-opacity=".059"/><feComposite operator="in" in2="blur-4"/><feComposite in="SourceGraphic"/></filter><filter id="e" x="455.241" y="166.384" width="29.73" height="28.316" filterUnits="userSpaceOnUse"><feOffset dy="3"/><feGaussianBlur stdDeviation="3" result="blur-5"/><feFlood flood-color="#f6328d" flood-opacity=".302"/><feComposite operator="in" in2="blur-5"/><feComposite in="SourceGraphic"/></filter><filter id="f" x="570.169" y="183.652" width="116.849" height="76.981" filterUnits="userSpaceOnUse"><feOffset dy="3"/><feGaussianBlur stdDeviation="3" result="blur-6"/><feFlood flood-color="#f6328d" flood-opacity=".451"/><feComposite operator="in" in2="blur-6"/><feComposite in="SourceGraphic"/></filter><filter id="b" x="216.768" y="262.638" width="29.73" height="28.316" filterUnits="userSpaceOnUse"><feOffset dy="3"/><feGaussianBlur stdDeviation="3" result="blur-2"/><feFlood flood-color="#22d558" flood-opacity=".302"/><feComposite operator="in" in2="blur-2"/><feComposite in="SourceGraphic"/></filter><filter id="h" x="159.952" y="90.621" width="29.73" height="28.316" filterUnits="userSpaceOnUse"><feOffset dy="3"/><feGaussianBlur stdDeviation="3" result="blur-8"/><feFlood flood-color="#22d558" flood-opacity=".302"/><feComposite operator="in" in2="blur-8"/><feComposite in="SourceGraphic"/></filter><filter id="i" x="274.888" y="107.621" width="116.933" height="75.651" filterUnits="userSpaceOnUse"><feOffset dy="3"/><feGaussianBlur stdDeviation="3" result="blur-9"/><feFlood flood-color="#437bff" flood-opacity=".451"/><feComposite operator="in" in2="blur-9"/><feComposite in="SourceGraphic"/></filter><filter id="j" x="0" y="289.778" width="352.781" height="250.251" filterUnits="userSpaceOnUse"><feOffset dy="20"/><feGaussianBlur stdDeviation="13" result="blur-10"/><feFlood flood-color="#364250" flood-opacity=".059"/><feComposite operator="in" in2="blur-10"/><feComposite in="SourceGraphic"/></filter><filter id="k" x="56.307" y="380.399" width="29.73" height="28.316" filterUnits="userSpaceOnUse"><feOffset dy="3"/><feGaussianBlur stdDeviation="3" result="blur-11"/><feFlood flood-color="#22d558" flood-opacity=".302"/><feComposite operator="in" in2="blur-11"/><feComposite in="SourceGraphic"/></filter><filter id="l" x="171.376" y="402.249" width="115.495" height="70.464" filterUnits="userSpaceOnUse"><feOffset dy="3"/><feGaussianBlur stdDeviation="3" result="blur-12"/><feFlood flood-color="#ffba00" flood-opacity=".451"/><feComposite operator="in" in2="blur-12"/><feComposite in="SourceGraphic"/></filter></defs><g data-name="Group 16"><g data-name="Group 12"><g transform="matrix(1.004 0 0 1.004 -.007 -.014)" filter="url(#a)"><rect data-name="Rectangle 1593" width="255" height="110" rx="16" transform="rotate(15 -608.683 956.815)" fill="#fff"/></g><text transform="rotate(14.98 -737.989 1098.056)" fill="#364250" font-size="12" font-family="NunitoSans-Bold, Nunito Sans" font-weight="700" letter-spacing=".156em" opacity=".5"><tspan x="0" y="0">Microstock</tspan></text><text data-name="137" transform="rotate(14.98 -969.52 1067.45)" fill="#364250" font-size="32" font-family="NunitoSans-ExtraBold, Nunito Sans" font-weight="800" letter-spacing=".156em"><tspan x="0" y="0">137</tspan></text><text data-name="77%" transform="rotate(14.98 -819.772 1716.738)" fill="#22d558" font-size="12" font-family="NunitoSans-ExtraBold, Nunito Sans" font-weight="800" letter-spacing=".156em"><tspan x="0" y="0">77%</tspan></text><path data-name="Rectangle 1598" fill="#00d3bd" d="m243.093 211.701 9.66 2.59-4.144 15.456-9.66-2.59z"/><g transform="matrix(1.004 0 0 1.004 -.007 -.014)" filter="url(#b)"><path data-name="Polygon 32" d="M231.515 271.036a1.004 1.004 0 0 1 1.649.442l1.774 5.791a1.004 1.004 0 0 1-1.224 1.263l-6.208-1.664a1.004 1.004 0 0 1-.42-1.704Z" fill="#22d558"/></g><g transform="matrix(1.004 0 0 1.004 -.007 -.014)" filter="url(#c)"><path data-name="Path 259" d="M342.46 325.845s18.147-8.99 24.27-4.354 14.399 8.727 17.68 7.734 8.278.347 11.057-.031 3.278-4.736 4.715-8.848 8.153-.435 9.215.599 1.842-4.374 6.712-7.558 7.216 3.058 9.996 2.68 13.62-8.338 13.62-8.338" fill="none" stroke="#00d3bd" stroke-linecap="round" stroke-width="3.01272"/></g></g><g data-name="Group 13"><g transform="matrix(1.004 0 0 1.004 -.041 -.084)" filter="url(#d)"><rect data-name="Rectangle 1593" width="255" height="110" rx="16" transform="matrix(.97 .26 -.26 .97 466.4 94.76)" fill="#fff"/></g><text transform="rotate(14.98 -253.636 1955.276)" fill="#364250" font-size="12" font-family="NunitoSans-Bold, Nunito Sans" font-weight="700" letter-spacing=".156em" opacity=".5"><tspan x="0" y="0">Marketplace</tspan></text><text data-name="97" transform="rotate(14.98 -485.167 1924.67)" fill="#364250" font-size="32" font-family="NunitoSans-ExtraBold, Nunito Sans" font-weight="800" letter-spacing=".156em"><tspan x="0" y="0">97</tspan></text><text data-name="5%" transform="rotate(14.98 -350.47 2687.826)" fill="#f6328d" font-size="12" font-family="NunitoSans-ExtraBold, Nunito Sans" font-weight="800" letter-spacing=".156em"><tspan x="-20.52" y="0">5%</tspan></text><path data-name="Rectangle 1598" fill="#e732fb" d="m481.581 115.399 9.66 2.59-4.144 15.456-9.66-2.59z"/><g transform="matrix(1.004 0 0 1.004 -.041 -.084)" filter="url(#e)"><path data-name="Polygon 32" d="M470.225 180.304a1.004 1.004 0 0 1-1.649-.442l-1.774-5.791a1.004 1.004 0 0 1 1.224-1.263l6.208 1.664a1.004 1.004 0 0 1 .42 1.704Z" fill="#f6328d"/></g><g transform="matrix(1.004 0 0 1.004 -.041 -.084)" filter="url(#f)"><path data-name="Path 259" d="M668.716 247.924s-13.97-7.206-21.59-6.253-14.605-7.36-16.947-9.86-12.889-.63-12.077-4.907-3.982-15.125-5.419-14.76-3.827 11.78-6.454 6.587-3.618-16.48-5.836-18.199-9.443-7.242-9.443-7.242" fill="none" stroke="#e732fb" stroke-linecap="round" stroke-width="3.01272"/></g></g><g data-name="Group 14"><g transform="matrix(1.004 0 0 1.004 -.016 -.024)" filter="url(#g)"><rect data-name="Rectangle 1593" width="255" height="110" rx="16" transform="matrix(.97 .26 -.26 .97 171.12 19)" fill="#fff"/></g><text transform="rotate(14.98 -113.202 796.73)" fill="#364250" font-size="12" font-family="NunitoSans-Bold, Nunito Sans" font-weight="700" letter-spacing=".156em" opacity=".5"><tspan x="0" y="0">Project</tspan></text><text data-name="5" transform="rotate(14.98 -344.733 766.123)" fill="#364250" font-size="32" font-family="NunitoSans-ExtraBold, Nunito Sans" font-weight="800" letter-spacing=".156em"><tspan x="0" y="0">5</tspan></text><text data-name="63%" transform="rotate(14.98 -210.037 1529.279)" fill="#22d558" font-size="12" font-family="NunitoSans-ExtraBold, Nunito Sans" font-weight="800" letter-spacing=".156em"><tspan x="-29.592" y="0">63%</tspan></text><path data-name="Rectangle 1598" fill="#437bff" d="m186.292 39.636 9.66 2.59-4.144 15.456-9.66-2.59z"/><g transform="matrix(1.004 0 0 1.004 -.016 -.024)" filter="url(#h)"><path data-name="Polygon 32" d="M174.695 99.016a1.004 1.004 0 0 1 1.649.442l1.774 5.791a1.004 1.004 0 0 1-1.224 1.263l-6.208-1.664a1.004 1.004 0 0 1-.42-1.704Z" fill="#22d558"/></g><g transform="matrix(1.004 0 0 1.004 -.016 -.024)" filter="url(#i)"><path data-name="Path 259" d="M287.46 147.035s18.147-8.99 24.27-4.354 14.919 6.787 18.2 5.794 10.436 9.78 11.872 5.671 8.153-.435 9.215.599 2.622-7.284 7.492-10.468 6.956 4.028 9.736 3.65 13.36-7.368 13.36-7.368" fill="none" stroke="#437bff" stroke-linecap="round" stroke-width="3.01272"/></g></g><g data-name="Group 15"><g transform="matrix(1.004 0 0 1.004 .024 .004)" filter="url(#j)"><rect data-name="Rectangle 1593" width="255" height="110" rx="16" transform="matrix(.97 .26 -.26 .97 67.47 308.78)" fill="#fff"/></g><text transform="rotate(14.98 -1264.91 547.687)" fill="#364250" font-size="12" font-family="NunitoSans-Bold, Nunito Sans" font-weight="700" letter-spacing=".156em" opacity=".5"><tspan x="0" y="0">Order</tspan></text><text data-name="19" transform="rotate(14.98 -1496.441 517.081)" fill="#364250" font-size="32" font-family="NunitoSans-ExtraBold, Nunito Sans" font-weight="800" letter-spacing=".156em"><tspan x="0" y="0">19</tspan></text><text data-name="37%" transform="rotate(14.98 -1361.745 1280.237)" fill="#22d558" font-size="12" font-family="NunitoSans-ExtraBold, Nunito Sans" font-weight="800" letter-spacing=".156em"><tspan x="-29.592" y="0">37%</tspan></text><path data-name="Rectangle 1598" fill="#ffba00" d="m82.632 329.461 9.66 2.59-4.144 15.456-9.66-2.59z"/><g transform="matrix(1.004 0 0 1.004 .024 .004)" filter="url(#k)"><path data-name="Polygon 32" d="M71.055 388.796a1.004 1.004 0 0 1 1.649.442l1.774 5.791a1.004 1.004 0 0 1-1.224 1.263l-6.208-1.664a1.004 1.004 0 0 1-.42-1.704Z" fill="#22d558"/></g><g transform="matrix(1.004 0 0 1.004 .024 .004)" filter="url(#l)"><path data-name="Path 259" d="M187.2 424.205s12.167 13.32 18.29 17.956 16.479.967 19.76-.026 8.278.347 11.057-.031 8.188 8.177 9.25 9.21 4.182-13.103 9.052-16.287 5.656 8.878 8.436 8.5 13.62-8.338 13.62-8.338" fill="none" stroke="#ffba00" stroke-linecap="round" stroke-width="3.01272"/></g></g></g></svg>