<svg xmlns="http://www.w3.org/2000/svg" width="680" height="720" fill="none"><g clip-path="url(#a)"><g filter="url(#b)" opacity=".4"><path fill="#fff" d="M757 384.5C757 236.212 636.788 116 488.5 116S220 236.212 220 384.5 340.212 653 488.5 653 757 532.788 757 384.5Z"/></g><g filter="url(#c)" opacity=".64"><path fill="#fff" d="M693 384.5C693 271.558 601.442 180 488.5 180S284 271.558 284 384.5 375.558 589 488.5 589 693 497.442 693 384.5Z" opacity=".64"/></g><g filter="url(#d)" opacity=".72"><path fill="#fff" d="M637 384.5c0-82.014-66.486-148.5-148.5-148.5S340 302.486 340 384.5 406.486 533 488.5 533 637 466.514 637 384.5Z"/></g><g filter="url(#e)" opacity=".8"><path fill="#fff" d="M601 384.5c0-62.132-50.368-112.5-112.5-112.5S376 322.368 376 384.5 426.368 497 488.5 497 601 446.632 601 384.5Z"/></g><path fill="url(#f)" d="m443.246 253.014 134.261 36.817-89.83 88.932H340.356l102.89-125.749Z"/><path fill="url(#g)" d="M539.03 322.103c-23.288-23.108-57.96-13.892-80.263-7.916-8.312 2.227 1.746-1.64 23.546-5.505a412.82 412.82 0 0 1 82.222-6.007l-23.027 22.8a34.942 34.942 0 0 0-2.478-3.372Z" style="mix-blend-mode:screen"/><path fill="#437BFF" d="M539.03 322.103c-23.288-23.108-57.96-13.892-80.263-7.916-8.312 2.227 1.746-1.64 23.546-5.505 19.555-3.469 48.555-6.937 70.33 5.767l-11.135 11.022a35.012 35.012 0 0 0-2.478-3.368Z" style="mix-blend-mode:color-burn"/><path fill="url(#h)" d="M458.753 314.167c22.305-5.981 56.979-15.203 80.273 7.904 1.064.588 40.253 59.559 41.481 64.139 2.645 9.871-28.941 46.918-70.554 58.075-41.614 11.157-87.496 2.201-90.142-7.668-1.368-5.103-14.25-68.667-14.251-68.669 5.03-27.254 33.093-48.392 53.193-53.781Z"/><path fill="url(#i)" d="M570.054 368.633c5.643 8.852 10.052 16.085 10.451 17.573 2.648 9.875-28.939 46.922-70.552 58.079-41.613 11.157-87.496 2.201-90.142-7.668-.449-1.674-2.137-9.637-4.25-19.819-2.209-10.636 18.958-34.335 59.11-46.394 35.32-10.605 89.611-10.815 95.383-1.771Z"/><path fill="url(#j)" d="M480.365 388.543c41.617-13.158 97.496-12.204 100.142-2.334 2.646 9.869-28.941 46.919-70.554 58.076-41.613 11.157-87.496 2.201-90.142-7.668-2.646-9.87 18.94-34.916 60.554-48.074Z"/><path fill="#437BFF" d="M539.349 279.367s-.239-1.351 2.7-1.023a5.118 5.118 0 0 1 4.011 2.863s9.225 20.724-10.87 40.171S465.678 359 465.678 359v-5.315s48.23-17.812 66.648-36.391c9.393-9.475 11.032-19.149 10.356-26.638a29.511 29.511 0 0 0-3.333-11.289Z" style="mix-blend-mode:screen"/><g filter="url(#k)"><path fill="url(#l)" d="M539.349 279.367s-.239-1.351 2.7-1.023a5.118 5.118 0 0 1 4.011 2.863s9.225 20.724-10.87 40.171S465.678 359 465.678 359v-5.315s48.23-17.812 66.648-36.391c9.393-9.475 11.032-19.149 10.356-26.638a29.511 29.511 0 0 0-3.333-11.289Z"/></g><path fill="#437BFF" d="M465.678 351.948c.994.1 1.386 6.078.8 7.843-.586 1.765-8.53 7.06-13.53 6.569-5-.491-11.275-11.667-8.236-14.413 3.039-2.746 20.966.001 20.966.001Z" style="mix-blend-mode:screen"/><g filter="url(#m)"><path fill="url(#n)" d="M465.678 351.948c.994.1 1.386 6.078.8 7.843-.586 1.765-8.53 7.06-13.53 6.569-5-.491-11.275-11.667-8.236-14.413 3.039-2.746 20.966.001 20.966.001Z"/></g><g filter="url(#o)" style="mix-blend-mode:screen"><path fill="url(#p)" d="M390.5 410c34.518 0 62.5-27.982 62.5-62.5S425.018 285 390.5 285 328 312.982 328 347.5s27.982 62.5 62.5 62.5Z" style="mix-blend-mode:screen"/></g><g filter="url(#q)" opacity=".8" style="mix-blend-mode:screen"><path fill="url(#r)" d="M390.5 497c82.567 0 149.5-66.933 149.5-149.5S473.067 198 390.5 198 241 264.933 241 347.5 307.933 497 390.5 497Z" style="mix-blend-mode:screen"/></g></g><defs><radialGradient id="g" cx="0" cy="0" r="1" gradientTransform="matrix(63.1376 0 0 27.2296 502.919 362.678)" gradientUnits="userSpaceOnUse"><stop stop-color="#437BFF"/><stop offset="1" stop-color="#25D5E8" stop-opacity=".161"/></radialGradient><radialGradient id="f" cx="0" cy="0" r="1" gradientTransform="matrix(137.785 0 0 149.189 514.662 4829.86)" gradientUnits="userSpaceOnUse"><stop stop-color="#25D5E8"/><stop offset="1" stop-color="#82E397"/></radialGradient><radialGradient id="h" cx="0" cy="0" r="1" gradientTransform="rotate(-15.009 1536.314 -1456.3) scale(127.211 105.037)" gradientUnits="userSpaceOnUse"><stop stop-color="#FBF432"/><stop offset="1" stop-color="#FFBA00"/></radialGradient><radialGradient id="i" cx="0" cy="0" r="1" gradientTransform="matrix(233.06337 -62.48794 56.06344 209.10168 423.38 394.701)" gradientUnits="userSpaceOnUse"><stop stop-color="#FFBA00"/><stop offset=".33" stop-color="#EBC018"/><stop offset="1" stop-color="#82E397"/></radialGradient><radialGradient id="j" cx="0" cy="0" r="1" gradientTransform="rotate(-15.009 1642.642 -1661.338) scale(79.5907 71.9015)" gradientUnits="userSpaceOnUse"><stop stop-color="#437BFF"/><stop offset="1" stop-color="#E732FB"/></radialGradient><radialGradient id="l" cx="0" cy="0" r="1" gradientTransform="matrix(77.1334 0 0 82.7809 538.026 697.431)" gradientUnits="userSpaceOnUse"><stop stop-color="#437BFF"/><stop offset="1" stop-color="#E732FB"/></radialGradient><radialGradient id="n" cx="0" cy="0" r="1" gradientTransform="matrix(18.3846 0 0 12.0808 447.043 172.351)" gradientUnits="userSpaceOnUse"><stop stop-color="#fff"/><stop offset="1" stop-color="#F2F1F9"/></radialGradient><radialGradient id="p" cx="0" cy="0" r="1" gradientTransform="matrix(62.5 0 0 62.5 390.5 347.5)" gradientUnits="userSpaceOnUse"><stop stop-color="#25D5E8"/><stop offset="1" stop-color="#F6328D"/></radialGradient><radialGradient id="r" cx="0" cy="0" r="1" gradientTransform="translate(390.5 347.5) scale(149.5)" gradientUnits="userSpaceOnUse"><stop stop-color="#25D5E8"/><stop offset="1" stop-color="#25D5E8"/></radialGradient><filter id="c" width="537" height="537" x="220" y="92" color-interpolation-filters="sRGB" filterUnits="userSpaceOnUse"><feFlood flood-opacity="0" result="BackgroundImageFix"/><feColorMatrix in="SourceAlpha" values="0 0 0 0 0 0 0 0 0 0 0 0 0 0 0 0 0 0 127 0"/><feOffset dy="-24"/><feGaussianBlur stdDeviation="32"/><feColorMatrix values="0 0 0 0 0.145098 0 0 0 0 0.835294 0 0 0 0 0.909804 0 0 0 0.161 0"/><feBlend in2="BackgroundImageFix" result="effect1_dropShadow"/><feBlend in="SourceGraphic" in2="effect1_dropShadow" result="shape"/></filter><filter id="d" width="425" height="425" x="276" y="148" color-interpolation-filters="sRGB" filterUnits="userSpaceOnUse"><feFlood flood-opacity="0" result="BackgroundImageFix"/><feColorMatrix in="SourceAlpha" values="0 0 0 0 0 0 0 0 0 0 0 0 0 0 0 0 0 0 127 0"/><feOffset dy="-24"/><feGaussianBlur stdDeviation="32"/><feColorMatrix values="0 0 0 0 0.145098 0 0 0 0 0.835294 0 0 0 0 0.909804 0 0 0 0.161 0"/><feBlend in2="BackgroundImageFix" result="effect1_dropShadow"/><feBlend in="SourceGraphic" in2="effect1_dropShadow" result="shape"/></filter><filter id="e" width="353" height="353" x="312" y="184" color-interpolation-filters="sRGB" filterUnits="userSpaceOnUse"><feFlood flood-opacity="0" result="BackgroundImageFix"/><feColorMatrix in="SourceAlpha" values="0 0 0 0 0 0 0 0 0 0 0 0 0 0 0 0 0 0 127 0"/><feOffset dy="-24"/><feGaussianBlur stdDeviation="32"/><feColorMatrix values="0 0 0 0 0.145098 0 0 0 0 0.835294 0 0 0 0 0.909804 0 0 0 0.161 0"/><feBlend in2="BackgroundImageFix" result="effect1_dropShadow"/><feBlend in="SourceGraphic" in2="effect1_dropShadow" result="shape"/></filter><filter id="k" width="98.496" height="96.707" x="459.678" y="274.293" color-interpolation-filters="sRGB" filterUnits="userSpaceOnUse"><feFlood flood-opacity="0" result="BackgroundImageFix"/><feColorMatrix in="SourceAlpha" values="0 0 0 0 0 0 0 0 0 0 0 0 0 0 0 0 0 0 127 0"/><feOffset dx="2" dy="4"/><feGaussianBlur stdDeviation="4"/><feColorMatrix values="0 0 0 0 0.262745 0 0 0 0 0.482353 0 0 0 0 1 0 0 0 0.239 0"/><feBlend in2="BackgroundImageFix" result="effect1_dropShadow"/><feBlend in="SourceGraphic" in2="effect1_dropShadow" result="shape"/></filter><filter id="m" width="38.838" height="31.665" x="437.915" y="346.727" color-interpolation-filters="sRGB" filterUnits="userSpaceOnUse"><feFlood flood-opacity="0" result="BackgroundImageFix"/><feColorMatrix in="SourceAlpha" values="0 0 0 0 0 0 0 0 0 0 0 0 0 0 0 0 0 0 127 0"/><feOffset dx="2" dy="4"/><feGaussianBlur stdDeviation="4"/><feColorMatrix values="0 0 0 0 0.262745 0 0 0 0 0.482353 0 0 0 0 1 0 0 0 0.239 0"/><feBlend in2="BackgroundImageFix" result="effect1_dropShadow"/><feBlend in="SourceGraphic" in2="effect1_dropShadow" result="shape"/></filter><filter id="o" width="245" height="245" x="268" y="225" color-interpolation-filters="sRGB" filterUnits="userSpaceOnUse"><feFlood flood-opacity="0" result="BackgroundImageFix"/><feBlend in="SourceGraphic" in2="BackgroundImageFix" result="shape"/><feGaussianBlur result="effect1_foregroundBlur" stdDeviation="30"/></filter><filter id="q" width="419" height="419" x="181" y="138" color-interpolation-filters="sRGB" filterUnits="userSpaceOnUse"><feFlood flood-opacity="0" result="BackgroundImageFix"/><feBlend in="SourceGraphic" in2="BackgroundImageFix" result="shape"/><feGaussianBlur result="effect1_foregroundBlur" stdDeviation="30"/></filter><filter id="b" width="729" height="729" x="124" y="-4" color-interpolation-filters="sRGB" filterUnits="userSpaceOnUse"><feFlood flood-opacity="0" result="BackgroundImageFix"/><feColorMatrix in="SourceAlpha" values="0 0 0 0 0 0 0 0 0 0 0 0 0 0 0 0 0 0 127 0"/><feOffset dy="-24"/><feGaussianBlur stdDeviation="48"/><feColorMatrix values="0 0 0 0 0.145098 0 0 0 0 0.835294 0 0 0 0 0.909804 0 0 0 0.08 0"/><feBlend in2="BackgroundImageFix" result="effect1_dropShadow"/><feBlend in="SourceGraphic" in2="effect1_dropShadow" result="shape"/></filter><clipPath id="a"><path fill="#fff" d="M0 0h680v720H0z"/></clipPath></defs></svg>