<svg xmlns="http://www.w3.org/2000/svg" width="680" height="680" fill="none"><mask id="b" width="680" height="680" x="0" y="0" mask-type="alpha" maskUnits="userSpaceOnUse"><path fill="url(#a)" d="M0 0h680v680H0z"/></mask><g mask="url(#b)"><path fill="url(#c)" d="M0 0h680v680H0z"/><g opacity=".12"><path fill="url(#d)" d="m855.822 1312.31-886.45-871.855 1003.7-362.814 528.208 730.482-645.458 504.187Z" opacity=".08"/><path fill="url(#e)" d="M978.363 1188.58 91.913 316.725 1095.61-46.089l528.21 730.483-645.457 504.186Z" opacity=".12"/><path fill="url(#f)" d="M1345.48 771.687 284 496.686 890.596-223l725.534 324.992-270.65 669.695Z"/><path fill="url(#g)" d="M284 496.686 890.598-223l725.532 324.993L284 496.686Z"/></g><path fill="url(#h)" d="M-103.763-72.864 457.389 479.05l-635.375 229.673-334.374-462.419 408.597-319.168Z"/><path fill="url(#i)" d="m457.39 479.05-635.377 229.672-334.373-462.419L457.39 479.05Z"/><g filter="url(#j)" opacity=".24"><path fill="#00D3BD" d="M80.416 580.416c132.779-132.777 132.779-348.054 0-480.832-132.777-132.779-348.054-132.779-480.833 0-132.777 132.778-132.777 348.055 0 480.832 132.779 132.779 348.056 132.779 480.833 0Z"/></g><g filter="url(#k)"><path fill="#fff" d="M545.871 208.523C482.73 99.16 342.886 61.688 233.523 124.829 124.16 187.97 86.688 327.815 149.829 437.178c63.141 109.363 202.986 146.834 312.349 83.693 109.363-63.141 146.834-202.985 83.693-312.348Z"/></g><g filter="url(#l)"><mask id="m" width="295.061" height="295.061" x="193.214" y="139.214" fill="#000" maskUnits="userSpaceOnUse"><path fill="#fff" d="M193.214 139.214h295.061v295.061H193.214z"/><path fill-rule="evenodd" d="M290.745 200.143c47.829-27.614 108.989-11.227 136.603 36.602 27.614 47.829 11.226 108.989-36.603 136.603-47.829 27.614-108.988 11.226-136.602-36.603-27.614-47.829-11.227-108.988 36.602-136.602Zm18 31.176c30.611-17.672 69.753-7.184 87.426 23.426 17.673 30.611 7.185 69.753-23.426 87.426-30.61 17.673-69.753 7.185-87.426-23.426-17.672-30.61-7.184-69.753 23.426-87.426Z" clip-rule="evenodd"/></mask><path fill="#E732FB" fill-rule="evenodd" d="M290.745 200.143c47.829-27.614 108.989-11.227 136.603 36.602 27.614 47.829 11.226 108.989-36.603 136.603-47.829 27.614-108.988 11.226-136.602-36.603-27.614-47.829-11.227-108.988 36.602-136.602Zm18 31.176c30.611-17.672 69.753-7.184 87.426 23.426 17.673 30.611 7.185 69.753-23.426 87.426-30.61 17.673-69.753 7.185-87.426-23.426-17.672-30.61-7.184-69.753 23.426-87.426Z" clip-rule="evenodd"/><path fill="#fff" d="M434.276 232.745c-29.823-51.655-95.876-69.354-147.531-39.531l8 13.857c44.003-25.405 100.27-10.328 125.674 33.674l13.857-8Zm-39.531 147.531c51.655-29.823 69.354-95.876 39.531-147.531l-13.857 8c25.405 44.003 10.329 100.27-33.674 125.674l8 13.857Zm-147.531-39.531c29.824 51.655 95.876 69.354 147.531 39.531l-8-13.857c-44.002 25.405-100.269 10.329-125.674-33.674l-13.857 8Zm39.531-147.531c-51.655 29.824-69.354 95.876-39.531 147.531l13.857-8c-25.405-44.002-10.328-100.269 33.674-125.674l-8-13.857Zm116.354 57.531c-19.882-34.437-63.917-46.236-98.354-26.354l8 13.857c26.784-15.464 61.034-6.287 76.498 20.497l13.856-8Zm-26.354 98.354c34.437-19.882 46.236-63.917 26.354-98.354l-13.856 8c15.463 26.784 6.286 61.034-20.498 76.498l8 13.856Zm-98.354-26.354c19.882 34.437 63.917 46.236 98.354 26.354l-8-13.856c-26.784 15.463-61.033 6.286-76.497-20.498l-13.857 8Zm26.354-98.354c-34.437 19.882-46.236 63.917-26.354 98.354l13.857-8c-15.464-26.784-6.287-61.033 20.497-76.497l-8-13.857Z" mask="url(#m)"/></g><g filter="url(#n)"><mask id="o" width="295.061" height="295.061" x="143.574" y="215.574" fill="#000" maskUnits="userSpaceOnUse"><path fill="#fff" d="M143.574 215.574h295.061v295.061H143.574z"/><path fill-rule="evenodd" d="M241.104 276.502c47.829-27.614 108.989-11.227 136.603 36.602 27.614 47.829 11.226 108.989-36.603 136.603-47.828 27.614-108.988 11.226-136.602-36.603-27.614-47.829-11.226-108.988 36.602-136.602Zm18 31.177c30.611-17.673 69.753-7.185 87.426 23.425 17.673 30.611 7.185 69.753-23.426 87.426-30.61 17.673-69.752 7.185-87.425-23.426-17.673-30.61-7.185-69.752 23.425-87.425Z" clip-rule="evenodd"/></mask><path fill="#FFBA00" fill-rule="evenodd" d="M241.104 276.502c47.829-27.614 108.989-11.227 136.603 36.602 27.614 47.829 11.226 108.989-36.603 136.603-47.828 27.614-108.988 11.226-136.602-36.603-27.614-47.829-11.226-108.988 36.602-136.602Zm18 31.177c30.611-17.673 69.753-7.185 87.426 23.425 17.673 30.611 7.185 69.753-23.426 87.426-30.61 17.673-69.752 7.185-87.425-23.426-17.673-30.61-7.185-69.752 23.425-87.425Z" clip-rule="evenodd"/><path fill="#fff" d="M384.635 309.104c-29.823-51.655-95.875-69.354-147.531-39.53l8 13.856c44.003-25.405 100.27-10.328 125.675 33.674l13.856-8Zm-39.531 147.531c51.656-29.823 69.354-95.876 39.531-147.531l-13.856 8c25.405 44.003 10.328 100.27-33.675 125.675l8 13.856Zm-147.53-39.531c29.823 51.655 95.875 69.354 147.53 39.531l-8-13.856c-44.002 25.404-100.269 10.328-125.674-33.675l-13.856 8Zm39.53-147.53c-51.655 29.823-69.353 95.875-39.53 147.53l13.856-8c-25.405-44.002-10.328-100.269 33.674-125.674l-8-13.856Zm116.354 57.53c-19.882-34.437-63.917-46.236-98.354-26.354l8 13.857c26.785-15.464 61.034-6.287 76.498 20.497l13.856-8Zm-26.354 98.354c34.437-19.882 46.236-63.917 26.354-98.354l-13.856 8c15.464 26.784 6.287 61.034-20.498 76.498l8 13.856Zm-98.353-26.354c19.882 34.437 63.917 46.236 98.353 26.354l-8-13.856c-26.784 15.463-61.033 6.286-76.497-20.498l-13.856 8Zm26.353-98.354c-34.436 19.883-46.235 63.917-26.353 98.354l13.856-8c-15.464-26.784-6.287-61.033 20.497-76.497l-8-13.857Z" mask="url(#o)"/></g><g filter="url(#p)"><mask id="q" width="295.061" height="295.061" x="243.573" y="197.574" fill="#000" maskUnits="userSpaceOnUse"><path fill="#fff" d="M243.573 197.574h295.061v295.061H243.573z"/><path fill-rule="evenodd" d="M341.104 258.502c47.829-27.614 108.989-11.226 136.603 36.602 27.614 47.829 11.226 108.989-36.603 136.603-47.829 27.614-108.989 11.226-136.603-36.603-27.614-47.828-11.226-108.988 36.603-136.602Zm18 31.177c30.61-17.673 69.753-7.185 87.426 23.425 17.673 30.611 7.184 69.753-23.426 87.426-30.61 17.673-69.753 7.185-87.426-23.426-17.673-30.61-7.184-69.752 23.426-87.425Z" clip-rule="evenodd"/></mask><path fill="#F7328C" fill-rule="evenodd" d="M341.104 258.502c47.829-27.614 108.989-11.226 136.603 36.602 27.614 47.829 11.226 108.989-36.603 136.603-47.829 27.614-108.989 11.226-136.603-36.603-27.614-47.828-11.226-108.988 36.603-136.602Zm18 31.177c30.61-17.673 69.753-7.185 87.426 23.425 17.673 30.611 7.184 69.753-23.426 87.426-30.61 17.673-69.753 7.185-87.426-23.426-17.673-30.61-7.184-69.752 23.426-87.425Z" clip-rule="evenodd"/><path fill="#fff" d="M484.635 291.104c-29.823-51.655-95.876-69.354-147.531-39.53l8 13.856c44.003-25.405 100.269-10.328 125.674 33.674l13.857-8Zm-39.531 147.531c51.655-29.823 69.354-95.875 39.531-147.531l-13.857 8c25.405 44.003 10.329 100.27-33.674 125.675l8 13.856Zm-147.531-39.531c29.823 51.656 95.876 69.354 147.531 39.531l-8-13.856c-44.003 25.405-100.269 10.328-125.674-33.675l-13.857 8Zm39.531-147.53c-51.655 29.823-69.354 95.875-39.531 147.53l13.857-8c-25.405-44.002-10.329-100.269 33.674-125.674l-8-13.856Zm116.354 57.53c-19.882-34.436-63.917-46.236-98.354-26.353l8 13.856c26.784-15.464 61.034-6.287 76.497 20.497l13.857-8Zm-26.354 98.354c34.437-19.882 46.236-63.917 26.354-98.354l-13.857 8c15.464 26.784 6.287 61.034-20.497 76.498l8 13.856Zm-98.354-26.354c19.882 34.437 63.917 46.236 98.354 26.354l-8-13.856c-26.784 15.464-61.034 6.286-76.497-20.498l-13.857 8Zm26.354-98.353c-34.437 19.882-46.236 63.917-26.354 98.353l13.857-8c-15.464-26.784-6.287-61.033 20.497-76.497l-8-13.856Z" mask="url(#q)"/></g><g filter="url(#r)" opacity=".8" style="mix-blend-mode:screen"><path fill="#00D3BD" d="M396.416 536.416c132.779-132.777 132.779-348.054 0-480.832-132.777-132.779-348.054-132.779-480.833 0-132.777 132.778-132.777 348.055 0 480.832 132.779 132.779 348.056 132.779 480.833 0Z"/></g></g><defs><linearGradient id="c" x1="680" x2="0" y1="644" y2="644" gradientUnits="userSpaceOnUse"><stop stop-color="#fff"/><stop offset="1" stop-color="#F2F1F9"/></linearGradient><linearGradient id="i" x1="-284.516" x2="-124.253" y1="183.717" y2="673.318" gradientUnits="userSpaceOnUse"><stop stop-color="#25D5E8"/><stop offset="1" stop-color="#437BFF"/></linearGradient><linearGradient id="h" x1="262.763" x2="-363.767" y1="141.948" y2="503.675" gradientUnits="userSpaceOnUse"><stop stop-color="#25D5E8"/><stop offset="1" stop-color="#00D3BD"/></linearGradient><linearGradient id="g" x1="1384.83" x2="850.429" y1="336.214" y2="-142.856" gradientUnits="userSpaceOnUse"><stop stop-color="#25D5E8"/><stop offset="1" stop-color="#437BFF"/></linearGradient><linearGradient id="f" x1="753.633" x2="1257.57" y1="767.828" y2="-105.02" gradientUnits="userSpaceOnUse"><stop stop-color="#25D5E8"/><stop offset="1" stop-color="#00D3BD"/></linearGradient><linearGradient id="e" x1="399.363" x2="1389.09" y1="849.244" y2="277.825" gradientUnits="userSpaceOnUse"><stop stop-color="#25D5E8"/><stop offset="1" stop-color="#00D3BD"/></linearGradient><linearGradient id="a" x1="680" x2="0" y1="644" y2="644" gradientUnits="userSpaceOnUse"><stop stop-color="#fff"/><stop offset="1" stop-color="#F2F1F9"/></linearGradient><linearGradient id="d" x1="276.822" x2="1266.55" y1="972.974" y2="401.555" gradientUnits="userSpaceOnUse"><stop stop-color="#25D5E8"/><stop offset="1" stop-color="#00D3BD"/></linearGradient><filter id="k" width="1405.7" height="1405.7" x="-355" y="-340" color-interpolation-filters="sRGB" filterUnits="userSpaceOnUse"><feFlood flood-opacity="0" result="BackgroundImageFix"/><feColorMatrix in="SourceAlpha" values="0 0 0 0 0 0 0 0 0 0 0 0 0 0 0 0 0 0 127 0"/><feOffset dy="40"/><feGaussianBlur stdDeviation="60"/><feColorMatrix values="0 0 0 0 0 0 0 0 0 0.827451 0 0 0 0 0.741176 0 0 0 0.4 0"/><feBlend in2="BackgroundImageFix" result="effect1_dropShadow"/><feBlend in="SourceGraphic" in2="effect1_dropShadow" result="shape"/></filter><filter id="r" width="1160" height="1160" x="-424" y="-284" color-interpolation-filters="sRGB" filterUnits="userSpaceOnUse"><feFlood flood-opacity="0" result="BackgroundImageFix"/><feBlend in="SourceGraphic" in2="BackgroundImageFix" result="shape"/><feGaussianBlur result="effect1_foregroundBlur" stdDeviation="120"/></filter><filter id="p" width="535.061" height="535.061" x="123.573" y="117.574" color-interpolation-filters="sRGB" filterUnits="userSpaceOnUse"><feFlood flood-opacity="0" result="BackgroundImageFix"/><feColorMatrix in="SourceAlpha" values="0 0 0 0 0 0 0 0 0 0 0 0 0 0 0 0 0 0 127 0"/><feOffset dy="40"/><feGaussianBlur stdDeviation="60"/><feColorMatrix values="0 0 0 0 0.145098 0 0 0 0 0.835294 0 0 0 0 0.909804 0 0 0 1 0"/><feBlend in2="BackgroundImageFix" result="effect1_dropShadow"/><feBlend in="SourceGraphic" in2="effect1_dropShadow" result="shape"/></filter><filter id="n" width="535.061" height="535.061" x="23.574" y="135.573" color-interpolation-filters="sRGB" filterUnits="userSpaceOnUse"><feFlood flood-opacity="0" result="BackgroundImageFix"/><feColorMatrix in="SourceAlpha" values="0 0 0 0 0 0 0 0 0 0 0 0 0 0 0 0 0 0 127 0"/><feOffset dy="40"/><feGaussianBlur stdDeviation="60"/><feColorMatrix values="0 0 0 0 0.145098 0 0 0 0 0.835294 0 0 0 0 0.909804 0 0 0 1 0"/><feBlend in2="BackgroundImageFix" result="effect1_dropShadow"/><feBlend in="SourceGraphic" in2="effect1_dropShadow" result="shape"/></filter><filter id="l" width="535.061" height="535.061" x="73.214" y="59.214" color-interpolation-filters="sRGB" filterUnits="userSpaceOnUse"><feFlood flood-opacity="0" result="BackgroundImageFix"/><feColorMatrix in="SourceAlpha" values="0 0 0 0 0 0 0 0 0 0 0 0 0 0 0 0 0 0 127 0"/><feOffset dy="40"/><feGaussianBlur stdDeviation="60"/><feColorMatrix values="0 0 0 0 0.145098 0 0 0 0 0.835294 0 0 0 0 0.909804 0 0 0 1 0"/><feBlend in2="BackgroundImageFix" result="effect1_dropShadow"/><feBlend in="SourceGraphic" in2="effect1_dropShadow" result="shape"/></filter><filter id="j" width="1160" height="1160" x="-740" y="-240" color-interpolation-filters="sRGB" filterUnits="userSpaceOnUse"><feFlood flood-opacity="0" result="BackgroundImageFix"/><feBlend in="SourceGraphic" in2="BackgroundImageFix" result="shape"/><feGaussianBlur result="effect1_foregroundBlur" stdDeviation="120"/></filter></defs></svg>