<svg xmlns="http://www.w3.org/2000/svg" width="705.068" height="514.661"><defs><filter id="a" x="305.469" y="21.753" width="304.221" height="304.221" filterUnits="userSpaceOnUse"><feOffset dx="23" dy="36"/><feGaussianBlur stdDeviation="36" result="blur"/><feFlood flood-color="#364250" flood-opacity=".078"/><feComposite operator="in" in2="blur"/><feComposite in="SourceGraphic"/></filter><filter id="b" x="149.197" y="144.061" width="304.221" height="304.221" filterUnits="userSpaceOnUse"><feOffset dx="23" dy="36"/><feGaussianBlur stdDeviation="36" result="blur-2"/><feFlood flood-color="#364250" flood-opacity=".078"/><feComposite operator="in" in2="blur-2"/><feComposite in="SourceGraphic"/></filter><filter id="c" x="176.092" y="0" width="376.221" height="376.221" filterUnits="userSpaceOnUse"><feOffset dx="23" dy="36"/><feGaussianBlur stdDeviation="48" result="blur-3"/><feFlood flood-color="#364250" flood-opacity=".122"/><feComposite operator="in" in2="blur-3"/><feComposite in="SourceGraphic"/></filter><filter id="d" x="242.381" y="129.22" width="304.221" height="304.221" filterUnits="userSpaceOnUse"><feOffset dx="23" dy="36"/><feGaussianBlur stdDeviation="36" result="blur-4"/><feFlood flood-color="#364250" flood-opacity=".078"/><feComposite operator="in" in2="blur-4"/><feComposite in="SourceGraphic"/></filter><filter id="e" x="284.67" y="234.44" width="280.221" height="280.221" filterUnits="userSpaceOnUse"><feOffset dx="23" dy="36"/><feGaussianBlur stdDeviation="32" result="blur-5"/><feFlood flood-color="#364250" flood-opacity=".078"/><feComposite operator="in" in2="blur-5"/><feComposite in="SourceGraphic"/></filter><filter id="f" x="424.847" y="62.598" width="280.221" height="280.221" filterUnits="userSpaceOnUse"><feOffset dx="23" dy="36"/><feGaussianBlur stdDeviation="32" result="blur-6"/><feFlood flood-color="#364250" flood-opacity=".078"/><feComposite operator="in" in2="blur-6"/><feComposite in="SourceGraphic"/></filter><filter id="g" x="347.781" y="127.045" width="280.221" height="280.221" filterUnits="userSpaceOnUse"><feOffset dx="23" dy="36"/><feGaussianBlur stdDeviation="32" result="blur-7"/><feFlood flood-color="#364250" flood-opacity=".078"/><feComposite operator="in" in2="blur-7"/><feComposite in="SourceGraphic"/></filter><filter id="h" x="0" y="61.31" width="376.221" height="376.221" filterUnits="userSpaceOnUse"><feOffset dx="23" dy="36"/><feGaussianBlur stdDeviation="48" result="blur-8"/><feFlood flood-color="#364250" flood-opacity=".122"/><feComposite operator="in" in2="blur-8"/><feComposite in="SourceGraphic"/></filter><filter id="i" x="82.884" y="14.769" width="376.221" height="376.221" filterUnits="userSpaceOnUse"><feOffset dx="23" dy="36"/><feGaussianBlur stdDeviation="48" result="blur-9"/><feFlood flood-color="#364250" flood-opacity=".122"/><feComposite operator="in" in2="blur-9"/><feComposite in="SourceGraphic"/></filter></defs><g data-name="Group 17"><g data-name="Group 11"><g data-name="Group 1"><g transform="translate(.01 .012) scale(.999)" filter="url(#a)"><rect data-name="Rectangle 1999" width="70.012" height="70.013" rx="1" transform="rotate(-18 559.507 -1174.97)" fill="#fff"/></g><path data-name="Subtraction 169" d="m438.134 144.228-12.652 4.111-4.97-8.92 11.133-15.162 3.994 12.29a3.383 3.383 0 0 0-.465.115 3.342 3.342 0 1 0 2.066 6.356 3.38 3.38 0 0 0 .443-.18Z" fill="#00d3bd"/><path data-name="Path 450" d="m425.484 148.343 12.648-4.11 2.065 6.356-14.523 4.719Z" fill="#25d5e8"/><g data-name="Group 417" fill="#437bff"><path data-name="Subtraction 167" d="m449.256 143.88-11.07 3.596-.388-1.191a2.927 2.927 0 0 0 1.876-3.685 2.927 2.927 0 0 0-3.682-1.876L432.507 130l15.68 5.006Z"/><path data-name="Path 452" d="m449.256 143.88-11.07 3.596 1.807 5.562 12.71-4.13Z"/></g></g><g data-name="Group 2"><g transform="translate(.01 .013) scale(.999)" filter="url(#b)"><rect data-name="Rectangle 2004" width="70.012" height="70.013" rx="1" transform="rotate(-18 867.49 -620.49)" fill="#fff"/></g><g transform="rotate(-18.01 904.807 -671.51)"><path data-name="Path 445" d="M1.554 6.655h10.744l-.531 4.015H.067Z" fill="#00d3bd"/><path data-name="Path 831" d="M8.174 27.9v-1.91l2.009.744h22.6l-.956 1.433H10.318Zm0-1.91V10.672h3.6l-1.591 16.062Z" fill="#00d3bd"/><path data-name="Path 446" d="M10.18 26.732h22.6l5.953-16.061H11.769Z" fill="#25d5e8"/><path data-name="Path 445" d="M40.101 18.617h-6.9l.34 2.578h7.512ZM35.85 31.029v-9.834h-2.309l1.02 10.311Z" fill="#437bff"/><path data-name="Path 446" d="M34.561 31.505h-9.738l-3.819-10.311h12.537Z" fill="#437bff"/><circle data-name="Ellipse 380" cx="1.432" cy="1.432" r="1.432" transform="translate(26.255 32.461)" fill="#437bff"/><circle data-name="Ellipse 381" cx="1.432" cy="1.432" r="1.432" transform="translate(31.983 32.461)" fill="#437bff"/></g></g><g data-name="Group 3"><g transform="translate(.007 .006) scale(.999)" filter="url(#c)"><rect data-name="Rectangle 2000" width="70.012" height="70.013" rx="1" transform="rotate(-18 557.802 -873.056)" fill="#fff"/></g><g transform="rotate(-18.01 595.174 -924.143)"><circle data-name="Ellipse 355" cx="12.889" cy="12.889" r="12.889" transform="translate(10.502 8.116)" fill="#25d5e8"/><path data-name="Path 453" d="M5.863 18.484 20.155 5.04l14.291 16.837L22.7 31.927Z" fill="#00d3bd"/><path data-name="Subtraction 171" d="m14.98 37.183-9.452-9.451 9.114-9.114 9.452 9.452-9.114 9.112Zm-5.194-9.495a.716.716 0 1 0 .716.716.716.716 0 0 0-.716-.716Z" fill="#437bff"/></g></g><g data-name="Group 4"><g transform="translate(.01 .014) scale(.999)" filter="url(#d)"><rect data-name="Rectangle 2002" width="70.012" height="70.013" rx="1" transform="rotate(-18 867.231 -922.068)" fill="#fff"/></g><g data-name="Group 422"><path data-name="Rectangle 1958" d="m362.708 257.716-5.782-17.795 14.164-5.213 5.782 17.795Z" fill="#25d5e8"/><path data-name="Rectangle 1958" d="m363.841 253.68-5.782-17.794 13.03-1.18 5.783 17.796ZM376.898 252.495l-5.782-17.796 14.523-4.108 5.782 17.795Z" fill="#00d3bd"/><path data-name="Rectangle 1958" d="m376.898 252.494-5.782-17.795 11.234-6.706 5.782 17.795Z" fill="#25d5e8"/></g><path data-name="Subtraction 170" d="m370.697 259.613-6.91-1.205-4.967 5.064-5.342-16.443 11.876-3.859Z" fill="#437bff"/></g><g data-name="Group 10"><g transform="matrix(1 .001 -.001 1 -.075 -.068)" filter="url(#e)" data-name="Group 5"><rect data-name="Rectangle 2005" width="70.012" height="70.013" rx="1" transform="rotate(-18.2 1175.135 -964.236)" fill="#fff"/></g><g transform="rotate(-17.97 1213.11 -1022.844)"><path data-name="Intersection 20" d="M29.789 12.078a12.555 12.555 0 0 1-17.177 18.298l9.527-9.423 4.11-11.365a12.532 12.532 0 0 1 3.54 2.49Z" fill="#00d3bd"/><path data-name="Subtraction 168" d="M11.116 11.161a13.8 13.8 0 0 1 6.891-3.752 13.88 13.88 0 0 1 7.62.518l-4.716 13.03-10.49 9.048a13.8 13.8 0 0 1-3.354-9.526 13.8 13.8 0 0 1 4.05-9.318Z" fill="#00d3bd"/><path data-name="Intersection 21" d="m14.407 13.417 6.5 7.54 9.369 3.391a9.959 9.959 0 1 1-15.869-10.931Z" fill="#25d5e8"/><circle data-name="Ellipse 360" cx="10.025" cy="10.025" r="10.025" transform="rotate(90 10.024 21.004)" fill="#25d5e8"/><path data-name="Ellipse 356" d="m19.09 19.93 16.515 5.325L24.203 39l-2.673-9.971-2.44-9.099Z" fill="#437bff"/><path data-name="Rectangle 2040" fill="#437bff" d="m17.136 23.704 2.705-.725 3.445 12.85-2.705.725z"/></g></g><g data-name="Group 6"><g transform="translate(.007 .007) scale(.999)" filter="url(#f)"><rect data-name="Rectangle 1997" width="70.012" height="70.013" rx="1" transform="rotate(-18 704.241 -1499.536)" fill="#fff"/></g><g data-name="icon-service-development"><path data-name="Path 832" d="M543.377 179.285s-13.178-.72-17.028-6.872-2.962-13.372 3.736-15.548a9.781 9.781 0 0 1 5.999-.023 9.82 9.82 0 0 1 4.88-3.512c6.687-2.172 11.649 3.143 12.154 10.385s-9.74 15.57-9.74 15.57Z" fill="#25d5e8"/><path data-name="Intersection 22" d="M526.356 172.427c-3.85-6.158-2.963-13.374 3.733-15.55a9.306 9.306 0 0 1 5.513-.133l7.317 22.518c-2.375-.195-13.146-1.372-16.563-6.835Z" fill="#00d3bd"/><path data-name="Path 834" d="m549.143 165.534 12.046-3.914 2.204 11.175-10.756 3.495Z" fill="#437bff"/><path data-name="Rectangle 2007" fill="#437bff" d="m544.508 166.146 4.37-1.42 4.056 12.483-4.37 1.42z"/><path data-name="Path 835" d="m550.426 160.125 3.012-.978.714 4.762-3.764 1.223Z" fill="#437bff"/></g></g><g data-name="Group 7"><g transform="translate(.006 .005) scale(.999)" filter="url(#g)"><rect data-name="Rectangle 1998" width="70.012" height="70.013" rx="1" transform="rotate(-18 869.167 -1224.01)" fill="#fff"/></g><g data-name="icon-service-illustration"><path data-name="Union 51" d="m450.853 245.364-.407-1.252 19.97-6.49.406 1.248Zm18.32-7.337-18.727 6.085-6.49-19.971 19.972-6.49 6.489 19.972Z" fill="#00d3bd"/><path data-name="Union 52" d="m470.827 238.873-.405-1.249 13.733-4.462.405 1.248Zm13.327-5.71-13.732 4.461-4.462-13.732 10.89-3.539 3.767 1.921 3.538 10.887Z" fill="#25d5e8"/><path data-name="Path 836" d="m456.585 229.012 14.215 14.015-7.07 1.607-2.886-2.513-.858 3.73-6.664 2.854Z" fill="#437bff"/></g></g><g data-name="Group 8"><g transform="translate(.01 .01) scale(.999)" filter="url(#h)"><rect data-name="Rectangle 2003" width="70.012" height="70.013" rx="1" transform="rotate(-18 663.305 -286.507)" fill="#fff"/></g><g data-name="icon-service-uiux"><g data-name="Group 422"><path data-name="Rectangle 1958" fill="#00d3bd" d="m152.025 207.129 19.974-6.49 4.426 13.619-19.975 6.49z"/><path data-name="Path 444" d="m156.482 220.683 19.876-6.458 4.256 5.21-24.513 7.964Z" fill="#25d5e8"/></g><path data-name="Subtraction 170" d="m164.98 230.024-11.804 3.835-5.31-16.343 11.803-3.835Zm-8.148-.364.295.908 2.723-.885-.295-.908Z" fill="#437bff"/></g></g><g data-name="Group 9"><g transform="translate(.009 .01) scale(.999)" filter="url(#i)"><rect data-name="Rectangle 2001" width="70.012" height="70.013" rx="1" transform="rotate(-18 557.793 -571.424)" fill="#fff"/></g><g data-name="icon-service-development"><path data-name="Path 445" d="m232.153 159.856 17.251-5.605-.557 13.733-17.251 5.605Z" fill="#00d3bd"/><path data-name="Path 446" d="m240.118 184.37 17.251-5.605-8.523-10.782-17.25 5.605Z" fill="#25d5e8"/><g data-name="Group 416" fill="#437bff"><path data-name="Path 447" d="m260.748 160.603-12.934 4.202 6.391 8.086 12.934-4.202Z"/><path data-name="Path 448" d="m266.721 178.988-12.933 4.202.417-10.299 12.934-4.202Z"/></g></g></g></g></g></svg>