<svg width="1200" height="720" viewBox="0 0 1200 720" fill="none" xmlns="http://www.w3.org/2000/svg">
<mask id="mask0_1166_798" style="mask-type:alpha" maskUnits="userSpaceOnUse" x="0" y="0" width="1200" height="720">
<rect width="1200" height="720" fill="#D9D9D9"/>
</mask>
<g mask="url(#mask0_1166_798)">
<rect width="1200" height="720" transform="matrix(1 0 0 -1 0 720)" fill="url(#paint0_linear_1166_798)"/>
<path opacity="0.04" d="M721 0H1200V720H0C510.997 474.774 673.988 317.958 721 0Z" fill="url(#paint1_radial_1166_798)"/>
<path opacity="0.4" d="M1091 0H1200V720H370C696.139 617.839 868.98 520.358 1091 0Z" fill="white"/>
<path fill-rule="evenodd" clip-rule="evenodd" d="M-100.023 5.24891C-57.3619 9.13959 8.10187 26.4647 65.8165 65.792C123.525 105.115 173.479 166.429 185.161 258.312C199.783 373.313 244.318 449.852 297.61 487.075C317.158 500.728 337.881 509.089 358.731 512.117C357.633 512.243 356.533 512.354 355.433 512.45C332.288 510.446 309.148 501.833 287.456 486.665C234.376 449.549 189.936 373.164 175.341 258.249C163.651 166.198 113.653 104.766 55.9144 65.3789C-1.81738 25.9963 -67.2932 8.6481 -109.977 4.75098L-110.023 5.24891C-67.4092 9.13958 -2.01805 26.4647 55.6326 65.792C113.277 105.115 163.176 166.429 174.845 258.312C189.451 373.313 233.936 449.852 287.169 487.075C308.043 501.67 330.258 510.217 352.535 512.668C351.672 512.722 350.809 512.767 349.946 512.803C324.972 511.773 299.871 503.037 276.456 486.665C223.376 449.549 178.936 373.164 164.341 258.249C152.651 166.198 102.653 104.766 44.9144 65.3789C-12.8174 25.9963 -78.2932 8.6481 -120.977 4.75098L-121.023 5.24891C-78.4092 9.13958 -13.0181 26.4647 44.6326 65.792C102.277 105.115 152.176 166.429 163.845 258.312C178.451 373.313 222.936 449.852 276.169 487.075C297.768 502.177 320.803 510.804 343.856 512.901C317.597 512.664 291.093 503.892 266.456 486.665C213.376 449.549 168.936 373.164 154.341 258.249C142.651 166.198 92.6526 104.766 34.9144 65.3789C-22.8174 25.9963 -88.2932 8.6481 -130.977 4.75098L-131.023 5.24891C-88.4092 9.13958 -23.0181 26.4647 34.6326 65.792C92.2768 105.115 142.176 166.429 153.845 258.312C168.451 373.313 212.936 449.852 266.169 487.075C292.798 505.694 321.609 514.47 349.947 513.303C353.45 513.447 356.952 513.44 360.446 513.281C364.037 513.444 367.626 513.447 371.207 513.292C374.713 513.443 378.216 513.444 381.712 513.293C385.294 513.447 388.874 513.443 392.446 513.281C395.95 513.44 399.452 513.447 402.947 513.303C406.45 513.447 409.952 513.44 413.446 513.281C417.037 513.444 420.626 513.447 424.207 513.292C427.713 513.443 431.216 513.444 434.713 513.293C438.294 513.447 441.874 513.443 445.446 513.281C448.95 513.44 452.452 513.447 455.947 513.303C487.686 514.607 519.223 503.516 546.855 479.891C554.16 473.646 561.896 468.419 569.986 464.201C584.571 470.462 599.211 478.915 613.639 489.527C678.283 537.073 738.647 627.946 770.757 759.059L771.243 758.94C739.113 627.747 678.698 536.757 613.935 489.124C599.604 478.584 585.059 470.166 570.559 463.905C571.871 463.23 573.193 462.581 574.524 461.958C590.911 468.384 607.409 477.59 623.639 489.527C688.283 537.073 748.647 627.946 780.757 759.059L781.243 758.94C749.113 627.747 688.698 536.757 623.935 489.124C607.821 477.272 591.436 468.104 575.149 461.668C576.611 460.995 578.084 460.353 579.568 459.743C597.906 466.192 616.44 476.142 634.639 489.527C699.283 537.073 759.647 627.946 791.757 759.059L792.243 758.94C760.113 627.747 699.698 536.757 634.935 489.124C616.878 475.843 598.48 465.932 580.263 459.46C581.683 458.886 583.113 458.342 584.551 457.826C604.787 464.138 625.331 474.735 645.465 489.527C710.18 537.073 770.612 627.946 802.757 759.059L803.243 758.94C771.078 627.746 710.595 536.757 645.761 489.124C625.8 474.459 605.424 463.903 585.333 457.549C586.662 457.083 587.998 456.642 589.342 456.225C611.308 462.264 633.717 473.403 655.639 489.527C720.283 537.073 780.647 627.946 812.757 759.059L813.243 758.94C781.113 627.747 720.698 536.757 655.935 489.124C634.224 473.156 612.02 462.058 590.229 455.954C591.657 455.524 593.093 455.121 594.536 454.746C618.348 460.337 642.782 471.98 666.639 489.527C731.283 537.073 791.647 627.946 823.757 759.059L824.243 758.94C792.113 627.747 731.698 536.757 666.935 489.124C643.343 471.772 619.169 460.172 595.576 454.48C596.812 454.171 598.055 453.882 599.302 453.612C624.757 458.659 651.031 470.692 676.639 489.527C741.283 537.073 801.647 627.946 833.757 759.059L834.243 758.94C802.113 627.747 741.698 536.757 676.935 489.124C651.66 470.534 625.717 458.546 600.536 453.353C601.882 453.077 603.234 452.824 604.592 452.595C631.814 456.893 660.111 469.28 687.639 489.527C752.283 537.073 812.647 627.946 844.757 759.059L845.243 758.94C813.113 627.747 752.698 536.757 687.935 489.124C660.853 469.205 633.004 456.865 606.147 452.343C607.359 452.154 608.576 451.984 609.798 451.832C638.734 455.249 669.038 467.907 698.465 489.527C763.18 537.073 823.612 627.946 855.757 759.059L856.243 758.94C824.078 627.746 763.595 536.757 698.761 489.124C669.966 467.969 640.305 455.363 611.887 451.591C612.864 451.487 613.844 451.394 614.827 451.313C645.299 453.747 677.462 466.596 708.639 489.527C773.283 537.073 833.647 627.946 865.757 759.059L866.243 758.94C834.113 627.747 773.698 536.757 708.935 489.124C678.745 466.919 647.601 454.133 617.94 451.095C618.711 451.051 619.484 451.013 620.258 450.983C652.363 452.214 686.556 465.194 719.639 489.527C784.283 537.073 844.647 627.946 876.757 759.059L877.243 758.94C845.113 627.747 784.698 536.757 719.935 489.124C689.035 466.397 657.135 453.536 626.85 450.897C659.936 451.307 695.383 464.331 729.639 489.527C794.283 537.073 854.647 627.946 886.757 759.059L887.243 758.94C855.113 627.747 794.698 536.757 729.935 489.124C693.327 462.199 655.318 449.122 620.25 450.483C616.726 450.348 613.226 450.354 609.755 450.503C606.179 450.353 602.629 450.348 599.109 450.488C595.582 450.35 592.079 450.352 588.605 450.497C584.96 450.348 581.342 450.35 577.755 450.503C574.227 450.355 570.724 450.348 567.25 450.483C563.726 450.348 560.226 450.354 556.755 450.503C553.179 450.353 549.629 450.348 546.109 450.488C542.582 450.35 539.079 450.352 535.605 450.497C531.96 450.348 528.342 450.35 524.755 450.503C521.227 450.355 517.724 450.348 514.25 450.483C483.524 449.309 454.685 458.859 430.53 479.511C421.533 487.203 412.122 493.562 402.425 498.592C395.663 495.213 388.994 491.236 382.456 486.665C329.376 449.549 284.936 373.164 270.341 258.249C258.651 166.198 208.653 104.766 150.914 65.3789C93.1826 25.9963 27.7068 8.6481 -14.9775 4.75098L-15.0229 5.24891C27.5907 9.13958 92.9819 26.4647 150.633 65.792C208.277 105.115 258.176 166.429 269.845 258.312C284.451 373.313 328.936 449.852 382.169 487.075C388.622 491.587 395.203 495.521 401.875 498.875C400.427 499.618 398.973 500.331 397.513 501.015C389.007 497.164 380.628 492.379 372.456 486.665C319.376 449.549 274.936 373.164 260.341 258.249C248.651 166.198 198.653 104.766 140.914 65.3789C83.1826 25.9963 17.7068 8.6481 -24.9775 4.75098L-25.0229 5.24891C17.5907 9.13958 82.9819 26.4647 140.633 65.792C198.277 105.115 248.176 166.429 259.845 258.312C274.451 373.313 318.936 449.852 372.169 487.075C380.242 492.719 388.516 497.46 396.916 501.292C395.318 502.031 393.712 502.734 392.1 503.403C381.674 499.208 371.412 493.627 361.456 486.665C308.376 449.549 263.936 373.164 249.341 258.249C237.651 166.198 187.653 104.766 129.914 65.3789C72.1826 25.9963 6.70683 8.6481 -35.9775 4.75098L-36.0229 5.24891C6.59074 9.13958 71.9819 26.4647 129.633 65.792C187.277 105.115 237.176 166.429 248.845 258.312C263.451 373.313 307.936 449.852 361.169 487.075C371.006 493.953 381.141 499.488 391.439 503.674C389.936 504.288 388.428 504.871 386.914 505.423C374.64 501.066 362.559 494.811 350.896 486.665C297.758 449.549 253.268 373.164 238.657 258.249C226.954 166.197 176.9 104.766 119.098 65.3788C61.3023 25.9963 -4.24596 8.64809 -46.9775 4.75098L-47.0229 5.24891C-4.36189 9.13959 61.1019 26.4647 118.816 65.792C176.525 105.115 226.479 166.429 238.161 258.312C252.783 373.313 297.318 449.852 350.61 487.075C362.129 495.12 374.056 501.328 386.176 505.69C384.702 506.217 383.222 506.716 381.739 507.185C367.655 502.827 353.782 495.983 340.456 486.665C287.376 449.549 242.936 373.164 228.341 258.249C216.651 166.198 166.653 104.766 108.914 65.3789C51.1826 25.9963 -14.2932 8.6481 -56.9775 4.75098L-57.0229 5.24891C-14.4093 9.13958 50.9819 26.4647 108.633 65.792C166.277 105.115 216.176 166.429 227.845 258.312C242.451 373.313 286.936 449.852 340.169 487.075C353.321 496.271 367.005 503.066 380.901 507.447C379.371 507.92 377.836 508.362 376.297 508.774C360.307 504.582 344.532 497.207 329.456 486.665C276.376 449.549 231.936 373.164 217.341 258.249C205.651 166.198 155.653 104.766 97.9144 65.3789C40.1826 25.9963 -25.2932 8.6481 -67.9775 4.75098L-68.0229 5.24891C-25.4092 9.13958 39.9819 26.4647 97.6326 65.792C155.277 105.115 205.176 166.429 216.845 258.312C231.451 373.313 275.936 449.852 329.169 487.075C344.027 497.463 359.564 504.788 375.319 509.031C373.996 509.373 372.67 509.692 371.342 509.989C353.628 506.097 336.115 498.314 319.456 486.665C266.376 449.549 221.936 373.164 207.341 258.249C195.651 166.198 145.653 104.766 87.9144 65.3789C30.1826 25.9963 -35.2932 8.6481 -77.9775 4.75098L-78.0229 5.24891C-35.4092 9.13958 29.9819 26.4647 87.6326 65.792C145.277 105.115 195.176 166.429 206.845 258.312C221.451 373.313 265.936 449.852 319.169 487.075C335.554 498.531 352.765 506.262 370.184 510.241C368.753 510.547 367.319 510.826 365.882 511.078C346.285 507.676 326.85 499.527 308.456 486.665C255.376 449.549 210.936 373.164 196.341 258.249C184.651 166.198 134.653 104.766 76.9144 65.3789C19.1826 25.9963 -46.2932 8.6481 -88.9775 4.75098L-89.0229 5.24891C-46.4092 9.13958 18.9819 26.4647 76.6326 65.792C134.277 105.115 184.176 166.429 195.845 258.312C210.451 373.313 254.936 449.852 308.169 487.075C326.196 499.68 345.223 507.773 364.427 511.325C363.175 511.529 361.922 511.714 360.667 511.879C339.265 509.099 317.962 500.68 297.896 486.665C244.758 449.549 200.268 373.164 185.657 258.249C173.954 166.197 123.9 104.766 66.0981 65.3788C8.30235 25.9963 -57.246 8.64809 -99.9775 4.75098L-100.023 5.24891ZM402.429 499.153C400.997 499.892 399.558 500.603 398.114 501.285C399.603 501.951 401.096 502.588 402.593 503.197C404.039 502.591 405.48 501.956 406.916 501.292C405.416 500.608 403.92 499.895 402.429 499.153ZM407.517 501.565C406.1 502.225 404.678 502.858 403.25 503.463C404.887 504.119 406.527 504.741 408.171 505.329C409.598 504.805 411.021 504.253 412.439 503.674C410.794 503.006 409.153 502.302 407.517 501.565ZM413.1 503.403C411.434 502.732 409.771 502.026 408.114 501.285C419.451 495.933 430.431 488.804 440.855 479.891C462.268 461.584 487.389 452.03 514.258 450.983C515.087 451.015 515.916 451.055 516.747 451.102C492.979 453.657 470.769 463.063 451.53 479.511C439.372 489.906 426.456 497.866 413.1 503.403ZM413.103 503.943C411.709 504.518 410.31 505.067 408.907 505.59C410.442 506.129 411.98 506.638 413.521 507.118C414.926 506.671 416.326 506.198 417.723 505.699C416.18 505.144 414.64 504.558 413.103 503.943ZM418.462 505.433C416.893 504.875 415.327 504.287 413.764 503.668C426.999 498.121 439.799 490.199 451.855 479.891C471.818 462.823 495.005 453.363 519.826 451.313C520.96 451.403 522.096 451.508 523.234 451.628C501.026 454.795 480.273 464.036 462.153 479.511C448.404 491.253 433.688 499.888 418.462 505.433ZM418.464 505.964C417.099 506.459 415.729 506.929 414.356 507.375C415.833 507.824 417.312 508.246 418.792 508.64C420.165 508.267 421.535 507.87 422.901 507.448C421.42 506.98 419.941 506.486 418.464 505.964ZM423.739 507.186C422.224 506.717 420.712 506.219 419.203 505.693C434.281 500.122 448.853 491.527 462.478 479.891C481.052 464.029 502.413 454.737 525.285 451.858C526.534 452.008 527.784 452.174 529.038 452.358C508.552 456.081 489.399 465.089 472.53 479.511C457.252 492.573 440.779 501.79 423.739 507.186ZM423.741 507.709C422.416 508.127 421.088 508.522 419.757 508.893C421.284 509.287 422.812 509.653 424.342 509.989C425.67 509.692 426.996 509.373 428.319 509.031C426.791 508.619 425.265 508.179 423.741 507.709ZM429.297 508.774C427.722 508.361 426.149 507.917 424.578 507.442C441.436 501.999 457.73 492.823 472.855 479.891C490.048 465.192 509.632 456.135 530.592 452.595C532.079 452.83 533.57 453.089 535.064 453.372C516.45 457.583 499.026 466.262 483.53 479.511C466.631 493.959 448.27 503.703 429.297 508.774ZM429.299 509.291C428.036 509.627 426.769 509.943 425.5 510.238C426.792 510.509 428.085 510.76 429.379 510.99C430.649 510.761 431.918 510.511 433.184 510.242C431.888 509.945 430.593 509.628 429.299 509.291ZM434.342 509.989C432.986 509.691 431.63 509.37 430.277 509.026C449.018 503.875 467.15 494.174 483.855 479.891C499.593 466.435 517.335 457.708 536.302 453.612C537.695 453.888 539.091 454.186 540.489 454.504C523.593 459.044 507.75 467.354 493.53 479.511C475.164 495.214 455.071 505.359 434.342 509.989ZM434.344 510.501C433.164 510.763 431.983 511.007 430.801 511.234C432.17 511.461 433.54 511.666 434.91 511.847C436.084 511.69 437.256 511.516 438.427 511.325C437.065 511.073 435.703 510.798 434.344 510.501ZM439.882 511.078C438.42 510.824 436.96 510.544 435.5 510.238C455.935 505.486 475.735 495.384 493.855 479.891C508.268 467.569 524.361 459.212 541.536 454.746C543.169 455.129 544.805 455.541 546.444 455.981C531.435 460.747 517.326 468.571 504.53 479.511C484.556 496.589 462.538 507.094 439.882 511.078ZM439.883 511.586C438.861 511.765 437.838 511.93 436.814 512.083C437.943 512.214 439.072 512.33 440.202 512.43C441.217 512.34 442.232 512.237 443.245 512.12C442.124 511.958 441.003 511.779 439.883 511.586ZM445.184 511.882C443.901 511.716 442.619 511.529 441.337 511.322C463.596 507.145 485.212 496.685 504.855 479.891C517.805 468.819 532.112 460.949 547.342 456.225C548.968 456.673 550.597 457.148 552.228 457.651C539.021 462.491 526.565 469.765 515.153 479.511C493.617 497.903 469.709 508.672 445.184 511.882ZM445.185 512.387C444.468 512.48 443.751 512.567 443.033 512.648C443.837 512.7 444.641 512.745 445.445 512.781C446.142 512.749 446.838 512.711 447.535 512.668C446.751 512.582 445.968 512.488 445.185 512.387ZM450.433 512.45C449.329 512.355 448.225 512.244 447.121 512.118C471.082 508.603 494.413 497.881 515.478 479.891C527.018 470.036 539.633 462.717 553.019 457.897C554.63 458.402 556.242 458.935 557.857 459.495C546.406 464.269 535.564 470.932 525.53 479.511C502.497 499.204 476.746 510.157 450.433 512.45ZM455.946 512.803C455.072 512.767 454.198 512.721 453.324 512.666C478.746 509.845 503.57 498.944 525.855 479.891C535.997 471.22 546.97 464.513 558.568 459.743C560.337 460.365 562.108 461.02 563.88 461.707C554.257 466.256 545.099 472.185 536.53 479.511C511.898 500.571 484.158 511.636 455.946 512.803ZM462.004 512.901C491.57 512.644 520.751 501.551 546.53 479.511C553.756 473.333 561.402 468.149 569.391 463.947C567.768 463.257 566.146 462.594 564.524 461.958C554.781 466.515 545.515 472.487 536.855 479.891C513.893 499.523 488.234 510.5 462.004 512.901ZM569.963 463.649C571.26 462.976 572.565 462.329 573.88 461.707C572.288 461.09 570.697 460.499 569.107 459.934C567.779 460.486 566.46 461.065 565.149 461.668C566.753 462.302 568.357 462.962 569.963 463.649ZM574.504 461.415C575.944 460.744 577.395 460.104 578.857 459.495C577.302 458.956 575.749 458.442 574.198 457.953C572.721 458.488 571.253 459.054 569.795 459.65C571.363 460.213 572.933 460.801 574.504 461.415ZM579.55 459.208C580.943 458.638 582.345 458.095 583.756 457.58C582.244 457.117 580.734 456.677 579.226 456.262C577.8 456.705 576.382 457.177 574.973 457.676C576.497 458.162 578.023 458.673 579.55 459.208ZM584.535 457.299C585.831 456.836 587.134 456.397 588.444 455.981C586.981 455.588 585.52 455.218 584.062 454.87C582.738 455.22 581.421 455.594 580.11 455.99C581.583 456.404 583.059 456.84 584.535 457.299ZM589.328 455.705C590.708 455.279 592.095 454.878 593.489 454.504C592.091 454.186 590.695 453.888 589.302 453.612C587.89 453.917 586.484 454.248 585.086 454.604C586.498 454.95 587.912 455.317 589.328 455.705ZM594.524 454.23C595.699 453.926 596.879 453.64 598.064 453.372C596.743 453.122 595.425 452.89 594.109 452.678C592.913 452.885 591.722 453.11 590.536 453.353C591.863 453.626 593.193 453.919 594.524 454.23ZM599.291 453.101C600.535 452.834 601.784 452.586 603.038 452.358C601.837 452.182 600.639 452.022 599.443 451.877C598.167 452.04 596.895 452.222 595.628 452.425C596.847 452.634 598.068 452.86 599.291 453.101ZM604.582 452.088C605.624 451.913 606.67 451.751 607.719 451.603C606.708 451.499 605.698 451.406 604.69 451.324C603.618 451.414 602.549 451.517 601.484 451.635C602.515 451.774 603.548 451.925 604.582 452.088ZM609.789 451.328C610.44 451.248 611.093 451.172 611.747 451.102C611.085 451.064 610.423 451.031 609.763 451.004C609.095 451.032 608.43 451.066 607.765 451.105C608.439 451.175 609.113 451.249 609.789 451.328ZM407.513 501.015C405.997 500.328 404.486 499.613 402.979 498.867C412.595 493.847 421.929 487.523 430.855 479.891C453.219 460.771 479.629 451.198 507.85 450.894C483.289 453.109 460.335 462.578 440.53 479.511C430.022 488.496 418.948 495.661 407.513 501.015ZM568.403 459.685C567.095 460.237 565.795 460.814 564.504 461.415C562.755 460.732 561.008 460.08 559.263 459.46C560.567 458.933 561.879 458.431 563.198 457.953C564.931 458.499 566.666 459.076 568.403 459.685ZM573.41 457.707C571.961 458.241 570.52 458.805 569.089 459.398C567.382 458.794 565.676 458.22 563.973 457.676C565.42 457.163 566.877 456.68 568.342 456.225C570.029 456.689 571.719 457.183 573.41 457.707ZM578.33 456.018C576.94 456.461 575.557 456.93 574.183 457.426C572.529 456.907 570.878 456.416 569.229 455.954C570.617 455.536 572.013 455.143 573.416 454.777C575.051 455.162 576.689 455.576 578.33 456.018ZM583.03 454.628C581.751 454.977 580.478 455.348 579.211 455.741C577.622 455.304 576.036 454.895 574.452 454.512C575.729 454.19 577.013 453.891 578.302 453.612C579.875 453.924 581.451 454.263 583.03 454.628ZM588.064 453.372C586.72 453.676 585.381 454.004 584.05 454.354C582.542 453.996 581.038 453.662 579.536 453.353C580.882 453.077 582.234 452.824 583.592 452.595C585.079 452.83 586.57 453.089 588.064 453.372ZM592.59 452.44C591.486 452.645 590.387 452.866 589.291 453.101C587.907 452.828 586.526 452.575 585.147 452.343C586.242 452.173 587.341 452.017 588.443 451.877C589.822 452.044 591.205 452.232 592.59 452.44ZM597.412 451.646C596.304 451.806 595.2 451.981 594.099 452.17C592.892 451.976 591.687 451.798 590.484 451.635C591.594 451.513 592.709 451.405 593.826 451.313C595.019 451.408 596.215 451.519 597.412 451.646ZM601.649 451.113C600.909 451.193 600.171 451.279 599.434 451.373C598.602 451.273 597.77 451.18 596.94 451.095C597.665 451.053 598.39 451.018 599.117 450.989C599.96 451.022 600.804 451.063 601.649 451.113ZM435.871 512.473C435.551 512.434 435.231 512.393 434.911 512.351C434.05 512.465 433.187 512.57 432.324 512.666C433.12 512.716 433.916 512.758 434.712 512.793C435.597 512.755 436.481 512.707 437.364 512.649C436.867 512.593 436.369 512.535 435.871 512.473ZM433.005 512.085C431.796 511.907 430.588 511.711 429.38 511.498C428.193 511.711 427.004 511.906 425.814 512.083C427.02 512.223 428.226 512.346 429.433 512.45C430.625 512.346 431.816 512.225 433.005 512.085ZM427.957 511.237C426.752 511.01 425.547 510.764 424.344 510.501C423.011 510.797 421.675 511.071 420.337 511.322C421.528 511.514 422.719 511.689 423.911 511.847C425.261 511.666 426.61 511.463 427.957 511.237ZM423.184 510.241C421.719 509.907 420.256 509.546 418.794 509.158C417.366 509.544 415.935 509.904 414.5 510.238C415.96 510.544 417.42 510.824 418.882 511.078C420.319 510.826 421.753 510.547 423.184 510.241ZM417.829 508.898C416.392 508.505 414.956 508.086 413.523 507.642C412.036 508.113 410.545 508.555 409.05 508.968C410.479 509.334 411.91 509.674 413.342 509.989C414.841 509.654 416.337 509.29 417.829 508.898ZM412.688 507.38C411.18 506.902 409.675 506.395 408.174 505.861C406.647 506.419 405.115 506.946 403.578 507.442C405.076 507.895 406.575 508.319 408.077 508.716C409.618 508.301 411.155 507.856 412.688 507.38ZM407.437 505.596C405.82 505.01 404.206 504.39 402.596 503.738C401.039 504.388 399.476 505.005 397.907 505.59C399.515 506.154 401.125 506.686 402.739 507.186C404.31 506.688 405.876 506.158 407.437 505.596ZM401.938 503.47C400.461 502.863 398.987 502.228 397.517 501.565C395.939 502.3 394.355 503.001 392.764 503.668C394.23 504.249 395.699 504.803 397.171 505.329C398.766 504.743 400.355 504.123 401.938 503.47ZM392.103 503.943C390.626 504.552 389.143 505.133 387.655 505.683C389.094 506.185 390.536 506.66 391.979 507.109C393.47 506.634 394.956 506.13 396.437 505.596C394.99 505.071 393.545 504.52 392.103 503.943ZM397.174 505.861C395.725 506.39 394.271 506.892 392.814 507.366C394.387 507.844 395.963 508.292 397.541 508.708C398.998 508.316 400.452 507.895 401.901 507.447C400.323 506.95 398.746 506.421 397.174 505.861ZM402.741 507.709C401.336 508.152 399.926 508.57 398.514 508.961C399.964 509.332 401.416 509.677 402.87 509.995C404.284 509.68 405.696 509.339 407.104 508.973C405.648 508.578 404.193 508.157 402.741 507.709ZM408.078 509.233C406.732 509.593 405.383 509.93 404.031 510.244C405.397 510.53 406.764 510.794 408.133 511.034C409.486 510.793 410.836 510.529 412.184 510.242C410.814 509.928 409.445 509.592 408.078 509.233ZM413.344 510.501C412.088 510.78 410.831 511.039 409.571 511.278C410.936 511.501 412.301 511.701 413.667 511.879C414.922 511.714 416.175 511.529 417.427 511.325C416.065 511.073 414.703 510.798 413.344 510.501ZM418.883 511.586C417.79 511.777 416.696 511.953 415.6 512.115C416.63 512.232 417.66 512.336 418.69 512.428C419.796 512.329 420.901 512.215 422.005 512.085C420.964 511.932 419.924 511.766 418.883 511.586ZM423.912 512.351C423.113 512.457 422.314 512.555 421.514 512.645C422.411 512.704 423.309 512.753 424.206 512.792C424.983 512.758 425.759 512.716 426.535 512.668C425.66 512.572 424.786 512.466 423.912 512.351ZM558.55 459.208C559.829 458.684 561.116 458.184 562.41 457.707C560.837 457.22 559.266 456.759 557.697 456.323C556.39 456.732 555.09 457.164 553.797 457.62C555.38 458.123 556.964 458.653 558.55 459.208ZM563.183 457.426C564.595 456.916 566.015 456.435 567.444 455.981C565.924 455.573 564.406 455.189 562.891 454.829C561.445 455.209 560.007 455.617 558.577 456.052C560.11 456.485 561.646 456.943 563.183 457.426ZM568.328 455.705C569.669 455.29 571.017 454.901 572.372 454.535C570.916 454.203 569.462 453.893 568.011 453.606C566.641 453.901 565.278 454.22 563.921 454.564C565.388 454.921 566.857 455.302 568.328 455.705ZM573.403 454.262C574.618 453.946 575.838 453.649 577.064 453.372C575.689 453.111 574.316 452.871 572.947 452.652C571.709 452.864 570.476 453.096 569.247 453.347C570.63 453.631 572.016 453.936 573.403 454.262ZM578.291 453.101C579.535 452.834 580.784 452.586 582.038 452.358C580.784 452.174 579.534 452.008 578.285 451.858C577.011 452.018 575.742 452.199 574.477 452.399C575.747 452.616 577.018 452.85 578.291 453.101ZM583.582 452.088C584.523 451.93 585.466 451.783 586.412 451.646C585.333 451.532 584.256 451.43 583.181 451.342C582.234 451.422 581.289 451.514 580.347 451.616C581.423 451.761 582.502 451.918 583.582 452.088ZM588.434 451.373C589.204 451.275 589.975 451.185 590.747 451.102C590.035 451.061 589.323 451.027 588.613 450.997C587.806 451.031 587 451.072 586.196 451.121C586.941 451.199 587.687 451.283 588.434 451.373ZM556.806 456.079C555.532 456.487 554.264 456.917 553.003 457.369C551.41 456.871 549.818 456.399 548.229 455.954C549.5 455.571 550.778 455.21 552.062 454.87C553.641 455.247 555.222 455.65 556.806 456.079ZM561.854 454.587C560.456 454.966 559.066 455.371 557.683 455.802C556.148 455.378 554.616 454.979 553.086 454.604C554.484 454.248 555.89 453.917 557.302 453.612C558.817 453.912 560.334 454.237 561.854 454.587ZM566.771 453.366C565.467 453.66 564.17 453.976 562.879 454.314C561.429 453.971 559.981 453.651 558.536 453.353C559.839 453.086 561.148 452.84 562.463 452.617C563.896 452.844 565.332 453.094 566.771 453.366ZM571.416 452.414C570.273 452.625 569.135 452.852 568 453.095C566.667 452.833 565.337 452.589 564.009 452.364C565.15 452.186 566.295 452.023 567.443 451.877C568.765 452.037 570.089 452.216 571.416 452.414ZM576.234 451.628C575.131 451.785 574.032 451.957 572.937 452.144C571.784 451.96 570.633 451.79 569.484 451.635C570.594 451.513 571.709 451.405 572.826 451.313C573.96 451.403 575.096 451.508 576.234 451.628ZM579.813 451.171C579.718 451.182 579.623 451.193 579.529 451.204C579.111 451.252 578.694 451.302 578.277 451.354C577.497 451.261 576.718 451.175 575.94 451.095C576.547 451.06 577.154 451.03 577.762 451.004C578.573 451.038 579.385 451.079 580.198 451.128C580.07 451.143 579.941 451.157 579.813 451.171ZM415.859 512.647C415.129 512.565 414.398 512.478 413.668 512.383C412.887 512.485 412.106 512.58 411.325 512.666C411.609 512.684 411.893 512.701 412.178 512.717C412.6 512.74 413.023 512.762 413.445 512.781C414.25 512.744 415.055 512.7 415.859 512.647ZM411.731 512.117C410.531 511.943 409.332 511.751 408.134 511.542C407.029 511.737 405.922 511.918 404.814 512.083C406.02 512.223 407.226 512.346 408.433 512.45C409.533 512.354 410.633 512.243 411.731 512.117ZM406.693 511.281C405.418 511.043 404.144 510.785 402.871 510.507C401.615 510.786 400.357 511.044 399.097 511.283C400.367 511.491 401.639 511.679 402.911 511.847C404.173 511.678 405.434 511.49 406.693 511.281ZM401.71 510.248C400.319 509.931 398.93 509.59 397.543 509.226C396.198 509.586 394.851 509.924 393.5 510.238C394.885 510.528 396.27 510.795 397.656 511.039C399.01 510.798 400.361 510.535 401.71 510.248ZM396.57 508.966C395.038 508.551 393.508 508.106 391.982 507.633C390.577 508.079 389.169 508.499 387.757 508.893C389.284 509.287 390.812 509.653 392.342 509.989C393.754 509.673 395.164 509.332 396.57 508.966ZM391.146 507.371C389.734 506.924 388.325 506.451 386.917 505.954C385.475 506.478 384.029 506.974 382.578 507.442C383.981 507.866 385.386 508.266 386.792 508.64C388.248 508.245 389.699 507.822 391.146 507.371ZM381.741 507.709C380.257 508.177 378.769 508.616 377.277 509.026C378.63 509.37 379.986 509.691 381.342 509.989C382.841 509.654 384.337 509.29 385.829 508.898C384.465 508.525 383.102 508.129 381.741 507.709ZM386.794 509.158C385.366 509.544 383.935 509.904 382.5 510.238C383.96 510.544 385.42 510.824 386.882 511.078C388.319 510.826 389.753 510.547 391.184 510.241C389.719 509.907 388.256 509.546 386.794 509.158ZM392.344 510.501C391.01 510.797 389.675 511.071 388.337 511.322C389.619 511.529 390.901 511.716 392.184 511.882C393.53 511.706 394.874 511.507 396.215 511.286C394.924 511.045 393.633 510.783 392.344 510.501ZM397.657 511.546C396.48 511.755 395.301 511.945 394.121 512.118C395.225 512.244 396.329 512.355 397.433 512.45C398.625 512.346 399.816 512.225 401.005 512.085C399.889 511.921 398.773 511.741 397.657 511.546ZM402.911 512.351C402.05 512.465 401.188 512.57 400.324 512.666C401.198 512.721 402.072 512.767 402.946 512.803C403.809 512.767 404.672 512.722 405.534 512.668C404.66 512.572 403.786 512.466 402.911 512.351ZM547.328 455.705C548.556 455.325 549.79 454.966 551.03 454.628C549.451 454.263 547.875 453.924 546.302 453.612C545.055 453.882 543.812 454.171 542.576 454.48C544.157 454.862 545.742 455.27 547.328 455.705ZM552.05 454.354C553.381 454.004 554.72 453.676 556.064 453.372C554.57 453.089 553.079 452.83 551.592 452.595C550.234 452.824 548.882 453.077 547.536 453.353C549.038 453.662 550.542 453.996 552.05 454.354ZM557.291 453.101C558.495 452.842 559.704 452.602 560.918 452.38C559.542 452.177 558.168 451.994 556.798 451.832C555.576 451.984 554.359 452.154 553.147 452.343C554.526 452.575 555.907 452.828 557.291 453.101ZM562.453 452.11C563.437 451.943 564.423 451.789 565.412 451.646C564.215 451.519 563.019 451.408 561.827 451.313C560.844 451.394 559.864 451.487 558.887 451.591C560.073 451.749 561.262 451.922 562.453 452.11ZM567.434 451.373C568.204 451.275 568.975 451.185 569.747 451.102C568.916 451.055 568.087 451.015 567.258 450.983C566.484 451.013 565.711 451.051 564.94 451.095C565.771 451.18 566.602 451.273 567.434 451.373ZM545.064 453.372C543.879 453.64 542.699 453.926 541.524 454.23C540.193 453.919 538.863 453.626 537.536 453.353C538.722 453.11 539.913 452.885 541.109 452.678C542.425 452.89 543.743 453.122 545.064 453.372ZM550.038 452.358C548.784 452.586 547.535 452.834 546.291 453.101C545.068 452.86 543.847 452.634 542.628 452.425C543.895 452.222 545.167 452.04 546.443 451.877C547.639 452.022 548.837 452.182 550.038 452.358ZM554.719 451.603C553.67 451.751 552.624 451.913 551.582 452.088C550.548 451.925 549.515 451.774 548.484 451.635C549.549 451.517 550.618 451.414 551.69 451.324C552.698 451.406 553.708 451.499 554.719 451.603ZM558.747 451.102C558.093 451.172 557.44 451.248 556.789 451.328C556.113 451.249 555.439 451.175 554.765 451.105C554.895 451.098 555.026 451.09 555.157 451.083C555.343 451.072 555.53 451.062 555.717 451.053C556.066 451.035 556.414 451.019 556.763 451.004C557.423 451.031 558.085 451.064 558.747 451.102ZM394.535 512.668C393.751 512.582 392.968 512.488 392.185 512.387C391.468 512.48 390.751 512.567 390.033 512.648C390.837 512.7 391.641 512.745 392.445 512.781C393.142 512.749 393.838 512.711 394.535 512.668ZM390.245 512.12C389.124 511.958 388.004 511.779 386.883 511.586C385.861 511.765 384.838 511.93 383.814 512.083C384.943 512.214 386.072 512.33 387.202 512.43C388.217 512.34 389.232 512.237 390.245 512.12ZM385.427 511.325C384.065 511.073 382.703 510.798 381.344 510.501C380.164 510.763 378.983 511.007 377.8 511.234C379.17 511.461 380.54 511.666 381.91 511.847C383.084 511.69 384.256 511.516 385.427 511.325ZM380.184 510.241C378.888 509.945 377.593 509.628 376.299 509.291C375.036 509.627 373.769 509.943 372.5 510.238C373.792 510.509 375.085 510.76 376.379 510.99C377.649 510.761 378.918 510.511 380.184 510.241ZM371.344 510.501C370.011 510.797 368.675 511.071 367.337 511.322C368.528 511.514 369.719 511.689 370.911 511.847C372.261 511.666 373.61 511.463 374.957 511.237C373.752 511.01 372.547 510.764 371.344 510.501ZM376.38 511.498C375.193 511.711 374.004 511.906 372.814 512.083C374.02 512.223 375.226 512.346 376.433 512.45C377.625 512.346 378.816 512.225 380.005 512.085C378.796 511.907 377.588 511.711 376.38 511.498ZM381.911 512.351C381.05 512.465 380.188 512.57 379.324 512.666C380.12 512.716 380.916 512.758 381.712 512.793C382.597 512.755 383.481 512.707 384.364 512.649C383.547 512.558 382.729 512.458 381.911 512.351ZM536.291 453.101C537.387 452.866 538.487 452.645 539.59 452.44C538.205 452.232 536.823 452.044 535.443 451.877C534.341 452.017 533.242 452.173 532.147 452.343C533.526 452.575 534.907 452.828 536.291 453.101ZM541.099 452.17C542.2 451.981 543.304 451.806 544.412 451.646C543.215 451.519 542.019 451.408 540.826 451.313C539.709 451.405 538.594 451.513 537.484 451.635C538.687 451.798 539.892 451.976 541.099 452.17ZM546.434 451.373C547.171 451.279 547.909 451.193 548.649 451.113C547.804 451.063 546.96 451.022 546.117 450.989C545.39 451.018 544.665 451.053 543.94 451.095C544.475 451.15 545.011 451.208 545.547 451.269C545.843 451.303 546.138 451.337 546.434 451.373ZM533.412 451.646C532.466 451.783 531.523 451.93 530.582 452.088C529.502 451.918 528.423 451.761 527.347 451.616C528.289 451.514 529.234 451.422 530.181 451.342C531.256 451.43 532.333 451.532 533.412 451.646ZM537.747 451.102C536.975 451.185 536.204 451.275 535.434 451.373C534.687 451.283 533.941 451.199 533.196 451.121C534 451.072 534.806 451.031 535.613 450.997C536.323 451.027 537.035 451.061 537.747 451.102ZM373.535 512.668C372.66 512.572 371.786 512.466 370.911 512.351C370.113 512.457 369.313 512.555 368.514 512.645C369.411 512.704 370.309 512.753 371.206 512.792C371.983 512.758 372.759 512.716 373.535 512.668ZM369.005 512.085C367.964 511.932 366.924 511.766 365.883 511.586C364.79 511.777 363.696 511.953 362.6 512.115C363.63 512.232 364.66 512.336 365.69 512.428C366.796 512.329 367.901 512.215 369.005 512.085ZM360.668 512.383C359.887 512.485 359.106 512.58 358.324 512.666C359.031 512.711 359.738 512.749 360.445 512.781C361.25 512.744 362.055 512.7 362.859 512.647C362.129 512.565 361.398 512.478 360.668 512.383ZM525.277 451.354C525.916 451.274 526.557 451.199 527.198 451.128C526.385 451.079 525.573 451.038 524.762 451.004C524.637 451.009 524.512 451.015 524.387 451.02L524.177 451.03C524.082 451.035 523.987 451.039 523.892 451.044C523.574 451.06 523.257 451.077 522.94 451.095C523.718 451.175 524.497 451.261 525.277 451.354Z" fill="url(#paint2_radial_1166_798)"/>
</g>
<defs>
<linearGradient id="paint0_linear_1166_798" x1="600" y1="0" x2="600" y2="720" gradientUnits="userSpaceOnUse">
<stop stop-color="#FFECF5"/>
<stop offset="1" stop-color="#FFFDC7"/>
</linearGradient>
<radialGradient id="paint1_radial_1166_798" cx="0" cy="0" r="1" gradientUnits="userSpaceOnUse" gradientTransform="translate(65.6321 491.549) rotate(-9.51539) scale(1198.55 2507.96)">
<stop stop-color="#FBF432"/>
<stop offset="0.138" stop-color="#FFBA00"/>
<stop offset="0.452" stop-color="#F7437B"/>
<stop offset="0.519" stop-color="#F6328D"/>
<stop offset="0.559" stop-color="#F332A2"/>
<stop offset="0.687" stop-color="#E732FB"/>
<stop offset="0.825" stop-color="#C93FFC"/>
<stop offset="1" stop-color="#437BFF"/>
</radialGradient>
<radialGradient id="paint2_radial_1166_798" cx="0" cy="0" r="1" gradientUnits="userSpaceOnUse" gradientTransform="translate(886.757 698.965) rotate(-144.033) scale(1083.3 947.249)">
<stop stop-color="#FBF432"/>
<stop offset="0.206" stop-color="#FFBA00"/>
<stop offset="0.719" stop-color="#F6328D"/>
<stop offset="0.76588" stop-color="#F3329F" stop-opacity="0.1"/>
<stop offset="0.8125" stop-color="#F132B2" stop-opacity="0.03"/>
<stop offset="0.902498" stop-color="#EF32C1" stop-opacity="0.03"/>
<stop offset="1" stop-color="#E732FB"/>
</radialGradient>
</defs>
</svg>
