<svg width="680" height="392" fill="none" xmlns="http://www.w3.org/2000/svg"><g clip-path="url(#a)"><path d="M680 0H0v392h680V0Z" fill="url(#b)"/><path d="M877.657 437.132 200.591 267.649l-53.353-117.668 638.14-172.836L1037 325.13 877.657 437.132Z" fill="url(#c)"/><path opacity=".08" d="M877.657 437.132 200.591 267.649l-83.352-127.666L785.38-62.85 1037 325.13 877.657 437.132Z" fill="url(#d)"/><path opacity=".08" d="M877.657 437.132 200.591 267.649 77.239 131.983l668.142-234.832L1037 325.13 877.657 437.132Z" fill="url(#e)"/><path d="m147.238 149.981 638.14-172.835L1037 325.13 147.238 149.981Z" fill="url(#f)"/><g style="mix-blend-mode:overlay" filter="url(#g)"><path d="m529.162 39.759-74.478-43c-55.482-32.032-126.426-13.023-158.459 42.459l-80 138.564c-32.032 55.482-13.023 126.426 42.459 158.459l74.478 43c55.482 32.033 126.427 13.023 158.459-42.459l80-138.564c32.033-55.482 13.023-126.426-42.459-158.459Z" fill="#fff"/></g><g filter="url(#h)"><path opacity=".4" d="M557.92 192.78c17.231-64.286-20.914-130.369-85.2-147.6-64.286-17.231-130.369 20.914-147.6 85.2-17.231 64.286 20.914 130.369 85.2 147.6 64.286 17.231 130.369-20.914 147.6-85.2Z" fill="#fff"/></g><g filter="url(#i)"><path opacity=".24" d="M571.846 270.753c33.137-57.395 13.472-130.786-43.923-163.923S397.137 93.358 364 150.753s-13.472 130.786 43.923 163.923 130.786 13.472 163.923-43.923Z" fill="#fff"/></g><g filter="url(#j)"><path d="M539 204c0-72.902-59.098-132-132-132s-132 59.098-132 132 59.098 132 132 132 132-59.098 132-132Z" fill="#fff"/></g><g filter="url(#k)"><path d="M507 204c0-55.228-44.772-100-100-100s-100 44.772-100 100 44.772 100 100 100 100-44.772 100-100Z" fill="#fff"/></g><path d="M446.923 148h-4v48h4v-48Z" fill="#437BFF"/><path d="M446.923 200h-4v32h4v-32Z" fill="#82E397"/><path d="M370.923 148h-4v48h4v-48Z" fill="#437BFF"/><path d="M370.923 200h-4v32h4v-32Z" fill="#82E397"/><path d="m406.923 315-71-27v-40l43 16 28 9 28-9 43-16v40l-71 27Z" fill="#E732FB"/><path d="M378.923 188v-32l28 16 28-16v32l-28 8-28-8Z" fill="#FFBA00"/><path d="M378.923 248v-44l28 8 28-8v44l-28 8-28-8Z" fill="#F6328D"/></g><defs><linearGradient id="b" x1="340" y1="0" x2="340" y2="392" gradientUnits="userSpaceOnUse"><stop stop-color="#F2F1F9"/><stop offset="1" stop-color="#fff"/></linearGradient><linearGradient id="c" x1="289.774" y1="422.118" x2="892.194" y2="74.31" gradientUnits="userSpaceOnUse"><stop stop-color="#25D5E8"/><stop offset="1" stop-color="#00D3BD"/></linearGradient><linearGradient id="d" x1="276.626" y1="416.049" x2="886.279" y2="64.066" gradientUnits="userSpaceOnUse"><stop stop-color="#25D5E8"/><stop offset="1" stop-color="#00D3BD"/></linearGradient><linearGradient id="e" x1="243.358" y1="419.71" x2="879.547" y2="52.406" gradientUnits="userSpaceOnUse"><stop stop-color="#25D5E8"/><stop offset="1" stop-color="#00D3BD"/></linearGradient><linearGradient id="f" x1="824.145" y1="388.094" x2="677.579" y2="-36.491" gradientUnits="userSpaceOnUse"><stop stop-color="#25D5E8"/><stop offset="1" stop-color="#437BFF"/></linearGradient><filter id="h" x="229.92" y="-74.02" width="423.2" height="423.2" filterUnits="userSpaceOnUse" color-interpolation-filters="sRGB"><feFlood flood-opacity="0" result="BackgroundImageFix"/><feColorMatrix in="SourceAlpha" values="0 0 0 0 0 0 0 0 0 0 0 0 0 0 0 0 0 0 127 0"/><feOffset dy="-24"/><feGaussianBlur stdDeviation="32"/><feColorMatrix values="0 0 0 0 0.145098 0 0 0 0 0.835294 0 0 0 0 0.909804 0 0 0 0.078 0"/><feBlend in2="BackgroundImageFix" result="effect1_dropShadow"/><feBlend in="SourceGraphic" in2="effect1_dropShadow" result="shape"/></filter><filter id="g" x="38.225" y="-181.241" width="711.396" height="738.482" filterUnits="userSpaceOnUse" color-interpolation-filters="sRGB"><feFlood flood-opacity="0" result="BackgroundImageFix"/><feBlend in="SourceGraphic" in2="BackgroundImageFix" result="shape"/><feGaussianBlur stdDeviation="60" result="effect1_foregroundBlur"/></filter><filter id="i" x="240" y="-41.17" width="455.846" height="455.846" filterUnits="userSpaceOnUse" color-interpolation-filters="sRGB"><feFlood flood-opacity="0" result="BackgroundImageFix"/><feColorMatrix in="SourceAlpha" values="0 0 0 0 0 0 0 0 0 0 0 0 0 0 0 0 0 0 127 0"/><feOffset dy="-24"/><feGaussianBlur stdDeviation="32"/><feColorMatrix values="0 0 0 0 0.145098 0 0 0 0 0.835294 0 0 0 0 0.909804 0 0 0 0.078 0"/><feBlend in2="BackgroundImageFix" result="effect1_dropShadow"/><feBlend in="SourceGraphic" in2="effect1_dropShadow" result="shape"/></filter><filter id="j" x="211" y="-16" width="392" height="392" filterUnits="userSpaceOnUse" color-interpolation-filters="sRGB"><feFlood flood-opacity="0" result="BackgroundImageFix"/><feColorMatrix in="SourceAlpha" values="0 0 0 0 0 0 0 0 0 0 0 0 0 0 0 0 0 0 127 0"/><feOffset dy="-24"/><feGaussianBlur stdDeviation="32"/><feColorMatrix values="0 0 0 0 0.145098 0 0 0 0 0.835294 0 0 0 0 0.909804 0 0 0 0.161 0"/><feBlend in2="BackgroundImageFix" result="effect1_dropShadow"/><feBlend in="SourceGraphic" in2="effect1_dropShadow" result="shape"/></filter><filter id="k" x="243" y="16" width="328" height="328" filterUnits="userSpaceOnUse" color-interpolation-filters="sRGB"><feFlood flood-opacity="0" result="BackgroundImageFix"/><feColorMatrix in="SourceAlpha" values="0 0 0 0 0 0 0 0 0 0 0 0 0 0 0 0 0 0 127 0"/><feOffset dy="-24"/><feGaussianBlur stdDeviation="32"/><feColorMatrix values="0 0 0 0 0.145098 0 0 0 0 0.835294 0 0 0 0 0.909804 0 0 0 0.161 0"/><feBlend in2="BackgroundImageFix" result="effect1_dropShadow"/><feBlend in="SourceGraphic" in2="effect1_dropShadow" result="shape"/></filter><clipPath id="a"><path fill="#fff" d="M0 0h680v392H0z"/></clipPath></defs></svg>