<svg width="677" height="356" fill="none" xmlns="http://www.w3.org/2000/svg"><g clip-path="url(#a)"><path fill="#25D5E8" d="M0 0h677v356H0z"/><path d="m525.023 677.035-80.008-128.067L322.5 443l208.484-220.425-5.961 454.46Z" fill="url(#b)"/><path d="M691.5 385.5 525.022 677.035l5.962-454.46L574 238l117.5 147.5Z" fill="url(#c)"/><g style="mix-blend-mode:overlay" opacity=".64" filter="url(#d)"><path d="M660.344 260.485c35.063-60.732 14.255-138.389-46.477-173.452-60.731-35.064-138.388-14.255-173.452 46.476l-29.382 50.893c-35.064 60.731-14.255 138.388 46.476 173.452 60.731 35.063 138.389 14.255 173.452-46.477l29.383-50.892Z" fill="#fff" style="mix-blend-mode:overlay" opacity=".64"/><path d="M660.344 260.485c35.063-60.732 14.255-138.389-46.477-173.452-60.731-35.064-138.388-14.255-173.452 46.476l-29.382 50.893c-35.064 60.731-14.255 138.388 46.476 173.452 60.731 35.063 138.389 14.255 173.452-46.477l29.383-50.892Z" fill="#fff" style="mix-blend-mode:overlay" opacity=".64"/></g><g filter="url(#e)"><path opacity=".4" d="M620.41 229.495c20.304-35.003 8.255-79.762-26.912-99.972-35.166-20.209-80.134-8.216-100.437 26.788-20.303 35.004-8.254 79.762 26.912 99.972 35.167 20.209 80.134 8.216 100.437-26.788Z" fill="#fff"/></g><g filter="url(#f)"><path opacity=".24" d="M570.696 255.526c28.771-28.77 28.771-75.417 0-104.187-28.77-28.771-75.416-28.771-104.187 0-28.77 28.77-28.77 75.417 0 104.187 28.771 28.771 75.417 28.771 104.187 0Z" fill="#fff"/></g><g filter="url(#g)"><path opacity=".24" d="M640.737 264.988c28.718-28.718 28.718-75.279 0-103.997-28.718-28.718-75.28-28.718-103.998 0-28.718 28.718-28.718 75.279 0 103.997 28.718 28.719 75.28 28.719 103.998 0Z" fill="#fff"/></g><g filter="url(#h)"><path d="M609.795 213.136c0-38.251-31.009-69.259-69.259-69.259-38.251 0-69.26 31.008-69.26 69.259 0 38.252 31.009 69.26 69.26 69.26 38.25 0 69.259-31.008 69.259-69.26Z" fill="#fff"/></g><g filter="url(#i)"><path d="M593.005 213.042c0-28.978-23.492-52.469-52.469-52.469-28.979 0-52.47 23.491-52.47 52.469s23.491 52.469 52.47 52.469c28.977 0 52.469-23.491 52.469-52.469Z" fill="#fff"/></g><path d="m529.298 189.955 34.63 23.087-34.63 23.086v-46.173Z" fill="#E732FB"/><path d="M529.298 243.474v-3.148l40.926-27.284-40.926-27.284v-3.149l45.648 30.433-45.648 30.432Z" fill="#FFBA00"/><path d="M525.142 190.05h-6.297v46.173h6.297V190.05Z" fill="#F6328D"/><path d="M525.142 182.704h-6.297v2.099h6.297v-2.099Z" fill="#437BFF"/><path d="M525.142 241.47h-6.297v2.099h6.297v-2.099Z" fill="#82E397"/><path fill="url(#j)" d="M0 0h677v356H0z" style="mix-blend-mode:multiply"/></g><defs><filter id="d" x="274" y="-50" width="523.377" height="544.886" filterUnits="userSpaceOnUse" color-interpolation-filters="sRGB"><feFlood flood-opacity="0" result="BackgroundImageFix"/><feBlend in="SourceGraphic" in2="BackgroundImageFix" result="shape"/><feGaussianBlur stdDeviation="60" result="effect1_foregroundBlur"/></filter><filter id="e" x="419.198" y="31.706" width="275.075" height="274.394" filterUnits="userSpaceOnUse" color-interpolation-filters="sRGB"><feFlood flood-opacity="0" result="BackgroundImageFix"/><feColorMatrix in="SourceAlpha" values="0 0 0 0 0 0 0 0 0 0 0 0 0 0 0 0 0 0 127 0"/><feOffset dy="-24"/><feGaussianBlur stdDeviation="32"/><feColorMatrix values="0 0 0 0 0.145098 0 0 0 0 0.835294 0 0 0 0 0.909804 0 0 0 0.078 0"/><feBlend in2="BackgroundImageFix" result="effect1_dropShadow"/><feBlend in="SourceGraphic" in2="effect1_dropShadow" result="shape"/></filter><filter id="f" x="380.931" y="41.761" width="275.343" height="275.343" filterUnits="userSpaceOnUse" color-interpolation-filters="sRGB"><feFlood flood-opacity="0" result="BackgroundImageFix"/><feColorMatrix in="SourceAlpha" values="0 0 0 0 0 0 0 0 0 0 0 0 0 0 0 0 0 0 127 0"/><feOffset dy="-24"/><feGaussianBlur stdDeviation="32"/><feColorMatrix values="0 0 0 0 0.145098 0 0 0 0 0.835294 0 0 0 0 0.909804 0 0 0 0.078 0"/><feBlend in2="BackgroundImageFix" result="effect1_dropShadow"/><feBlend in="SourceGraphic" in2="effect1_dropShadow" result="shape"/></filter><filter id="g" x="451.201" y="51.452" width="275.075" height="275.075" filterUnits="userSpaceOnUse" color-interpolation-filters="sRGB"><feFlood flood-opacity="0" result="BackgroundImageFix"/><feColorMatrix in="SourceAlpha" values="0 0 0 0 0 0 0 0 0 0 0 0 0 0 0 0 0 0 127 0"/><feOffset dy="-24"/><feGaussianBlur stdDeviation="32"/><feColorMatrix values="0 0 0 0 0.145098 0 0 0 0 0.835294 0 0 0 0 0.909804 0 0 0 0.078 0"/><feBlend in2="BackgroundImageFix" result="effect1_dropShadow"/><feBlend in="SourceGraphic" in2="effect1_dropShadow" result="shape"/></filter><filter id="h" x="407.276" y="55.877" width="266.519" height="266.519" filterUnits="userSpaceOnUse" color-interpolation-filters="sRGB"><feFlood flood-opacity="0" result="BackgroundImageFix"/><feColorMatrix in="SourceAlpha" values="0 0 0 0 0 0 0 0 0 0 0 0 0 0 0 0 0 0 127 0"/><feOffset dy="-24"/><feGaussianBlur stdDeviation="32"/><feColorMatrix values="0 0 0 0 0.145098 0 0 0 0 0.835294 0 0 0 0 0.909804 0 0 0 0.161 0"/><feBlend in2="BackgroundImageFix" result="effect1_dropShadow"/><feBlend in="SourceGraphic" in2="effect1_dropShadow" result="shape"/></filter><filter id="i" x="424.066" y="72.573" width="232.939" height="232.939" filterUnits="userSpaceOnUse" color-interpolation-filters="sRGB"><feFlood flood-opacity="0" result="BackgroundImageFix"/><feColorMatrix in="SourceAlpha" values="0 0 0 0 0 0 0 0 0 0 0 0 0 0 0 0 0 0 127 0"/><feOffset dy="-24"/><feGaussianBlur stdDeviation="32"/><feColorMatrix values="0 0 0 0 0.145098 0 0 0 0 0.835294 0 0 0 0 0.909804 0 0 0 0.161 0"/><feBlend in2="BackgroundImageFix" result="effect1_dropShadow"/><feBlend in="SourceGraphic" in2="effect1_dropShadow" result="shape"/></filter><linearGradient id="b" x1="431.5" y1="347" x2="546" y2="268.5" gradientUnits="userSpaceOnUse"><stop stop-color="#25D5E8"/><stop offset="1" stop-color="#00D3BD"/></linearGradient><linearGradient id="c" x1="660" y1="399" x2="545.5" y2="211.5" gradientUnits="userSpaceOnUse"><stop stop-color="#25D5E8"/><stop offset="1" stop-color="#437BFF"/></linearGradient><linearGradient id="j" x1="677" y1="288" x2="0" y2="288" gradientUnits="userSpaceOnUse"><stop stop-color="#25D5E8"/><stop offset=".349" stop-color="#25D5E8" stop-opacity=".161"/><stop offset="1" stop-color="#25D5E8" stop-opacity="0"/></linearGradient><clipPath id="a"><path fill="#fff" d="M0 0h677v356H0z"/></clipPath></defs></svg>