<svg width="1200" height="720" viewBox="0 0 1200 720" fill="none" xmlns="http://www.w3.org/2000/svg">
<mask id="mask0_1174_702" style="mask-type:alpha" maskUnits="userSpaceOnUse" x="0" y="0" width="1200" height="720">
<path d="M0 0H1200V720H0V0Z" fill="#D9D9D9"/>
</mask>
<g mask="url(#mask0_1174_702)">
<path d="M0 720H1200V0H0V720Z" fill="url(#paint0_radial_1174_702)"/>
<path opacity="0.04" d="M721 0H1200V720H0C510.997 474.774 673.988 317.958 721 0Z" fill="#FBF432"/>
<path opacity="0.4" d="M1091 0H1200V720H370C696.139 617.839 868.98 520.358 1091 0Z" fill="white"/>
<path opacity="0.4" fill-rule="evenodd" clip-rule="evenodd" d="M978.273 -640.912C982.086 -557.533 966.013 -426.572 905.406 -304.728C844.806 -182.897 739.69 -70.1935 565.399 -23.2507C347.254 35.5039 211.307 141.787 153.589 254.536C132.417 295.894 121.776 338.115 121.464 379.163C120.929 377.077 120.423 374.984 119.946 372.886C117.672 327.678 128.158 280.726 151.685 234.828C209.252 122.517 344.928 16.4567 562.914 -42.2226C737.528 -89.2267 842.859 -202.045 903.575 -323.951C964.285 -445.843 980.399 -576.833 976.593 -660.259L975.619 -660.214C979.419 -576.927 963.327 -446.106 902.703 -324.385C842.086 -202.678 736.955 -90.0812 562.661 -43.1633C344.511 15.56 208.551 121.748 150.818 234.383C128.179 278.549 117.574 323.699 118.757 367.349C118.423 365.699 118.107 364.045 117.809 362.388C113.169 313.908 123.37 263.138 148.765 213.595C206.332 101.284 342.008 -4.77604 559.994 -63.4553C734.608 -110.459 839.939 -223.278 900.656 -345.183C961.365 -467.076 977.479 -598.066 973.673 -681.492L972.699 -681.447C976.499 -598.159 960.408 -467.339 899.783 -345.618C839.166 -223.91 734.035 -111.314 559.741 -64.396C341.592 -5.67268 205.631 100.515 147.898 213.151C124.473 258.851 113.932 305.604 116.003 350.66C109.49 299.911 119.39 246.423 146.111 194.292C203.678 81.982 339.354 -24.0785 557.34 -82.7578C731.954 -129.762 837.285 -242.58 898.001 -364.486C958.711 -486.378 974.824 -617.368 971.018 -700.794L970.045 -700.75C973.845 -617.462 957.753 -486.641 897.129 -364.92C836.512 -243.213 731.381 -130.616 557.087 -83.6984C338.937 -24.9751 202.977 81.2127 145.244 193.848C116.364 250.191 107.068 308.134 116.843 362.522C117.495 369.324 118.439 376.08 119.672 382.782C120.312 389.758 121.257 396.686 122.508 403.558C123.146 410.365 124.075 417.127 125.294 423.836C125.947 430.791 126.905 437.699 128.166 444.551C128.79 451.356 129.706 458.118 130.911 464.825C131.563 471.627 132.507 478.384 133.74 485.086C134.38 492.061 135.325 498.989 136.576 505.861C137.214 512.668 138.143 519.431 139.362 526.139C140.015 533.094 140.973 540.002 142.234 546.853C142.858 553.659 143.774 560.421 144.979 567.129C150.887 628.739 180.67 686.669 233.615 733.734C247.612 746.175 259.756 759.721 270.047 774.217C261.831 804.032 249.397 834.534 232.739 865.201C158.104 1002.6 -1.31633 1143.25 -245.925 1240.04L-245.567 1240.94C-0.807338 1144.09 158.824 1003.32 233.596 865.666C250.141 835.205 262.533 804.894 270.771 775.243C272.423 777.598 274.027 779.977 275.582 782.381C267.525 815.718 254.132 850.006 235.394 884.503C160.759 1021.91 1.33802 1162.55 -243.271 1259.34L-242.912 1260.24C1.84701 1163.4 161.478 1022.62 236.25 884.968C254.854 850.718 268.206 816.656 276.307 783.51C277.996 786.154 279.626 788.827 281.197 791.528C273.615 828.637 259.325 867.055 238.314 905.736C163.678 1043.14 4.2578 1183.78 -240.351 1280.57L-239.993 1281.48C4.76679 1184.63 164.398 1043.86 239.17 906.201C260.017 867.821 274.27 829.677 281.929 792.794C283.413 795.384 284.844 797.999 286.221 800.639C279.406 841.374 264.4 883.843 241.187 926.633C166.571 1064.17 7.16792 1204.95 -237.431 1301.8L-237.073 1302.71C7.67736 1205.79 167.29 1064.89 242.044 927.097C265.058 884.675 280.03 842.541 286.964 802.074C288.216 804.516 289.422 806.978 290.583 809.461C284.755 853.464 269.197 899.677 243.888 946.271C169.253 1083.67 9.83193 1224.32 -234.777 1321.11L-234.418 1322.01C10.3409 1225.16 169.972 1084.39 244.744 946.736C269.81 900.589 285.342 854.784 291.342 811.101C292.552 813.743 293.711 816.408 294.819 819.094C290.345 866.542 274.351 916.796 246.808 967.504C172.172 1104.91 12.7517 1245.55 -231.857 1342.34L-231.499 1343.24C13.2607 1246.4 172.892 1105.62 247.664 967.969C274.902 917.824 290.881 868.083 295.607 821.031C296.533 823.336 297.421 825.656 298.272 827.992C295.286 878.467 279.028 932.376 249.462 986.806C174.827 1124.21 15.4061 1264.85 -229.203 1361.64L-228.844 1362.55C15.915 1265.7 175.546 1124.93 250.318 987.271C279.499 933.55 295.758 880.291 299.101 830.305C299.99 832.83 300.837 835.373 301.64 837.933C300.568 891.62 284.164 949.528 252.382 1008.04C177.747 1145.44 18.3258 1286.09 -226.283 1382.87L-225.925 1383.78C18.8348 1286.93 178.466 1146.16 253.238 1008.5C284.505 950.941 300.937 893.91 302.539 840.867C303.225 843.158 303.877 845.462 304.494 847.78C305.578 904.54 289.183 966.395 255.255 1028.94C180.639 1166.48 21.2359 1307.25 -223.363 1404.11L-223.005 1405.01C21.7454 1308.1 181.358 1167.19 256.112 1029.4C289.311 968.203 305.776 907.603 305.514 851.748C305.975 853.606 306.415 855.473 306.832 857.348C310.221 916.813 293.951 982.307 257.956 1048.57C183.321 1185.98 23.9 1326.62 -220.709 1423.41L-220.35 1424.31C24.4089 1327.47 184.04 1186.69 258.812 1049.04C293.668 984.869 310.088 921.36 308.079 863.301C308.369 864.777 308.646 866.259 308.91 867.745C315.056 930.042 299.071 999.489 260.876 1069.81C186.24 1207.21 26.8197 1347.85 -217.789 1444.64L-217.431 1445.55C27.3287 1348.7 186.96 1207.93 261.732 1070.27C297.408 1004.59 313.77 939.605 310.827 880.446C318.817 944.419 303.08 1016.3 263.53 1089.11C188.895 1226.51 29.4741 1367.16 -215.135 1463.94L-214.776 1464.85C29.9831 1368 189.614 1227.23 264.386 1089.57C306.652 1011.76 321.809 934.926 309.875 867.597C309.199 860.758 308.257 854.004 307.05 847.343C306.391 840.402 305.458 833.549 304.252 826.791C303.583 819.945 302.648 813.185 301.448 806.518C300.768 799.443 299.804 792.459 298.556 785.575C297.905 778.727 296.989 771.964 295.807 765.294C295.131 758.455 294.189 751.701 292.982 745.04C292.323 738.099 291.39 731.245 290.184 724.488C289.515 717.642 288.58 710.882 287.38 704.215C286.7 697.14 285.736 690.156 284.488 683.272C283.837 676.424 282.921 669.661 281.739 662.991C275.848 603.37 249.756 550.24 203.472 509.097C186.234 493.773 171.46 477.295 159.175 459.912C163.904 445.964 169.81 432.035 176.901 418.201C234.468 305.891 370.145 199.83 588.13 141.151C762.745 94.1467 868.076 -18.6717 928.792 -140.577C989.501 -262.469 1005.61 -393.46 1001.81 -476.886L1000.84 -476.841C1004.64 -393.553 988.544 -262.732 927.92 -141.012C867.302 -19.3043 762.171 93.2922 587.877 140.21C369.728 198.933 233.768 305.121 176.034 417.757C169.035 431.41 163.187 445.158 158.481 458.926C156.663 456.329 154.901 453.711 153.194 451.075C158.37 433.633 165.383 416.191 174.247 398.898C231.814 286.588 367.49 180.528 585.476 121.848C760.09 74.8443 865.421 -37.9741 926.137 -159.88C986.847 -281.772 1002.96 -412.762 999.154 -496.188L998.181 -496.144C1001.98 -412.856 985.889 -282.035 925.265 -160.314C864.648 -38.6068 759.517 73.9897 585.223 120.908C367.073 179.631 231.113 285.819 173.38 398.454C164.624 415.536 157.669 432.764 152.499 449.996C150.648 447.107 148.864 444.195 147.146 441.261C152.478 420.021 160.529 398.733 171.327 377.666C228.894 265.355 364.57 159.295 582.556 100.616C757.17 53.6116 862.501 -59.2068 923.218 -181.113C983.927 -303.005 1000.04 -433.995 996.235 -517.421L995.261 -517.376C999.061 -434.088 982.97 -303.268 922.345 -181.547C861.728 -59.8395 756.597 52.757 582.303 99.675C364.154 158.398 228.193 264.586 170.46 377.221C159.791 398.035 151.795 419.067 146.446 440.057C144.863 437.319 143.338 434.562 141.87 431.787C147.022 406.937 155.893 381.958 168.524 357.283C226.076 244.859 361.739 138.703 579.72 79.993C754.331 32.9639 859.648 -79.9616 920.347 -201.991C981.039 -324.006 997.133 -455.136 993.315 -538.653L992.342 -538.609C996.154 -455.23 980.082 -324.269 919.474 -202.424C858.874 -80.5938 753.758 32.1095 579.467 79.0524C361.322 137.807 225.375 244.09 167.657 356.839C155.181 381.21 146.362 405.879 141.159 430.433C139.749 427.727 138.393 425.004 137.093 422.265C141.768 393.922 151.3 365.328 165.753 337.131C223.32 224.82 358.996 118.76 576.982 60.0805C751.596 13.0764 856.927 -99.742 917.644 -221.648C978.353 -343.54 994.467 -474.53 990.661 -557.956L989.687 -557.911C993.487 -474.624 977.395 -343.803 916.771 -222.082C856.154 -100.375 751.023 12.2219 576.729 59.1398C358.579 117.863 222.619 224.051 164.886 336.686C150.622 364.513 141.136 392.731 136.365 420.718C135.046 417.89 133.785 415.044 132.582 412.183C136.43 380.205 146.482 347.797 162.833 315.898C220.4 203.587 356.077 97.527 574.062 38.8478C748.676 -8.15631 854.008 -120.975 914.724 -242.88C975.433 -364.773 991.547 -495.763 987.741 -579.189L986.767 -579.144C990.567 -495.856 974.476 -365.036 913.852 -243.315C853.234 -121.607 748.103 -9.01085 573.809 37.9071C355.66 96.6304 219.7 202.818 161.966 315.454C145.852 346.89 135.835 378.825 131.826 410.363C130.815 407.9 129.846 405.426 128.921 402.941C131.733 367.716 142.111 331.845 160.179 296.595C217.746 184.285 353.422 78.2245 571.408 19.5453C746.022 -27.4588 851.353 -140.277 912.069 -262.183C972.779 -384.075 988.892 -515.065 985.086 -598.491L984.113 -598.447C987.913 -515.159 971.821 -384.338 911.197 -262.617C850.58 -140.91 745.449 -28.3133 571.155 18.6046C353.005 77.3279 217.045 183.516 159.312 296.151C141.542 330.819 131.186 366.094 128.126 400.773C127.157 398.091 126.238 395.397 125.369 392.691C126.736 353.961 137.309 314.284 157.259 275.363C214.826 163.052 350.502 56.9918 568.488 -1.68741C743.102 -48.6915 848.433 -161.51 909.15 -283.416C969.859 -405.308 985.973 -536.298 982.167 -619.724L981.193 -619.679C984.993 -536.391 968.902 -405.571 908.277 -283.85C847.66 -162.143 742.529 -49.546 568.235 -2.6281C350.086 56.0952 214.125 162.283 156.392 274.918C136.841 313.061 126.265 351.937 124.506 389.947C123.779 387.586 123.09 385.215 122.438 382.837C122.124 340.789 132.724 297.434 154.456 254.98C212.008 142.556 347.671 36.4004 565.652 -22.31C740.263 -69.3392 845.58 -182.265 906.279 -304.294C966.971 -426.309 983.065 -557.439 979.247 -640.956L978.273 -640.912ZM158.093 460.07C156.285 457.501 154.531 454.913 152.831 452.306C151.941 455.357 151.106 458.409 150.328 461.46C151.883 464.09 153.491 466.704 155.153 469.299C156.076 466.222 157.056 463.145 158.093 460.07ZM154.787 470.531C153.136 467.971 151.537 465.394 149.99 462.799C149.157 466.132 148.392 469.463 147.693 472.793C149.084 475.409 150.527 478.009 152.02 480.593C152.875 477.239 153.797 473.885 154.787 470.531ZM152.72 481.796C153.573 478.401 154.494 475.005 155.486 471.608C168.828 492.071 185.505 511.372 205.479 529.128C246.508 565.599 271.622 611.552 280.774 663.139C280.933 664.747 281.076 666.359 281.205 667.975C269.964 622.775 245.91 582.401 209.047 549.632C185.75 528.923 166.954 506.106 152.72 481.796ZM151.679 481.946C150.198 479.407 148.767 476.853 147.385 474.283C146.752 477.389 146.176 480.493 145.659 483.594C146.895 486.187 148.18 488.765 149.514 491.328C150.177 488.202 150.898 485.074 151.679 481.946ZM150.225 492.684C150.884 489.507 151.604 486.328 152.385 483.148C166.607 507.223 185.299 529.826 208.399 550.36C246.65 584.363 271.069 626.607 281.616 673.975C281.742 676.187 281.841 678.407 281.912 680.635C269.903 638.61 246.553 601.005 211.866 570.137C185.547 546.715 164.97 520.602 150.225 492.684ZM149.2 492.83C147.881 490.326 146.61 487.807 145.385 485.274C144.91 488.244 144.488 491.211 144.12 494.174C145.204 496.725 146.335 499.264 147.513 501.789C148.022 498.805 148.584 495.818 149.2 492.83ZM148.241 503.336C148.744 500.288 149.303 497.237 149.918 494.184C164.676 521.809 185.138 547.656 211.219 570.865C246.774 602.506 270.382 641.272 282.012 684.657C282.055 687.106 282.065 689.564 282.042 692.032C269.418 653.479 246.943 618.9 214.621 590.167C185.347 564.145 163.18 534.795 148.241 503.336ZM147.23 503.479C146.072 501.033 144.958 498.574 143.887 496.103C143.531 499.154 143.232 502.201 142.989 505.244C143.914 507.729 144.883 510.203 145.894 512.666C146.283 509.607 146.728 506.544 147.23 503.479ZM146.65 514.486C147.029 511.336 147.469 508.182 147.968 505.024C162.952 536.118 184.993 565.134 213.973 590.895C246.916 620.179 269.599 655.577 281.998 695.095C281.939 698.028 281.835 700.975 281.685 703.933C268.615 669.123 247.233 637.794 217.54 611.4C185.161 582.617 161.476 549.763 146.65 514.486ZM145.652 514.627C144.668 512.277 143.722 509.917 142.816 507.546C142.635 510.112 142.494 512.674 142.393 515.232C143.173 517.624 143.991 520.006 144.848 522.379C145.076 519.798 145.344 517.214 145.652 514.627ZM145.643 524.547C145.859 521.849 146.118 519.148 146.423 516.444C161.342 551.251 184.885 583.675 216.893 612.128C247.049 638.935 268.607 670.864 281.55 706.387C281.386 709.15 281.183 711.922 280.94 714.705C267.69 683.298 247.441 654.923 220.195 630.703C185.004 599.421 160.083 563.329 145.643 524.547ZM144.655 524.685C143.836 522.479 143.051 520.264 142.299 518.041C142.224 520.745 142.193 523.443 142.207 526.137C142.821 528.36 143.468 530.577 144.148 532.785C144.273 530.09 144.442 527.389 144.655 524.685ZM145.011 535.529C145.113 532.641 145.266 529.747 145.47 526.848C160.068 565.031 184.827 600.567 219.547 631.431C247.163 655.979 267.569 684.824 280.751 716.791C280.444 720.045 280.083 723.313 279.668 726.592C266.483 698.888 247.632 673.729 223.115 651.935C184.842 617.914 158.717 578.204 145.011 535.529ZM144.031 535.666C143.414 533.741 142.823 531.81 142.256 529.873C142.302 532.088 142.379 534.299 142.485 536.505C142.929 538.441 143.398 540.372 143.891 542.298C143.908 540.091 143.955 537.88 144.031 535.666ZM144.865 545.978C144.846 543.457 144.866 540.932 144.926 538.403C158.898 580.259 184.83 619.207 222.467 652.663C247.281 674.721 266.274 700.247 279.435 728.39C279.003 731.648 278.518 734.918 277.98 738.2C265.129 713.993 247.78 691.88 225.934 672.44C184.709 635.754 157.573 592.463 144.865 545.978ZM143.892 546.113C143.521 544.754 143.163 543.393 142.817 542.029C142.929 543.594 143.057 545.158 143.2 546.719C143.446 548.056 143.704 549.39 143.973 550.723C143.931 549.188 143.905 547.651 143.892 546.113ZM145.162 556.259C145.054 554.103 144.974 551.943 144.924 549.779C158.072 595.096 184.964 637.285 225.287 673.168C247.377 692.826 264.856 715.235 277.715 739.792C277.167 743.036 276.566 746.29 275.914 749.554C263.657 728.721 247.915 709.561 228.689 692.471C184.555 653.239 156.574 606.442 145.162 556.259ZM145.945 566.994C145.783 565.298 145.639 563.599 145.513 561.898C157.708 610.219 185.342 655.242 228.041 693.199C247.474 710.473 263.336 729.874 275.623 750.993C274.892 754.573 274.098 758.165 273.241 761.769C261.905 744.402 248.027 728.298 231.608 713.703C184.411 671.748 155.687 621.141 145.945 566.994ZM147.363 578.714C155.708 635.715 184.869 689.098 234.263 733.006C248.109 745.314 260.148 758.695 270.379 773.001C271.281 769.685 272.13 766.377 272.927 763.079C261.544 745.482 247.554 729.181 230.961 714.431C186.964 675.321 158.961 628.707 147.363 578.714ZM271.107 774.025C272.751 776.35 274.347 778.699 275.896 781.071C276.665 777.834 277.384 774.605 278.053 771.387C276.633 768.971 275.167 766.578 273.653 764.208C272.855 767.471 272.007 770.744 271.107 774.025ZM276.626 782.197C278.303 784.8 279.924 787.431 281.488 790.089C282.116 786.946 282.696 783.813 283.228 780.689C281.803 777.979 280.321 775.296 278.783 772.639C278.113 775.816 277.394 779.002 276.626 782.197ZM282.225 791.351C283.696 793.89 285.116 796.452 286.485 799.039C286.978 795.997 287.426 792.965 287.828 789.943C286.593 787.309 285.307 784.698 283.969 782.11C283.434 785.181 282.853 788.262 282.225 791.351ZM287.235 800.468C288.472 802.847 289.665 805.245 290.816 807.663C291.187 804.735 291.514 801.817 291.798 798.909C290.771 796.447 289.701 794.003 288.587 791.579C288.18 794.532 287.729 797.496 287.235 800.468ZM291.585 809.296C292.774 811.846 293.915 814.417 295.008 817.008C295.251 814.226 295.454 811.453 295.618 808.69C294.654 806.045 293.643 803.419 292.583 800.815C292.291 803.632 291.958 806.46 291.585 809.296ZM295.81 818.934C296.709 821.121 297.575 823.323 298.407 825.539C298.54 822.923 298.637 820.317 298.698 817.72C297.981 815.467 297.23 813.228 296.446 811.003C296.27 813.637 296.058 816.281 295.81 818.934ZM299.256 827.836C300.102 830.165 300.912 832.51 301.685 834.87C301.706 832.506 301.698 830.151 301.659 827.804C301.007 825.383 300.317 822.977 299.589 820.585C299.509 822.994 299.397 825.411 299.256 827.836ZM302.616 837.779C303.231 839.745 303.821 841.721 304.386 843.707C304.319 841.726 304.23 839.752 304.119 837.785C303.662 835.74 303.178 833.704 302.669 831.678C302.673 833.706 302.656 835.74 302.616 837.779ZM305.465 847.628C305.793 848.865 306.112 850.105 306.422 851.349C306.319 850.06 306.207 848.774 306.085 847.491C305.853 846.211 305.61 844.935 305.359 843.662C305.403 844.981 305.439 846.303 305.465 847.628ZM155.848 470.377C156.77 467.27 157.751 464.162 158.79 461.055C171.035 478.284 185.722 494.621 202.825 509.825C245.676 547.917 271.168 596.353 279.245 650.747C268.45 603.925 244.075 562.133 206.127 528.4C185.992 510.501 169.219 491.028 155.848 470.377ZM278.346 769.961C276.933 767.584 275.475 765.228 273.971 762.894C274.826 759.338 275.621 755.793 276.354 752.259C277.717 754.637 279.035 757.036 280.308 759.456C279.714 762.946 279.06 766.448 278.346 769.961ZM283.494 779.102C282.077 776.446 280.607 773.815 279.082 771.21C279.795 767.754 280.451 764.31 281.049 760.878C282.423 763.536 283.743 766.219 285.009 768.926C284.561 772.305 284.056 775.698 283.494 779.102ZM288.061 788.15C286.837 785.584 285.564 783.04 284.242 780.518C284.806 777.189 285.314 773.872 285.768 770.566C286.944 773.134 288.072 775.724 289.152 778.335C288.843 781.594 288.479 784.866 288.061 788.15ZM291.992 796.854C290.978 794.477 289.924 792.119 288.83 789.778C289.251 786.595 289.62 783.423 289.94 780.264C290.899 782.645 291.818 785.043 292.698 787.457C292.513 790.576 292.278 793.709 291.992 796.854ZM295.753 806.237C294.809 803.722 293.821 801.226 292.791 798.749C293.082 795.745 293.327 792.751 293.527 789.77C294.416 792.295 295.263 794.838 296.066 797.398C296.007 800.332 295.903 803.278 295.753 806.237ZM298.753 814.726C298.064 812.65 297.347 810.586 296.601 808.533C296.762 805.789 296.883 803.056 296.965 800.332C297.585 802.401 298.176 804.481 298.74 806.572C298.784 809.278 298.788 811.997 298.753 814.726ZM301.566 823.823C300.964 821.726 300.333 819.641 299.675 817.567C299.729 815.185 299.754 812.811 299.749 810.446C300.28 812.558 300.783 814.68 301.258 816.813C301.391 819.14 301.493 821.477 301.566 823.823ZM303.721 831.86C303.37 830.453 303.006 829.051 302.63 827.653C302.603 826.02 302.561 824.391 302.505 822.766C302.778 824.153 303.039 825.544 303.288 826.939C303.447 828.575 303.592 830.215 303.721 831.86ZM141.252 528.158C141.244 527.53 141.238 526.901 141.234 526.273C140.784 524.64 140.353 523.003 139.939 521.363C140.053 522.912 140.183 524.46 140.328 526.005C140.637 527.703 140.964 529.396 141.31 531.087C141.285 530.111 141.266 529.135 141.252 528.158ZM141.241 522.523C141.263 520.142 141.321 517.757 141.413 515.369C140.687 513.134 139.995 510.892 139.336 508.641C139.386 511.006 139.469 513.367 139.588 515.724C140.105 517.997 140.656 520.264 141.241 522.523ZM141.538 512.553C141.658 510.166 141.812 507.776 142.001 505.383C141.075 502.889 140.192 500.383 139.352 497.868C139.297 500.217 139.275 502.563 139.288 504.904C139.994 507.464 140.744 510.014 141.538 512.553ZM142.194 503.076C142.451 500.16 142.76 497.239 143.121 494.315C141.996 491.661 140.921 488.994 139.896 486.313C139.692 489.212 139.538 492.106 139.437 494.994C140.306 497.7 141.225 500.394 142.194 503.076ZM143.366 492.382C143.744 489.504 144.171 486.622 144.648 483.737C143.344 480.992 142.095 478.232 140.9 475.456C140.573 478.311 140.297 481.163 140.069 484.011C141.114 486.816 142.213 489.607 143.366 492.382ZM144.932 482.055C145.455 479.019 146.034 475.98 146.667 472.939C145.184 470.14 143.76 467.323 142.394 464.489C141.918 467.499 141.496 470.506 141.13 473.51C142.339 476.375 143.607 479.223 144.932 482.055ZM146.983 471.447C147.686 468.169 148.453 464.89 149.285 461.609C147.616 458.776 146.01 455.923 144.465 453.05C143.802 456.303 143.202 459.553 142.667 462.801C144.044 465.701 145.483 468.583 146.983 471.447ZM149.628 460.269C150.408 457.256 151.243 454.242 152.132 451.228C150.294 448.378 148.52 445.506 146.811 442.613C146.078 445.596 145.399 448.579 144.773 451.56C146.328 454.483 147.946 457.386 149.628 460.269ZM146.105 441.41C144.535 438.72 143.022 436.012 141.564 433.287C140.977 436.197 140.442 439.106 139.958 442.011C141.271 444.762 142.64 447.497 144.063 450.214C144.692 447.281 145.372 444.346 146.105 441.41ZM143.748 451.706C142.34 449.05 140.986 446.378 139.684 443.69C139.178 446.854 138.733 450.015 138.347 453.172C139.492 455.88 140.689 458.574 141.939 461.253C142.481 458.074 143.084 454.891 143.748 451.706ZM141.656 462.944C140.428 460.349 139.248 457.739 138.118 455.116C137.787 458.014 137.506 460.909 137.277 463.799C138.261 466.446 139.294 469.08 140.375 471.701C140.751 468.785 141.178 465.866 141.656 462.944ZM140.131 473.65C139.078 471.147 138.069 468.632 137.105 466.106C136.915 468.819 136.769 471.528 136.669 474.233C137.493 476.781 138.361 479.318 139.274 481.844C139.515 479.116 139.8 476.385 140.131 473.65ZM139.081 484.15C138.209 481.801 137.375 479.443 136.58 477.075C136.511 479.768 136.486 482.457 136.506 485.14C137.158 487.518 137.847 489.889 138.574 492.25C138.698 489.554 138.868 486.854 139.081 484.15ZM138.457 495.132C137.797 493.073 137.166 491.007 136.564 488.935C136.611 490.953 136.683 492.969 136.78 494.981C137.265 497.09 137.778 499.193 138.321 501.29C138.341 499.24 138.386 497.187 138.457 495.132ZM138.314 505.04C137.897 503.527 137.496 502.01 137.11 500.49C137.235 502.238 137.379 503.983 137.542 505.726C137.813 507.216 138.099 508.703 138.399 510.187C138.353 508.474 138.324 506.758 138.314 505.04ZM276.651 750.816C278.002 753.147 279.31 755.498 280.574 757.87C281.097 754.704 281.57 751.548 281.994 748.404C280.858 745.99 279.679 743.596 278.456 741.221C277.905 744.409 277.303 747.608 276.651 750.816ZM281.323 759.286C282.68 761.876 283.987 764.49 285.242 767.128C285.627 764.085 285.965 761.054 286.257 758.034C285.14 755.344 283.972 752.676 282.752 750.031C282.323 753.105 281.846 756.191 281.323 759.286ZM286.011 768.76C287.166 771.239 288.277 773.738 289.342 776.256C289.597 773.357 289.809 770.469 289.978 767.592C289.045 765.026 288.066 762.478 287.043 759.95C286.743 762.877 286.399 765.814 286.011 768.76ZM290.144 778.174C291.076 780.435 291.972 782.712 292.833 785.004C292.971 782.28 293.071 779.567 293.131 776.865C292.392 774.532 291.618 772.213 290.807 769.909C290.625 772.655 290.404 775.41 290.144 778.174ZM293.681 787.301C294.528 789.63 295.338 791.975 296.11 794.335C296.133 791.867 296.123 789.409 296.08 786.96C295.432 784.543 294.747 782.141 294.025 779.753C293.944 782.26 293.829 784.776 293.681 787.301ZM297.042 797.244C297.597 799.018 298.132 800.8 298.646 802.59C298.581 800.477 298.491 798.371 298.377 796.273C297.969 794.466 297.542 792.666 297.094 790.874C297.101 792.991 297.083 795.114 297.042 797.244ZM299.711 806.421C300.103 807.88 300.482 809.344 300.848 810.813C300.737 809.427 300.615 808.045 300.483 806.666C300.204 805.116 299.91 803.572 299.602 802.033C299.65 803.492 299.686 804.955 299.711 806.421ZM282.229 746.62C281.103 744.269 279.937 741.936 278.729 739.622C279.268 736.414 279.756 733.217 280.194 730.031C281.271 732.383 282.308 734.754 283.304 737.141C282.997 740.289 282.638 743.449 282.229 746.62ZM286.45 755.968C285.347 753.37 284.196 750.794 282.997 748.239C283.408 745.164 283.773 742.1 284.089 739.047C285.149 741.652 286.16 744.277 287.124 746.922C286.946 749.925 286.722 752.941 286.45 755.968ZM290.113 765.134C289.199 762.696 288.244 760.276 287.249 757.873C287.526 754.983 287.761 752.104 287.953 749.235C288.814 751.68 289.635 754.142 290.416 756.62C290.357 759.446 290.256 762.284 290.113 765.134ZM293.183 773.848C292.473 771.698 291.733 769.56 290.961 767.435C291.115 764.793 291.232 762.16 291.313 759.537C291.961 761.692 292.578 763.858 293.165 766.037C293.208 768.63 293.214 771.234 293.183 773.848ZM295.98 782.939C295.384 780.852 294.76 778.776 294.108 776.712C294.157 774.437 294.18 772.17 294.175 769.911C294.706 772.023 295.209 774.145 295.684 776.278C295.81 778.49 295.909 780.71 295.98 782.939ZM297.811 789.725C297.766 789.545 297.72 789.366 297.674 789.186C297.47 788.392 297.263 787.6 297.051 786.809C297.024 785.279 296.984 783.753 296.931 782.23C297.159 783.392 297.379 784.556 297.591 785.723C297.74 787.297 297.875 788.875 297.996 790.458C297.935 790.214 297.874 789.969 297.811 789.725ZM135.606 489.576C135.569 488.144 135.545 486.711 135.533 485.276C135.129 483.797 134.739 482.314 134.364 480.828C134.405 481.382 134.448 481.935 134.493 482.489C134.56 483.31 134.631 484.131 134.706 484.951C134.99 486.496 135.29 488.037 135.606 489.576ZM135.532 481.466C135.55 479.105 135.603 476.739 135.689 474.37C135.017 472.289 134.375 470.201 133.762 468.105C133.811 470.471 133.895 472.832 134.014 475.188C134.491 477.287 134.997 479.38 135.532 481.466ZM135.809 471.521C135.93 468.997 136.09 466.469 136.289 463.938C135.418 461.587 134.584 459.227 133.789 456.858C133.725 459.366 133.7 461.87 133.714 464.369C134.374 466.762 135.072 469.146 135.809 471.521ZM136.481 461.627C136.724 458.859 137.013 456.087 137.349 453.313C136.296 450.813 135.287 448.301 134.322 445.778C134.128 448.527 133.98 451.272 133.879 454.013C134.702 456.561 135.569 459.1 136.481 461.627ZM137.592 451.365C137.987 448.298 138.439 445.228 138.947 442.155C137.714 439.562 136.529 436.956 135.393 434.335C135.037 437.386 134.738 440.434 134.495 443.476C135.479 446.118 136.511 448.748 137.592 451.365ZM139.231 440.474C139.72 437.629 140.258 434.782 140.845 431.934C139.451 429.29 138.109 426.629 136.82 423.954C136.374 426.774 135.976 429.592 135.626 432.406C136.775 435.11 137.977 437.799 139.231 440.474ZM136.082 422.409C134.785 419.668 133.542 416.912 132.355 414.141C132.05 416.845 131.791 419.546 131.575 422.243C132.62 425.048 133.719 427.839 134.873 430.615C135.231 427.882 135.634 425.147 136.082 422.409ZM134.627 432.547C133.502 429.893 132.427 427.226 131.402 424.545C131.198 427.444 131.045 430.338 130.943 433.226C131.812 435.932 132.731 438.627 133.7 441.308C133.957 438.392 134.266 435.471 134.627 432.547ZM133.507 443.615C132.581 441.121 131.698 438.615 130.858 436.099C130.798 438.629 130.778 441.154 130.797 443.675C131.494 446.225 132.235 448.766 133.019 451.297C133.142 448.74 133.304 446.179 133.507 443.615ZM132.899 454.149C132.184 451.933 131.503 449.708 130.856 447.476C130.906 449.639 130.986 451.8 131.094 453.956C131.611 456.229 132.162 458.496 132.747 460.755C132.768 458.556 132.818 456.354 132.899 454.149ZM132.74 464.505C132.29 462.872 131.859 461.236 131.445 459.595C131.571 461.296 131.715 462.995 131.877 464.691C132.175 466.348 132.491 468.002 132.825 469.652C132.778 467.939 132.75 466.223 132.74 464.505ZM280.437 728.225C281.495 730.496 282.516 732.782 283.498 735.086C283.784 731.941 284.02 728.809 284.204 725.689C283.353 723.353 282.465 721.032 281.539 718.728C281.222 721.882 280.855 725.048 280.437 728.225ZM284.297 736.981C285.328 739.458 286.315 741.954 287.259 744.469C287.409 741.51 287.513 738.564 287.572 735.63C286.769 733.07 285.922 730.527 285.033 728.002C284.833 730.983 284.588 733.977 284.297 736.981ZM288.107 746.765C288.927 749.021 289.712 751.291 290.462 753.575C290.489 750.864 290.477 748.165 290.426 745.476C289.809 743.159 289.157 740.855 288.471 738.564C288.389 741.288 288.268 744.021 288.107 746.765ZM291.392 756.466C291.974 758.32 292.534 760.183 293.072 762.055C292.999 759.71 292.897 757.373 292.764 755.045C292.347 753.17 291.907 751.303 291.446 749.445C291.457 751.777 291.439 754.118 291.392 756.466ZM294.137 765.885C294.529 767.345 294.908 768.809 295.273 770.278C295.144 768.662 295.001 767.05 294.842 765.442C294.578 763.956 294.301 762.475 294.011 760.998C294.067 762.623 294.109 764.252 294.137 765.885ZM284.339 723.236C283.507 721.02 282.641 718.818 281.742 716.631C281.99 713.978 282.202 711.334 282.378 708.699C283.162 710.925 283.913 713.164 284.63 715.417C284.569 718.014 284.472 720.62 284.339 723.236ZM287.616 732.567C286.844 730.207 286.034 727.862 285.188 725.533C285.329 723.108 285.441 720.691 285.521 718.282C286.249 720.674 286.939 723.08 287.591 725.501C287.63 727.848 287.638 730.203 287.616 732.567ZM290.318 741.404C289.753 739.418 289.163 737.442 288.548 735.476C288.588 733.437 288.605 731.403 288.601 729.375C289.11 731.401 289.594 733.437 290.051 735.482C290.162 737.449 290.251 739.423 290.318 741.404ZM292.354 749.046C292.044 747.802 291.725 746.562 291.397 745.325C291.371 744 291.335 742.678 291.291 741.359C291.34 741.609 291.389 741.859 291.438 742.109C291.508 742.467 291.576 742.826 291.645 743.184C291.771 743.851 291.895 744.519 292.017 745.188C292.139 746.471 292.251 747.757 292.354 749.046ZM129.905 448.419C129.863 446.885 129.836 445.348 129.824 443.81C129.453 442.451 129.095 441.09 128.749 439.726C128.861 441.291 128.989 442.855 129.132 444.416C129.378 445.753 129.636 447.087 129.905 448.419ZM129.823 439.995C129.84 437.788 129.886 435.577 129.963 433.364C129.346 431.438 128.755 429.507 128.188 427.57C128.234 429.785 128.311 431.996 128.417 434.202C128.861 436.138 129.33 438.069 129.823 439.995ZM130.08 430.482C130.204 427.787 130.374 425.086 130.587 422.382C129.768 420.176 128.983 417.961 128.231 415.738C128.156 418.442 128.125 421.14 128.139 423.834C128.753 426.057 129.4 428.274 130.08 430.482ZM130.78 420.076C131.008 417.495 131.276 414.911 131.584 412.324C130.6 409.974 129.654 407.614 128.748 405.243C128.567 407.809 128.426 410.371 128.325 412.929C129.105 415.321 129.923 417.703 130.78 420.076ZM127.933 403.08C127.007 400.586 126.124 398.08 125.284 395.564C125.229 397.914 125.207 400.26 125.22 402.601C125.926 405.161 126.676 407.711 127.47 410.25C127.59 407.863 127.744 405.473 127.933 403.08ZM127.345 413.066C126.619 410.831 125.927 408.588 125.268 406.337C125.318 408.703 125.401 411.064 125.52 413.421C126.037 415.694 126.588 417.96 127.173 420.219C127.195 417.839 127.253 415.454 127.345 413.066ZM127.166 423.97C126.716 422.337 126.284 420.7 125.87 419.06C125.985 420.609 126.115 422.157 126.26 423.702C126.569 425.399 126.896 427.093 127.242 428.784C127.201 427.181 127.175 425.576 127.166 423.97ZM282.533 706.23C283.279 708.283 283.996 710.347 284.685 712.423C284.72 709.694 284.716 706.975 284.672 704.269C284.108 702.178 283.517 700.098 282.897 698.029C282.815 700.752 282.694 703.486 282.533 706.23ZM285.607 715.264C286.265 717.338 286.896 719.423 287.498 721.52C287.425 719.174 287.323 716.837 287.19 714.51C286.715 712.377 286.212 710.255 285.681 708.143C285.686 710.508 285.661 712.882 285.607 715.264ZM288.562 725.35C288.938 726.748 289.302 728.15 289.653 729.557C289.524 727.912 289.379 726.272 289.22 724.636C288.97 723.241 288.71 721.85 288.437 720.463C288.473 721.51 288.504 722.559 288.528 723.611C288.541 724.19 288.553 724.77 288.562 725.35ZM284.578 700.287C284.064 698.497 283.529 696.715 282.974 694.941C283.015 692.811 283.032 690.688 283.026 688.571C283.474 690.363 283.901 692.163 284.309 693.97C284.423 696.068 284.513 698.174 284.578 700.287ZM286.78 708.51C286.414 707.041 286.035 705.577 285.643 704.117C285.618 702.652 285.582 701.189 285.534 699.73C285.842 701.269 286.136 702.813 286.415 704.363C286.547 705.742 286.669 707.124 286.78 708.51ZM124.331 407.884C124.285 406.171 124.256 404.455 124.246 402.737C123.829 401.223 123.428 399.707 123.042 398.186C123.167 399.935 123.311 401.68 123.474 403.423C123.745 404.913 124.031 406.4 124.331 407.884ZM124.253 398.987C124.273 396.937 124.318 394.884 124.389 392.828C123.729 390.77 123.098 388.704 122.496 386.631C122.543 388.65 122.615 390.666 122.712 392.678C123.197 394.787 123.71 396.89 124.253 398.987ZM121.465 382.973C121.061 381.493 120.671 380.011 120.296 378.525C120.398 379.901 120.512 381.275 120.638 382.648C120.922 384.193 121.222 385.734 121.538 387.273C121.501 385.841 121.477 384.408 121.465 382.973ZM282.983 684.506C283.307 685.718 283.623 686.935 283.928 688.155C283.807 686.572 283.672 684.994 283.523 683.42C283.479 683.18 283.435 682.94 283.391 682.7L283.317 682.298C283.283 682.116 283.248 681.933 283.214 681.751C283.099 681.142 282.982 680.534 282.863 679.927C282.916 681.45 282.956 682.976 282.983 684.506Z" fill="url(#paint1_radial_1174_702)"/>
</g>
<defs>
<radialGradient id="paint0_radial_1174_702" cx="0" cy="0" r="1" gradientUnits="userSpaceOnUse" gradientTransform="translate(1169.15 586.218) rotate(-110.471) scale(947.713 980.251)">
<stop stop-color="#25D5E8"/>
<stop offset="0.208333" stop-color="#82E397"/>
<stop offset="0.8125" stop-color="#FFBA00"/>
<stop offset="1" stop-color="#FBF432"/>
</radialGradient>
<radialGradient id="paint1_radial_1174_702" cx="0" cy="0" r="1" gradientUnits="userSpaceOnUse" gradientTransform="translate(-8.43366 -456.663) rotate(70.4757) scale(1995.76 5084.07)">
<stop stop-color="#FBF432"/>
<stop offset="0.138" stop-color="#FFBA00"/>
<stop offset="0.452" stop-color="#F7437B"/>
<stop offset="0.519" stop-color="#F6328D"/>
<stop offset="0.559" stop-color="#F332A2"/>
<stop offset="0.687" stop-color="#E732FB"/>
<stop offset="0.825" stop-color="#C93FFC"/>
<stop offset="1" stop-color="#437BFF"/>
</radialGradient>
</defs>
</svg>
