<svg width="560" height="344" fill="none" xmlns="http://www.w3.org/2000/svg"><g clip-path="url(#a)"><path d="M546-47.887h-680v392h680v-392Z" fill="url(#b)"/><path d="m-183.512-163 947.571 15.431L567.762 62.892 316.391 241.178-75.512 65.631l-108-228.631Z" fill="url(#c)"/><path d="m-183.512-163 947.571 15.431-839.57 213.2L-183.513-163Z" fill="url(#d)"/><g style="mix-blend-mode:overlay" opacity=".64" filter="url(#e)"><path d="M497.502 212.615c66.826-115.747 27.168-263.752-88.579-330.578-115.746-66.827-263.751-27.169-330.578 88.578l-56 96.995C-44.48 183.357-4.823 331.362 110.923 398.188c115.747 66.827 263.752 27.169 330.579-88.578l56-96.995Z" fill="#fff" style="mix-blend-mode:overlay" opacity=".64"/></g><g filter="url(#f)"><path opacity=".4" d="M463.083 187.329c47.496-82.266 19.31-187.46-62.957-234.956-82.266-47.497-187.46-19.31-234.956 62.956-47.497 82.267-19.31 187.46 62.956 234.957 82.267 47.496 187.46 19.31 234.957-62.957Z" fill="#fff"/></g><g filter="url(#g)"><path opacity=".24" d="M346.409 248.241c67.561-67.56 67.561-177.098 0-244.658-67.56-67.561-177.098-67.561-244.659 0-67.56 67.56-67.56 177.098 0 244.658 67.561 67.561 177.099 67.561 244.659 0Z" fill="#fff"/></g><g filter="url(#h)"><path opacity=".24" d="M510.409 270.441c67.561-67.56 67.561-177.098 0-244.659-67.56-67.56-177.098-67.56-244.659 0-67.56 67.561-67.56 177.099 0 244.659 67.561 67.561 177.099 67.561 244.659 0Z" fill="#fff"/></g><g filter="url(#i)"><path d="M413 159.113c0-72.902-59.099-132-132-132-72.902 0-132 59.098-132 132s59.098 132 132 132c72.901 0 132-59.098 132-132Z" fill="#fff"/></g><g filter="url(#j)"><path d="M381.34 158.933c0-55.229-44.772-100-100-100-55.229 0-100 44.771-100 100 0 55.228 44.771 100 100 100 55.228 0 100-44.772 100-100Z" fill="#fff"/></g><path d="m259.923 114.932 66 44-66 44v-88Z" fill="#E732FB"/><path d="M259.923 216.932v-6l78-52-78-52v-6l87 58-87 58Z" fill="#FFBA00"/><path d="M252 115.113h-12v88h12v-88Z" fill="#F6328D"/><path d="M252 101.113h-12v4h12v-4Z" fill="#437BFF"/><path d="M252 213.113h-12v4h12v-4Z" fill="#82E397"/></g><defs><filter id="e" x="-130.117" y="-270.426" width="780.081" height="821.076" filterUnits="userSpaceOnUse" color-interpolation-filters="sRGB"><feFlood flood-opacity="0" result="BackgroundImageFix"/><feBlend in="SourceGraphic" in2="BackgroundImageFix" result="shape"/><feGaussianBlur stdDeviation="60" result="effect1_foregroundBlur"/></filter><filter id="f" x="78.098" y="-158.699" width="472.058" height="472.057" filterUnits="userSpaceOnUse" color-interpolation-filters="sRGB"><feFlood flood-opacity="0" result="BackgroundImageFix"/><feColorMatrix in="SourceAlpha" values="0 0 0 0 0 0 0 0 0 0 0 0 0 0 0 0 0 0 127 0"/><feOffset dy="-24"/><feGaussianBlur stdDeviation="32"/><feColorMatrix values="0 0 0 0 0.145098 0 0 0 0 0.835294 0 0 0 0 0.909804 0 0 0 0.078 0"/><feBlend in2="BackgroundImageFix" result="effect1_dropShadow"/><feBlend in="SourceGraphic" in2="effect1_dropShadow" result="shape"/></filter><filter id="g" x="-12.92" y="-135.088" width="474" height="474" filterUnits="userSpaceOnUse" color-interpolation-filters="sRGB"><feFlood flood-opacity="0" result="BackgroundImageFix"/><feColorMatrix in="SourceAlpha" values="0 0 0 0 0 0 0 0 0 0 0 0 0 0 0 0 0 0 127 0"/><feOffset dy="-24"/><feGaussianBlur stdDeviation="32"/><feColorMatrix values="0 0 0 0 0.145098 0 0 0 0 0.835294 0 0 0 0 0.909804 0 0 0 0.078 0"/><feBlend in2="BackgroundImageFix" result="effect1_dropShadow"/><feBlend in="SourceGraphic" in2="effect1_dropShadow" result="shape"/></filter><filter id="h" x="151.08" y="-112.888" width="474" height="474" filterUnits="userSpaceOnUse" color-interpolation-filters="sRGB"><feFlood flood-opacity="0" result="BackgroundImageFix"/><feColorMatrix in="SourceAlpha" values="0 0 0 0 0 0 0 0 0 0 0 0 0 0 0 0 0 0 127 0"/><feOffset dy="-24"/><feGaussianBlur stdDeviation="32"/><feColorMatrix values="0 0 0 0 0.145098 0 0 0 0 0.835294 0 0 0 0 0.909804 0 0 0 0.078 0"/><feBlend in2="BackgroundImageFix" result="effect1_dropShadow"/><feBlend in="SourceGraphic" in2="effect1_dropShadow" result="shape"/></filter><filter id="i" x="85" y="-60.887" width="392" height="392" filterUnits="userSpaceOnUse" color-interpolation-filters="sRGB"><feFlood flood-opacity="0" result="BackgroundImageFix"/><feColorMatrix in="SourceAlpha" values="0 0 0 0 0 0 0 0 0 0 0 0 0 0 0 0 0 0 127 0"/><feOffset dy="-24"/><feGaussianBlur stdDeviation="32"/><feColorMatrix values="0 0 0 0 0.145098 0 0 0 0 0.835294 0 0 0 0 0.909804 0 0 0 0.161 0"/><feBlend in2="BackgroundImageFix" result="effect1_dropShadow"/><feBlend in="SourceGraphic" in2="effect1_dropShadow" result="shape"/></filter><filter id="j" x="117.34" y="-29.067" width="328" height="328" filterUnits="userSpaceOnUse" color-interpolation-filters="sRGB"><feFlood flood-opacity="0" result="BackgroundImageFix"/><feColorMatrix in="SourceAlpha" values="0 0 0 0 0 0 0 0 0 0 0 0 0 0 0 0 0 0 127 0"/><feOffset dy="-24"/><feGaussianBlur stdDeviation="32"/><feColorMatrix values="0 0 0 0 0.145098 0 0 0 0 0.835294 0 0 0 0 0.909804 0 0 0 0.161 0"/><feBlend in2="BackgroundImageFix" result="effect1_dropShadow"/><feBlend in="SourceGraphic" in2="effect1_dropShadow" result="shape"/></filter><linearGradient id="b" x1="206" y1="-47.887" x2="206" y2="344.113" gradientUnits="userSpaceOnUse"><stop stop-color="#F2F1F9"/><stop offset="1" stop-color="#fff"/></linearGradient><linearGradient id="c" x1="405.379" y1="-354.653" x2="103.168" y2="168.792" gradientUnits="userSpaceOnUse"><stop stop-color="#25D5E8"/><stop offset="1" stop-color="#00D3BD"/></linearGradient><linearGradient id="d" x1="232.63" y1="96.972" x2="-147.454" y2="-27.392" gradientUnits="userSpaceOnUse"><stop stop-color="#25D5E8"/><stop offset="1" stop-color="#437BFF"/></linearGradient><clipPath id="a"><path fill="#fff" d="M0 0h560v344H0z"/></clipPath></defs></svg>