<svg xmlns="http://www.w3.org/2000/svg" width="680" height="680" fill="none"><mask id="b" width="680" height="680" x="0" y="0" mask-type="alpha" maskUnits="userSpaceOnUse"><path fill="url(#a)" d="M0 0h680v680H0z"/></mask><g mask="url(#b)"><path fill="url(#c)" d="M0 0h680v680H0z"/><g opacity=".12"><path fill="url(#d)" d="M875.56 1097.09 244.968 25.51 1308.37-65.163l321.15 842.303-753.96 319.951Z" opacity=".08"/><path fill="url(#e)" d="M1025.95 1009.29 395.356-62.287l1063.404-90.674 321.15 842.302-753.96 319.949Z" opacity=".12"/><path fill="url(#f)" d="M885.21 1012.56 329.087 67.525l937.823-79.967 283.22 742.833-664.92 282.169Z"/><path fill="url(#g)" d="M329.086 67.525 1266.91-12.44l283.22 742.831L329.086 67.525Z"/></g><path fill="url(#h)" d="m13.558 635-422.285-415.333 368.14-172.835L321.04 314.815 13.558 635Z"/><path fill="url(#i)" d="m-408.727 219.668 398.14-152.836L321.04 314.816l-729.767-95.148Z"/><g filter="url(#j)" opacity=".24"><path fill="#00D3BD" d="M80.416 580.416c132.779-132.777 132.779-348.054 0-480.832-132.777-132.779-348.054-132.779-480.833 0-132.777 132.778-132.777 348.055 0 480.832 132.779 132.779 348.056 132.779 480.833 0Z"/></g><g filter="url(#k)"><path fill="#fff" fill-rule="evenodd" d="M356 149c77.319 0 140 62.681 140 140s-62.681 140-140 140-140-62.681-140-140 62.681-140 140-140Zm0 84c30.928 0 56 25.072 56 56s-25.072 56-56 56-56-25.072-56-56 25.072-56 56-56Z" clip-rule="evenodd"/></g><path fill="#fff" d="M387 322h105v93H387z"/><path fill="#fff" d="M388 311.246 462.246 237l65.761 65.76-74.246 74.247zM356 149h160v32c0 17.673-14.327 32-32 32H356v-64Z"/><path fill="#E732FB" fill-rule="evenodd" d="M356 189.133c55.228 0 100 44.772 100 100s-44.772 100-100 100-100-44.772-100-100 44.772-100 100-100ZM356 225c35.346 0 64 28.654 64 64 0 35.346-28.654 64-64 64-35.346 0-64-28.654-64-64 0-35.346 28.654-64 64-64Z" clip-rule="evenodd"/><g filter="url(#l)"><path fill="#fff" d="M340 389h32v142h-32z"/></g><g filter="url(#m)"><path fill="#fff" d="M295 415h122v116H295z"/></g><path fill="#FFBA00" d="M340 431h32v100h-32z"/><path fill="#E732FB" d="M323 389h66v142h-66zM256 289h97v100h-97zM359 289h97v100h-97zM352 189c0-11.046 8.954-20 20-20h84v20c0 11.046-8.954 20-20 20h-84v-20Z"/><path fill="#E732FB" d="m440.706 370.639-90.067-52L382 264.321c5.522-9.566 17.754-12.844 27.32-7.321l72.746 42-41.36 71.639Z"/><path fill="#FFBA00" d="M311 449h82c6.627 0 12 5.373 12 12v70h-94v-82Z"/><path fill="#fff" d="M420 289c0-35.346-28.654-64-64-64-35.346 0-64 28.654-64 64v64h64c35.346 0 64-28.654 64-64Z"/><path fill="#fff" d="M323 253h61c19.882 0 36 16.118 36 36v64h-97V253Z"/><path fill="#fff" d="M377 253h7c19.882 0 36 16.118 36 36v100h-43V253ZM335 353h42v178h-42z"/><g stroke="#fff" stroke-width="4" filter="url(#n)"><rect width="16" height="68" x="348" y="246" fill="#437BFF" rx="8"/><rect width="16" height="68" x="390" y="272" fill="#25D5E8" rx="8" transform="rotate(90 390 272)"/></g><path fill="#fff" d="m455.426 311-6 10.392-55.426-32L400 279z"/><g filter="url(#o)" opacity=".8" style="mix-blend-mode:screen"><path fill="#00D3BD" d="M437.416 517.416c132.779-132.777 132.779-348.054 0-480.832-132.777-132.779-348.054-132.779-480.833 0-132.777 132.778-132.777 348.055 0 480.832 132.779 132.779 348.056 132.779 480.833 0Z"/></g></g><defs><linearGradient id="c" x1="680" x2="0" y1="644" y2="644" gradientUnits="userSpaceOnUse"><stop stop-color="#fff"/><stop offset="1" stop-color="#F2F1F9"/></linearGradient><linearGradient id="i" x1="149.581" x2="28.977" y1="441.915" y2="73.474" gradientUnits="userSpaceOnUse"><stop stop-color="#25D5E8"/><stop offset="1" stop-color="#437BFF"/></linearGradient><linearGradient id="h" x1="-262.264" x2="209.219" y1="473.347" y2="201.136" gradientUnits="userSpaceOnUse"><stop stop-color="#25D5E8"/><stop offset="1" stop-color="#00D3BD"/></linearGradient><linearGradient id="g" x1="1220.96" x2="1181.84" y1="732.458" y2="15.826" gradientUnits="userSpaceOnUse"><stop stop-color="#25D5E8"/><stop offset="1" stop-color="#437BFF"/></linearGradient><linearGradient id="f" x1="469.441" x2="1442.98" y1="591.332" y2="330.474" gradientUnits="userSpaceOnUse"><stop stop-color="#25D5E8"/><stop offset="1" stop-color="#00D3BD"/></linearGradient><linearGradient id="e" x1="554.504" x2="1658.4" y1="531.661" y2="235.873" gradientUnits="userSpaceOnUse"><stop stop-color="#25D5E8"/><stop offset="1" stop-color="#00D3BD"/></linearGradient><linearGradient id="a" x1="680" x2="0" y1="644" y2="644" gradientUnits="userSpaceOnUse"><stop stop-color="#fff"/><stop offset="1" stop-color="#F2F1F9"/></linearGradient><linearGradient id="d" x1="404.116" x2="1508.01" y1="619.459" y2="323.671" gradientUnits="userSpaceOnUse"><stop stop-color="#25D5E8"/><stop offset="1" stop-color="#00D3BD"/></linearGradient><filter id="k" width="520" height="520" x="96" y="69" color-interpolation-filters="sRGB" filterUnits="userSpaceOnUse"><feFlood flood-opacity="0" result="BackgroundImageFix"/><feColorMatrix in="SourceAlpha" values="0 0 0 0 0 0 0 0 0 0 0 0 0 0 0 0 0 0 127 0"/><feOffset dy="40"/><feGaussianBlur stdDeviation="60"/><feColorMatrix values="0 0 0 0 0 0 0 0 0 0.827451 0 0 0 0 0.741176 0 0 0 0.4 0"/><feBlend in2="BackgroundImageFix" result="effect1_dropShadow"/><feBlend in="SourceGraphic" in2="effect1_dropShadow" result="shape"/></filter><filter id="o" width="1160" height="1160" x="-383" y="-303" color-interpolation-filters="sRGB" filterUnits="userSpaceOnUse"><feFlood flood-opacity="0" result="BackgroundImageFix"/><feBlend in="SourceGraphic" in2="BackgroundImageFix" result="shape"/><feGaussianBlur result="effect1_foregroundBlur" stdDeviation="120"/></filter><filter id="n" width="152" height="152" x="280" y="220" color-interpolation-filters="sRGB" filterUnits="userSpaceOnUse"><feFlood flood-opacity="0" result="BackgroundImageFix"/><feColorMatrix in="SourceAlpha" values="0 0 0 0 0 0 0 0 0 0 0 0 0 0 0 0 0 0 127 0"/><feOffset dy="16"/><feGaussianBlur stdDeviation="20"/><feColorMatrix values="0 0 0 0 0.145098 0 0 0 0 0.835294 0 0 0 0 0.909804 0 0 0 0.4 0"/><feBlend in2="BackgroundImageFix" result="effect1_dropShadow"/><feBlend in="SourceGraphic" in2="effect1_dropShadow" result="shape"/></filter><filter id="m" width="362" height="356" x="175" y="335" color-interpolation-filters="sRGB" filterUnits="userSpaceOnUse"><feFlood flood-opacity="0" result="BackgroundImageFix"/><feColorMatrix in="SourceAlpha" values="0 0 0 0 0 0 0 0 0 0 0 0 0 0 0 0 0 0 127 0"/><feOffset dy="40"/><feGaussianBlur stdDeviation="60"/><feColorMatrix values="0 0 0 0 0 0 0 0 0 0.827451 0 0 0 0 0.741176 0 0 0 0.4 0"/><feBlend in2="BackgroundImageFix" result="effect1_dropShadow"/><feBlend in="SourceGraphic" in2="effect1_dropShadow" result="shape"/></filter><filter id="l" width="272" height="382" x="220" y="277" color-interpolation-filters="sRGB" filterUnits="userSpaceOnUse"><feFlood flood-opacity="0" result="BackgroundImageFix"/><feColorMatrix in="SourceAlpha" values="0 0 0 0 0 0 0 0 0 0 0 0 0 0 0 0 0 0 127 0"/><feOffset dy="8"/><feGaussianBlur stdDeviation="60"/><feColorMatrix values="0 0 0 0 0 0 0 0 0 0.827451 0 0 0 0 0.741176 0 0 0 0.8 0"/><feBlend in2="BackgroundImageFix" result="effect1_dropShadow"/><feBlend in="SourceGraphic" in2="effect1_dropShadow" result="shape"/></filter><filter id="j" width="1160" height="1160" x="-740" y="-240" color-interpolation-filters="sRGB" filterUnits="userSpaceOnUse"><feFlood flood-opacity="0" result="BackgroundImageFix"/><feBlend in="SourceGraphic" in2="BackgroundImageFix" result="shape"/><feGaussianBlur result="effect1_foregroundBlur" stdDeviation="120"/></filter></defs></svg>