<svg width="1200" height="720" viewBox="0 0 1200 720" fill="none" xmlns="http://www.w3.org/2000/svg">
<mask id="mask0_1166_798" style="mask-type:alpha" maskUnits="userSpaceOnUse" x="0" y="0" width="1200" height="720">
<rect width="1200" height="720" transform="matrix(1 -8.74228e-08 -8.74228e-08 -1 0 720)" fill="#D9D9D9"/>
</mask>
<g mask="url(#mask0_1166_798)">
<rect width="1200" height="720" transform="matrix(1 -8.74228e-08 -8.74228e-08 -1 0 720)" fill="url(#paint0_linear_1166_798)"/>
<path opacity="0.04" d="M721 720L1200 720L1200 -0.000104907L-6.29444e-05 0C510.997 245.226 673.988 402.042 721 720Z" fill="url(#paint1_radial_1166_798)"/>
<path opacity="0.4" d="M1091 720L1200 720L1200 -7.25609e-05L370 0C696.139 102.161 868.98 199.642 1091 720Z" fill="white"/>
<path d="M-72 671C8.33334 663.667 174.5 605.7 196.5 432.5C224 216 364 144.5 457 224C550 303.5 717 208 777.5 -39.0001" stroke="url(#paint2_radial_1166_798)"/>
<path d="M-62 671C18.3333 663.667 184.5 605.7 206.5 432.5C234 216 374 144.5 467 224C560 303.5 727 208 787.5 -39.0001" stroke="url(#paint3_radial_1166_798)"/>
<path d="M-52 671C28.3333 663.667 194.5 605.7 216.5 432.5C244 216 384 144.5 477 224C570 303.5 737 208 797.5 -39.0001" stroke="url(#paint4_radial_1166_798)"/>
<path d="M-42 671C38.3333 663.667 204.5 605.7 226.5 432.5C254 216 394 144.5 487 224C580 303.5 747 208 807.5 -39.0001" stroke="url(#paint5_radial_1166_798)"/>
<path d="M-32 671C48.3333 663.667 214.5 605.7 236.5 432.5C264 216 404 144.5 497 224C590 303.5 757 208 817.5 -39.0001" stroke="url(#paint6_radial_1166_798)"/>
<path d="M-22 671C58.3333 663.667 224.5 605.7 246.5 432.5C274 216 414 144.5 507 224C600 303.5 767 208 827.5 -39.0001" stroke="url(#paint7_radial_1166_798)"/>
<path d="M-12 671C68.3333 663.667 234.5 605.7 256.5 432.5C284 216 424 144.5 517 224C610 303.5 777 208 837.5 -39.0001" stroke="url(#paint8_radial_1166_798)"/>
<path d="M-2 671C78.3333 663.667 244.5 605.7 266.5 432.5C294 216 434 144.5 527 224C620 303.5 787 208 847.5 -39.0001" stroke="url(#paint9_radial_1166_798)"/>
<path d="M8 671C88.3333 663.667 254.5 605.7 276.5 432.5C304 216 444 144.5 537 224C630 303.5 797 208 857.5 -39.0001" stroke="url(#paint10_radial_1166_798)"/>
<path d="M18 671C98.3333 663.667 264.5 605.7 286.5 432.5C314 216 454 144.5 547 224C640 303.5 807 208 867.5 -39.0001" stroke="url(#paint11_radial_1166_798)"/>
<path d="M28 671C108.333 663.667 274.5 605.7 296.5 432.5C324 216 464 144.5 557 224C650 303.5 817 208 877.5 -39.0001" stroke="url(#paint12_radial_1166_798)"/>
<path d="M38 671C118.333 663.667 284.5 605.7 306.5 432.5C334 216 474 144.5 567 224C660 303.5 827 208 887.5 -39.0001" stroke="url(#paint13_radial_1166_798)"/>
</g>
<defs>
<linearGradient id="paint0_linear_1166_798" x1="600" y1="0" x2="600" y2="720" gradientUnits="userSpaceOnUse">
<stop stop-color="#F4FEFF"/>
<stop offset="1" stop-color="#FFFDC7"/>
</linearGradient>
<radialGradient id="paint1_radial_1166_798" cx="0" cy="0" r="1" gradientUnits="userSpaceOnUse" gradientTransform="translate(65.632 228.451) rotate(9.51538) scale(1198.55 2507.96)">
<stop stop-color="#FBF432"/>
<stop offset="0.138" stop-color="#FFBA00"/>
<stop offset="0.452" stop-color="#F7437B"/>
<stop offset="0.519" stop-color="#F6328D"/>
<stop offset="0.559" stop-color="#F332A2"/>
<stop offset="0.687" stop-color="#E732FB"/>
<stop offset="0.825" stop-color="#C93FFC"/>
<stop offset="1" stop-color="#437BFF"/>
</radialGradient>
<radialGradient id="paint2_radial_1166_798" cx="0" cy="0" r="1" gradientUnits="userSpaceOnUse" gradientTransform="translate(755.658 539.076) rotate(-105.002) scale(906.428 715.465)">
<stop stop-color="#FBF432"/>
<stop offset="0.206" stop-color="#FFBA00"/>
<stop offset="0.719" stop-color="#82E397"/>
<stop offset="1" stop-color="#25D5E8"/>
</radialGradient>
<radialGradient id="paint3_radial_1166_798" cx="0" cy="0" r="1" gradientUnits="userSpaceOnUse" gradientTransform="translate(765.658 539.076) rotate(-105.002) scale(906.428 715.465)">
<stop stop-color="#FBF432"/>
<stop offset="0.206" stop-color="#FFBA00"/>
<stop offset="0.719" stop-color="#82E397"/>
<stop offset="1" stop-color="#25D5E8"/>
</radialGradient>
<radialGradient id="paint4_radial_1166_798" cx="0" cy="0" r="1" gradientUnits="userSpaceOnUse" gradientTransform="translate(775.658 539.076) rotate(-105.002) scale(906.428 715.465)">
<stop stop-color="#FBF432"/>
<stop offset="0.206" stop-color="#FFBA00"/>
<stop offset="0.719" stop-color="#82E397"/>
<stop offset="1" stop-color="#25D5E8"/>
</radialGradient>
<radialGradient id="paint5_radial_1166_798" cx="0" cy="0" r="1" gradientUnits="userSpaceOnUse" gradientTransform="translate(785.658 539.076) rotate(-105.002) scale(906.428 715.465)">
<stop stop-color="#FBF432"/>
<stop offset="0.206" stop-color="#FFBA00"/>
<stop offset="0.719" stop-color="#82E397"/>
<stop offset="1" stop-color="#25D5E8"/>
</radialGradient>
<radialGradient id="paint6_radial_1166_798" cx="0" cy="0" r="1" gradientUnits="userSpaceOnUse" gradientTransform="translate(795.658 539.076) rotate(-105.002) scale(906.428 715.465)">
<stop stop-color="#FBF432"/>
<stop offset="0.206" stop-color="#FFBA00"/>
<stop offset="0.719" stop-color="#82E397"/>
<stop offset="1" stop-color="#25D5E8"/>
</radialGradient>
<radialGradient id="paint7_radial_1166_798" cx="0" cy="0" r="1" gradientUnits="userSpaceOnUse" gradientTransform="translate(805.658 539.076) rotate(-105.002) scale(906.428 715.465)">
<stop stop-color="#FBF432"/>
<stop offset="0.206" stop-color="#FFBA00"/>
<stop offset="0.719" stop-color="#82E397"/>
<stop offset="1" stop-color="#25D5E8"/>
</radialGradient>
<radialGradient id="paint8_radial_1166_798" cx="0" cy="0" r="1" gradientUnits="userSpaceOnUse" gradientTransform="translate(815.658 539.076) rotate(-105.002) scale(906.428 715.465)">
<stop stop-color="#FBF432"/>
<stop offset="0.206" stop-color="#FFBA00"/>
<stop offset="0.719" stop-color="#82E397"/>
<stop offset="1" stop-color="#25D5E8"/>
</radialGradient>
<radialGradient id="paint9_radial_1166_798" cx="0" cy="0" r="1" gradientUnits="userSpaceOnUse" gradientTransform="translate(825.658 539.076) rotate(-105.002) scale(906.428 715.465)">
<stop stop-color="#FBF432"/>
<stop offset="0.206" stop-color="#FFBA00"/>
<stop offset="0.719" stop-color="#82E397"/>
<stop offset="1" stop-color="#25D5E8"/>
</radialGradient>
<radialGradient id="paint10_radial_1166_798" cx="0" cy="0" r="1" gradientUnits="userSpaceOnUse" gradientTransform="translate(835.658 539.076) rotate(-105.002) scale(906.428 715.465)">
<stop stop-color="#FBF432"/>
<stop offset="0.206" stop-color="#FFBA00"/>
<stop offset="0.719" stop-color="#82E397"/>
<stop offset="1" stop-color="#25D5E8"/>
</radialGradient>
<radialGradient id="paint11_radial_1166_798" cx="0" cy="0" r="1" gradientUnits="userSpaceOnUse" gradientTransform="translate(845.658 539.076) rotate(-105.002) scale(906.428 715.465)">
<stop stop-color="#FBF432"/>
<stop offset="0.206" stop-color="#FFBA00"/>
<stop offset="0.719" stop-color="#82E397"/>
<stop offset="1" stop-color="#25D5E8"/>
</radialGradient>
<radialGradient id="paint12_radial_1166_798" cx="0" cy="0" r="1" gradientUnits="userSpaceOnUse" gradientTransform="translate(855.658 539.076) rotate(-105.002) scale(906.428 715.465)">
<stop stop-color="#FBF432"/>
<stop offset="0.206" stop-color="#FFBA00"/>
<stop offset="0.719" stop-color="#82E397"/>
<stop offset="1" stop-color="#25D5E8"/>
</radialGradient>
<radialGradient id="paint13_radial_1166_798" cx="0" cy="0" r="1" gradientUnits="userSpaceOnUse" gradientTransform="translate(865.658 539.076) rotate(-105.002) scale(906.428 715.465)">
<stop stop-color="#FBF432"/>
<stop offset="0.206" stop-color="#FFBA00"/>
<stop offset="0.719" stop-color="#82E397"/>
<stop offset="1" stop-color="#25D5E8"/>
</radialGradient>
</defs>
</svg>
