<svg xmlns="http://www.w3.org/2000/svg" width="560" height="344" fill="none"><g clip-path="url(#a)"><path fill="url(#b)" d="M553.79-46.592h-680v392h680v-392Z"/><path fill="url(#c)" d="m15.775-163.751 756.073 17.478-371.107 400.285L-43.115 95.193l58.89-258.944Z" opacity=".08"/><path fill="url(#d)" d="m-38.258-165 810.107 18.725-407.63 398.893-465.581-140.17L-38.258-165Z" opacity=".08"/><path fill="url(#e)" d="m104.278-161.705 667.571 15.431-327.663 388.75L52.278 66.926l52-228.631Z"/><path fill="url(#f)" d="m771.849-146.274-327.664 388.75L52.278 66.926l719.571-213.2Z"/><g filter="url(#g)" style="mix-blend-mode:overlay"><path fill="#fff" d="m402.952-6.833-74.478-43C272.992-81.865 202.048-62.856 170.015-7.374l-80 138.564c-32.032 55.482-13.023 126.426 42.459 158.459l74.478 43c55.482 32.033 126.427 13.023 158.459-42.459l80-138.564c32.033-55.482 13.023-126.427-42.459-158.459Z" style="mix-blend-mode:overlay"/></g><g filter="url(#h)"><path fill="#fff" d="M448.642 74.513 239.898-46.025 91.235 211.426l208.744 120.538L448.642 74.513Z" opacity=".4"/></g><g filter="url(#i)"><path fill="#fff" d="M460.966 123.798 289.835-47.357 78.745 163.704l171.13 171.155 211.091-211.061Z" opacity=".24"/></g><g filter="url(#j)"><path fill="#fff" d="M418.229 62.305 209.748 6.408 140.79 263.599l208.482 55.897 68.957-257.19Z"/></g><g filter="url(#k)"><path fill="#fff" d="m389.508 87.686-169.513-45.45-52.24 194.843 169.513 45.449 52.24-194.842Z"/></g><path fill="#E732FB" d="m276.205 73.927-46.368-12.432-12.432 46.368 46.368 12.432 12.432-46.368Z"/><path fill="#82E397" d="m329.713 237.377-137.172-36.778-6.216 23.184 137.172 36.778 6.216-23.184Z"/><path fill="#25D5E8" d="m350.433 160.097-137.172-36.778-6.216 23.184 137.172 36.778 6.216-23.184Z"/><path fill="#00D3BD" d="m340.073 198.737-137.172-36.778-6.216 23.184 137.172 36.778 6.216-23.184Z"/><path fill="#FFBA00" d="m363.901 109.865-75.348-20.202-6.216 23.184 75.348 20.202 6.216-23.184Z"/></g><defs><linearGradient id="b" x1="213.79" x2="213.79" y1="-46.592" y2="345.408" gradientUnits="userSpaceOnUse"><stop stop-color="#F2F1F9"/><stop offset="1" stop-color="#fff"/></linearGradient><linearGradient id="c" x1="484.536" x2="176.238" y1="-312.153" y2="221.836" gradientUnits="userSpaceOnUse"><stop stop-color="#25D5E8"/><stop offset="1" stop-color="#00D3BD"/></linearGradient><linearGradient id="d" x1="464.004" x2="133.671" y1="-324.009" y2="248.145" gradientUnits="userSpaceOnUse"><stop stop-color="#25D5E8"/><stop offset="1" stop-color="#00D3BD"/></linearGradient><linearGradient id="e" x1="518.169" x2="245.958" y1="-292.736" y2="178.747" gradientUnits="userSpaceOnUse"><stop stop-color="#25D5E8"/><stop offset="1" stop-color="#00D3BD"/></linearGradient><linearGradient id="f" x1="177.217" x2="465.883" y1="-59.592" y2="199.185" gradientUnits="userSpaceOnUse"><stop stop-color="#25D5E8"/><stop offset="1" stop-color="#437BFF"/></linearGradient><filter id="h" width="485.965" height="506.547" x="26.956" y="-134.408" color-interpolation-filters="sRGB" filterUnits="userSpaceOnUse"><feFlood flood-opacity="0" result="BackgroundImageFix"/><feColorMatrix in="SourceAlpha" values="0 0 0 0 0 0 0 0 0 0 0 0 0 0 0 0 0 0 127 0"/><feOffset dy="-24.105"/><feGaussianBlur stdDeviation="32.139"/><feColorMatrix values="0 0 0 0 0.145098 0 0 0 0 0.835294 0 0 0 0 0.909804 0 0 0 0.078 0"/><feBlend in2="BackgroundImageFix" result="effect1_dropShadow"/><feBlend in="SourceGraphic" in2="effect1_dropShadow" result="shape"/></filter><filter id="g" width="626.517" height="653.603" x="-45.545" y="-185.393" color-interpolation-filters="sRGB" filterUnits="userSpaceOnUse"><feFlood flood-opacity="0" result="BackgroundImageFix"/><feBlend in="SourceGraphic" in2="BackgroundImageFix" result="shape"/><feGaussianBlur result="effect1_foregroundBlur" stdDeviation="60"/></filter><filter id="i" width="510.78" height="510.774" x="14.465" y="-135.741" color-interpolation-filters="sRGB" filterUnits="userSpaceOnUse"><feFlood flood-opacity="0" result="BackgroundImageFix"/><feColorMatrix in="SourceAlpha" values="0 0 0 0 0 0 0 0 0 0 0 0 0 0 0 0 0 0 127 0"/><feOffset dy="-24.105"/><feGaussianBlur stdDeviation="32.139"/><feColorMatrix values="0 0 0 0 0.145098 0 0 0 0 0.835294 0 0 0 0 0.909804 0 0 0 0.078 0"/><feBlend in2="BackgroundImageFix" result="effect1_dropShadow"/><feBlend in="SourceGraphic" in2="effect1_dropShadow" result="shape"/></filter><filter id="j" width="405.997" height="441.646" x="76.511" y="-81.976" color-interpolation-filters="sRGB" filterUnits="userSpaceOnUse"><feFlood flood-opacity="0" result="BackgroundImageFix"/><feColorMatrix in="SourceAlpha" values="0 0 0 0 0 0 0 0 0 0 0 0 0 0 0 0 0 0 127 0"/><feOffset dy="-24.105"/><feGaussianBlur stdDeviation="32.139"/><feColorMatrix values="0 0 0 0 0.145098 0 0 0 0 0.835294 0 0 0 0 0.909804 0 0 0 0.161 0"/><feBlend in2="BackgroundImageFix" result="effect1_dropShadow"/><feBlend in="SourceGraphic" in2="effect1_dropShadow" result="shape"/></filter><filter id="k" width="350.311" height="368.849" x="103.476" y="-46.147" color-interpolation-filters="sRGB" filterUnits="userSpaceOnUse"><feFlood flood-opacity="0" result="BackgroundImageFix"/><feColorMatrix in="SourceAlpha" values="0 0 0 0 0 0 0 0 0 0 0 0 0 0 0 0 0 0 127 0"/><feOffset dy="-24.105"/><feGaussianBlur stdDeviation="32.139"/><feColorMatrix values="0 0 0 0 0.145098 0 0 0 0 0.835294 0 0 0 0 0.909804 0 0 0 0.161 0"/><feBlend in2="BackgroundImageFix" result="effect1_dropShadow"/><feBlend in="SourceGraphic" in2="effect1_dropShadow" result="shape"/></filter><clipPath id="a"><path fill="#fff" d="M0 0h560v344H0z"/></clipPath></defs></svg>