<svg width="1342" height="712" fill="none" xmlns="http://www.w3.org/2000/svg"><g clip-path="url(#a)"><g filter="url(#b)"><path d="m1222.93 126.971-64.66 20.92a.999.999 0 0 0-.65 1.258l20.92 64.662c.17.525.74.813 1.26.643l64.66-20.92c.53-.17.81-.733.64-1.258l-20.92-64.661a.993.993 0 0 0-1.25-.644Z" fill="#fff"/></g><path d="m1205.99 175.681-12.65 4.111-4.97-8.921 11.13-15.161 4 12.29a3.83 3.83 0 0 0-.47.115c-.42.13-.82.343-1.16.627-.34.284-.62.632-.82 1.026-.21.394-.33.824-.37 1.266-.04.442.02.888.15 1.31.14.422.36.812.65 1.148a3.357 3.357 0 0 0 3.62.979c.15-.05.3-.11.44-.18l.45 1.39Z" fill="#00D3BD"/><path d="m1193.34 179.796 12.65-4.11 2.07 6.356-14.53 4.719-.19-6.965Z" fill="#25D5E8"/><path d="m1217.12 175.332-11.08 3.597-.38-1.191a2.944 2.944 0 0 0 1.7-1.455 2.928 2.928 0 0 0-3.51-4.106l-3.48-10.725 15.68 5.006 1.07 8.874Z" fill="#437BFF"/><path d="m1217.12 175.332-11.08 3.597 1.81 5.562 12.71-4.13-3.44-5.029Z" fill="#437BFF"/><g filter="url(#c)"><path d="m1066.62 248.993-64.66 20.919c-.52.17-.81.733-.64 1.258l20.92 64.662c.17.525.73.813 1.26.643l64.66-20.92a1 1 0 0 0 .64-1.258l-20.92-64.661a.999.999 0 0 0-1.26-.643Z" fill="#fff"/></g><path d="m1023.23 283.983 10.21-3.32.74 3.982-11.13 3.616.18-4.278ZM1036.09 302.141l-.59-1.816 2.14.087 21.49-6.984-.47 1.659-20.45 6.646-2.12.408Zm-.59-1.816-4.74-14.567 3.43-1.113 3.45 15.767-2.14-.087Z" fill="#00D3BD"/><path d="m1037.63 300.411 21.49-6.984.7-17.113-25.64 8.332 3.45 15.765Z" fill="#25D5E8"/><path d="m1063.58 283.448-6.56 2.132 1.12 2.347 7.14-2.322-1.7-2.157Z" fill="#437BFF"/><path d="m1063.37 296.565-3.04-9.352-2.19.714 4.15 9.49 1.08-.852Z" fill="#437BFF"/><path d="m1062.29 297.416-9.26 3.009-6.82-8.625 11.93-3.874 4.15 9.49ZM1056.94 303.173a1.437 1.437 0 0 0 .92-1.804 1.442 1.442 0 0 0-1.81-.92 1.439 1.439 0 0 0-.92 1.805 1.437 1.437 0 0 0 1.81.919ZM1062.38 301.403a1.421 1.421 0 0 0 .92-1.804 1.427 1.427 0 0 0-1.8-.92 1.439 1.439 0 0 0-.92 1.805 1.426 1.426 0 0 0 1.8.919Z" fill="#437BFF"/><g filter="url(#d)"><path d="m1129.6 141.097-64.66 20.919c-.52.17-.81.733-.64 1.258l20.92 64.662c.17.525.73.813 1.26.643l64.66-20.919c.52-.17.81-.734.64-1.259l-20.92-64.661a.999.999 0 0 0-1.26-.643Z" fill="#fff"/></g><path d="M1115.3 195.084c6.77-2.199 10.48-9.47 8.28-16.24-2.2-6.769-9.48-10.474-16.24-8.275-6.77 2.2-10.48 9.471-8.28 16.241 2.2 6.769 9.47 10.474 16.24 8.274Z" fill="#25D5E8"/><path d="m1093.87 185.846 9.44-17.202 18.79 11.596-8.06 13.187-20.17-7.581Z" fill="#00D3BD"/><path d="m1108.32 200.811-11.91-6.067 5.85-11.484 11.91 6.068-5.85 11.482v.001Zm-7.88-7.425a.752.752 0 0 0-.34.238.769.769 0 0 0-.15.387.718.718 0 0 0 1.18.601.642.642 0 0 0 .22-.35.736.736 0 0 0 0-.416.771.771 0 0 0-.14-.244.766.766 0 0 0-.22-.173.694.694 0 0 0-.27-.076.748.748 0 0 0-.28.033Z" fill="#437BFF"/><g filter="url(#e)"><path d="m1159.75 234.282-64.66 20.92a.993.993 0 0 0-.64 1.258l20.92 64.661c.17.525.73.813 1.25.643l64.66-20.919c.53-.17.82-.733.65-1.258l-20.92-64.662a1.003 1.003 0 0 0-1.26-.643Z" fill="#fff"/></g><path d="m1130.57 289.169-5.79-17.795 14.17-5.213 5.78 17.795-14.16 5.213Z" fill="#25D5E8"/><path d="m1131.7 285.134-5.78-17.795 13.03-1.179 5.78 17.795-13.03 1.179ZM1144.76 283.948l-5.79-17.796 14.53-4.108 5.78 17.795-14.52 4.109Z" fill="#00D3BD"/><path d="m1144.76 283.947-5.79-17.795 11.24-6.706 5.78 17.795-11.23 6.706Z" fill="#25D5E8"/><path d="m1138.56 291.066-6.91-1.205-4.97 5.064-5.34-16.443 11.87-3.859 5.35 16.443Z" fill="#437BFF"/><g filter="url(#f)"><path d="m1189.84 327.39-64.6 20.991a.995.995 0 0 0-.64 1.259l20.99 64.605c.17.525.73.812 1.26.641l64.6-20.991c.53-.17.81-.734.64-1.258l-20.99-64.606a.999.999 0 0 0-1.26-.641Z" fill="#fff"/></g><path d="M1175.23 358.786a12.557 12.557 0 0 1 6.18 7.12c1.06 3.086.87 6.462-.52 9.414a12.534 12.534 0 0 1-6.92 6.401 12.545 12.545 0 0 1-9.42-.22l6.15-11.909.39-12.08c1.45.181 2.85.613 4.14 1.274Z" fill="#00D3BD"/><path d="M1157.18 363.685a13.83 13.83 0 0 1 5.4-5.698 13.88 13.88 0 0 1 7.41-1.863l-.46 13.852-7.18 11.849a13.805 13.805 0 0 1-6.14-8.024 13.82 13.82 0 0 1 .98-10.116h-.01Z" fill="#00D3BD"/><path d="m1161.01 364.814 8.52 5.163 9.96.33a9.912 9.912 0 0 1-1.17 4.356 9.958 9.958 0 0 1-2.97 3.396 9.96 9.96 0 0 1-12.58-.765 9.95 9.95 0 0 1-2.53-3.73 9.858 9.858 0 0 1-.63-4.465 9.889 9.889 0 0 1 1.4-4.285Z" fill="#25D5E8"/><path d="M1160.1 373.091a10.02 10.02 0 0 0 12.63 6.437c5.27-1.711 8.15-7.368 6.44-12.634-1.71-5.267-7.37-8.149-12.64-6.438-5.26 1.711-8.15 7.368-6.43 12.635Z" fill="#25D5E8"/><path d="m1167.48 369.562 17.36-.039-6.6 16.598s-2.66-4.086-5.63-8.658l-5.13-7.901ZM1169.14 372.23l-2.35 1.526 7.25 11.158 2.35-1.526-7.25-11.158Z" fill="#437BFF"/><g filter="url(#g)"><path d="m1330.19 155.94-64.66 20.919a.994.994 0 0 0-.64 1.259l20.92 64.661c.17.525.73.813 1.25.643l64.66-20.919c.53-.17.82-.733.65-1.258l-20.92-64.662a1.003 1.003 0 0 0-1.26-.643Z" fill="#fff"/></g><path d="M1311.24 210.738s-13.18-.719-17.03-6.872c-3.85-6.153-2.96-13.372 3.73-15.548a9.782 9.782 0 0 1 6-.023 9.842 9.842 0 0 1 4.88-3.512c6.69-2.172 11.65 3.143 12.16 10.385.5 7.242-9.74 15.57-9.74 15.57Z" fill="#25D5E8"/><path d="M1294.21 203.88c-3.84-6.158-2.96-13.374 3.74-15.55 1.78-.6 3.7-.646 5.51-.133l7.32 22.518c-2.38-.195-13.15-1.372-16.57-6.835Z" fill="#00D3BD"/><path d="m1317 196.987 12.05-3.914 2.2 11.175-10.75 3.495-3.5-10.756Z" fill="#437BFF"/><path d="m1316.74 196.179-4.37 1.42 4.05 12.483 4.37-1.42-4.05-12.483ZM1318.28 191.578l3.02-.978.71 4.762-3.76 1.223.03-5.007Z" fill="#437BFF"/><g filter="url(#h)"><path d="m1253.1 220.232-64.66 20.919a1 1 0 0 0-.65 1.259l20.92 64.661c.17.525.74.813 1.26.643l64.66-20.919c.53-.17.81-.733.64-1.258l-20.92-64.662a.992.992 0 0 0-1.25-.643Z" fill="#fff"/></g><path d="m1218.71 276.817-.41-1.252 19.98-6.489.4 1.247-19.97 6.494Zm18.32-7.337-18.73 6.085-6.48-19.971 19.97-6.489 6.49 19.971-1.25.404Z" fill="#00D3BD"/><path d="m1238.69 270.326-.41-1.249 13.73-4.462.41 1.248-13.73 4.463Zm13.32-5.711-13.73 4.462-4.46-13.732 10.89-3.539 3.77 1.921 3.53 10.887v.001Z" fill="#25D5E8"/><path d="m1224.44 260.465 14.22 14.015-7.07 1.607-2.89-2.513-.86 3.73-6.66 2.854 3.26-19.693Z" fill="#437BFF"/><g filter="url(#i)"><path d="m953.567 202.133-64.661 20.92a.998.998 0 0 0-.643 1.258l20.92 64.661a1 1 0 0 0 1.258.644l64.661-20.92a.999.999 0 0 0 .643-1.258l-20.92-64.662a.999.999 0 0 0-1.258-.643Z" fill="#fff"/></g><path d="m939.858 232.091-19.974 6.491 4.425 13.619 19.975-6.49-4.426-13.62Z" fill="#00D3BD"/><path d="m924.341 252.136 19.876-6.458 4.256 5.209-24.513 7.965.381-6.716Z" fill="#25D5E8"/><path d="m932.838 261.477-11.803 3.835-5.31-16.343 11.803-3.835 5.31 16.343Zm-8.148-.364.295.908 2.724-.885-.295-.908-2.724.885Z" fill="#437BFF"/><g filter="url(#j)"><path d="m1036.44 155.742-64.656 20.919a1 1 0 0 0-.643 1.259l20.919 64.661a1 1 0 0 0 1.259.643l64.661-20.919c.52-.17.81-.733.64-1.258l-20.92-64.662a.999.999 0 0 0-1.26-.643Z" fill="#fff"/></g><path d="m1000.01 191.309 17.25-5.605-.55 13.733-17.256 5.605.556-13.733Z" fill="#00D3BD"/><path d="m1007.98 215.823 17.25-5.605-8.52-10.782-17.256 5.605 8.526 10.782Z" fill="#25D5E8"/><path d="m1028.61 192.056-12.94 4.202 6.39 8.086 12.94-4.202-6.39-8.086ZM1034.58 210.441l-12.93 4.202.41-10.299 12.94-4.202-.42 10.299Z" fill="#437BFF"/><g filter="url(#k)"><path d="M301.21 369.89 83.961 311.642c-8.608-2.308-17.458 2.8-19.766 11.408L43.82 399.039c-2.308 8.608 2.8 17.458 11.408 19.766l217.249 58.248c8.609 2.308 17.459-2.799 19.767-11.408l20.373-75.988c2.308-8.609-2.799-17.459-11.408-19.767Z" fill="#fff"/></g><path opacity=".5" d="m100.363 343.821 2.191-8.172 1.241.332 1.465 6.121 4.319-4.57 1.217.327-2.191 8.172-1.344-.361 1.476-5.506-3.485 3.638-.87-.233-1.204-4.87-1.47 5.483-1.345-.361Zm11.655-4.256.379-1.414 1.623.435-.379 1.414-1.623-.435Zm-1.753 6.911 1.52-5.669 1.449.389-1.52 5.668-1.449-.388Zm5.543 1.61c-.595-.159-1.081-.418-1.457-.775a2.644 2.644 0 0 1-.74-1.317c-.12-.513-.099-1.07.063-1.673s.42-1.089.776-1.457a2.514 2.514 0 0 1 1.29-.735c.505-.122 1.055-.102 1.65.057.363.097.707.252 1.032.463.324.211.574.452.75.723l-.699.894a2.21 2.21 0 0 0-.575-.59 2.115 2.115 0 0 0-.682-.331c-.502-.135-.935-.081-1.298.161-.353.237-.608.645-.763 1.224-.154.572-.14 1.061.042 1.465.191.4.538.666 1.04.801.224.06.476.078.756.054.28-.025.545-.103.796-.234l.155 1.135a2.728 2.728 0 0 1-1.023.247 3.515 3.515 0 0 1-1.113-.112Zm2.879.648 1.52-5.668 1.414.379-.267.997c.458-.598 1.153-.81 2.083-.635l.45.084-.237 1.253-.856-.142c-.975-.162-1.581.197-1.817 1.078l-.818 3.049-1.472-.395Zm7.003 2.002c-.587-.158-1.065-.414-1.434-.77a2.61 2.61 0 0 1-.735-1.29c-.119-.513-.098-1.07.063-1.673.162-.603.422-1.092.779-1.469a2.6 2.6 0 0 1 1.282-.749c.497-.124 1.04-.107 1.627.051.587.157 1.065.414 1.434.769.368.356.613.786.735 1.291.121.504.101 1.058-.061 1.661-.161.603-.422 1.096-.782 1.48a2.605 2.605 0 0 1-1.282.75c-.497.123-1.039.106-1.626-.051Zm.295-1.101c.433.116.822.054 1.168-.184.347-.247.603-.675.767-1.286.166-.618.158-1.113-.024-1.485-.18-.379-.487-.627-.919-.743-.433-.116-.822-.055-1.168.184-.344.231-.598.655-.764 1.274-.164.61-.157 1.109.021 1.496.18.38.486.628.919.744Zm5.874 2.755a5.195 5.195 0 0 1-1.298-.535 3.074 3.074 0 0 1-.91-.778l.626-.851c.234.27.514.507.841.71.328.196.67.342 1.026.437.371.099.662.111.873.035a.624.624 0 0 0 .415-.435c.087-.325-.097-.598-.551-.819l-1.1-.531c-.932-.449-1.286-1.09-1.062-1.925a1.62 1.62 0 0 1 .559-.881 2.063 2.063 0 0 1 1.026-.396c.402-.05.839-.011 1.311.115.402.108.772.269 1.112.485.342.207.615.459.817.753l-.649.845a2.622 2.622 0 0 0-.693-.658 2.802 2.802 0 0 0-.849-.402c-.379-.101-.679-.111-.899-.029a.637.637 0 0 0-.407.45c-.091.34.073.607.493.803l1.1.531c.478.227.811.499 1 .814.196.318.238.686.126 1.103-.151.564-.49.95-1.018 1.156-.525.199-1.155.2-1.889.003Zm6.125 1.642c-1.499-.402-2.05-1.345-1.652-2.829l.662-2.469-1.09-.292.292-1.089 1.09.292.454-1.693 1.449.389-.454 1.692 1.716.46-.292 1.09-1.716-.46-.64 2.388c-.1.371-.093.671.019.9.113.229.351.392.714.489.108.029.223.048.345.056l.385.003-.066 1.126c-.16.04-.354.054-.583.042a2.885 2.885 0 0 1-.633-.095Zm4.381 1.175c-.588-.158-1.066-.414-1.434-.77a2.599 2.599 0 0 1-.735-1.29c-.119-.513-.098-1.071.063-1.673.162-.603.422-1.093.779-1.469a2.61 2.61 0 0 1 1.282-.75c.497-.123 1.039-.106 1.627.051.587.158 1.065.414 1.434.77.368.356.613.786.735 1.29.121.505.101 1.059-.061 1.662-.161.602-.422 1.096-.782 1.48a2.605 2.605 0 0 1-1.282.75c-.497.123-1.039.106-1.626-.051Zm.295-1.102c.433.116.822.055 1.168-.184.347-.246.603-.674.767-1.285.165-.618.157-1.113-.025-1.485-.179-.38-.486-.627-.919-.743-.432-.116-.822-.055-1.167.184-.344.23-.598.655-.764 1.273-.164.611-.157 1.11.021 1.497.18.38.486.627.919.743Zm6.418 2.902c-.595-.16-1.08-.418-1.456-.776a2.641 2.641 0 0 1-.741-1.317c-.119-.512-.098-1.07.063-1.673.162-.603.421-1.088.776-1.457a2.513 2.513 0 0 1 1.291-.735c.505-.121 1.054-.102 1.649.057.364.098.707.252 1.032.463.324.212.574.453.75.723l-.699.894a2.177 2.177 0 0 0-.575-.589 2.119 2.119 0 0 0-.682-.332c-.502-.135-.935-.081-1.298.161-.353.237-.607.645-.763 1.225-.153.572-.139 1.06.042 1.465.191.399.538.666 1.04.8.225.061.477.078.756.054.28-.024.546-.102.796-.234l.156 1.135a2.738 2.738 0 0 1-1.023.248 3.577 3.577 0 0 1-1.114-.112Zm2.879.647 2.192-8.172 1.449.389-1.318 4.915.023.006 2.93-1.799 1.751.469-3.301 2.023 1.943 3.689-1.774-.475-1.745-3.177-.023-.006-.678 2.527-1.449-.389Z" fill="#364250"/><path d="m86.481 404.294 1.053-3.926 4.884 1.31 3.357-12.52-4.33 1.192-.886-3.982 8.04-2.184 3.401.911-4.79 17.867 4.574 1.227-1.052 3.926-14.25-3.821Zm24.101 6.826a14.96 14.96 0 0 1-4.184-1.817c-1.265-.803-2.241-1.695-2.928-2.674l2.484-3.211c1.469 1.852 3.307 3.074 5.512 3.665 2.514.674 4.022.073 4.525-1.802.464-1.731-.478-2.911-2.828-3.541l-3.647-.978 1.036-3.864 3.184.853c1.03.277 1.908.258 2.632-.056.725-.314 1.201-.893 1.427-1.738.453-1.69-.423-2.83-2.628-3.421-2.06-.553-4.08-.354-6.057.595l-.57-3.93c1.122-.56 2.401-.88 3.836-.959a13 13 0 0 1 4.293.422c2.35.63 4.043 1.647 5.08 3.052 1.037 1.404 1.31 3.024.818 4.858-.304 1.133-.86 2.055-1.669 2.766-.81.711-1.782 1.124-2.917 1.239 1.142.682 1.927 1.588 2.352 2.719.453 1.115.502 2.332.148 3.651-.53 1.978-1.679 3.338-3.446 4.079-1.767.741-3.918.772-6.453.092Zm12.042 2.865 14.427-15.251-10.356-2.776 1.061-3.957 15.673 4.202-.962 3.586-14.557 15.613-5.286-1.417Z" fill="#364250"/><path d="m257.717 386.01 5.41-5.719-3.883-1.041.398-1.484 5.877 1.576-.361 1.345-5.459 5.855-1.982-.532Zm6.951 1.864 5.41-5.719-3.884-1.041.398-1.484 5.877 1.576-.36 1.344-5.459 5.855-1.982-.531Zm9.767 2.991-.948-.962 6.954-6.933.935.959-6.941 6.936Zm-.192-3.965c-.672-.18-1.134-.544-1.385-1.092-.248-.555-.27-1.216-.065-1.981.205-.765.553-1.322 1.044-1.671.499-.346 1.081-.43 1.745-.252.665.178 1.122.545 1.37 1.1.259.55.287 1.203.084 1.961-.206.765-.559 1.325-1.059 1.679-.492.349-1.069.434-1.734.256Zm.298-1.113c.224.06.427-.001.609-.185.191-.189.352-.526.483-1.013.13-.487.158-.853.083-1.096-.066-.25-.211-.405-.435-.465a.608.608 0 0 0-.617.17c-.18.176-.336.511-.468 1.005-.135.503-.17.879-.104 1.128a.607.607 0 0 0 .449.456Zm4.752 6.145c-.673-.181-1.134-.545-1.385-1.092-.249-.556-.269-1.22-.062-1.993.205-.765.552-1.318 1.041-1.659.499-.346 1.081-.431 1.745-.252.665.178 1.123.541 1.373 1.088.259.55.287 1.204.084 1.961-.208.773-.558 1.337-1.051 1.694-.491.349-1.073.433-1.745.253Zm.301-1.125c.232.062.439.002.621-.181.181-.184.338-.522.471-1.017.128-.479.156-.845.083-1.096-.066-.25-.211-.405-.435-.465a.608.608 0 0 0-.617.17c-.18.176-.336.511-.468 1.006-.135.502-.17.878-.104 1.127a.607.607 0 0 0 .449.456Z" fill="#22D558"/><path d="m92.895 329.395-9.66-2.59-4.144 15.456 9.66 2.59 4.144-15.456Z" fill="#00D3BD"/><g filter="url(#l)"><path d="M71.969 387.828a1.006 1.006 0 0 1 1.392.011c.123.12.214.269.264.433l1.782 5.817a1.007 1.007 0 0 1-.698 1.268 1.02 1.02 0 0 1-.532 0l-6.235-1.672a1.01 1.01 0 0 1-.701-1.261c.05-.172.147-.327.278-.45l4.45-4.146Z" fill="#22D558"/></g><g filter="url(#m)"><path d="M183.394 442.884s18.226-9.029 24.375-4.372c6.149 4.657 14.462 8.767 17.758 7.77 3.295-.997 8.313.349 11.105-.031 2.792-.381 3.293-4.756 4.736-8.886 1.443-4.129 8.188-.437 9.255.602 1.066 1.039 1.85-4.393 6.742-7.59 4.892-3.198 7.248 3.071 10.039 2.691 2.792-.38 13.68-8.372 13.68-8.372" stroke="#00D3BD" stroke-width="3.026" stroke-linecap="round"/></g><g filter="url(#n)"><path d="m540.705 273.157-217.249-58.248c-8.609-2.308-17.459 2.799-19.767 11.408l-20.374 75.988c-2.308 8.609 2.8 17.459 11.409 19.767l217.249 58.248c8.608 2.308 17.458-2.8 19.766-11.408l20.374-75.989c2.308-8.608-2.8-17.458-11.408-19.766Z" fill="#fff"/></g><path opacity=".5" d="m338.851 247.519 2.191-8.172 1.241.332 1.465 6.121 4.319-4.57 1.217.327-2.191 8.172-1.345-.361 1.477-5.506-3.486 3.638-.869-.233-1.204-4.87-1.47 5.483-1.345-.361Zm11.737 3.271a2.613 2.613 0 0 1-1.039-.527 2.062 2.062 0 0 1-.58-.851 1.69 1.69 0 0 1-.021-.987c.112-.418.308-.717.589-.899.283-.189.682-.272 1.198-.25.516.022 1.183.143 2.002.363l.406.109.065-.244c.104-.386.094-.687-.031-.903-.124-.215-.387-.377-.789-.485a3.486 3.486 0 0 0-1.014-.11c-.358.004-.733.06-1.127.17l-.153-1.097a3.31 3.31 0 0 1 .803-.17c.307-.034.619-.037.935-.01.326.021.624.068.894.14.827.222 1.39.58 1.688 1.074.3.486.343 1.131.127 1.935l-.92 3.431-1.356-.363.242-.905a1.669 1.669 0 0 1-.828.586c-.333.101-.697.099-1.091-.007Zm.568-.916c.379.102.727.054 1.045-.142.326-.195.542-.493.65-.895l.068-.255-.394-.105c-.726-.195-1.248-.273-1.565-.234-.307.034-.5.198-.579.491a.841.841 0 0 0 .099.698c.134.21.36.357.676.442Zm3.936 2 1.52-5.669 1.414.379-.267.997c.458-.598 1.153-.809 2.083-.634l.45.083-.237 1.254-.856-.143c-.975-.162-1.581.198-1.817 1.079l-.818 3.048-1.472-.394Zm4.539 1.217 2.192-8.173 1.449.389-1.318 4.915.023.006 2.93-1.799 1.75.469-3.3 2.023 1.943 3.689-1.774-.475-1.745-3.177-.023-.006-.678 2.527-1.449-.388Zm8.865 2.501c-.642-.172-1.162-.44-1.562-.804a2.686 2.686 0 0 1-.804-1.309c-.129-.507-.113-1.062.048-1.665.158-.587.415-1.069.773-1.445a2.793 2.793 0 0 1 1.285-.761 2.947 2.947 0 0 1 1.575.012c.804.215 1.369.64 1.696 1.275.335.636.384 1.395.148 2.276l-.115.429-4.058-1.088c-.163 1.041.281 1.703 1.332 1.985.317.084.646.123.988.115.344-.015.675-.092.994-.23l.144 1.082c-.33.152-.718.238-1.163.26a4.15 4.15 0 0 1-1.281-.132Zm1.109-4.971c-.425-.114-.804-.075-1.138.117-.333.192-.587.505-.761.939l2.852.765c.095-.48.06-.875-.105-1.184-.156-.315-.439-.528-.848-.637Zm4.954 6.596c-1.5-.402-2.05-1.345-1.652-2.828l.662-2.47-1.09-.292.292-1.089 1.09.292.454-1.693 1.449.389-.454 1.692 1.715.46-.292 1.09-1.715-.46-.641 2.388c-.099.371-.093.671.02.9.113.229.35.392.714.489.108.029.223.048.345.056l.384.003-.065 1.126c-.16.04-.354.054-.583.042a2.885 2.885 0 0 1-.633-.095Zm1.324 2.467 2.079-7.755 1.414.38-.242.904a1.88 1.88 0 0 1 .929-.546 2.34 2.34 0 0 1 1.199.023c.494.133.895.368 1.202.707.314.341.517.76.607 1.257.093.488.057 1.038-.106 1.649-.162.602-.407 1.1-.736 1.492a2.488 2.488 0 0 1-1.143.787c-.435.14-.904.143-1.406.008a2.384 2.384 0 0 1-1.021-.547 1.953 1.953 0 0 1-.541-.903l-.786 2.933-1.449-.389Zm3.686-2.304c.433.116.822.055 1.168-.184.348-.246.603-.675.767-1.285.166-.618.158-1.113-.024-1.485-.18-.38-.486-.628-.919-.744-.433-.116-.822-.054-1.168.184-.343.231-.598.656-.764 1.274-.163.611-.156 1.11.022 1.497.179.379.486.627.918.743Zm5.763 2.726c-.672-.181-1.122-.496-1.349-.946-.217-.456-.231-1.039-.04-1.75l1.641-6.121 1.449.389-1.623 6.051c-.186.695.014 1.122.602 1.279.085.023.171.042.258.057s.172.021.256.019l-.331 1.141a3.579 3.579 0 0 1-.863-.119Zm3.598.964a2.613 2.613 0 0 1-1.039-.527 2.062 2.062 0 0 1-.58-.851 1.69 1.69 0 0 1-.021-.987c.112-.418.308-.717.589-.899.283-.189.682-.272 1.198-.25.516.022 1.183.143 2.002.363l.406.109.065-.244c.104-.386.093-.687-.031-.903-.124-.215-.388-.377-.789-.485a3.489 3.489 0 0 0-1.015-.11c-.357.004-.732.06-1.126.17l-.153-1.097a3.31 3.31 0 0 1 .803-.17c.307-.034.619-.037.935-.01.326.021.624.068.894.14.827.222 1.39.58 1.688 1.074.3.486.343 1.131.127 1.935l-.92 3.431-1.356-.363.242-.904a1.673 1.673 0 0 1-.828.585c-.333.101-.697.099-1.091-.007Zm.568-.916c.379.102.727.054 1.045-.142.325-.195.542-.493.65-.895l.068-.255-.394-.105c-.726-.195-1.248-.273-1.565-.234-.307.034-.5.198-.579.491a.841.841 0 0 0 .099.698c.134.21.36.357.676.442Zm6.525 2.818c-.595-.16-1.081-.418-1.457-.776a2.637 2.637 0 0 1-.741-1.317c-.119-.512-.098-1.07.064-1.672.161-.603.42-1.089.775-1.457a2.5 2.5 0 0 1 1.291-.735c.505-.122 1.054-.103 1.65.057.363.097.707.251 1.031.463.324.211.575.452.75.723l-.699.893a2.191 2.191 0 0 0-.575-.589 2.114 2.114 0 0 0-.681-.332c-.503-.134-.935-.081-1.299.162-.353.236-.607.644-.763 1.224-.153.572-.139 1.06.042 1.465.191.399.538.666 1.041.801.224.06.476.078.756.053.279-.024.545-.102.795-.234l.156 1.135a2.738 2.738 0 0 1-1.023.248 3.538 3.538 0 0 1-1.113-.112Zm5.528 1.482c-.641-.172-1.162-.44-1.561-.804-.4-.363-.668-.8-.805-1.309-.129-.507-.113-1.061.049-1.664.157-.587.415-1.069.772-1.445a2.793 2.793 0 0 1 1.286-.762 2.943 2.943 0 0 1 1.574.012c.804.216 1.369.641 1.696 1.275.335.637.384 1.395.148 2.276l-.115.429-4.057-1.088c-.164 1.042.28 1.703 1.331 1.985.317.085.647.124.988.116a2.79 2.79 0 0 0 .994-.231l.145 1.083a3.164 3.164 0 0 1-1.163.26 4.16 4.16 0 0 1-1.282-.133Zm1.109-4.971c-.425-.114-.804-.075-1.137.118-.333.192-.587.505-.761.939l2.851.764c.096-.479.061-.874-.105-1.183-.156-.315-.438-.528-.848-.638Z" fill="#364250"/><path d="M329.268 309.509a10.682 10.682 0 0 1-3.328-1.555 9.61 9.61 0 0 1-2.526-2.566l2.499-3.14a8.536 8.536 0 0 0 1.991 2.091 7.582 7.582 0 0 0 2.495 1.199c3.4.911 5.694-.848 6.882-5.279l.157-.587a5.336 5.336 0 0 1-2.647 1.841c-1.061.334-2.19.341-3.385.021-1.216-.326-2.228-.918-3.036-1.775a6.776 6.776 0 0 1-1.617-3.118c-.269-1.22-.221-2.511.144-3.871.387-1.443 1.038-2.637 1.955-3.584a7.24 7.24 0 0 1 3.309-1.963c1.284-.34 2.648-.317 4.09.07 2.803.751 4.7 2.287 5.69 4.607.996 2.299 1.027 5.19.094 8.673-.652 2.432-1.599 4.398-2.841 5.898-1.221 1.506-2.677 2.53-4.368 3.07-1.686.52-3.539.509-5.558-.032Zm4.377-11.384c.948.254 1.807.142 2.576-.337.774-.499 1.299-1.264 1.576-2.294.281-1.051.212-1.987-.209-2.806-.421-.82-1.105-1.357-2.053-1.611s-1.809-.132-2.584.367c-.774.5-1.302 1.275-1.584 2.326-.276 1.03-.204 1.955.217 2.775.426.799 1.113 1.326 2.061 1.58Zm8.932 14.588 14.427-15.25-10.356-2.777 1.061-3.957 15.672 4.202-.961 3.586-14.557 15.613-5.286-1.417Z" fill="#364250"/><path d="M508.006 293.009a5.465 5.465 0 0 1-1.523-.669c-.464-.307-.819-.638-1.063-.994l.932-1.204c.558.697 1.232 1.151 2.02 1.362.441.118.81.101 1.107-.051.306-.15.507-.406.604-.77.1-.371.06-.7-.12-.989-.171-.286-.458-.483-.86-.591-.58-.155-1.133-.067-1.661.263l-1.159-.311 1.352-5.042 5.17 1.386-.395 1.472-3.443-.923-.491 1.832c.445-.146.934-.147 1.468-.004.517.138.939.372 1.266.699.328.32.548.706.658 1.159.111.452.097.937-.042 1.454-.147.549-.399.995-.756 1.338a2.624 2.624 0 0 1-1.325.677c-.525.107-1.105.076-1.739-.094Zm7.124 2.146-.948-.962 6.953-6.933.936.959-6.941 6.936Zm-.192-3.965c-.673-.181-1.134-.545-1.385-1.092-.249-.556-.27-1.216-.065-1.981.205-.765.553-1.322 1.044-1.671.499-.346 1.081-.431 1.745-.253.665.179 1.122.545 1.37 1.101.259.55.286 1.203.083 1.96-.205.766-.558 1.325-1.059 1.68-.491.349-1.069.434-1.733.256Zm.298-1.113c.224.06.427-.002.609-.185.191-.189.352-.527.483-1.014.13-.486.158-.852.082-1.096-.065-.249-.21-.404-.434-.464a.606.606 0 0 0-.617.17c-.18.175-.336.51-.469 1.005-.134.502-.169.878-.103 1.128a.607.607 0 0 0 .449.456Zm4.752 6.144c-.673-.18-1.134-.544-1.385-1.091-.249-.556-.269-1.22-.062-1.993.205-.765.552-1.318 1.041-1.659.499-.347 1.081-.431 1.745-.253.665.178 1.123.541 1.373 1.089.259.55.286 1.203.083 1.961-.207.773-.557 1.337-1.05 1.694-.491.348-1.073.433-1.745.252Zm.301-1.124c.232.062.439.002.62-.182.182-.183.339-.522.472-1.016.128-.479.156-.845.082-1.096-.065-.25-.21-.405-.434-.465a.608.608 0 0 0-.617.17c-.18.176-.336.511-.469 1.005-.134.503-.169.879-.103 1.128a.607.607 0 0 0 .449.456Z" fill="#F6328D"/><path d="m331.383 233.093-9.66-2.59-4.144 15.456 9.66 2.59 4.144-15.456Z" fill="#E732FB"/><g filter="url(#o)"><path d="M311.694 296.637a1.005 1.005 0 0 1-1.392-.011 1.022 1.022 0 0 1-.264-.433l-1.782-5.817a1.008 1.008 0 0 1 1.23-1.268l6.235 1.672c.173.047.331.14.457.268a1.017 1.017 0 0 1 .245.992 1.02 1.02 0 0 1-.279.451l-4.45 4.146Z" fill="#F6328D"/></g><g filter="url(#p)"><path d="M511.055 364.566s-14.029-7.239-21.684-6.282c-7.654.958-14.667-7.393-17.02-9.904-2.352-2.512-12.944-.635-12.129-4.93.815-4.294-3.998-15.191-5.441-14.825-1.443.366-3.845 11.832-6.482 6.616-2.638-5.216-3.633-16.553-5.86-18.279-2.228-1.726-9.484-7.274-9.484-7.274" stroke="#E732FB" stroke-width="3.026" stroke-linecap="round"/></g><g filter="url(#q)"><path d="M244.158 197.097 26.909 138.849c-8.608-2.309-17.458 2.799-19.766 11.408l-20.374 75.988c-2.308 8.609 2.8 17.459 11.408 19.767l217.249 58.248c8.609 2.308 17.459-2.8 19.767-11.408l20.373-75.989c2.308-8.609-2.799-17.458-11.408-19.766Z" fill="#fff"/></g><path opacity=".5" d="m43.539 171.75 2.191-8.172 3.547.951c.897.24 1.528.65 1.895 1.228.367.579.442 1.27.227 2.074-.216.804-.628 1.368-1.237 1.694-.607.317-1.359.356-2.255.116l-2.064-.554-.82 3.061-1.484-.398Zm2.618-3.833 1.832.491c1.066.286 1.724-.035 1.972-.962.247-.92-.163-1.523-1.23-1.809l-1.831-.491-.743 2.771Zm4.692 5.793 1.52-5.669 1.414.379-.268.997c.459-.597 1.153-.809 2.084-.634l.45.083-.237 1.254-.856-.143c-.976-.162-1.582.198-1.818 1.079l-.817 3.048-1.472-.394Zm7.002 2.002c-.587-.158-1.065-.414-1.434-.77a2.605 2.605 0 0 1-.735-1.291c-.119-.512-.098-1.07.064-1.672.161-.603.421-1.093.779-1.469a2.609 2.609 0 0 1 1.282-.75c.497-.123 1.039-.106 1.626.051.588.158 1.066.414 1.434.77.369.355.614.786.735 1.29.122.505.102 1.059-.06 1.662-.162.602-.422 1.096-.782 1.48a2.599 2.599 0 0 1-1.282.749c-.497.124-1.04.107-1.627-.05Zm.296-1.102c.432.116.822.055 1.167-.184.348-.246.604-.674.767-1.285.166-.618.158-1.113-.024-1.485-.18-.38-.486-.627-.919-.744-.433-.116-.822-.054-1.167.184-.344.231-.599.656-.764 1.274-.164.611-.157 1.11.02 1.497.18.38.487.627.92.743Zm5.63-4.815.378-1.414 1.623.435-.379 1.414-1.623-.435Zm-3.676 8.794.179-1.083.549.085c.613.09 1.004-.178 1.172-.804l1.542-5.75 1.449.389-1.492 5.564c-.203.757-.526 1.267-.97 1.529-.445.27-1.085.326-1.92.169l-.509-.099Zm7.638-.226c-.642-.172-1.162-.44-1.561-.804-.4-.364-.668-.8-.805-1.309-.13-.507-.113-1.062.049-1.665.157-.587.415-1.069.772-1.445a2.789 2.789 0 0 1 1.285-.761 2.946 2.946 0 0 1 1.575.012c.804.215 1.37.64 1.696 1.275.335.636.384 1.395.148 2.276l-.115.429-4.057-1.088c-.164 1.041.28 1.703 1.331 1.985.317.085.646.123.988.115.344-.015.675-.092.994-.23l.144 1.082c-.33.152-.718.238-1.163.26a4.155 4.155 0 0 1-1.281-.132Zm1.109-4.971c-.425-.114-.804-.075-1.137.117-.334.192-.587.505-.762.939l2.852.765c.096-.48.06-.875-.105-1.184-.156-.315-.438-.528-.848-.637Zm5 6.608c-.595-.159-1.081-.418-1.457-.775a2.646 2.646 0 0 1-.74-1.317c-.12-.513-.099-1.07.063-1.673.161-.603.42-1.088.776-1.457a2.511 2.511 0 0 1 1.29-.735c.505-.121 1.055-.102 1.65.057.363.098.707.252 1.031.463.325.211.575.452.75.723l-.699.894a2.18 2.18 0 0 0-.575-.589 2.113 2.113 0 0 0-.681-.332c-.503-.135-.935-.081-1.299.161-.353.237-.607.645-.763 1.224-.153.572-.139 1.061.043 1.465.19.4.537.667 1.04.801.224.06.476.078.756.054.28-.025.545-.103.796-.234l.155 1.135a2.755 2.755 0 0 1-1.023.248 3.54 3.54 0 0 1-1.113-.113Zm5.467 1.466c-1.5-.402-2.05-1.345-1.652-2.828l.662-2.469-1.09-.293.292-1.089 1.09.292.454-1.692 1.449.388-.454 1.692 1.716.46-.293 1.09-1.715-.46-.64 2.388c-.1.371-.093.671.02.9.112.229.35.392.713.489.108.03.223.048.345.056l.385.003-.066 1.126a2 2 0 0 1-.583.042 2.884 2.884 0 0 1-.633-.095Z" fill="#364250"/><path d="M35.802 234.235a14.584 14.584 0 0 1-4.06-1.785c-1.24-.818-2.184-1.701-2.836-2.648l2.484-3.211c1.49 1.857 3.286 3.068 5.389 3.631 1.174.315 2.158.27 2.952-.136.814-.4 1.351-1.084 1.61-2.053.266-.989.16-1.868-.32-2.637-.458-.763-1.222-1.289-2.294-1.576-1.545-.415-3.022-.181-4.429.701l-3.091-.829 3.605-13.447 13.787 3.697-1.053 3.926-9.18-2.462-1.31 4.884c1.187-.388 2.49-.392 3.913-.011 1.38.37 2.506.992 3.376 1.866a6.33 6.33 0 0 1 1.756 3.089c.296 1.205.258 2.499-.112 3.879-.392 1.464-1.065 2.653-2.017 3.568-.952.916-2.13 1.517-3.532 1.803-1.402.287-2.948.204-4.638-.249Z" fill="#364250"/><path d="M204.255 214.977c-1.044-.28-1.756-.852-2.137-1.716-.372-.87-.382-1.958-.032-3.264.367-1.368.972-2.344 1.817-2.93.844-.585 1.835-.725 2.971-.421.44.118.852.312 1.236.58.391.271.712.589.962.954l-.937 1.177a2.944 2.944 0 0 0-.762-.775 2.73 2.73 0 0 0-.924-.447c-1.267-.34-2.123.321-2.569 1.983l-.059.22c.266-.343.597-.573.993-.691a2.212 2.212 0 0 1 1.258-.01c.463.124.842.35 1.135.677.303.322.505.711.606 1.169.103.45.086.93-.05 1.44a3.009 3.009 0 0 1-.748 1.353 2.636 2.636 0 0 1-1.238.724c-.474.13-.981.122-1.522-.023Zm.283-1.427c.356.095.674.052.954-.13.291-.187.489-.478.594-.872.104-.386.077-.733-.081-1.04-.15-.306-.403-.506-.758-.601-.364-.098-.69-.053-.981.134-.282.19-.476.478-.579.864-.106.394-.084.744.066 1.049.16.3.422.498.785.596Zm6.157 3.154a5.613 5.613 0 0 1-1.569-.682c-.474-.301-.84-.635-1.098-1.002l.932-1.204a3.864 3.864 0 0 0 2.067 1.374c.943.253 1.508.027 1.697-.676.174-.649-.18-1.092-1.061-1.328l-1.367-.367.388-1.449 1.194.321c.386.103.715.096.987-.021.272-.118.45-.335.535-.652.17-.634-.158-1.062-.985-1.283-.773-.208-1.53-.133-2.272.223l-.213-1.474c.42-.21.9-.33 1.438-.36a4.886 4.886 0 0 1 1.61.159c.881.236 1.516.617 1.905 1.144.389.527.491 1.134.307 1.822a2.05 2.05 0 0 1-.626 1.037 1.903 1.903 0 0 1-1.094.465c.428.256.722.596.882 1.019.17.419.188.875.055 1.37-.198.742-.629 1.251-1.292 1.529s-1.469.29-2.42.035Zm7.332 2.202-.947-.962 6.953-6.933.936.959-6.942 6.936Zm-.191-3.965c-.673-.181-1.134-.545-1.385-1.092-.249-.556-.27-1.216-.065-1.981.205-.765.553-1.322 1.044-1.671.499-.347 1.081-.431 1.745-.253.665.179 1.121.545 1.37 1.101.259.55.286 1.203.083 1.96-.205.765-.558 1.325-1.059 1.68-.491.348-1.069.434-1.733.256Zm.298-1.113c.224.06.427-.002.609-.185.191-.189.352-.527.483-1.014.13-.487.158-.852.082-1.096-.065-.249-.21-.404-.434-.464a.606.606 0 0 0-.617.17c-.18.175-.336.51-.469 1.005-.134.502-.169.878-.103 1.128a.605.605 0 0 0 .449.456Zm4.752 6.144c-.673-.18-1.134-.544-1.385-1.092-.249-.555-.269-1.219-.062-1.992.205-.765.552-1.318 1.041-1.659.499-.347 1.081-.431 1.745-.253.665.178 1.122.541 1.373 1.089.259.55.286 1.203.083 1.961-.207.772-.557 1.337-1.05 1.694-.491.348-1.073.433-1.745.252Zm.301-1.124c.232.062.439.002.62-.182.182-.183.339-.522.472-1.016.128-.48.156-.845.082-1.097-.065-.249-.21-.404-.434-.464a.608.608 0 0 0-.617.17c-.18.176-.336.511-.469 1.005-.134.503-.169.878-.103 1.128a.605.605 0 0 0 .449.456Z" fill="#22D558"/><path d="m36.094 157.33-9.66-2.59-4.144 15.456 9.66 2.59 4.144-15.456Z" fill="#437BFF"/><g filter="url(#r)"><path d="M14.917 215.034a1.016 1.016 0 0 1 .951-.239 1.014 1.014 0 0 1 .705.683l1.782 5.817a1.01 1.01 0 0 1-.698 1.268 1 1 0 0 1-.532 0l-6.235-1.671a1.012 1.012 0 0 1-.702-1.261c.052-.172.148-.328.28-.45l4.449-4.147Z" fill="#22D558"/></g><g filter="url(#s)"><path d="M128.17 263.271s18.227-9.029 24.376-4.372c6.148 4.657 14.984 6.818 18.279 5.821 3.296-.997 10.481 9.823 11.924 5.697 1.443-4.127 8.188-.437 9.255.602 1.066 1.038 2.633-7.316 7.526-10.514 4.892-3.197 6.986 4.047 9.778 3.666 2.792-.38 13.418-7.398 13.418-7.398" stroke="#437BFF" stroke-width="3.026" stroke-linecap="round"/></g><g filter="url(#t)"><path d="m140.076 488.16-217.25-58.248c-8.608-2.308-17.458 2.799-19.766 11.408l-20.374 75.989c-2.308 8.608 2.8 17.458 11.408 19.766l217.249 58.248c8.609 2.308 17.459-2.799 19.767-11.408l20.374-75.988c2.308-8.609-2.8-17.459-11.408-19.767Z" fill="#fff"/></g><path d="M100.085 504.665a5.615 5.615 0 0 1-1.57-.681c-.474-.301-.84-.636-1.097-1.003l.931-1.204c.551.695 1.24 1.153 2.067 1.374.943.253 1.509.028 1.697-.675.174-.65-.179-1.092-1.06-1.328l-1.368-.367.388-1.449 1.194.32c.387.104.716.097.988-.021.271-.118.45-.335.535-.652.17-.634-.159-1.061-.986-1.283a3.187 3.187 0 0 0-2.271.223l-.214-1.473c.42-.211.9-.33 1.438-.36a4.856 4.856 0 0 1 1.61.158c.881.236 1.516.618 1.905 1.145.389.526.492 1.134.307 1.821a2.056 2.056 0 0 1-.626 1.038 1.905 1.905 0 0 1-1.094.464c.429.256.723.596.883 1.02.169.418.187.874.055 1.369-.199.742-.63 1.252-1.292 1.53-.663.278-1.47.289-2.42.034Zm4.516 1.074 5.41-5.718-3.884-1.042.398-1.483 5.877 1.575-.36 1.345-5.459 5.855-1.982-.532Zm9.767 2.992-.948-.962 6.953-6.933.936.959-6.941 6.936Zm-.192-3.966c-.673-.18-1.134-.544-1.385-1.091-.249-.556-.27-1.216-.065-1.981.205-.765.553-1.322 1.044-1.671.499-.347 1.081-.431 1.745-.253.665.179 1.122.545 1.37 1.101.259.549.286 1.203.083 1.96-.205.765-.558 1.325-1.059 1.68-.491.348-1.069.434-1.733.255Zm.298-1.112c.224.06.427-.002.609-.185.191-.189.352-.527.483-1.014.13-.487.158-.852.082-1.096-.065-.249-.21-.404-.434-.464a.606.606 0 0 0-.617.17c-.18.175-.336.51-.469 1.005-.134.502-.169.878-.103 1.128a.61.61 0 0 0 .449.456Zm4.752 6.144c-.673-.18-1.134-.544-1.385-1.092-.249-.555-.269-1.219-.062-1.992.205-.765.552-1.318 1.041-1.659.499-.347 1.081-.431 1.745-.253.665.178 1.123.541 1.373 1.089.259.55.287 1.203.083 1.961-.207.772-.557 1.337-1.05 1.694-.491.348-1.073.433-1.745.252Zm.301-1.124c.232.062.439.002.62-.182.182-.183.339-.522.472-1.016.128-.48.156-.845.082-1.097-.065-.249-.21-.404-.434-.464a.608.608 0 0 0-.617.17c-.18.176-.336.511-.469 1.005-.134.502-.169.878-.103 1.128a.607.607 0 0 0 .449.456Z" fill="#22D558"/><g filter="url(#u)"><path d="M27.483 541.669s12.219 13.379 18.368 18.036c6.148 4.657 16.551.972 19.847-.025 3.295-.997 8.313.35 11.105-.031 2.792-.38 8.223 8.214 9.29 9.253 1.066 1.038 4.2-13.161 9.093-16.359 4.892-3.197 5.68 8.917 8.472 8.537 2.792-.38 13.679-8.372 13.679-8.372" stroke="#FFBA00" stroke-width="3.026" stroke-linecap="round"/></g></g><defs><filter id="l" x="60.946" y="383.479" width="22.095" height="21.179" filterUnits="userSpaceOnUse" color-interpolation-filters="sRGB"><feFlood flood-opacity="0" result="BackgroundImageFix"/><feColorMatrix in="SourceAlpha" values="0 0 0 0 0 0 0 0 0 0 0 0 0 0 0 0 0 0 127 0"/><feOffset dy="3.013"/><feGaussianBlur stdDeviation="3.013"/><feColorMatrix values="0 0 0 0 0.133333 0 0 0 0 0.835294 0 0 0 0 0.345098 0 0 0 0.302 0"/><feBlend in2="BackgroundImageFix" result="effect1_dropShadow"/><feBlend in="SourceGraphic" in2="effect1_dropShadow" result="shape"/></filter><filter id="b" x="1108.35" y="90.689" width="231.996" height="231.997" filterUnits="userSpaceOnUse" color-interpolation-filters="sRGB"><feFlood flood-opacity="0" result="BackgroundImageFix"/><feColorMatrix in="SourceAlpha" values="0 0 0 0 0 0 0 0 0 0 0 0 0 0 0 0 0 0 127 0"/><feOffset dx="22.984" dy="35.975"/><feGaussianBlur stdDeviation="35.975"/><feColorMatrix values="0 0 0 0 0.211765 0 0 0 0 0.258824 0 0 0 0 0.313726 0 0 0 0.078 0"/><feBlend in2="BackgroundImageFix" result="effect1_dropShadow"/><feBlend in="SourceGraphic" in2="effect1_dropShadow" result="shape"/></filter><filter id="d" x="991.041" y="80.831" width="279.962" height="279.963" filterUnits="userSpaceOnUse" color-interpolation-filters="sRGB"><feFlood flood-opacity="0" result="BackgroundImageFix"/><feColorMatrix in="SourceAlpha" values="0 0 0 0 0 0 0 0 0 0 0 0 0 0 0 0 0 0 127 0"/><feOffset dx="22.984" dy="35.975"/><feGaussianBlur stdDeviation="47.966"/><feColorMatrix values="0 0 0 0 0.211765 0 0 0 0 0.258824 0 0 0 0 0.313726 0 0 0 0.122 0"/><feBlend in2="BackgroundImageFix" result="effect1_dropShadow"/><feBlend in="SourceGraphic" in2="effect1_dropShadow" result="shape"/></filter><filter id="e" x="1045.17" y="198" width="231.996" height="231.997" filterUnits="userSpaceOnUse" color-interpolation-filters="sRGB"><feFlood flood-opacity="0" result="BackgroundImageFix"/><feColorMatrix in="SourceAlpha" values="0 0 0 0 0 0 0 0 0 0 0 0 0 0 0 0 0 0 127 0"/><feOffset dx="22.984" dy="35.975"/><feGaussianBlur stdDeviation="35.975"/><feColorMatrix values="0 0 0 0 0.211765 0 0 0 0 0.258824 0 0 0 0 0.313726 0 0 0 0.078 0"/><feBlend in2="BackgroundImageFix" result="effect1_dropShadow"/><feBlend in="SourceGraphic" in2="effect1_dropShadow" result="shape"/></filter><filter id="f" x="1083.31" y="299.095" width="216.053" height="216.054" filterUnits="userSpaceOnUse" color-interpolation-filters="sRGB"><feFlood flood-opacity="0" result="BackgroundImageFix"/><feColorMatrix in="SourceAlpha" values="0 0 0 0 0 0 0 0 0 0 0 0 0 0 0 0 0 0 127 0"/><feOffset dx="22.989" dy="35.983"/><feGaussianBlur stdDeviation="31.985"/><feColorMatrix values="0 0 0 0 0.211765 0 0 0 0 0.258824 0 0 0 0 0.313726 0 0 0 0.078 0"/><feBlend in2="BackgroundImageFix" result="effect1_dropShadow"/><feBlend in="SourceGraphic" in2="effect1_dropShadow" result="shape"/></filter><filter id="g" x="1223.61" y="127.652" width="216.007" height="216.008" filterUnits="userSpaceOnUse" color-interpolation-filters="sRGB"><feFlood flood-opacity="0" result="BackgroundImageFix"/><feColorMatrix in="SourceAlpha" values="0 0 0 0 0 0 0 0 0 0 0 0 0 0 0 0 0 0 127 0"/><feOffset dx="22.984" dy="35.975"/><feGaussianBlur stdDeviation="31.978"/><feColorMatrix values="0 0 0 0 0.211765 0 0 0 0 0.258824 0 0 0 0 0.313726 0 0 0 0.078 0"/><feBlend in2="BackgroundImageFix" result="effect1_dropShadow"/><feBlend in="SourceGraphic" in2="effect1_dropShadow" result="shape"/></filter><filter id="h" x="1146.51" y="191.944" width="216.007" height="216.008" filterUnits="userSpaceOnUse" color-interpolation-filters="sRGB"><feFlood flood-opacity="0" result="BackgroundImageFix"/><feColorMatrix in="SourceAlpha" values="0 0 0 0 0 0 0 0 0 0 0 0 0 0 0 0 0 0 127 0"/><feOffset dx="22.984" dy="35.975"/><feGaussianBlur stdDeviation="31.978"/><feColorMatrix values="0 0 0 0 0.211765 0 0 0 0 0.258824 0 0 0 0 0.313726 0 0 0 0.078 0"/><feBlend in2="BackgroundImageFix" result="effect1_dropShadow"/><feBlend in="SourceGraphic" in2="effect1_dropShadow" result="shape"/></filter><filter id="i" x="815.007" y="141.868" width="279.962" height="279.963" filterUnits="userSpaceOnUse" color-interpolation-filters="sRGB"><feFlood flood-opacity="0" result="BackgroundImageFix"/><feColorMatrix in="SourceAlpha" values="0 0 0 0 0 0 0 0 0 0 0 0 0 0 0 0 0 0 127 0"/><feOffset dx="22.984" dy="35.975"/><feGaussianBlur stdDeviation="47.966"/><feColorMatrix values="0 0 0 0 0.211765 0 0 0 0 0.258824 0 0 0 0 0.313726 0 0 0 0.122 0"/><feBlend in2="BackgroundImageFix" result="effect1_dropShadow"/><feBlend in="SourceGraphic" in2="effect1_dropShadow" result="shape"/></filter><filter id="j" x="897.884" y="95.476" width="279.962" height="279.963" filterUnits="userSpaceOnUse" color-interpolation-filters="sRGB"><feFlood flood-opacity="0" result="BackgroundImageFix"/><feColorMatrix in="SourceAlpha" values="0 0 0 0 0 0 0 0 0 0 0 0 0 0 0 0 0 0 127 0"/><feOffset dx="22.984" dy="35.975"/><feGaussianBlur stdDeviation="47.966"/><feColorMatrix values="0 0 0 0 0.211765 0 0 0 0 0.258824 0 0 0 0 0.313726 0 0 0 0.122 0"/><feBlend in2="BackgroundImageFix" result="effect1_dropShadow"/><feBlend in="SourceGraphic" in2="effect1_dropShadow" result="shape"/></filter><filter id="k" x="13.528" y="301.437" width="329.383" height="225.996" filterUnits="userSpaceOnUse" color-interpolation-filters="sRGB"><feFlood flood-opacity="0" result="BackgroundImageFix"/><feColorMatrix in="SourceAlpha" values="0 0 0 0 0 0 0 0 0 0 0 0 0 0 0 0 0 0 127 0"/><feOffset dy="20.087"/><feGaussianBlur stdDeviation="13.057"/><feColorMatrix values="0 0 0 0 0.211765 0 0 0 0 0.258824 0 0 0 0 0.313726 0 0 0 0.059 0"/><feBlend in2="BackgroundImageFix" result="effect1_dropShadow"/><feBlend in="SourceGraphic" in2="effect1_dropShadow" result="shape"/></filter><filter id="c" x="952.045" y="212.71" width="231.996" height="231.997" filterUnits="userSpaceOnUse" color-interpolation-filters="sRGB"><feFlood flood-opacity="0" result="BackgroundImageFix"/><feColorMatrix in="SourceAlpha" values="0 0 0 0 0 0 0 0 0 0 0 0 0 0 0 0 0 0 127 0"/><feOffset dx="22.984" dy="35.975"/><feGaussianBlur stdDeviation="35.975"/><feColorMatrix values="0 0 0 0 0.211765 0 0 0 0 0.258824 0 0 0 0 0.313726 0 0 0 0.078 0"/><feBlend in2="BackgroundImageFix" result="effect1_dropShadow"/><feBlend in="SourceGraphic" in2="effect1_dropShadow" result="shape"/></filter><filter id="m" x="175.515" y="396.614" width="113.449" height="80.379" filterUnits="userSpaceOnUse" color-interpolation-filters="sRGB"><feFlood flood-opacity="0" result="BackgroundImageFix"/><feColorMatrix in="SourceAlpha" values="0 0 0 0 0 0 0 0 0 0 0 0 0 0 0 0 0 0 127 0"/><feOffset dy="3.013"/><feGaussianBlur stdDeviation="3.013"/><feColorMatrix values="0 0 0 0 0.145098 0 0 0 0 0.835294 0 0 0 0 0.909804 0 0 0 0.451 0"/><feBlend in2="BackgroundImageFix" result="effect1_dropShadow"/><feBlend in="SourceGraphic" in2="effect1_dropShadow" result="shape"/></filter><filter id="n" x="253.023" y="204.703" width="329.383" height="225.996" filterUnits="userSpaceOnUse" color-interpolation-filters="sRGB"><feFlood flood-opacity="0" result="BackgroundImageFix"/><feColorMatrix in="SourceAlpha" values="0 0 0 0 0 0 0 0 0 0 0 0 0 0 0 0 0 0 127 0"/><feOffset dy="20.087"/><feGaussianBlur stdDeviation="13.057"/><feColorMatrix values="0 0 0 0 0.211765 0 0 0 0 0.258824 0 0 0 0 0.313726 0 0 0 0.059 0"/><feBlend in2="BackgroundImageFix" result="effect1_dropShadow"/><feBlend in="SourceGraphic" in2="effect1_dropShadow" result="shape"/></filter><filter id="o" x="300.623" y="285.833" width="22.095" height="21.179" filterUnits="userSpaceOnUse" color-interpolation-filters="sRGB"><feFlood flood-opacity="0" result="BackgroundImageFix"/><feColorMatrix in="SourceAlpha" values="0 0 0 0 0 0 0 0 0 0 0 0 0 0 0 0 0 0 127 0"/><feOffset dy="3.013"/><feGaussianBlur stdDeviation="3.013"/><feColorMatrix values="0 0 0 0 0.964706 0 0 0 0 0.196078 0 0 0 0 0.552941 0 0 0 0.302 0"/><feBlend in2="BackgroundImageFix" result="effect1_dropShadow"/><feBlend in="SourceGraphic" in2="effect1_dropShadow" result="shape"/></filter><filter id="p" x="416.506" y="304.821" width="110.918" height="70.934" filterUnits="userSpaceOnUse" color-interpolation-filters="sRGB"><feFlood flood-opacity="0" result="BackgroundImageFix"/><feColorMatrix in="SourceAlpha" values="0 0 0 0 0 0 0 0 0 0 0 0 0 0 0 0 0 0 127 0"/><feOffset dy="3.013"/><feGaussianBlur stdDeviation="3.013"/><feColorMatrix values="0 0 0 0 0.964706 0 0 0 0 0.196078 0 0 0 0 0.552941 0 0 0 0.451 0"/><feBlend in2="BackgroundImageFix" result="effect1_dropShadow"/><feBlend in="SourceGraphic" in2="effect1_dropShadow" result="shape"/></filter><filter id="q" x="-43.524" y="128.643" width="329.383" height="225.996" filterUnits="userSpaceOnUse" color-interpolation-filters="sRGB"><feFlood flood-opacity="0" result="BackgroundImageFix"/><feColorMatrix in="SourceAlpha" values="0 0 0 0 0 0 0 0 0 0 0 0 0 0 0 0 0 0 127 0"/><feOffset dy="20.087"/><feGaussianBlur stdDeviation="13.057"/><feColorMatrix values="0 0 0 0 0.211765 0 0 0 0 0.258824 0 0 0 0 0.313726 0 0 0 0.059 0"/><feBlend in2="BackgroundImageFix" result="effect1_dropShadow"/><feBlend in="SourceGraphic" in2="effect1_dropShadow" result="shape"/></filter><filter id="r" x="3.894" y="210.686" width="22.095" height="21.179" filterUnits="userSpaceOnUse" color-interpolation-filters="sRGB"><feFlood flood-opacity="0" result="BackgroundImageFix"/><feColorMatrix in="SourceAlpha" values="0 0 0 0 0 0 0 0 0 0 0 0 0 0 0 0 0 0 127 0"/><feOffset dy="3.013"/><feGaussianBlur stdDeviation="3.013"/><feColorMatrix values="0 0 0 0 0.133333 0 0 0 0 0.835294 0 0 0 0 0.345098 0 0 0 0.302 0"/><feBlend in2="BackgroundImageFix" result="effect1_dropShadow"/><feBlend in="SourceGraphic" in2="effect1_dropShadow" result="shape"/></filter><filter id="s" x="120.291" y="228.691" width="110.314" height="68.688" filterUnits="userSpaceOnUse" color-interpolation-filters="sRGB"><feFlood flood-opacity="0" result="BackgroundImageFix"/><feColorMatrix in="SourceAlpha" values="0 0 0 0 0 0 0 0 0 0 0 0 0 0 0 0 0 0 127 0"/><feOffset dy="3.013"/><feGaussianBlur stdDeviation="3.013"/><feColorMatrix values="0 0 0 0 0.262745 0 0 0 0 0.482353 0 0 0 0 1 0 0 0 0.451 0"/><feBlend in2="BackgroundImageFix" result="effect1_dropShadow"/><feBlend in="SourceGraphic" in2="effect1_dropShadow" result="shape"/></filter><filter id="t" x="-147.606" y="419.707" width="329.383" height="225.996" filterUnits="userSpaceOnUse" color-interpolation-filters="sRGB"><feFlood flood-opacity="0" result="BackgroundImageFix"/><feColorMatrix in="SourceAlpha" values="0 0 0 0 0 0 0 0 0 0 0 0 0 0 0 0 0 0 127 0"/><feOffset dy="20.087"/><feGaussianBlur stdDeviation="13.057"/><feColorMatrix values="0 0 0 0 0.211765 0 0 0 0 0.258824 0 0 0 0 0.313726 0 0 0 0.059 0"/><feBlend in2="BackgroundImageFix" result="effect1_dropShadow"/><feBlend in="SourceGraphic" in2="effect1_dropShadow" result="shape"/></filter><filter id="u" x="16.128" y="524.625" width="109.089" height="64.116" filterUnits="userSpaceOnUse" color-interpolation-filters="sRGB"><feFlood flood-opacity="0" result="BackgroundImageFix"/><feColorMatrix in="SourceAlpha" values="0 0 0 0 0 0 0 0 0 0 0 0 0 0 0 0 0 0 127 0"/><feOffset dy="3.013"/><feGaussianBlur stdDeviation="3.013"/><feColorMatrix values="0 0 0 0 1 0 0 0 0 0.729412 0 0 0 0 0 0 0 0 0.451 0"/><feBlend in2="BackgroundImageFix" result="effect1_dropShadow"/><feBlend in="SourceGraphic" in2="effect1_dropShadow" result="shape"/></filter><clipPath id="a"><path fill="#fff" d="M0 0h1342v712H0z"/></clipPath></defs></svg>