<svg width="240" height="240" viewBox="0 0 240 240" fill="none" xmlns="http://www.w3.org/2000/svg">
<rect x="24" y="24" width="192" height="192" rx="71" stroke="white" stroke-width="2"/>
<mask id="mask0_1146_690" style="mask-type:alpha" maskUnits="userSpaceOnUse" x="58" y="58" width="124" height="124">
<path fill-rule="evenodd" clip-rule="evenodd" d="M120 182C154.219 182 182 154.219 182 120C182 85.7813 154.219 58 120 58C85.7812 58 58 85.7813 58 120C58 154.219 85.7812 182 120 182Z" fill="url(#paint0_linear_1146_690)"/>
</mask>
<g mask="url(#mask0_1146_690)">
<path fill-rule="evenodd" clip-rule="evenodd" d="M120 182C154.219 182 182 154.219 182 120C182 85.7813 154.219 58 120 58C85.7812 58 58 85.7813 58 120C58 154.219 85.7812 182 120 182Z" fill="url(#paint1_linear_1146_690)"/>
<mask id="mask1_1146_690" style="mask-type:alpha" maskUnits="userSpaceOnUse" x="73" y="54" width="137" height="155">
<path d="M209.162 72.1792H186.234V54.4678L73.4995 167.203L78.4366 205.193C165.663 216.219 203.972 203.957 209.162 72.1792Z" fill="#D9D9D9"/>
</mask>
<g mask="url(#mask1_1146_690)">
<path fill-rule="evenodd" clip-rule="evenodd" d="M120 182C154.219 182 182 154.219 182 120C182 85.7813 154.219 58 120 58C85.7812 58 58 85.7813 58 120C58 154.219 85.7812 182 120 182Z" fill="url(#paint2_linear_1146_690)"/>
<path fill-rule="evenodd" clip-rule="evenodd" d="M120 182C154.219 182 182 154.219 182 120C182 85.7813 154.219 58 120 58C85.7812 58 58 85.7813 58 120C58 154.219 85.7812 182 120 182Z" fill="url(#paint3_radial_1146_690)"/>
</g>
<path fill-rule="evenodd" clip-rule="evenodd" d="M92.5419 92.542H142.737L92.5419 142.737L92.5396 131.25H92.5436L120.815 102.975H102.987L92.5419 92.542Z" fill="white"/>
<path d="M134.47 146.871H111.542V129.159L123.794 116.908V134.471H146.87L134.47 146.871Z" fill="white"/>
<path fill-rule="evenodd" clip-rule="evenodd" d="M123.794 134.471V116.908L190.095 50.6074L123.794 134.471Z" fill="#FFBA00"/>
<g style="mix-blend-mode:overlay" opacity="0.64">
<path fill-rule="evenodd" clip-rule="evenodd" d="M123.794 116.909V134.471L185.554 56.3506L206.111 75.2306L87.2772 194.064L66.5093 174.193L123.794 116.909Z" fill="#FBF432"/>
</g>
</g>
<defs>
<linearGradient id="paint0_linear_1146_690" x1="182" y1="120" x2="58" y2="120" gradientUnits="userSpaceOnUse">
<stop stop-color="#0FB3EE"/>
<stop offset="1" stop-color="#0E5DC4"/>
</linearGradient>
<linearGradient id="paint1_linear_1146_690" x1="182" y1="120" x2="58" y2="120" gradientUnits="userSpaceOnUse">
<stop stop-color="#0FB3EE"/>
<stop offset="1" stop-color="#0E5DC4"/>
</linearGradient>
<linearGradient id="paint2_linear_1146_690" x1="154.338" y1="104.918" x2="132.639" y2="164.508" gradientUnits="userSpaceOnUse">
<stop stop-color="#FBF432"/>
<stop offset="1" stop-color="#FFBA00"/>
</linearGradient>
<radialGradient id="paint3_radial_1146_690" cx="0" cy="0" r="1" gradientUnits="userSpaceOnUse" gradientTransform="translate(176.431 136.132) rotate(155.402) scale(102.472 122.692)">
<stop stop-color="#FBF432"/>
<stop offset="1" stop-color="#0FB3EE"/>
</radialGradient>
</defs>
</svg>
