<svg width="240" height="240" viewBox="0 0 240 240" fill="none" xmlns="http://www.w3.org/2000/svg">
<rect x="24" y="24" width="192" height="192" rx="71" stroke="white" stroke-width="2"/>
<g clip-path="url(#clip0_1163_719)">
<path fill-rule="evenodd" clip-rule="evenodd" d="M65.4876 91.9486H90.7155C88.0291 90.7789 85.5325 89.2143 83.3086 87.3066C81.192 85.4918 79.4506 83.2808 78.1823 80.7979C76.925 78.3804 76.4057 75.6469 76.6888 72.9369C77.1009 69.8901 78.4396 67.0437 80.5234 64.7832C81.3148 63.8345 82.2236 62.9901 83.2279 62.2705L83.3288 62.1898C86.9818 59.7376 91.0889 59.5257 95.1455 60.6761C99.1984 61.9675 102.928 64.1111 106.084 66.9629C108.515 69.0706 110.668 71.4781 112.492 74.1276C114.312 76.857 115.934 79.7134 117.346 82.6748C118.355 84.693 119.273 86.8122 120.161 88.9414C121.06 86.8122 121.988 84.7132 122.987 82.6748C124.405 79.7128 126.034 76.8564 127.861 74.1276C129.689 71.4745 131.849 69.0666 134.289 66.9629C137.445 64.1111 141.175 61.9675 145.228 60.6761C149.264 59.5257 153.392 59.7376 157.014 62.1898L157.125 62.2705C158.162 62.984 159.101 63.8286 159.921 64.7832C162 67.0466 163.338 69.8916 163.755 72.9369C164.037 75.6469 163.518 78.38 162.262 80.7979C160.969 83.2873 159.2 85.4987 157.055 87.3066C154.834 89.2141 152.341 90.7787 149.658 91.9486H174.533C176.514 91.9548 178.411 92.7459 179.81 94.1484C181.208 95.5459 181.995 97.4398 182 99.416V111.102C182.001 112.085 181.807 113.058 181.429 113.966C181.052 114.873 180.498 115.697 179.8 116.389L179.497 116.672C178.288 117.741 176.766 118.392 175.158 118.529V173.021C175.15 175.135 174.307 177.161 172.811 178.656C171.316 180.151 169.291 180.995 167.176 181.003H72.9551C70.8423 180.992 68.8192 180.148 67.3262 178.653C65.8332 177.158 64.991 175.134 64.9831 173.021V118.529C63.1765 118.409 61.4758 117.634 60.1999 116.349C60.0977 116.252 60.0033 116.148 59.9173 116.036C58.6946 114.682 58.0122 112.926 58 111.102V99.4362C58.0053 97.452 58.7959 95.5506 60.199 94.1475C61.602 92.7445 63.5034 91.9539 65.4876 91.9486ZM108.88 91.9486H112.27C111.503 90.445 110.545 88.6185 109.435 86.6709C108.325 84.7233 107.083 82.6344 105.751 80.6162C104.583 78.8007 103.309 77.0553 101.937 75.389C100.757 73.9303 99.3581 72.6638 97.7894 71.6351C94.1566 69.415 91.1393 69.1628 89.2119 70.1719C88.722 70.4285 88.2901 70.7831 87.9429 71.2136C87.5957 71.6441 87.3407 72.1413 87.1937 72.6745C86.8165 74.1119 86.9085 75.6322 87.4561 77.0137C89.111 81.7262 94.8529 87.3773 106.72 91.1917L108.92 91.9284L108.88 91.9486ZM128.053 91.9486H131.443L133.684 91.2119C145.541 87.3975 151.293 81.7464 152.948 77.0843C153.489 75.7015 153.581 74.1831 153.21 72.7451C153.059 72.2139 152.802 71.7186 152.455 71.2887C152.108 70.8587 151.679 70.503 151.192 70.2425C149.254 69.2334 146.237 69.4857 142.604 71.7057C141.038 72.7372 139.639 74.0032 138.457 75.4596C137.087 77.1284 135.814 78.8736 134.642 80.6869C133.31 82.7051 132.069 84.7738 130.969 86.7415C129.869 88.7093 128.89 90.5257 128.133 92.0293L128.053 91.9486ZM132.442 114.744V154.362L120.333 146.4L108.183 154.362V114.775H72.7734V173.021C72.7721 173.046 72.7757 173.07 72.7843 173.093C72.7928 173.117 72.8059 173.138 72.8229 173.156C72.8399 173.174 72.8604 173.188 72.8832 173.198C72.9059 173.208 72.9304 173.213 72.9551 173.213H167.176C167.227 173.213 167.276 173.192 167.312 173.156C167.348 173.12 167.368 173.072 167.368 173.021V114.704H132.493L132.442 114.744ZM120.333 127.389L122.583 131.153L126.69 132.162L123.956 135.522L124.279 139.922L120.373 138.237L116.428 139.952L116.761 135.552L114.016 132.192L118.123 131.183L120.333 127.419V127.389ZM158.851 97.1859L161.081 100.98L165.218 101.989L162.453 105.41L162.786 109.84L158.851 108.145L154.875 109.84L155.248 105.41L152.493 102.02L156.621 101.01L158.851 97.2162V97.1859ZM120.293 98.6794L122.503 102.443L126.6 103.452L123.865 106.803L124.188 111.213L120.293 109.527L116.387 111.213L116.71 106.803L113.976 103.452L118.083 102.443L120.293 98.6794ZM80.7051 96.7621L82.7738 100.294L86.6286 101.303L84.0553 104.401L84.3682 108.528L80.7051 106.954L77.042 108.538L77.3548 104.401L74.7816 101.253L78.6364 100.243L80.7051 96.7116V96.7621Z" fill="url(#paint0_linear_1163_719)"/>
</g>
<path fill-rule="evenodd" clip-rule="evenodd" d="M90.7157 91.9486C88.0293 90.7789 85.5327 89.2143 83.3088 87.3066C81.1923 85.4918 79.4508 83.2808 78.1825 80.7979C76.9253 78.3804 76.4059 75.6469 76.689 72.9369C77.1012 69.8901 78.4398 67.0437 80.5237 64.7832C81.3151 63.8345 82.2238 62.9901 83.2281 62.2705L83.329 62.1898C86.982 59.7376 91.0891 59.5257 95.1457 60.6761C99.1987 61.9675 102.928 64.1111 106.085 66.9629C108.515 69.0706 110.668 71.4781 112.492 74.1276C114.313 76.857 115.935 79.7134 117.346 82.6748C118.355 84.693 119.274 86.8122 120.162 88.9414C121.06 86.8122 121.988 84.7132 122.987 82.6748C124.405 79.7128 126.034 76.8564 127.861 74.1276C129.689 71.4745 131.849 69.0666 134.289 66.9629C137.445 64.1111 141.175 61.9675 145.228 60.6761C149.265 59.5257 153.392 59.7376 157.015 62.1898L157.126 62.2705C158.162 62.984 159.101 63.8286 159.921 64.7832C162 67.0466 163.338 69.8916 163.755 72.9369C164.037 75.6469 163.518 78.38 162.262 80.7979C160.969 83.2873 159.2 85.4987 157.055 87.3066C154.835 89.2141 152.341 90.7787 149.658 91.9486H131.444L133.684 91.212C145.541 87.3976 151.293 81.7465 152.948 77.0844C153.489 75.7015 153.581 74.1832 153.21 72.7452C153.059 72.214 152.802 71.7187 152.456 71.2888C152.109 70.8588 151.679 70.503 151.192 70.2426C149.255 69.2335 146.237 69.4858 142.605 71.7058C141.038 72.7372 139.639 74.0033 138.457 75.4597C137.088 77.1285 135.814 78.8737 134.643 80.6869C133.311 82.7052 132.069 84.7739 130.97 86.7416C129.889 88.6743 128.926 90.4609 128.175 91.9486H112.271C111.504 90.445 110.545 88.6185 109.435 86.671C108.325 84.7234 107.084 82.6345 105.752 80.6163C104.584 78.8008 103.31 77.0554 101.937 75.3891C100.758 73.9303 99.3586 72.6639 97.7898 71.6352C94.157 69.4151 91.1398 69.1629 89.2124 70.172C88.7225 70.4286 88.2905 70.7832 87.9433 71.2137C87.5962 71.6442 87.3411 72.1414 87.1941 72.6746C86.817 74.112 86.9089 75.6323 87.4565 77.0138C89.1115 81.7263 94.8533 87.3774 106.72 91.1918L108.92 91.9285L108.88 91.9486H108.88H90.7157Z" fill="#FFBA00"/>
<path fill-rule="evenodd" clip-rule="evenodd" d="M132.443 114.744V154.362L120.333 146.4L108.184 154.362V114.775L132.493 114.704L132.443 114.744ZM120.333 127.389L122.583 131.153L126.691 132.162L123.956 135.522L124.279 139.922L120.374 138.237L116.428 139.952L116.761 135.552L114.016 132.192L118.123 131.183L120.333 127.419V127.389Z" fill="#FFBA00"/>
<defs>
<linearGradient id="paint0_linear_1163_719" x1="104.918" y1="86.9955" x2="164.159" y2="109.103" gradientUnits="userSpaceOnUse">
<stop stop-color="#25D5E8"/>
<stop offset="1" stop-color="#437BFF"/>
</linearGradient>
<clipPath id="clip0_1163_719">
<rect width="124" height="120.993" fill="white" transform="translate(58 60)"/>
</clipPath>
</defs>
</svg>
