<svg width="240" height="240" viewBox="0 0 240 240" fill="none" xmlns="http://www.w3.org/2000/svg">
<rect x="24" y="24" width="192" height="192" rx="71" stroke="white" stroke-width="2"/>
<g clip-path="url(#clip0_1163_711)">
<path fill-rule="evenodd" clip-rule="evenodd" d="M119.599 58.0072C121.79 57.9104 123.518 58.6802 125.261 59.7841C127.474 61.1881 129.965 63.9598 133.039 65.7173C137.365 68.1913 145.377 64.7805 149.481 70.8759C150.248 72.0185 150.783 73.0812 151.158 74.0882L138.975 83.0934C134.32 77.591 127.37 74.0955 119.599 74.0955C105.588 74.0955 94.2321 85.4536 94.2321 99.4624C94.2321 104.498 95.6966 109.189 98.2263 113.13L87.3063 121.283C86.7157 118.08 87.5266 115.48 86.1444 112.283C85.2826 110.29 81.5595 108.54 79.7924 105.396C77.1998 100.777 78.2479 96.3469 83.2807 89.6923C86.3187 85.6715 86.8416 82.9384 87.0328 79.9706C87.2119 77.2158 87.3257 74.4295 89.7174 70.8759C93.8206 64.7805 101.833 68.1913 106.157 65.7173C109.233 63.9598 111.724 61.1881 113.937 59.7841C115.68 58.6802 117.408 57.9104 119.599 58.0072Z" fill="#FFBA00"/>
<path fill-rule="evenodd" clip-rule="evenodd" d="M120.296 86.0809L124.01 94.7762L133.426 95.621C134.094 95.6791 134.356 96.507 133.86 96.9427L126.735 103.164L128.844 112.385C128.994 113.053 128.251 113.556 127.692 113.186L119.599 108.349L111.48 113.203C110.904 113.549 110.209 113.021 110.354 112.385L112.463 103.164L105.336 96.9427C104.823 96.4925 105.125 95.6573 105.794 95.6186L115.186 94.7762L118.902 86.076C119.166 85.4563 120.044 85.4733 120.296 86.0809Z" fill="url(#paint0_linear_1163_711)"/>
<path fill-rule="evenodd" clip-rule="evenodd" d="M151.158 74.0928C151.894 76.0318 152.03 77.9272 152.165 79.9703C152.357 82.9382 152.88 85.6712 155.915 89.692C160.948 96.3466 161.998 100.777 159.406 105.395C157.639 108.54 153.913 110.29 153.054 112.282C151.221 116.526 153.247 119.721 150.737 124.667C148.997 128.095 146.307 130.353 142.729 131.508C139.708 132.481 136.68 131.072 134.262 132.091C130.016 133.875 126.883 138.022 123.501 139.073C122.199 139.477 120.897 139.675 119.599 139.668C118.302 139.675 116.999 139.477 115.697 139.073C112.315 138.022 109.183 133.875 104.937 132.091C102.518 131.072 99.4901 132.481 96.469 131.508C92.8911 130.353 90.2017 128.095 88.4612 124.667C87.8923 123.556 87.5123 122.416 87.2896 121.193L98.224 113.13C102.734 120.167 110.621 124.831 119.599 124.831C133.61 124.831 144.966 113.473 144.966 99.4621C144.966 93.219 142.71 87.5037 138.968 83.0834L151.158 74.0928Z" fill="#FFBA00"/>
<path fill-rule="evenodd" clip-rule="evenodd" d="M76.4227 172.102L88.0858 170.01L93.869 180.362C98.0617 185.556 100.727 177.014 101.899 174.036L113.148 152.814C110.55 151.92 107.43 149.32 104.213 146.411C97.8051 146.544 91.8355 145.433 87.4419 139.836L74.5103 164.816L73.3871 167.215C72.5059 170.33 72.9707 172.39 76.4227 172.102ZM162.775 172.102L151.112 170.01L145.329 180.362C141.136 185.556 138.471 177.014 137.299 174.036L126.05 152.814C128.648 151.92 131.768 149.32 134.985 146.411C141.393 146.544 147.362 145.433 151.756 139.836L164.688 164.816L165.811 167.215C166.692 170.33 166.227 172.39 162.775 172.102Z" fill="url(#paint1_linear_1163_711)"/>
</g>
<defs>
<linearGradient id="paint0_linear_1163_711" x1="116.065" y1="91.7962" x2="129.86" y2="97.0636" gradientUnits="userSpaceOnUse">
<stop stop-color="#25D5E8"/>
<stop offset="1" stop-color="#437BFF"/>
</linearGradient>
<linearGradient id="paint1_linear_1163_711" x1="108.263" y1="149.242" x2="139.047" y2="174.02" gradientUnits="userSpaceOnUse">
<stop stop-color="#25D5E8"/>
<stop offset="1" stop-color="#437BFF"/>
</linearGradient>
<clipPath id="clip0_1163_711">
<rect width="93.1985" height="124" fill="white" transform="translate(73 58)"/>
</clipPath>
</defs>
</svg>
