<svg width="240" height="240" viewBox="0 0 240 240" fill="none" xmlns="http://www.w3.org/2000/svg">
<rect x="24" y="24" width="192" height="192" rx="71" stroke="white" stroke-width="2"/>
<g clip-path="url(#clip0_1143_686)">
<path d="M129.274 155.037C127.511 156.733 125.641 158.415 123.663 160.083L124.208 159.992L125.913 159.689C127.459 159.377 128.988 158.986 130.495 158.519L130.838 158.418L131.918 160.729L133.129 163.332L132.049 163.675C130.363 164.199 128.652 164.637 126.923 164.987C125.187 165.344 123.421 165.61 121.625 165.785C119.828 165.956 118.002 166.047 116.155 166.047C114.309 166.047 112.502 165.956 110.706 165.785C108.91 165.613 107.154 165.341 105.408 164.987C103.705 164.655 102.02 164.231 100.363 163.716C98.7023 163.203 97.0688 162.607 95.4684 161.93H95.3372L95.2464 161.869C93.6722 161.196 92.1417 160.453 90.6549 159.639C89.111 158.812 87.6276 157.903 86.1745 156.945C84.7743 156.011 83.4267 155 82.138 153.917C80.7959 152.817 79.5244 151.657 78.3034 150.446C77.0918 149.255 75.9465 147.998 74.8724 146.682C73.7942 145.362 72.7837 143.988 71.8451 142.565C70.8556 141.129 69.9395 139.643 69.1003 138.115C68.8076 137.58 68.5251 137.035 68.2526 136.49H121.938C122.025 137.519 122.228 138.534 122.543 139.517C122.634 139.79 122.725 140.072 122.836 140.345L123.461 141.879H118.88V157.126C121.786 154.704 124.47 152.272 126.953 149.83C127.73 151.566 128.527 153.302 129.324 155.037H129.274ZM64.0547 124.734L58 100.374H66.7591L69.5443 115.228H69.736L72.8441 100.374H81.3509L84.5902 115.097H84.7718L87.446 100.374H96.195L90.1403 124.744H80.6546L77.2236 111.625H76.9714L73.5505 124.744L64.0547 124.734ZM103.138 124.734L97.0931 100.374H105.842L108.637 115.228H108.829L111.937 100.374H120.444L123.683 115.097H123.865L126.529 100.374H135.288L129.233 124.744H119.738L116.317 111.625H116.064L112.633 124.744L103.138 124.734ZM142.231 124.734L136.186 100.374H144.935L147.73 115.228H147.912L151.03 100.374H159.537L162.776 115.097H162.948L165.622 100.374H174.381L168.326 124.744H158.831L155.41 111.625H155.158L151.727 124.744L142.231 124.734ZM175.653 175.684C175.388 175.941 175.081 176.149 174.744 176.299C174.409 176.448 174.051 176.54 173.685 176.572C173.266 176.606 172.844 176.558 172.444 176.431C172.044 176.307 171.674 176.105 171.354 175.835L162.363 168.206L159.335 175.785C159.084 176.394 158.777 176.979 158.417 177.531C158.083 178.03 157.69 178.488 157.246 178.893C156.854 179.298 156.374 179.608 155.843 179.799C155.313 179.99 154.745 180.058 154.185 179.997C153.624 179.935 153.085 179.747 152.608 179.445C152.131 179.144 151.73 178.737 151.434 178.257C151.153 177.862 150.913 177.44 150.717 176.996C145.299 163.453 138.043 149.952 132.674 136.379C132.512 135.978 132.459 135.541 132.524 135.113C132.588 134.685 132.766 134.282 133.04 133.947C133.313 133.611 133.672 133.355 134.078 133.206C134.484 133.057 134.923 133.02 135.349 133.099C148.356 135.511 165.198 141.001 178.428 144.512C182.535 145.592 183.201 149.215 180.163 152.02C179.683 152.47 179.155 152.865 178.589 153.201C176.258 154.523 173.897 156.047 171.596 157.449L180.547 165.119C180.867 165.401 181.127 165.744 181.314 166.128V166.188C181.489 166.545 181.591 166.932 181.617 167.328C181.639 167.73 181.595 168.132 181.485 168.519C181.364 168.912 181.176 169.28 180.93 169.609C179.305 171.722 177.563 173.744 175.713 175.664L175.653 175.684ZM173.342 172.707L177.671 167.661C175.764 166.017 167.63 159.679 166.742 158.146C166.501 157.724 166.435 157.225 166.558 156.755C166.68 156.286 166.982 155.883 167.398 155.633C170.224 154.059 173.877 151.859 176.561 150.063C176.898 149.864 177.215 149.634 177.509 149.376C177.733 149.177 177.929 148.95 178.095 148.7L178.216 148.468L177.974 148.327C177.785 148.243 177.589 148.175 177.388 148.125L137.135 137.418L154.048 175.522C154.132 175.708 154.23 175.887 154.34 176.057L154.512 176.279L154.724 176.128C154.948 175.928 155.141 175.697 155.299 175.442C155.507 175.123 155.682 174.785 155.824 174.433C157.095 171.325 158.528 167.086 160.011 164.22L160.193 163.968C160.35 163.783 160.542 163.631 160.758 163.52C160.974 163.41 161.209 163.342 161.451 163.323C161.693 163.303 161.936 163.331 162.167 163.406C162.398 163.48 162.612 163.599 162.797 163.756L173.382 172.727L173.342 172.707ZM108.748 160.113C105.51 157.375 102.428 154.457 99.515 151.374C96.6824 148.396 94.0782 145.208 91.7246 141.838H77.9199C78.485 142.595 79.0804 143.322 79.696 144.028C80.4629 144.916 81.2702 145.784 82.1077 146.621C83.2043 147.725 84.3413 148.754 85.5186 149.709C86.6992 150.683 87.9286 151.595 89.2018 152.444C90.4841 153.32 91.8113 154.128 93.1777 154.866C94.5232 155.613 95.9562 156.285 97.4766 156.884H97.5573H97.6178C99.0407 157.48 100.494 158.014 101.967 158.468C103.465 158.936 104.988 159.32 106.528 159.619C107.093 159.73 107.669 159.831 108.234 159.922L108.748 160.002V160.113ZM77.8594 83.2188H92.5218C94.8599 79.8887 97.4151 76.7166 100.171 73.723C103.013 70.6134 106.01 67.6495 109.152 64.8428L108.375 64.9538C107.739 65.0547 107.114 65.1657 106.498 65.2969C104.945 65.6085 103.409 65.9992 101.896 66.4674C100.387 66.9317 98.9042 67.4808 97.4564 68.1123C95.9696 68.7447 94.5434 69.4174 93.1777 70.1305C91.8121 70.8436 90.4666 71.6442 89.1413 72.5322C87.868 73.3809 86.6387 74.2936 85.458 75.2669C84.2773 76.2256 83.1471 77.2852 82.0472 78.3548C81.2096 79.1924 80.4023 80.0602 79.6354 80.9482C79.0098 81.6647 78.4043 82.4014 77.8291 83.1683L77.8594 83.2188ZM123.27 64.8831C126.559 67.8365 129.543 70.7831 132.22 73.723C134.976 76.7138 137.528 79.8862 139.859 83.2188H154.492C153.926 82.472 153.331 81.7354 152.715 81.029C151.959 80.151 151.141 79.2832 150.294 78.4356C149.197 77.339 148.063 76.3097 146.893 75.3477C145.713 74.3735 144.483 73.4607 143.21 72.613C141.938 71.7586 140.613 70.958 139.234 70.2113C137.855 69.4645 136.422 68.785 134.935 68.1729L134.844 68.082C133.411 67.4867 131.958 66.9518 130.485 66.4977C128.973 66.0334 127.437 65.6528 125.883 65.3574C125.237 65.2262 124.602 65.1152 123.986 65.0547L123.28 64.9437L123.27 64.8831ZM105.428 60.0596C107.164 59.703 108.93 59.4373 110.726 59.2624C112.492 59.0908 114.349 59 116.186 59C118.022 59 119.839 59.0908 121.645 59.2624C123.451 59.4339 125.197 59.7064 126.943 60.0596C128.646 60.3961 130.331 60.824 131.988 61.3411C133.659 61.853 135.302 62.4491 136.913 63.1273H137.024L137.115 63.1777C138.689 63.8908 140.236 64.651 141.757 65.4583C143.29 66.2959 144.784 67.194 146.217 68.1426C147.615 69.079 148.963 70.0896 150.253 71.1699C151.599 72.2665 152.874 73.4236 154.078 74.6413C155.287 75.8347 156.432 77.0911 157.509 78.4053C158.587 79.7255 159.597 81.0997 160.536 82.5225C161.545 83.9554 162.393 85.4287 163.22 86.9525C163.513 87.4873 163.796 88.0322 164.068 88.5772H68.2021C68.4847 88.0322 68.7673 87.4772 69.0599 86.9424C69.8874 85.4186 70.7855 83.915 71.724 82.5225C72.6624 81.1299 73.6715 79.7575 74.7513 78.486C75.8311 77.2145 77.0117 75.8623 78.2227 74.6514C79.4187 73.445 80.675 72.2999 81.9867 71.2204C83.311 70.1429 84.6885 69.1326 86.1139 68.193C87.5368 67.1839 89.0202 66.3363 90.5339 65.5189C92.0475 64.7015 93.7126 63.8942 95.3372 63.208C96.9845 62.5047 98.6689 61.8916 100.383 61.3714C102.042 60.8505 103.726 60.4126 105.428 60.0596ZM118.88 68.193V83.2188H133.24C131.226 80.6211 129.081 78.1286 126.812 75.7513C124.41 73.242 121.766 70.7125 118.88 68.1628V68.193ZM113.501 157.126V141.838H98.3646C100.451 144.516 102.698 147.064 105.095 149.467C107.767 152.16 110.573 154.716 113.501 157.126ZM113.501 83.2188V68.193C110.615 70.736 107.971 73.2655 105.57 75.7816C103.301 78.1491 101.156 80.6314 99.1416 83.2188H113.501Z" fill="url(#paint0_linear_1143_686)"/>
<path fill-rule="evenodd" clip-rule="evenodd" d="M173.3 170.929C174.229 169.914 175.127 168.87 175.991 167.799L163.113 156.765L168.993 153.18C169.639 152.786 170.323 152.362 171.03 151.923C172.586 150.957 174.251 149.922 175.86 149.001C171.746 147.891 167.423 146.644 163.05 145.383C154.919 143.038 146.614 140.643 139.146 138.981C141.329 144.133 143.743 149.311 146.207 154.581C146.27 154.716 146.333 154.85 146.396 154.985C149.268 161.129 152.2 167.401 154.781 173.708L160.298 159.897L173.3 170.929ZM171.354 175.835L162.363 168.206L159.335 175.785C159.085 176.394 158.777 176.978 158.417 177.53C158.083 178.03 157.69 178.487 157.247 178.893C156.854 179.298 156.374 179.608 155.843 179.799C155.313 179.99 154.746 180.058 154.185 179.996C153.624 179.935 153.085 179.747 152.608 179.445C152.131 179.144 151.73 178.737 151.434 178.257C151.153 177.862 150.913 177.439 150.718 176.996C148.055 170.34 144.948 163.695 141.84 157.046C138.623 150.165 135.405 143.281 132.675 136.379C132.512 135.978 132.46 135.54 132.524 135.112C132.588 134.684 132.766 134.282 133.04 133.946C133.313 133.611 133.672 133.355 134.078 133.206C134.484 133.057 134.923 133.02 135.349 133.099C144.169 134.734 154.751 137.785 164.776 140.674C169.535 142.046 174.169 143.382 178.428 144.512C182.535 145.592 183.201 149.215 180.164 152.02C179.683 152.469 179.155 152.865 178.589 153.201C177.75 153.677 176.906 154.179 176.063 154.692C175.299 155.158 174.534 155.632 173.774 156.105C173.044 156.558 172.317 157.01 171.596 157.449L180.547 165.118C180.867 165.401 181.127 165.744 181.314 166.127V166.188C181.489 166.544 181.592 166.932 181.617 167.328C181.639 167.73 181.595 168.132 181.486 168.519C181.364 168.911 181.176 169.28 180.931 169.609C179.305 171.722 177.563 173.743 175.713 175.664L175.653 175.684C175.388 175.94 175.081 176.149 174.745 176.299C174.409 176.448 174.051 176.54 173.685 176.572C173.266 176.606 172.844 176.558 172.444 176.43C172.044 176.307 171.674 176.105 171.354 175.835Z" fill="#FFBA00"/>
</g>
<defs>
<linearGradient id="paint0_linear_1143_686" x1="104.937" y1="85.9967" x2="164.199" y2="108.118" gradientUnits="userSpaceOnUse">
<stop stop-color="#25D5E8"/>
<stop offset="1" stop-color="#437BFF"/>
</linearGradient>
<clipPath id="clip0_1143_686">
<rect width="124" height="121.033" fill="white" transform="translate(58 59)"/>
</clipPath>
</defs>
</svg>
