<svg width="240" height="240" viewBox="0 0 240 240" fill="none" xmlns="http://www.w3.org/2000/svg">
<rect x="24" y="24" width="192" height="192" rx="71" stroke="url(#paint0_radial_1144_698)" stroke-width="2"/>
<g clip-path="url(#clip0_1144_698)">
<path fill-rule="evenodd" clip-rule="evenodd" d="M149.194 98.7214H174.906C176.864 98.7214 178.65 99.5186 179.921 100.8C181.213 102.092 182 103.868 182 105.815V160.126C182 162.084 181.203 163.87 179.921 165.141C178.63 166.433 176.854 167.22 174.906 167.22H149.194C147.236 167.22 145.45 166.423 144.178 165.141C142.887 163.85 142.1 162.074 142.1 160.126V105.805C142.1 103.848 142.897 102.062 144.178 100.79C145.47 99.4984 147.236 98.7214 149.194 98.7214ZM61.0778 72H168.165C169.86 72 171.243 73.3825 171.243 75.0778V93.6859H164.704V80.5169C164.704 79.0234 163.483 77.7923 161.979 77.7923H67.2536C65.7601 77.7923 64.529 79.0133 64.529 80.5169V133.526C64.529 135.019 65.75 136.25 67.2536 136.25H135.399V149.096H61.0778C59.3825 149.096 58 147.714 58 146.019V75.0778C58 73.3825 59.3825 72 61.0778 72ZM100.655 153.345H128.577C128.648 158.178 130.636 162.497 136.035 165.908H93.208C97.5169 162.78 100.675 158.976 100.655 153.345ZM114.621 138.723C116.801 138.723 118.577 140.489 118.577 142.678C118.577 144.858 116.801 146.634 114.621 146.634C112.442 146.634 110.666 144.868 110.666 142.678C110.666 140.499 112.432 138.723 114.621 138.723ZM162.04 158.501C163.644 158.501 164.956 159.793 164.956 161.418C164.956 163.022 163.664 164.334 162.04 164.334C160.435 164.334 159.123 163.042 159.123 161.418C159.123 159.813 160.415 158.501 162.04 158.501ZM145.087 156.281H179.003V109.711H145.087V156.281Z" fill="url(#paint1_linear_1144_698)"/>
<path fill-rule="evenodd" clip-rule="evenodd" d="M149.194 98.7217H174.906C176.864 98.7217 178.65 99.5189 179.921 100.8C181.213 102.092 182 103.868 182 105.816V160.126C182 162.084 181.203 163.87 179.921 165.142C178.63 166.433 176.854 167.22 174.906 167.22H149.194C147.236 167.22 145.45 166.423 144.178 165.142C142.887 163.85 142.1 162.074 142.1 160.126V105.806C142.1 103.848 142.897 102.062 144.178 100.79C145.47 99.4987 147.236 98.7217 149.194 98.7217ZM162.04 158.502C163.644 158.502 164.956 159.793 164.956 161.418C164.956 163.022 163.664 164.334 162.04 164.334C160.435 164.334 159.123 163.043 159.123 161.418C159.123 159.813 160.415 158.502 162.04 158.502ZM146.087 156.282H178.003V109.711H146.087V156.282Z" fill="#364250"/>
</g>
<defs>
<radialGradient id="paint0_radial_1144_698" cx="0" cy="0" r="1" gradientUnits="userSpaceOnUse" gradientTransform="translate(212.012 59.0468) rotate(102.625) scale(245.158 165.066)">
<stop stop-color="#FBF432"/>
<stop offset="0.206" stop-color="#FFBA00"/>
<stop offset="0.719" stop-color="#82E397"/>
<stop offset="1" stop-color="#25D5E8"/>
</radialGradient>
<linearGradient id="paint1_linear_1144_698" x1="104.918" y1="93.2416" x2="160.019" y2="119.371" gradientUnits="userSpaceOnUse">
<stop stop-color="#25D5E8"/>
<stop offset="1" stop-color="#437BFF"/>
</linearGradient>
<clipPath id="clip0_1144_698">
<rect width="124" height="95.21" fill="white" transform="translate(58 72)"/>
</clipPath>
</defs>
</svg>
