<svg width="240" height="240" viewBox="0 0 240 240" fill="none" xmlns="http://www.w3.org/2000/svg">
<rect x="24" y="24" width="192" height="192" rx="71" stroke="white" stroke-width="2"/>
<g clip-path="url(#clip0_1144_708)">
<path fill-rule="evenodd" clip-rule="evenodd" d="M65.5786 60H174.412C176.48 60 178.377 60.8577 179.75 62.2301L179.76 62.2402L179.77 62.2503L179.78 62.2604C181.153 63.6429 182 65.5299 182 67.5986V171.82C182 173.909 181.142 175.806 179.77 177.178C178.398 178.551 176.5 179.409 174.412 179.409H65.5786C63.5099 179.409 61.6128 178.561 60.2303 177.178L60.2202 177.168L60.2101 177.158L60.2 177.148C58.8276 175.766 57.98 173.879 57.98 171.81V67.5785C57.98 65.4896 58.8276 63.5924 60.2 62.2201C60.2808 62.1393 60.3615 62.0586 60.4523 61.988C61.8247 60.7568 63.6209 60 65.5786 60ZM124.39 159.65C122.795 159.65 121.504 158.247 121.504 156.512C121.504 154.776 122.795 153.373 124.39 153.373H159.931C161.525 153.373 162.817 154.776 162.817 156.512C162.817 158.247 161.525 159.65 159.931 159.65H124.39ZM79.0099 159.65C77.4357 159.65 76.1541 158.247 76.1541 156.512C76.1541 154.776 77.4357 153.373 79.0099 153.373H111.958C113.532 153.373 114.813 154.776 114.813 156.512C114.813 158.247 113.532 159.65 111.958 159.65H79.0099ZM77.8696 145.936C76.2954 145.936 75.0138 144.534 75.0138 142.798C75.0138 141.062 76.2954 139.66 77.8696 139.66H110.817C112.391 139.66 113.673 141.062 113.673 142.798C113.673 144.534 112.391 145.936 110.817 145.936H77.8696ZM124.39 145.936C122.795 145.936 121.504 144.534 121.504 142.798C121.504 141.062 122.795 139.66 124.39 139.66H159.931C161.525 139.66 162.817 141.062 162.817 142.798C162.817 144.534 161.525 145.936 159.931 145.936H124.39ZM175.148 87.1755C174.916 87.2158 174.664 87.236 174.422 87.236H65.5887C65.3364 87.236 65.0942 87.2158 64.8621 87.1755V171.8C64.8621 172.002 64.9429 172.183 65.064 172.314L65.0741 172.325C65.2052 172.456 65.3869 172.526 65.5887 172.526H174.422C174.613 172.526 174.795 172.446 174.936 172.304C175.068 172.173 175.158 171.992 175.158 171.79L175.148 87.1755ZM108.577 69.7884C111.302 69.7884 113.501 71.9984 113.501 74.7129C113.501 77.4375 111.292 79.6374 108.577 79.6374C105.852 79.6374 103.653 77.4274 103.653 74.7129C103.653 71.9984 105.862 69.7884 108.577 69.7884ZM91.3514 69.7884C94.076 69.7884 96.2759 71.9984 96.2759 74.7129C96.2759 77.4375 94.0659 79.6374 91.3514 79.6374C88.6268 79.6374 86.4269 77.4274 86.4269 74.7129C86.4269 71.9984 88.6369 69.7884 91.3514 69.7884ZM74.1359 69.7884C76.8605 69.7884 79.0604 71.9984 79.0604 74.7129C79.0604 77.4375 76.8504 79.6374 74.1359 79.6374C71.4113 79.6374 69.2114 77.4274 69.2114 74.7129C69.2114 71.9984 71.4113 69.7884 74.1359 69.7884Z" fill="url(#paint0_linear_1144_708)"/>
<path fill-rule="evenodd" clip-rule="evenodd" d="M83.7286 116.908L75.1548 117.446C75.4025 120.397 76.4897 122.825 78.4026 124.728C80.3156 126.645 83.7561 127.61 88.7242 127.61C91.5592 127.61 93.8987 127.197 95.7566 126.383C97.6282 125.555 99.0595 124.355 100.105 122.769C101.138 121.183 101.661 119.445 101.661 117.57C101.661 115.97 101.261 114.522 100.491 113.239C99.7201 111.943 98.4677 110.867 96.7612 109.998C95.0547 109.129 92.2335 108.26 88.2838 107.405C86.6874 107.074 85.6828 106.715 85.2699 106.329C84.8433 105.957 84.6231 105.543 84.6231 105.074C84.6231 104.44 84.8846 103.888 85.4213 103.447C85.958 103.005 86.7562 102.785 87.8021 102.785C89.0682 102.785 90.0729 103.088 90.8022 103.695C91.5179 104.288 91.9995 105.267 92.2197 106.591L100.711 106.081C100.339 103.047 99.1696 100.826 97.2154 99.4333C95.2612 98.0265 92.4124 97.3369 88.6829 97.3369C85.6415 97.3369 83.2469 97.7231 81.4991 98.4817C79.7513 99.2402 78.4439 100.302 77.5769 101.64C76.7099 102.978 76.2695 104.398 76.2695 105.902C76.2695 108.191 77.109 110.067 78.8155 111.543C80.5082 113.032 83.3157 114.218 87.2792 115.101C89.6875 115.639 91.2289 116.191 91.8895 116.797C92.55 117.404 92.8803 118.08 92.8803 118.839C92.8803 119.639 92.5363 120.342 91.8344 120.949C91.1463 121.556 90.1417 121.859 88.8618 121.859C87.1278 121.859 85.8066 121.266 84.8708 120.08C84.2928 119.363 83.9075 118.301 83.7286 116.908ZM130.423 97.8334H106.257V127.128H130.877V120.494H115.326V114.729H129.322V108.757H115.326V104.095H130.423V97.8334ZM134.676 112.508C134.676 107.722 135.997 103.998 138.667 101.35C141.323 98.6885 145.025 97.3507 149.773 97.3507C154.631 97.3507 158.388 98.6609 161.016 101.268C163.645 103.888 164.966 107.557 164.966 112.26C164.966 115.68 164.388 118.48 163.246 120.673C162.09 122.866 160.424 124.562 158.264 125.79C156.089 127.004 153.378 127.61 150.13 127.61C146.841 127.61 144.103 127.086 141.942 126.038C139.781 124.976 138.034 123.321 136.685 121.045C135.35 118.783 134.676 115.929 134.676 112.508ZM143.704 112.522C143.704 115.474 144.254 117.598 145.355 118.894C146.456 120.177 147.956 120.825 149.842 120.825C151.782 120.825 153.296 120.191 154.355 118.935C155.429 117.667 155.952 115.405 155.952 112.122C155.952 109.364 155.388 107.35 154.287 106.081C153.172 104.812 151.672 104.178 149.759 104.178C147.942 104.178 146.47 104.826 145.369 106.109C144.254 107.405 143.704 109.543 143.704 112.522Z" fill="url(#paint1_linear_1144_708)"/>
</g>
<path fill-rule="evenodd" clip-rule="evenodd" d="M83.7286 116.908L75.1548 117.446C75.4025 120.397 76.4897 122.825 78.4026 124.728C80.3156 126.645 83.7561 127.61 88.7242 127.61C91.5592 127.61 93.8987 127.197 95.7566 126.383C97.6282 125.555 99.0595 124.355 100.105 122.769C101.138 121.183 101.661 119.445 101.661 117.57C101.661 115.97 101.261 114.522 100.491 113.239C99.7201 111.943 98.4677 110.867 96.7612 109.998C95.0547 109.129 92.2335 108.26 88.2838 107.405C86.6874 107.074 85.6828 106.715 85.2699 106.329C84.8433 105.957 84.6231 105.543 84.6231 105.074C84.6231 104.44 84.8846 103.888 85.4213 103.447C85.958 103.005 86.7562 102.785 87.8021 102.785C89.0682 102.785 90.0729 103.088 90.8022 103.695C91.5179 104.288 91.9995 105.267 92.2197 106.591L100.711 106.081C100.339 103.047 99.1696 100.826 97.2154 99.4333C95.2612 98.0265 92.4124 97.3369 88.6829 97.3369C85.6415 97.3369 83.2469 97.7231 81.4991 98.4817C79.7513 99.2402 78.4439 100.302 77.5769 101.64C76.7099 102.978 76.2695 104.398 76.2695 105.902C76.2695 108.191 77.109 110.067 78.8155 111.543C80.5082 113.032 83.3157 114.218 87.2792 115.101C89.6875 115.639 91.2289 116.191 91.8895 116.797C92.55 117.404 92.8803 118.08 92.8803 118.839C92.8803 119.639 92.5363 120.342 91.8344 120.949C91.1463 121.556 90.1417 121.859 88.8618 121.859C87.1278 121.859 85.8066 121.266 84.8708 120.08C84.2928 119.363 83.9075 118.301 83.7286 116.908ZM130.423 97.8334H106.257V127.128H130.877V120.494H115.326V114.729H129.322V108.757H115.326V104.095H130.423V97.8334ZM134.676 112.508C134.676 107.722 135.997 103.998 138.667 101.35C141.323 98.6885 145.025 97.3507 149.773 97.3507C154.631 97.3507 158.388 98.6609 161.016 101.268C163.645 103.888 164.966 107.557 164.966 112.26C164.966 115.68 164.388 118.48 163.246 120.673C162.09 122.866 160.424 124.562 158.264 125.79C156.089 127.004 153.378 127.61 150.13 127.61C146.841 127.61 144.103 127.086 141.942 126.038C139.781 124.976 138.034 123.321 136.685 121.045C135.35 118.783 134.676 115.929 134.676 112.508ZM143.704 112.522C143.704 115.474 144.254 117.598 145.355 118.894C146.456 120.177 147.956 120.825 149.842 120.825C151.782 120.825 153.296 120.191 154.355 118.935C155.429 117.667 155.952 115.405 155.952 112.122C155.952 109.364 155.388 107.35 154.287 106.081C153.172 104.812 151.672 104.178 149.759 104.178C147.942 104.178 146.47 104.826 145.369 106.109C144.254 107.405 143.704 109.543 143.704 112.522Z" fill="url(#paint2_linear_1144_708)"/>
<path fill-rule="evenodd" clip-rule="evenodd" d="M83.7286 116.908L75.1548 117.446C75.4025 120.397 76.4897 122.825 78.4026 124.728C80.3156 126.645 83.7561 127.61 88.7242 127.61C91.5592 127.61 93.8987 127.197 95.7566 126.383C97.6282 125.555 99.0595 124.355 100.105 122.769C101.138 121.183 101.661 119.445 101.661 117.57C101.661 115.97 101.261 114.522 100.491 113.239C99.7201 111.943 98.4677 110.867 96.7612 109.998C95.0547 109.129 92.2335 108.26 88.2838 107.405C86.6874 107.074 85.6828 106.715 85.2699 106.329C84.8433 105.957 84.6231 105.543 84.6231 105.074C84.6231 104.44 84.8846 103.888 85.4213 103.447C85.958 103.005 86.7562 102.785 87.8021 102.785C89.0682 102.785 90.0729 103.088 90.8022 103.695C91.5179 104.288 91.9995 105.267 92.2197 106.591L100.711 106.081C100.339 103.047 99.1696 100.826 97.2154 99.4333C95.2612 98.0265 92.4124 97.3369 88.6829 97.3369C85.6415 97.3369 83.2469 97.7231 81.4991 98.4817C79.7513 99.2402 78.4439 100.302 77.5769 101.64C76.7099 102.978 76.2695 104.398 76.2695 105.902C76.2695 108.191 77.109 110.067 78.8155 111.543C80.5082 113.032 83.3157 114.218 87.2792 115.101C89.6875 115.639 91.2289 116.191 91.8895 116.797C92.55 117.404 92.8803 118.08 92.8803 118.839C92.8803 119.639 92.5363 120.342 91.8344 120.949C91.1463 121.556 90.1417 121.859 88.8618 121.859C87.1278 121.859 85.8066 121.266 84.8708 120.08C84.2928 119.363 83.9075 118.301 83.7286 116.908ZM130.423 97.8334H106.257V127.128H130.877V120.494H115.326V114.729H129.322V108.757H115.326V104.095H130.423V97.8334ZM134.676 112.508C134.676 107.722 135.997 103.998 138.667 101.35C141.323 98.6885 145.025 97.3507 149.773 97.3507C154.631 97.3507 158.388 98.6609 161.016 101.268C163.645 103.888 164.966 107.557 164.966 112.26C164.966 115.68 164.388 118.48 163.246 120.673C162.09 122.866 160.424 124.562 158.264 125.79C156.089 127.004 153.378 127.61 150.13 127.61C146.841 127.61 144.103 127.086 141.942 126.038C139.781 124.976 138.034 123.321 136.685 121.045C135.35 118.783 134.676 115.929 134.676 112.508ZM143.704 112.522C143.704 115.474 144.254 117.598 145.355 118.894C146.456 120.177 147.956 120.825 149.842 120.825C151.782 120.825 153.296 120.191 154.355 118.935C155.429 117.667 155.952 115.405 155.952 112.122C155.952 109.364 155.388 107.35 154.287 106.081C153.172 104.812 151.672 104.178 149.759 104.178C147.942 104.178 146.47 104.826 145.369 106.109C144.254 107.405 143.704 109.543 143.704 112.522Z" fill="#FFBA00"/>
<defs>
<linearGradient id="paint0_linear_1144_708" x1="104.906" y1="86.6376" x2="163.961" y2="108.973" gradientUnits="userSpaceOnUse">
<stop stop-color="#25D5E8"/>
<stop offset="1" stop-color="#437BFF"/>
</linearGradient>
<linearGradient id="paint1_linear_1144_708" x1="109.137" y1="104.09" x2="131.694" y2="128.459" gradientUnits="userSpaceOnUse">
<stop stop-color="#25D5E8"/>
<stop offset="1" stop-color="#437BFF"/>
</linearGradient>
<linearGradient id="paint2_linear_1144_708" x1="109.137" y1="104.09" x2="131.694" y2="128.459" gradientUnits="userSpaceOnUse">
<stop stop-color="#25D5E8"/>
<stop offset="1" stop-color="#437BFF"/>
</linearGradient>
<clipPath id="clip0_1144_708">
<rect width="124" height="119.388" fill="white" transform="translate(58 60)"/>
</clipPath>
</defs>
</svg>
