<svg width="240" height="240" viewBox="0 0 240 240" fill="none" xmlns="http://www.w3.org/2000/svg">
<rect x="24" y="24" width="192" height="192" rx="71" stroke="white" stroke-width="2"/>
<g clip-path="url(#clip0_1163_690)">
<path d="M78.1734 128.789C73.3801 129.798 68.4254 129.899 63.622 124.964C60.413 121.675 58.8085 116.76 59.0002 111.614C71.2812 125.893 86.2463 108.243 68.0823 99.0706C76.8515 94.9131 85.1262 98.8183 89.5159 106.901C91.5946 110.716 92.8359 112.714 94.4202 114.076C94.7072 114.328 95.0106 114.561 95.3284 114.772C96.0002 112.846 97.368 111.241 99.163 110.272C100.177 109.747 101.301 109.47 102.443 109.464C105.652 109.464 109.648 111.382 110.324 114.651C110.468 114.611 110.618 114.59 110.768 114.591H113.099C113.223 114.575 113.348 114.575 113.472 114.591C114.704 114.704 115.865 115.218 116.777 116.055C117.688 116.892 118.3 118.005 118.518 119.223C118.742 119.116 118.986 119.061 119.234 119.061H121.565C121.689 119.046 121.815 119.046 121.939 119.061C125.279 119.576 126.631 121.634 127.105 124.228H127.368H129.699C129.823 124.212 129.948 124.212 130.072 124.228C133.907 124.823 135.41 127.336 135.996 130.363C143.059 129.283 150.698 125.045 158.196 132.714C159.828 134.512 161.078 136.622 161.871 138.917C162.664 141.212 162.982 143.644 162.808 146.065C150.527 131.786 135.562 149.436 153.726 158.608C146.188 162.181 139.003 159.789 134.351 153.906C133.716 155.629 132.925 157.291 131.99 158.871C131.606 159.496 131.212 160.142 130.708 161.03C130.703 161.054 130.703 161.078 130.708 161.101C130.312 161.799 129.874 162.473 129.396 163.119H131.011C131.679 163.122 132.319 163.388 132.792 163.861C133.264 164.334 133.531 164.974 133.533 165.642V179.376C133.531 180.044 133.264 180.684 132.792 181.157C132.319 181.629 131.679 181.896 131.011 181.899H94.4504C93.7822 181.896 93.142 181.629 92.6695 181.157C92.197 180.684 91.9303 180.044 91.9277 179.376V165.743C91.9303 165.075 92.197 164.434 92.6695 163.962C93.142 163.489 93.7822 163.223 94.4504 163.22H95.3284C94.8882 161.982 94.5837 160.699 94.4202 159.395L81.8466 138.799L81.7861 138.729C80.791 137.399 79.945 135.964 79.2633 134.45C78.6756 133.176 78.3072 131.811 78.1734 130.414C78.1328 129.886 78.1328 129.357 78.1734 128.829V128.789ZM136.702 92.0774C138.117 92.8188 139.447 93.7121 140.668 94.7415C141.889 95.7458 143.005 96.8718 143.998 98.1019C144.935 99.3109 145.778 100.589 146.521 101.926C147.244 103.251 147.826 104.648 148.256 106.094C148.714 107.55 149.005 109.053 149.124 110.575C149.291 112.097 149.291 113.633 149.124 115.156C149.124 115.267 149.124 115.348 149.124 115.418C149.002 116.703 148.772 117.976 148.438 119.223C146.783 119.384 145.138 119.646 143.514 119.939L142.02 119.142C142.151 118.799 142.262 118.446 142.373 118.082C142.679 117.047 142.895 115.987 143.019 114.914C143.009 114.84 143.009 114.765 143.019 114.692C143.136 113.538 143.136 112.375 143.019 111.22C142.913 110.117 142.704 109.025 142.393 107.961C142.075 106.908 141.642 105.892 141.102 104.934C140.552 103.91 139.906 102.94 139.174 102.037C138.438 101.13 137.609 100.301 136.702 99.5651C134.851 98.0617 132.726 96.9309 130.446 96.235C129.41 95.9291 128.35 95.713 127.277 95.5892C127.204 95.6036 127.128 95.6036 127.055 95.5892C125.9 95.4829 124.738 95.4829 123.584 95.5892C122.48 95.6986 121.388 95.9115 120.324 96.2249C119.271 96.5433 118.256 96.9765 117.297 97.5166C116.273 98.0631 115.303 98.705 114.401 99.4339C113.505 100.165 112.683 100.983 111.948 101.876C111.716 102.148 111.484 102.441 111.262 102.754L105.753 99.8174C106.193 99.151 106.671 98.5108 107.185 97.9C108.163 96.6878 109.262 95.5787 110.465 94.5901C111.671 93.6468 112.95 92.7999 114.29 92.0573C115.648 91.3385 117.07 90.7473 118.538 90.2913C119.981 89.8454 121.465 89.5479 122.968 89.4033C124.494 89.2419 126.033 89.2419 127.559 89.4033C127.66 89.4033 127.751 89.4537 127.812 89.4033C129.299 89.5455 130.769 89.8294 132.201 90.2509C133.729 90.7191 135.212 91.3237 136.631 92.0573L136.702 92.0774ZM98.4667 116.296V116.397V116.528V116.74V116.851V116.962V117.305V117.537V117.659V117.891V118.022V118.153V118.547V118.678V118.819V119.071V137.72C98.4847 137.953 98.4544 138.187 98.3776 138.407C98.3008 138.628 98.1793 138.831 98.0206 139.002C97.8618 139.173 97.6694 139.31 97.4553 139.404C97.2412 139.497 97.0101 139.546 96.7764 139.546C96.5428 139.546 96.3117 139.497 96.0976 139.404C95.8835 139.31 95.691 139.173 95.5323 139.002C95.3736 138.831 95.2521 138.628 95.1753 138.407C95.0985 138.187 95.0682 137.953 95.0862 137.72V134.591C94.9975 134.541 94.9131 134.484 94.8339 134.42L91.0901 131.826L86.7105 128.224C86.2633 127.847 85.7679 127.531 85.2372 127.285H84.0969C83.6135 127.165 83.1055 127.186 82.6337 127.346C82.4531 127.422 82.2896 127.534 82.1527 127.674C82.0158 127.815 81.9083 127.981 81.8365 128.163H81.7356C81.5294 128.853 81.4608 129.577 81.5338 130.293C81.6375 131.308 81.9139 132.297 82.3512 133.219C82.9354 134.457 83.6527 135.628 84.4905 136.711C84.4905 136.711 84.5611 136.812 84.5914 136.872L97.4071 157.821C97.5625 158.05 97.6595 158.313 97.6897 158.588C97.7989 160.208 98.2494 161.787 99.0116 163.22H124.593C125.884 162.241 126.945 160.99 127.701 159.557C127.717 159.524 127.738 159.494 127.761 159.466C128.125 158.84 128.609 158.043 129.083 157.266C130.329 155.102 131.298 152.79 131.969 150.384V150.324V150.223V150.162V150.061V149.991V149.89L132.03 149.688V149.587V149.496V149.395V149.325V149.224V149.123V149.022V148.82V148.719V148.628V148.527V148.426V148.346V148.245V148.174V148.073V147.972V147.871V147.801V147.7V147.619V147.528V147.427V147.337V147.236V147.135V147.044V146.751V146.65V146.549V146.459V146.358V146.267V146.166V145.318V144.309L131.899 138.557C131.894 138.477 131.894 138.396 131.899 138.315C131.899 138.234 131.899 137.689 131.899 136.963V136.781V135.54V135.348V134.047V133.855V132.775V132.603V132.422V132.23V132.139V131.493V131.413V131.322V131.231V131.14V131.07V130.979V130.898V130.807V130.656C131.777 129.915 131.432 129.229 130.912 128.688C130.391 128.148 129.718 127.778 128.982 127.629H127.358C127.358 128.103 127.358 128.567 127.358 129.041V129.142V129.223V129.647V129.748V129.818V129.869V129.919V129.97C127.297 130.908 127.247 131.826 127.247 132.694C127.247 133.144 127.068 133.575 126.75 133.893C126.432 134.211 126.001 134.39 125.551 134.39C125.102 134.39 124.671 134.211 124.353 133.893C124.035 133.575 123.856 133.144 123.856 132.694C123.856 131.826 123.927 130.817 123.987 129.768V129.435V129.263V129.112V128.779V128.607V128.456V128.284V128.839V128.496V128.163V127.83V127.629C123.987 125.086 123.533 122.876 121.485 122.502H119.244C119.124 122.518 119.002 122.518 118.881 122.502C118.881 123.451 118.881 124.44 118.8 125.398V126.408C118.74 127.346 118.689 128.254 118.689 129.122C118.689 129.572 118.511 130.003 118.193 130.321C117.875 130.639 117.444 130.817 116.994 130.817C116.544 130.817 116.113 130.639 115.795 130.321C115.477 130.003 115.299 129.572 115.299 129.122C115.299 128.254 115.369 127.245 115.43 126.196V126.024V125.873V125.711V125.54V125.368V125.197V124.874V124.712V124.541V124.399V124.228V124.056V123.986C115.511 121.12 115.198 118.476 112.937 118.062H110.758C110.611 118.063 110.465 118.043 110.324 118.002V124.551C110.324 125 110.145 125.432 109.827 125.75C109.509 126.067 109.078 126.246 108.628 126.246C108.179 126.246 107.748 126.067 107.43 125.75C107.112 125.432 106.933 125 106.933 124.551V116.276C106.933 113.935 104.612 112.926 102.443 112.926C101.832 112.927 101.231 113.072 100.687 113.35C99.562 114.024 98.7441 115.11 98.4062 116.377L98.4667 116.296ZM94.6119 128.638L93.0175 127.982C92.2929 127.686 91.5516 127.434 90.7974 127.225L93.2294 129.243L94.6119 130.373V128.638Z" fill="url(#paint0_linear_1163_690)"/>
<path d="M136.702 92.0784C138.117 92.8198 139.447 93.7131 140.668 94.7425C141.889 95.7468 143.005 96.8727 143.998 98.1028C144.935 99.3118 145.778 100.59 146.521 101.927C147.244 103.252 147.826 104.649 148.256 106.095C148.714 107.551 149.005 109.054 149.124 110.575C149.291 112.098 149.291 113.634 149.124 115.157C149.124 115.268 149.124 115.349 149.124 115.419C149.002 116.704 148.772 117.977 148.438 119.224C146.783 119.385 145.138 119.647 143.514 119.94L142.02 119.143C142.151 118.8 142.262 118.447 142.373 118.083C142.679 117.048 142.895 115.987 143.019 114.915C143.009 114.841 143.009 114.766 143.019 114.693C143.135 113.538 143.135 112.376 143.019 111.221C142.913 110.118 142.703 109.026 142.393 107.962C142.075 106.909 141.642 105.893 141.102 104.935C140.552 103.911 139.906 102.941 139.174 102.038C138.438 101.131 137.609 100.302 136.702 99.5661C134.851 98.0627 132.726 96.9319 130.445 96.236C129.41 95.9301 128.35 95.714 127.277 95.5901C127.204 95.6046 127.128 95.6046 127.055 95.5901C125.9 95.4838 124.738 95.4838 123.583 95.5901C122.48 95.6996 121.388 95.9125 120.324 96.2259C119.271 96.5443 118.255 96.9774 117.297 97.5176C116.273 98.064 115.303 98.706 114.401 99.4349C113.505 100.166 112.683 100.984 111.948 101.877C111.716 102.149 111.484 102.442 111.262 102.755L105.752 99.8183C106.192 99.152 106.671 98.5118 107.185 97.901C108.163 96.6888 109.262 95.5797 110.465 94.5911C111.671 93.6477 112.95 92.8008 114.29 92.0582C115.648 91.3395 117.07 90.7483 118.538 90.2923C119.981 89.8464 121.465 89.5489 122.968 89.4043C124.494 89.2428 126.033 89.2428 127.559 89.4043C127.66 89.4043 127.751 89.4547 127.812 89.4043C129.299 89.5465 130.768 89.8303 132.201 90.2519C133.729 90.7201 135.212 91.3246 136.631 92.0582L136.702 92.0784Z" fill="#FFBA00"/>
<path d="M171.012 95.1962C170.941 94.924 170.813 94.6697 170.638 94.4495C170.488 94.2499 170.29 94.0905 170.063 93.9853C169.848 93.8579 169.606 93.7819 169.357 93.7633C169.098 93.7559 168.84 93.7865 168.59 93.8541H168.529L161.102 96.1145C160.406 96.341 159.651 96.3073 158.977 96.0197C158.304 95.7321 157.757 95.2101 157.439 94.5504C157.056 93.9046 156.682 93.2688 156.228 92.5322C155.774 91.7955 155.219 91.1396 154.826 90.5139C154.432 89.8883 153.857 89.2828 153.251 88.6572C152.646 88.0315 152.242 87.5068 151.546 86.8105C151.101 86.3388 150.815 85.7404 150.726 85.0983C150.638 84.4563 150.751 83.8026 151.051 83.2281L154.997 75.8111C155.132 75.5929 155.215 75.3459 155.238 75.0901C155.26 74.8342 155.223 74.5766 155.128 74.3378C155.063 74.1026 154.957 73.8806 154.815 73.6819C154.649 73.4744 154.438 73.3057 154.2 73.1874L144.855 68.2125C144.639 68.0957 144.408 68.0075 144.169 67.9501C143.889 67.9447 143.61 67.9822 143.342 68.0611C143.11 68.1148 142.898 68.2299 142.726 68.3942C142.519 68.5611 142.35 68.7711 142.232 69.0097L138.599 75.8212C138.254 76.4703 137.693 76.9786 137.013 77.2586C136.334 77.5386 135.578 77.5727 134.875 77.3551C134.048 77.1432 133.271 76.9414 132.585 76.8001C131.898 76.6588 131.031 76.5175 130.203 76.4065C129.4 76.301 128.591 76.237 127.781 76.2148C126.934 76.1542 126.146 76.2148 125.39 76.1542C124.711 76.1799 124.044 75.977 123.495 75.5781C122.946 75.1792 122.547 74.6073 122.362 73.9544L119.84 65.7805C119.84 65.72 119.84 65.72 119.84 65.6796C119.771 65.4442 119.669 65.2199 119.537 65.0136C119.196 64.6684 118.747 64.451 118.265 64.3981C117.985 64.3751 117.702 64.413 117.438 64.5091L107.438 67.5667C107.165 67.6318 106.91 67.7558 106.691 67.93C106.493 68.0848 106.331 68.2812 106.216 68.5052C106.087 68.7225 106.014 68.9688 106.005 69.2216C105.993 69.4772 106.023 69.7329 106.095 69.9785V70.0289L108.366 77.4459C108.577 78.1455 108.535 78.8973 108.247 79.569C107.959 80.2408 107.444 80.7896 106.792 81.1191C106.146 81.4925 105.51 81.8658 104.773 82.33C104.037 82.7942 103.381 83.2887 102.755 83.7327C102.13 84.1767 101.443 84.7418 100.828 85.2867C100.212 85.8317 99.6673 86.2958 98.9811 87.0022C98.5043 87.4525 97.8979 87.7416 97.2479 87.8285C96.5978 87.9154 95.9368 87.7958 95.3584 87.4866L87.9515 83.541C87.7183 83.4112 87.4605 83.3322 87.1947 83.3089C86.9607 83.3079 86.7273 83.3316 86.4984 83.3795C86.2681 83.4303 86.0555 83.5418 85.8828 83.7024C85.6724 83.8705 85.5033 84.0845 85.3883 84.3281L84.9847 85.0748C82.7483 84.6422 80.4626 84.5234 78.1934 84.7216L79.9896 81.3411C80.4997 80.385 81.1843 79.5328 82.0078 78.8284C82.8493 78.1499 83.8114 77.6363 84.8434 77.3147C85.8802 76.9911 86.9712 76.8779 88.0524 76.9817C89.1154 77.1274 90.142 77.4696 91.0798 77.9908L96.5592 80.9173L96.9629 80.5843C97.6693 79.9687 98.4261 79.3834 99.1829 78.788C99.9398 78.1927 100.757 77.5973 101.504 77.1129L101.766 76.9212L100.253 71.8251C99.9118 70.7954 99.7982 69.7041 99.9196 68.6262C100.014 67.5441 100.33 66.493 100.848 65.5384C101.342 64.5806 102.03 63.7355 102.866 63.0559C103.707 62.371 104.674 61.8569 105.712 61.5423L115.793 58.414C116.818 58.0794 117.896 57.9391 118.972 58.0003C120.055 58.0907 121.106 58.407 122.06 58.9287C123.031 59.4592 123.891 60.1718 124.592 61.0276C125.261 61.8596 125.739 62.8273 125.995 63.8632L127.842 69.7968C127.986 69.8115 128.131 69.8115 128.276 69.7968C129.184 69.8473 130.122 69.9583 131.111 70.0491C132.1 70.1399 132.998 70.3317 133.947 70.5133C134.084 70.5199 134.218 70.5542 134.34 70.6142L136.823 65.942C137.321 64.986 138.01 64.142 138.846 63.4618C139.683 62.7815 140.649 62.2794 141.687 61.9863H141.747C142.761 61.6688 143.829 61.5624 144.886 61.6734C145.942 61.7815 146.969 62.0861 147.913 62.5716L157.247 67.5566C158.204 68.0661 159.056 68.7507 159.76 69.5748C160.459 70.4068 160.974 71.3764 161.274 72.4205C161.598 73.4537 161.711 74.5416 161.607 75.6194C161.467 76.6838 161.125 77.7115 160.598 78.6468L157.671 84.1363C157.782 84.2473 157.903 84.4189 158.014 84.5299C158.62 85.2464 159.215 85.9931 159.8 86.7499C160.386 87.5068 161.001 88.3242 161.476 89.0709L161.667 89.3434L166.763 87.8196C167.794 87.4819 168.885 87.3718 169.962 87.4967C171.043 87.5922 172.093 87.9045 173.05 88.415C174.009 88.9075 174.855 89.5949 175.533 90.4332V90.5139C176.217 91.355 176.732 92.3216 177.046 93.3596L180.074 103.36H180.124C180.431 104.383 180.55 105.453 180.477 106.519C180.382 107.6 180.066 108.651 179.549 109.606C179.037 110.553 178.352 111.395 177.531 112.089C176.693 112.762 175.718 113.244 174.675 113.502L168.741 115.348C168.741 115.5 168.741 115.671 168.741 115.823C168.741 116.741 168.59 117.669 168.499 118.557C168.499 118.557 168.499 118.668 168.499 118.709C168.379 119.672 168.207 120.629 167.984 121.574L167.914 121.918L172.626 124.43C173.591 124.918 174.441 125.606 175.119 126.449C175.788 127.281 176.285 128.238 176.582 129.264V129.335C176.899 130.345 177.006 131.41 176.895 132.463C176.788 133.521 176.48 134.548 175.987 135.49L175.24 136.893L173.908 136.176C172.913 133.335 171.431 130.689 169.528 128.356C169.387 128.164 169.236 127.982 169.074 127.801C166.94 125.252 164.358 123.115 161.455 121.494C161.546 121.12 161.637 120.737 161.718 120.353C161.849 119.597 162 118.799 162.091 117.911C162.091 117.911 162.091 117.8 162.091 117.76C162.202 116.943 162.263 116.206 162.323 115.469C162.384 114.733 162.414 113.865 162.394 113.078C162.368 112.4 162.571 111.732 162.97 111.183C163.369 110.634 163.941 110.235 164.594 110.05L172.757 107.528C172.757 107.528 172.828 107.528 172.868 107.528C173.102 107.461 173.323 107.359 173.524 107.225C173.703 107.074 173.844 106.884 173.938 106.67C174.059 106.449 174.131 106.204 174.15 105.953C174.173 105.673 174.135 105.391 174.039 105.126L171.012 95.1357V95.1962Z" fill="#FFBA00"/>
</g>
<defs>
<linearGradient id="paint0_linear_1163_690" x1="98.2861" y1="109.943" x2="146.739" y2="129.731" gradientUnits="userSpaceOnUse">
<stop stop-color="#25D5E8"/>
<stop offset="1" stop-color="#437BFF"/>
</linearGradient>
<clipPath id="clip0_1163_690">
<rect width="121.507" height="124" fill="white" transform="translate(59 58)"/>
</clipPath>
</defs>
</svg>
