<svg width="240" height="240" viewBox="0 0 240 240" fill="none" xmlns="http://www.w3.org/2000/svg">
<rect x="24" y="24" width="192" height="192" rx="71" stroke="white" stroke-width="2"/>
<g clip-path="url(#clip0_1163_705)">
<path fill-rule="evenodd" clip-rule="evenodd" d="M91.3962 101.005H105.493C106.597 101.005 107.5 101.905 107.5 103.009V129.663C107.5 130.767 106.597 131.67 105.493 131.67H91.3962C90.2947 131.67 89.3918 130.767 89.3918 129.663V103.009C89.3918 101.905 90.2947 101.005 91.3962 101.005ZM94.3042 162.213L107.155 149.175C107.78 148.574 108.584 148.277 109.388 148.277L169.823 148.267C170.561 148.267 171.236 147.962 171.728 147.47C172.235 146.966 172.52 146.28 172.522 145.565L173.522 70.1606C173.522 69.4295 173.212 68.7565 172.721 68.2651C172.227 67.7712 171.546 67.4565 170.823 67.4565H71.1606C70.444 67.4565 69.7662 67.776 69.2723 68.2723C68.776 68.7662 68.4589 69.444 68.4589 70.1606V145.565C68.4589 146.291 68.7688 146.969 69.2651 147.466L69.3813 147.591C69.8509 148.008 70.4779 148.267 71.1606 148.267H91.0748C92.8566 148.267 94.3042 149.715 94.3042 151.496V162.213ZM114.675 157.723L90.469 180.94C90.1662 181.274 89.7966 181.541 89.3843 181.723C88.9719 181.906 88.5258 182 88.0748 182C86.293 182 84.8453 180.552 84.8453 178.771V157.723H68.1606C65.7591 157.723 63.5585 156.772 61.9196 155.232L61.6969 155.031C60.0337 153.368 59 151.068 59 148.565V67.1606C59 64.6598 60.0458 62.3649 61.7041 60.7041C63.3649 59.0458 65.6623 58 68.1606 58H172.823C175.323 58 177.623 59.0337 179.289 60.6993C180.937 62.3503 181.981 64.6429 181.981 67.1606V148.565C181.981 151.085 180.952 153.38 179.294 155.036C177.635 156.695 175.343 157.723 172.823 157.723H114.675ZM121.384 82.572C121.667 81.1436 122.4 80.2261 123.41 79.7613C124.228 79.3812 125.182 79.3449 126.175 79.6064C127.036 79.8315 127.944 80.2915 128.811 80.9524C131.162 82.7438 133.365 86.1137 133.645 90.3309C133.73 91.6261 133.708 93.0132 133.585 94.4827C133.505 95.4583 133.377 96.4775 133.21 97.5451H143.208L143.254 97.5499C144.881 97.6129 146.454 98.0075 147.779 98.7047C148.926 99.3051 149.894 100.126 150.565 101.15C151.257 102.205 151.637 103.459 151.579 104.89C151.538 105.953 151.255 107.105 150.676 108.335C151.008 109.717 151.158 111.204 150.945 112.504C150.766 113.613 150.335 114.598 149.563 115.326C149.599 117.157 149.357 118.692 148.866 120.018C148.36 121.384 147.602 122.514 146.629 123.519C146.544 124.393 146.401 125.23 146.181 126.015C145.9 127 145.498 127.905 144.934 128.699H144.932C143.225 131.103 141.862 131.05 139.703 130.961C139.402 130.951 139.08 130.934 138.579 130.934H119.014C117.251 130.934 115.871 130.68 114.608 130.05C113.358 129.426 112.291 128.462 111.151 127.034L110.86 126.204V103.387L111.853 103.12C114.375 102.44 116.36 100.283 117.9 97.7025C119.486 95.0492 120.599 91.9359 121.359 89.4255V82.8286L121.384 82.572ZM124.526 82.1846C124.311 82.2814 124.134 82.5381 124.03 82.9641V89.6143L123.974 89.9968C123.165 92.6888 121.96 96.0974 120.185 99.0703C118.52 101.864 116.351 104.263 113.533 105.372V125.731C114.305 126.647 115.017 127.269 115.799 127.658C116.658 128.087 117.672 128.264 119.014 128.264H138.579C138.928 128.264 139.383 128.281 139.807 128.298C141.087 128.348 141.896 128.382 142.76 127.162V127.155C143.138 126.625 143.411 125.998 143.61 125.296C143.823 124.545 143.946 123.715 144.007 122.829L144.418 121.95C145.28 121.137 145.939 120.217 146.358 119.089C146.788 117.927 146.972 116.527 146.868 114.775L146.825 113.983L147.495 113.564C147.955 113.281 148.207 112.739 148.314 112.078C148.483 111.027 148.306 109.734 147.977 108.536L148.081 107.57C148.626 106.531 148.885 105.607 148.919 104.796C148.948 103.956 148.73 103.222 148.331 102.612C147.912 101.973 147.294 101.455 146.549 101.063C145.585 100.557 144.423 100.269 143.208 100.215V100.218H130.017L130.312 98.6369C130.6 97.1069 130.806 95.6471 130.922 94.2648C131.036 92.9091 131.058 91.6551 130.983 90.5076C130.757 87.1426 129.034 84.4723 127.194 83.0731C126.606 82.6252 126.025 82.3226 125.494 82.1846C125.097 82.0781 124.766 82.0733 124.526 82.1846ZM100.654 121.865C102.063 121.865 103.205 123.008 103.205 124.417C103.205 125.826 102.063 126.966 100.654 126.966C99.2447 126.966 98.1021 125.826 98.1021 124.417C98.1021 123.008 99.2447 121.865 100.654 121.865Z" fill="url(#paint0_linear_1163_705)"/>
<path fill-rule="evenodd" clip-rule="evenodd" d="M123.41 79.7609C122.401 80.2257 121.667 81.1432 121.384 82.5716L121.36 82.8282V89.4251C120.6 91.9355 119.486 95.0488 117.9 97.7021C116.361 100.283 114.375 102.44 111.853 103.12L110.86 103.386V126.203L111.151 127.033C112.291 128.462 113.359 129.425 114.608 130.05C115.872 130.679 117.251 130.934 119.014 130.934H138.579C138.973 130.934 139.256 130.944 139.504 130.953C139.572 130.956 139.638 130.958 139.703 130.96C141.862 131.05 143.225 131.103 144.932 128.699H144.934C145.498 127.905 145.9 127 146.181 126.014C146.401 125.23 146.544 124.392 146.629 123.518C147.602 122.514 148.36 121.383 148.866 120.018C149.357 118.691 149.599 117.156 149.563 115.326C150.335 114.597 150.766 113.612 150.945 112.503C151.158 111.203 151.008 109.717 150.677 108.335C151.255 107.105 151.538 105.952 151.58 104.89C151.638 103.459 151.258 102.205 150.565 101.149C149.895 100.125 148.926 99.3047 147.779 98.7043C146.455 98.0071 144.881 97.6125 143.254 97.5495L143.208 97.5447H133.21C133.377 96.4771 133.505 95.4579 133.585 94.4823C133.641 93.8194 133.676 93.1732 133.69 92.5447C133.707 91.78 133.692 91.0414 133.646 90.3305C133.365 86.1133 131.162 82.7434 128.811 80.952C127.945 80.2911 127.037 79.8311 126.175 79.606C125.182 79.3445 124.228 79.3808 123.41 79.7609ZM128.657 90.6601C128.504 88.3724 127.451 86.5337 126.36 85.4391V89.4251C126.36 89.916 126.287 90.4042 126.145 90.8741C125.344 93.521 124.091 97.0897 122.194 100.264C122.193 100.265 122.193 100.266 122.192 100.267C120.825 102.559 118.786 105.218 115.86 106.845V124.825C116.288 125.253 116.598 125.454 116.841 125.576C117.204 125.756 117.757 125.934 119.014 125.934H138.579C139.076 125.934 139.473 125.948 139.721 125.958C139.776 125.96 139.824 125.961 139.864 125.963L139.91 125.964C140.189 125.976 140.396 125.984 140.585 125.988C140.633 125.989 140.677 125.99 140.717 125.991C140.757 125.939 140.803 125.877 140.855 125.805C140.87 125.783 140.886 125.761 140.902 125.739C141.06 125.501 141.225 125.157 141.37 124.653C141.492 124.215 141.59 123.68 141.652 123.036C141.761 121.909 142.25 120.853 143.038 120.04C143.586 119.474 143.939 118.922 144.177 118.281M128.657 90.6601C128.722 91.6703 128.709 92.8046 128.603 94.0637L128.602 94.0742C128.534 94.9009 128.423 95.7953 128.27 96.7718C128.044 98.2153 128.461 99.6854 129.411 100.796C130.361 101.906 131.749 102.545 133.21 102.545H143.034C143.043 102.545 143.052 102.545 143.061 102.546C144.032 102.583 144.861 102.819 145.449 103.129L145.461 103.135C145.984 103.408 146.254 103.692 146.382 103.889L146.384 103.892C146.46 104.007 146.508 104.115 146.538 104.223C146.568 104.331 146.592 104.479 146.584 104.687L146.583 104.696C146.572 105.001 146.485 105.499 146.152 106.206C145.669 107.234 145.55 108.396 145.815 109.501C146.056 110.507 146.079 111.279 146.011 111.695L146.009 111.706C146 111.76 145.991 111.803 145.983 111.835C145.051 112.791 144.537 114.084 144.564 115.425C144.59 116.755 144.411 117.649 144.177 118.281" fill="#FFBA00"/>
</g>
<defs>
<linearGradient id="paint0_linear_1163_705" x1="105.532" y1="85.6618" x2="164.746" y2="107.047" gradientUnits="userSpaceOnUse">
<stop stop-color="#25D5E8"/>
<stop offset="1" stop-color="#437BFF"/>
</linearGradient>
<clipPath id="clip0_1163_705">
<rect width="122.981" height="124" fill="white" transform="translate(59 58)"/>
</clipPath>
</defs>
</svg>
