<svg width="240" height="240" viewBox="0 0 240 240" fill="none" xmlns="http://www.w3.org/2000/svg">
<rect x="24" y="24" width="192" height="192" rx="71" stroke="url(#paint0_radial_1143_690)" stroke-width="2"/>
<g clip-path="url(#clip0_1143_690)">
<path d="M182 112.728C182 120.063 180.862 126.793 178.612 132.883C176.334 139 173.105 143.74 168.976 147.105C164.845 150.467 160.079 152.136 154.705 152.136C150.259 152.136 146.527 150.786 143.455 148.11C140.411 145.41 138.61 141.965 138.029 137.782H137.42C135.354 142.285 132.39 145.807 128.523 148.35C124.686 150.863 120.107 152.136 114.838 152.136C107.081 152.136 101.018 149.486 96.6496 144.192C92.2834 138.893 90.1103 131.692 90.1103 122.579C90.1103 112.039 93.1566 103.458 99.2443 96.8637C105.36 90.2694 113.381 86.9847 123.308 86.9847C126.804 86.9847 130.801 87.3042 135.249 87.9656C139.695 88.6021 143.695 89.5031 147.268 90.6413L145.334 127.082V128.777C145.334 137.992 148.777 142.602 155.633 142.602C160.346 142.602 164.183 139.821 167.122 134.258C170.062 128.697 171.544 121.469 171.544 112.571C171.544 103.193 169.637 95.0117 165.798 87.9656C161.985 80.922 156.534 75.5183 149.463 71.7045C142.422 67.9181 134.321 66.0112 125.162 66.0112C113.62 66.0112 103.586 68.3949 95.0628 73.1871C86.5375 77.9818 80.0256 84.8157 75.5247 93.6863C71.0237 102.557 68.7758 112.808 68.7758 124.459C68.7758 140.246 72.9299 152.374 81.2706 160.875C89.5838 169.351 101.575 173.587 117.246 173.587C128.101 173.587 139.378 171.363 151.052 166.912V177.241C141.125 181.586 129.873 183.758 117.246 183.758C98.4759 183.758 83.9177 178.591 73.5387 168.263C63.1621 157.962 58 143.528 58 124.99C58 111.537 60.7544 99.5668 66.2858 89.0513C71.8196 78.5659 79.7087 70.4341 89.9531 64.6609C100.172 58.8878 111.926 56 125.162 56C136.28 56 146.155 58.3312 154.84 63.0186C163.495 67.706 170.191 74.3527 174.904 82.9612C179.645 91.5673 182 101.499 182 112.728ZM101.812 122.899C101.812 136.033 106.844 142.602 116.929 142.602C127.65 142.602 133.448 134.498 134.376 118.316L135.486 98.0817C131.754 97.0484 127.704 96.5192 123.308 96.5192C116.584 96.5192 111.318 98.8504 107.505 103.513C103.718 108.145 101.812 114.635 101.812 122.899Z" fill="url(#paint1_linear_1143_690)"/>
<path fill-rule="evenodd" clip-rule="evenodd" d="M143.455 148.11C140.411 145.41 138.61 141.965 138.029 137.782H137.42C135.354 142.285 132.39 145.806 128.523 148.35C124.686 150.863 120.107 152.136 114.838 152.136C107.081 152.136 101.018 149.485 96.6497 144.191C92.2835 138.893 90.1104 131.692 90.1104 122.579C90.1104 112.039 93.1567 103.458 99.2444 96.8633C105.36 90.269 113.381 86.9844 123.308 86.9844C126.804 86.9844 130.801 87.3039 135.249 87.9653C139.695 88.6018 143.695 89.5028 147.268 90.6409L145.334 127.082V128.777C145.334 134.399 146.616 138.307 149.173 140.5L143.455 148.11ZM116.929 142.601C106.844 142.601 101.812 136.032 101.812 122.898C101.812 114.634 103.718 108.145 107.505 103.512C111.317 98.8498 116.584 96.5186 123.308 96.5186C127.704 96.5186 131.754 97.0477 135.486 98.081L134.376 118.316C133.448 134.497 127.649 142.601 116.929 142.601Z" fill="#364250"/>
</g>
<defs>
<radialGradient id="paint0_radial_1143_690" cx="0" cy="0" r="1" gradientUnits="userSpaceOnUse" gradientTransform="translate(212.012 59.0468) rotate(102.625) scale(245.158 165.066)">
<stop stop-color="#FBF432"/>
<stop offset="0.206" stop-color="#FFBA00"/>
<stop offset="0.719" stop-color="#82E397"/>
<stop offset="1" stop-color="#25D5E8"/>
</radialGradient>
<linearGradient id="paint1_linear_1143_690" x1="104.918" y1="84.5001" x2="164.915" y2="105.705" gradientUnits="userSpaceOnUse">
<stop stop-color="#25D5E8"/>
<stop offset="1" stop-color="#437BFF"/>
</linearGradient>
<clipPath id="clip0_1143_690">
<rect width="124" height="127.758" fill="white" transform="translate(58 56)"/>
</clipPath>
</defs>
</svg>
