<svg width="240" height="240" viewBox="0 0 240 240" fill="none" xmlns="http://www.w3.org/2000/svg">
<rect x="24" y="24" width="192" height="192" rx="71" stroke="url(#paint0_radial_1144_713)" stroke-width="2"/>
<g clip-path="url(#clip0_1144_713)">
<path fill-rule="evenodd" clip-rule="evenodd" d="M92.7777 105.539H161.609C163.313 105.544 164.944 106.223 166.149 107.428C167.353 108.632 168.032 110.264 168.037 111.967V119.818H72V111.967C72.0053 110.264 72.6843 108.632 73.8886 107.428C75.093 106.223 76.7249 105.544 78.4281 105.539H92.7777ZM168.037 125.499V175.562C168.035 177.266 167.357 178.901 166.152 180.107C164.948 181.314 163.314 181.994 161.609 182H78.4281C76.7231 181.994 75.0897 181.314 73.8851 180.107C72.6804 178.901 72.0027 177.266 72 175.562V125.499H168.037ZM84.1598 164.229L85.401 156.943C87.7856 157.579 90.2395 157.918 92.707 157.952C94.4565 157.973 96.2057 157.886 97.9443 157.69V155.49L93.9684 155.137C90.376 154.814 87.9104 153.953 86.5716 152.554C85.2329 151.154 84.5601 149.086 84.5534 146.348C84.5534 142.58 85.3708 139.99 87.0055 138.577C88.6403 137.165 91.4154 136.458 95.3307 136.458C98.8928 136.424 102.447 136.793 105.926 137.558L104.816 144.622C102.643 144.235 100.444 144.016 98.237 143.966C96.8377 143.951 95.4389 144.025 94.0492 144.188V146.348L97.2279 146.66C101.083 147.044 103.747 147.962 105.22 149.415C105.98 150.222 106.568 151.174 106.948 152.215C107.328 153.256 107.492 154.364 107.43 155.47C107.473 157.071 107.216 158.666 106.673 160.173C106.293 161.261 105.684 162.255 104.887 163.089C104.048 163.829 103.039 164.353 101.951 164.613C100.864 164.931 99.7484 165.144 98.6204 165.248C97.6618 165.329 96.3903 165.359 94.7959 165.359C91.2148 165.386 87.6425 165 84.1497 164.209L84.1598 164.229ZM110.639 164.229L111.87 156.943C114.255 157.578 116.709 157.917 119.176 157.952C120.926 157.973 122.675 157.886 124.413 157.69V155.49L120.438 155.137C116.845 154.814 114.379 153.953 113.041 152.554C111.709 151.161 111.022 149.092 111.022 146.348C111.022 142.58 111.84 139.99 113.475 138.577C115.109 137.165 117.884 136.458 121.8 136.458C125.362 136.424 128.916 136.793 132.396 137.558L131.296 144.622C129.123 144.233 126.923 144.01 124.716 143.956C123.314 143.941 121.911 144.015 120.518 144.178V146.338L123.697 146.65C127.552 147.034 130.216 147.952 131.689 149.405C132.449 150.212 133.037 151.164 133.417 152.205C133.797 153.246 133.961 154.354 133.899 155.46C133.942 157.061 133.685 158.656 133.142 160.162C132.766 161.253 132.157 162.248 131.356 163.079C130.52 163.823 129.51 164.347 128.42 164.603C127.333 164.923 126.218 165.136 125.09 165.238C124.131 165.319 122.859 165.349 121.265 165.349C117.687 165.376 114.118 164.99 110.629 164.199L110.639 164.229ZM155.878 164.724H138.208V137.124H147.048V157.65H155.878V164.714V164.724Z" fill="url(#paint1_linear_1144_713)"/>
<path fill-rule="evenodd" clip-rule="evenodd" d="M147.26 105.539V98.8487C147.294 91.2799 144.402 83.9908 139.187 78.5049C136.732 75.8772 133.764 73.782 130.465 72.3496C127.167 70.9171 123.61 70.178 120.014 70.178C116.418 70.178 112.86 70.9171 109.562 72.3496C106.264 73.782 103.295 75.8772 100.841 78.5049C95.6258 83.9908 92.7333 91.2799 92.7676 98.8487V105.539H80.5977V98.8487C80.5836 88.144 84.7051 77.8475 92.1016 70.1091C95.6814 66.2926 100.006 63.2506 104.807 61.171C109.609 59.0915 114.786 58.0186 120.019 58.0186C125.251 58.0186 130.428 59.0915 135.23 61.171C140.032 63.2506 144.356 66.2926 147.936 70.1091C155.339 77.8514 159.461 88.1568 159.44 98.8689V105.559L147.26 105.539Z" fill="#364250"/>
</g>
<defs>
<radialGradient id="paint0_radial_1144_713" cx="0" cy="0" r="1" gradientUnits="userSpaceOnUse" gradientTransform="translate(212.012 59.0468) rotate(102.625) scale(245.158 165.066)">
<stop stop-color="#FBF432"/>
<stop offset="0.206" stop-color="#FFBA00"/>
<stop offset="0.719" stop-color="#82E397"/>
<stop offset="1" stop-color="#25D5E8"/>
</radialGradient>
<linearGradient id="paint1_linear_1144_713" x1="108.338" y1="122.596" x2="151.566" y2="142.368" gradientUnits="userSpaceOnUse">
<stop stop-color="#25D5E8"/>
<stop offset="1" stop-color="#437BFF"/>
</linearGradient>
<clipPath id="clip0_1144_713">
<rect width="96.0374" height="124" fill="white" transform="translate(72 58)"/>
</clipPath>
</defs>
</svg>
