<svg width="240" height="240" viewBox="0 0 240 240" fill="none" xmlns="http://www.w3.org/2000/svg">
<rect x="24" y="24" width="192" height="192" rx="71" stroke="url(#paint0_radial_1144_718)" stroke-width="2"/>
<g clip-path="url(#clip0_1144_718)">
<path d="M125.005 66C117.127 66 116.136 66.033 113.044 66.1746C110.639 66.2235 108.259 66.68 106.007 67.5246C104.07 68.2485 102.317 69.3893 100.871 70.8664C99.3954 72.3154 98.252 74.0675 97.5199 76.0018C96.6749 78.2558 96.22 80.6373 96.1746 83.0441C96.0378 86.1357 96 87.1222 96 95C96 102.878 96.033 103.86 96.1746 106.956C96.2235 109.361 96.68 111.741 97.5246 113.993C98.252 115.928 99.3924 117.68 100.866 119.129C102.314 120.606 104.067 121.75 106.002 122.48C108.256 123.323 110.638 123.778 113.044 123.825C116.136 123.967 117.122 124 125 124C132.878 124 133.86 123.967 136.956 123.825C139.362 123.778 141.744 123.323 143.998 122.48C145.927 121.732 147.679 120.59 149.141 119.127C150.604 117.664 151.746 115.913 152.494 113.984C153.334 111.73 153.791 109.351 153.844 106.946C153.981 103.855 154.019 102.868 154.019 94.9906C154.019 87.1128 153.981 86.1263 153.844 83.0347C153.791 80.6283 153.334 78.2479 152.494 75.9924C151.766 74.0574 150.624 72.3048 149.148 70.8569C147.703 69.3788 145.949 68.2378 144.012 67.5151C141.752 66.6717 139.364 66.2184 136.951 66.1746C133.855 66.033 132.873 66 124.995 66H125.005ZM122.399 71.2251H125.005C132.746 71.2251 133.661 71.2534 136.72 71.395C138.559 71.416 140.381 71.7528 142.105 72.391C143.365 72.8562 144.504 73.5981 145.438 74.5622C146.4 75.4981 147.142 76.6364 147.609 77.8945C148.247 79.6194 148.584 81.4411 148.605 83.2801C148.747 86.334 148.775 87.2544 148.775 94.9953C148.775 102.736 148.747 103.652 148.605 106.71C148.585 108.548 148.248 110.368 147.609 112.091C147.126 113.341 146.387 114.476 145.439 115.423C144.491 116.37 143.356 117.108 142.105 117.59C140.382 118.233 138.559 118.572 136.72 118.591C133.666 118.732 132.746 118.761 125.005 118.761C117.264 118.761 116.343 118.732 113.285 118.591C111.446 118.568 109.624 118.23 107.899 117.59C106.639 117.127 105.498 116.387 104.562 115.424C103.6 114.489 102.859 113.35 102.396 112.091C101.756 110.367 101.417 108.545 101.395 106.706C101.258 103.647 101.23 102.731 101.23 94.9858C101.23 87.2402 101.258 86.3293 101.395 83.2707C101.415 81.4311 101.753 79.6089 102.396 77.8851C102.859 76.6262 103.6 75.4875 104.562 74.5527C105.499 73.5896 106.639 72.8478 107.899 72.3815C109.624 71.7438 111.446 71.4053 113.285 71.3809C115.961 71.2629 116.995 71.2251 122.399 71.2204V71.2251ZM140.482 76.0396C139.793 76.0396 139.119 76.244 138.546 76.6269C137.973 77.0099 137.527 77.5542 137.263 78.191C137 78.8278 136.931 79.5284 137.066 80.2043C137.2 80.8801 137.533 81.5008 138.02 81.9878C138.508 82.4747 139.129 82.8061 139.805 82.94C140.481 83.0739 141.182 83.0042 141.818 82.7398C142.455 82.4755 142.998 82.0282 143.38 81.4548C143.763 80.8813 143.966 80.2074 143.965 79.5182C143.965 79.061 143.875 78.6083 143.7 78.1859C143.525 77.7635 143.268 77.3798 142.945 77.0568C142.621 76.7337 142.237 76.4775 141.814 76.303C141.392 76.1285 140.939 76.0389 140.482 76.0396ZM125.005 80.1082C122.059 80.1082 119.18 80.9816 116.731 82.618C114.282 84.2543 112.374 86.5801 111.247 89.3012C110.119 92.0223 109.824 95.0165 110.399 97.9052C110.974 100.794 112.392 103.447 114.475 105.53C116.557 107.613 119.211 109.031 122.099 109.606C124.988 110.18 127.982 109.885 130.704 108.758C133.425 107.631 135.75 105.722 137.387 103.273C139.023 100.824 139.896 97.9453 139.896 95C139.895 91.0508 138.326 87.2638 135.533 84.4713C132.741 81.6788 128.954 80.1095 125.005 80.1082ZM125.005 85.3333C126.917 85.3305 128.788 85.8951 130.379 86.9556C131.971 88.0161 133.212 89.5248 133.946 91.2909C134.679 93.057 134.873 95.0011 134.502 96.8772C134.13 98.7533 133.211 100.477 131.859 101.83C130.508 103.184 128.786 104.106 126.91 104.48C125.034 104.854 123.09 104.663 121.323 103.932C119.556 103.201 118.045 101.962 116.982 100.372C115.92 98.782 115.352 96.9125 115.352 95C115.357 92.442 116.376 89.9902 118.185 88.1818C119.994 86.3735 122.447 85.356 125.005 85.3522V85.3333Z" fill="#364250"/>
</g>
<path fill-rule="evenodd" clip-rule="evenodd" d="M55.1908 79.0327C55.9569 79.8177 57.0004 80.2707 58.097 80.2945H64.0912C66.1015 80.2001 68.098 80.6722 69.8532 81.6568C70.6658 82.195 71.3627 82.8899 71.9034 83.7009C72.444 84.5118 72.8174 85.4224 73.0016 86.3795C73.0677 86.4456 73.0945 86.4723 73.1053 86.5044C73.1126 86.5262 73.1126 86.5506 73.1126 86.5914L87.1494 139.822C89.4603 148.995 91.8822 154.152 96.181 156.977C100.48 159.803 105.838 160.015 114.547 159.914H162.036C163.122 159.914 164.165 159.482 164.933 158.714C165.701 157.945 166.133 156.903 166.133 155.817C166.133 154.73 165.701 153.688 164.933 152.92C164.165 152.151 163.122 151.72 162.036 151.72H114.476C107.483 151.8 103.245 151.72 100.823 150.115C98.835 148.753 97.3617 145.816 95.8884 140.357H163.045C163.979 140.379 164.893 140.077 165.629 139.501C166.365 138.925 166.878 138.111 167.081 137.199L177.768 94.0488C177.892 93.639 177.963 93.2151 177.98 92.7874C177.977 91.7016 177.545 90.661 176.777 89.8933C176.009 89.1255 174.969 88.693 173.883 88.6904H162.087C159.83 88.6904 158 90.5201 158 92.7773V92.7773C158 95.0344 159.83 96.8642 162.087 96.8642H168.676L159.957 132.042H93.6885L84.3441 96.8642H88.9131C91.1702 96.8642 93 95.0344 93 92.7773V92.7773C93 90.5201 91.1702 88.6904 88.9131 88.6904H82.0534C81.9808 88.3999 81.9093 88.1111 81.8383 87.8242C80.5373 82.5686 79.3877 77.9245 74.1823 74.6233C71.1408 72.8499 67.672 71.9426 64.1517 71.9996H58.097C57.0161 72.0178 55.9845 72.4553 55.2201 73.2197C54.4557 73.9841 54.0182 75.0157 54 76.0966C53.9971 77.1935 54.4247 78.2477 55.1908 79.0327ZM155.361 166.387C153.702 165.279 151.751 164.687 149.755 164.687C147.079 164.687 144.512 165.75 142.619 167.642C140.727 169.535 139.664 172.102 139.664 174.778C139.664 176.774 140.256 178.725 141.364 180.384C142.473 182.044 144.049 183.337 145.893 184.101C147.737 184.865 149.766 185.065 151.724 184.675C153.681 184.286 155.479 183.325 156.89 181.913C158.302 180.502 159.263 178.704 159.652 176.747C160.042 174.789 159.842 172.76 159.078 170.916C158.314 169.072 157.021 167.496 155.361 166.387ZM111.162 166.387C109.503 165.279 107.552 164.687 105.556 164.687C102.879 164.687 100.313 165.75 98.4202 167.642C96.5277 169.535 95.4645 172.102 95.4645 174.778C95.4645 176.774 96.0564 178.725 97.1652 180.384C98.274 182.044 99.8501 183.337 101.694 184.101C103.538 184.865 105.567 185.065 107.524 184.675C109.482 184.286 111.28 183.325 112.691 181.913C114.102 180.502 115.064 178.704 115.453 176.747C115.842 174.789 115.642 172.76 114.879 170.916C114.115 169.072 112.822 167.496 111.162 166.387Z" fill="url(#paint1_linear_1144_718)"/>
<defs>
<radialGradient id="paint0_radial_1144_718" cx="0" cy="0" r="1" gradientUnits="userSpaceOnUse" gradientTransform="translate(212.012 59.0468) rotate(102.625) scale(245.158 165.066)">
<stop stop-color="#FBF432"/>
<stop offset="0.206" stop-color="#FFBA00"/>
<stop offset="0.719" stop-color="#82E397"/>
<stop offset="1" stop-color="#25D5E8"/>
</radialGradient>
<linearGradient id="paint1_linear_1144_718" x1="100.91" y1="97.1765" x2="159.084" y2="120.445" gradientUnits="userSpaceOnUse">
<stop stop-color="#25D5E8"/>
<stop offset="1" stop-color="#437BFF"/>
</linearGradient>
<clipPath id="clip0_1144_718">
<rect width="58" height="58" fill="white" transform="translate(96 66)"/>
</clipPath>
</defs>
</svg>
