<svg width="240" height="240" viewBox="0 0 240 240" fill="none" xmlns="http://www.w3.org/2000/svg">
<rect x="23" y="23" width="194" height="194" rx="72" fill="url(#paint0_linear_1143_686)"/>
<g filter="url(#filter0_f_1143_686)">
<rect x="32" y="32" width="176" height="176" rx="72" fill="white"/>
</g>
<rect x="24" y="24" width="192" height="192" rx="71" stroke="url(#paint1_radial_1143_686)" stroke-width="2"/>
<g clip-path="url(#clip0_1143_686)">
<path d="M129.19 155.17C127.443 156.85 125.59 158.517 123.63 160.17L124.17 160.08L125.86 159.78C127.392 159.47 128.907 159.083 130.4 158.62L130.74 158.52L131.81 160.81L133.01 163.39L131.94 163.73C130.27 164.249 128.574 164.683 126.86 165.03C125.14 165.383 123.39 165.647 121.61 165.82C119.83 165.99 118.02 166.08 116.19 166.08C114.36 166.08 112.57 165.99 110.79 165.82C109.01 165.65 107.27 165.38 105.54 165.03C103.852 164.701 102.183 164.28 100.54 163.77C98.8947 163.262 97.276 162.671 95.6901 162H95.5601L95.4701 161.94C93.9101 161.273 92.3934 160.537 90.9201 159.73C89.3901 158.91 87.9201 158.01 86.4801 157.06C85.0925 156.134 83.7571 155.133 82.4801 154.06C81.1501 152.97 79.8901 151.82 78.6801 150.62C77.4795 149.44 76.3444 148.194 75.2801 146.89C74.2116 145.582 73.2103 144.22 72.2801 142.81C71.2996 141.387 70.3918 139.915 69.5601 138.4C69.2701 137.87 68.9901 137.33 68.7201 136.79H121.92C122.007 137.809 122.208 138.816 122.52 139.79C122.61 140.06 122.7 140.34 122.81 140.61L123.43 142.13H118.89V157.24C121.77 154.84 124.43 152.43 126.89 150.01C127.66 151.73 128.45 153.45 129.24 155.17H129.19ZM64.5601 125.14L58.5601 101H67.2401L70.0001 115.72H70.1901L73.2701 101H81.7001L84.9101 115.59H85.0901L87.7401 101H96.4101L90.4101 125.15H81.0101L77.6101 112.15H77.3601L73.9701 125.15L64.5601 125.14ZM103.29 125.14L97.3001 101H105.97L108.74 115.72H108.93L112.01 101H120.44L123.65 115.59H123.83L126.47 101H135.15L129.15 125.15H119.74L116.35 112.15H116.1L112.7 125.15L103.29 125.14ZM142.03 125.14L136.04 101H144.71L147.48 115.72H147.66L150.75 101H159.18L162.39 115.59H162.56L165.21 101H173.89L167.89 125.15H158.48L155.09 112.15H154.84L151.44 125.15L142.03 125.14ZM175.15 175.63C174.888 175.884 174.583 176.091 174.25 176.24C173.917 176.387 173.562 176.478 173.2 176.51C172.785 176.544 172.367 176.496 171.97 176.37C171.574 176.248 171.207 176.047 170.89 175.78L161.98 168.22L158.98 175.73C158.731 176.334 158.427 176.913 158.07 177.46C157.739 177.955 157.35 178.408 156.91 178.81C156.521 179.211 156.045 179.518 155.52 179.708C154.994 179.898 154.432 179.965 153.876 179.904C153.32 179.843 152.786 179.656 152.314 179.357C151.841 179.059 151.443 178.656 151.15 178.18C150.871 177.789 150.634 177.37 150.44 176.93C145.07 163.51 137.88 150.13 132.56 136.68C132.399 136.283 132.347 135.849 132.411 135.425C132.474 135.001 132.651 134.602 132.922 134.27C133.193 133.937 133.548 133.684 133.951 133.536C134.353 133.388 134.788 133.352 135.21 133.43C148.1 135.82 164.79 141.26 177.9 144.74C181.97 145.81 182.63 149.4 179.62 152.18C179.144 152.625 178.621 153.018 178.06 153.35C175.75 154.66 173.41 156.17 171.13 157.56L180 165.16C180.317 165.44 180.575 165.78 180.76 166.16V166.22C180.933 166.573 181.035 166.957 181.06 167.35C181.082 167.748 181.038 168.147 180.93 168.53C180.81 168.919 180.624 169.284 180.38 169.61C178.769 171.704 177.043 173.707 175.21 175.61L175.15 175.63ZM172.86 172.68L177.15 167.68C175.26 166.05 167.2 159.77 166.32 158.25C166.081 157.832 166.016 157.338 166.137 156.872C166.259 156.407 166.558 156.008 166.97 155.76C169.77 154.2 173.39 152.02 176.05 150.24C176.384 150.043 176.699 149.816 176.99 149.56C177.211 149.362 177.406 149.137 177.57 148.89L177.69 148.66L177.45 148.52C177.263 148.437 177.069 148.37 176.87 148.32L136.98 137.71L153.74 175.47C153.823 175.654 153.92 175.831 154.03 176L154.2 176.22L154.41 176.07C154.632 175.872 154.824 175.643 154.98 175.39C155.186 175.075 155.36 174.74 155.5 174.39C156.76 171.31 158.18 167.11 159.65 164.27L159.83 164.02C159.986 163.837 160.176 163.686 160.39 163.576C160.604 163.467 160.837 163.4 161.077 163.381C161.316 163.361 161.557 163.389 161.786 163.463C162.015 163.536 162.227 163.654 162.41 163.81L172.9 172.7L172.86 172.68ZM108.85 160.2C105.641 157.486 102.586 154.595 99.7001 151.54C96.8931 148.588 94.3124 145.429 91.9801 142.09H78.3001C78.8601 142.84 79.4501 143.56 80.0601 144.26C80.8201 145.14 81.6201 146 82.4501 146.83C83.5367 147.923 84.6634 148.943 85.8301 149.89C87.0001 150.855 88.2183 151.759 89.4801 152.6C90.7508 153.468 92.0659 154.269 93.4201 155C94.7534 155.74 96.1734 156.407 97.6801 157H97.7601H97.8201C99.2301 157.59 100.67 158.12 102.13 158.57C103.615 159.033 105.123 159.414 106.65 159.71C107.21 159.82 107.78 159.92 108.34 160.01L108.85 160.09V160.2ZM78.2401 84H92.7701C95.087 80.7 97.6192 77.5565 100.35 74.59C103.166 71.5085 106.137 68.5714 109.25 65.79L108.48 65.9C107.85 66 107.23 66.11 106.62 66.24C105.081 66.5488 103.559 66.936 102.06 67.4C100.564 67.86 99.0948 68.4042 97.6601 69.03C96.1867 69.6567 94.7734 70.3233 93.4201 71.03C92.0667 71.7367 90.7334 72.53 89.4201 73.41C88.1583 74.251 86.9401 75.1555 85.7701 76.12C84.6001 77.07 83.4801 78.12 82.3901 79.18C81.5601 80.01 80.7601 80.87 80.0001 81.75C79.3801 82.46 78.7801 83.19 78.2101 83.95L78.2401 84ZM123.24 65.83C126.5 68.7567 129.457 71.6767 132.11 74.59C134.841 77.5538 137.37 80.6975 139.68 84H154.18C153.62 83.26 153.03 82.53 152.42 81.83C151.67 80.96 150.86 80.1 150.02 79.26C148.933 78.1733 147.81 77.1533 146.65 76.2C145.481 75.2347 144.262 74.3301 143 73.49C141.74 72.6433 140.427 71.85 139.06 71.11C137.693 70.37 136.273 69.6967 134.8 69.09L134.71 69C133.29 68.41 131.85 67.88 130.39 67.43C128.892 66.9699 127.37 66.5927 125.83 66.3C125.19 66.17 124.56 66.06 123.95 66L123.25 65.89L123.24 65.83ZM105.56 61.05C107.28 60.6967 109.03 60.4333 110.81 60.26C112.56 60.09 114.4 60 116.22 60C118.04 60 119.84 60.09 121.63 60.26C123.42 60.43 125.15 60.7 126.88 61.05C128.568 61.3835 130.237 61.8075 131.88 62.32C133.536 62.8272 135.164 63.418 136.76 64.09H136.87L136.96 64.14C138.52 64.8467 140.053 65.6 141.56 66.4C143.08 67.23 144.56 68.12 145.98 69.06C147.366 69.988 148.701 70.9894 149.98 72.06C151.313 73.1467 152.577 74.2933 153.77 75.5C154.968 76.6827 156.103 77.9277 157.17 79.23C158.239 80.5383 159.24 81.9 160.17 83.31C161.17 84.73 162.01 86.19 162.83 87.7C163.12 88.23 163.4 88.77 163.67 89.31H68.6701C68.9501 88.77 69.2301 88.22 69.5201 87.69C70.3401 86.18 71.2301 84.69 72.1601 83.31C73.0901 81.93 74.0901 80.57 75.1601 79.31C76.2301 78.05 77.4001 76.71 78.6001 75.51C79.7853 74.3145 81.0302 73.1797 82.3301 72.11C83.6424 71.0423 85.0075 70.041 86.4201 69.11C87.8301 68.11 89.3001 67.27 90.8001 66.46C92.3001 65.65 93.9501 64.85 95.5601 64.17C97.1925 63.4731 98.8616 62.8655 100.56 62.35C102.204 61.8338 103.873 61.3999 105.56 61.05ZM118.89 69.11V84H133.12C131.125 81.4258 128.999 78.9558 126.75 76.6C124.37 74.1133 121.75 71.6067 118.89 69.08V69.11ZM113.56 157.24V142.09H98.5601C100.627 144.744 102.855 147.268 105.23 149.65C107.878 152.318 110.658 154.851 113.56 157.24ZM113.56 84V69.11C110.7 71.63 108.08 74.1367 105.7 76.63C103.452 78.9761 101.326 81.436 99.3301 84H113.56Z" fill="url(#paint2_linear_1143_686)"/>
</g>
<defs>
<filter id="filter0_f_1143_686" x="12" y="12" width="216" height="216" filterUnits="userSpaceOnUse" color-interpolation-filters="sRGB">
<feFlood flood-opacity="0" result="BackgroundImageFix"/>
<feBlend mode="normal" in="SourceGraphic" in2="BackgroundImageFix" result="shape"/>
<feGaussianBlur stdDeviation="10" result="effect1_foregroundBlur_1143_686"/>
</filter>
<linearGradient id="paint0_linear_1143_686" x1="154.948" y1="51.2917" x2="154.948" y2="217" gradientUnits="userSpaceOnUse">
<stop stop-color="#25D5E8" stop-opacity="0"/>
<stop offset="1" stop-color="white"/>
</linearGradient>
<radialGradient id="paint1_radial_1143_686" cx="0" cy="0" r="1" gradientUnits="userSpaceOnUse" gradientTransform="translate(212.012 59.0468) rotate(102.625) scale(245.158 165.066)">
<stop stop-color="#FBF432"/>
<stop offset="0.206" stop-color="#FFBA00"/>
<stop offset="0.719" stop-color="#82E397"/>
<stop offset="1" stop-color="#25D5E8"/>
</radialGradient>
<linearGradient id="paint2_linear_1143_686" x1="105.073" y1="86.7529" x2="163.8" y2="108.674" gradientUnits="userSpaceOnUse">
<stop stop-color="#25D5E8"/>
<stop offset="1" stop-color="#437BFF"/>
</linearGradient>
<clipPath id="clip0_1143_686">
<rect width="122.88" height="119.94" fill="white" transform="translate(58.5601 60)"/>
</clipPath>
</defs>
</svg>
