<svg width="240" height="240" viewBox="0 0 240 240" fill="none" xmlns="http://www.w3.org/2000/svg">
<rect x="24" y="24" width="192" height="192" rx="71" stroke="white" stroke-width="2"/>
<g clip-path="url(#clip0_1163_684)">
<path d="M108.892 67.4255C108.481 67.4482 108.174 67.5508 107.957 67.6989C107.821 67.79 107.718 67.904 107.661 68.0407C107.593 68.2002 107.559 68.3825 107.559 68.599C107.581 69.237 107.912 70.0573 108.55 71.0143L108.561 71.0257L110.646 74.3525C111.489 75.6856 112.367 77.0413 113.449 78.0439C114.497 79.001 115.773 79.6504 117.448 79.6504C119.271 79.6504 120.604 78.9782 121.686 77.9642C122.814 76.916 123.703 75.4691 124.58 74.0221L126.927 70.1484C127.417 69.0319 127.565 68.3369 127.394 67.9951C127.269 67.7445 126.813 67.6761 126.061 67.7445C125.924 67.7559 125.799 67.7217 125.697 67.6647C125.583 67.6647 125.457 67.6647 125.343 67.6533L125.423 67.2546C125.423 67.2318 125.412 67.2204 125.412 67.1976C125.4 67.0609 125.435 66.9242 125.503 66.8216L126.038 64.1214C121.732 64.0645 118.792 63.3125 115.306 61.0908C114.167 60.3617 113.813 59.5186 112.674 59.6097C111.808 59.7806 111.079 60.168 110.509 60.7832C109.951 61.3757 109.541 62.196 109.268 63.2328L109.803 67.4483C109.484 67.5166 109.188 67.5166 108.892 67.4255ZM157.86 143.202C157.45 143.225 157.142 143.327 156.925 143.475C156.789 143.566 156.686 143.68 156.629 143.817C156.561 143.977 156.527 144.159 156.527 144.375C156.549 145.013 156.88 145.834 157.518 146.791L157.529 146.802L159.614 150.129C160.457 151.462 161.335 152.818 162.417 153.82C163.465 154.777 164.741 155.427 166.416 155.427C168.239 155.427 169.572 154.755 170.654 153.741C171.782 152.692 172.671 151.245 173.548 149.798L175.895 145.925C176.385 144.808 176.533 144.113 176.362 143.771C176.237 143.521 175.781 143.452 175.029 143.521C174.893 143.532 174.767 143.498 174.665 143.441C174.551 143.441 174.425 143.441 174.312 143.43L174.391 143.031C174.391 143.008 174.38 142.997 174.38 142.974C174.368 142.837 174.403 142.7 174.471 142.598L175.007 139.898C170.7 139.841 167.76 139.089 164.274 136.867C163.135 136.138 162.782 135.295 161.642 135.386C160.776 135.557 160.047 135.944 159.478 136.56C158.919 137.152 158.509 137.972 158.236 139.009L158.771 143.225C158.452 143.293 158.156 143.293 157.86 143.202ZM159.66 158.924L163.397 169.919L165.277 163.391L164.354 162.377C163.932 161.773 163.853 161.237 164.08 160.782C164.582 159.79 165.607 159.973 166.576 159.973C167.59 159.973 168.831 159.779 169.15 161.044C169.253 161.465 169.128 161.909 168.831 162.365L167.909 163.379L169.788 169.908L173.172 158.913C175.61 161.112 182.845 161.556 185.534 163.049C186.388 163.527 187.152 164.131 187.767 164.94C188.701 166.182 189.282 167.8 189.442 169.851L190 175.296C189.863 176.743 189.043 177.587 187.414 177.712H166.587H145.418C143.8 177.587 142.969 176.755 142.832 175.296L143.39 169.851C143.55 167.8 144.119 166.182 145.065 164.94C145.68 164.12 146.455 163.516 147.298 163.049C149.998 161.568 157.222 161.123 159.66 158.924ZM176.442 142.438C176.898 142.575 177.228 142.849 177.433 143.247C177.775 143.931 177.627 144.956 176.978 146.437C176.966 146.46 176.955 146.483 176.943 146.506L174.562 150.425C173.639 151.94 172.716 153.456 171.463 154.618C170.176 155.825 168.581 156.623 166.416 156.623C164.388 156.623 162.861 155.848 161.608 154.698C160.4 153.592 159.478 152.168 158.6 150.767L156.515 147.451C155.752 146.312 155.353 145.264 155.33 144.409C155.319 144.011 155.387 143.635 155.535 143.316C155.695 142.974 155.934 142.7 156.253 142.473C156.401 142.37 156.572 142.279 156.766 142.211C156.629 140.41 156.584 138.143 156.663 136.241C156.709 135.785 156.8 135.34 156.925 134.885C157.461 132.982 158.794 131.444 160.457 130.384C161.038 130.008 161.676 129.701 162.36 129.462C166.37 128.015 171.691 128.801 174.539 131.888C175.702 133.142 176.431 134.805 176.579 137.004L176.442 142.438ZM65.0163 143.202C64.6061 143.225 64.2985 143.327 64.082 143.475C63.9453 143.566 63.8428 143.68 63.7858 143.817C63.7174 143.977 63.6833 144.159 63.6833 144.375C63.7061 145.013 64.0365 145.834 64.6745 146.791L64.6859 146.802L66.7708 150.129C67.6139 151.462 68.4912 152.818 69.5736 153.82C70.6217 154.777 71.8978 155.427 73.5726 155.427C75.3955 155.427 76.7285 154.755 77.8109 153.741C78.9388 152.692 79.8275 151.245 80.6934 149.798L83.0518 145.925C83.5417 144.808 83.6898 144.113 83.5189 143.771C83.3936 143.521 82.9378 143.452 82.1859 143.521C82.0492 143.532 81.9238 143.498 81.8213 143.441C81.7074 143.441 81.582 143.441 81.4681 143.43L81.5479 143.031C81.5479 143.008 81.5365 142.997 81.5365 142.974C81.5251 142.837 81.5592 142.7 81.6276 142.598L82.1631 139.898C77.8564 139.841 74.917 139.089 71.4307 136.867C70.2913 136.138 69.9382 135.295 68.7988 135.386C67.9329 135.557 67.2038 135.944 66.6341 136.56C66.0758 137.152 65.6657 137.972 65.3923 139.009L65.9277 143.225C65.6201 143.293 65.3125 143.293 65.0163 143.202ZM66.8278 158.924L70.5648 169.919L72.4447 163.391L71.5218 162.377C71.1003 161.773 71.0205 161.237 71.2484 160.782C71.7497 159.79 72.7751 159.973 73.7435 159.973C74.7575 159.973 75.9994 159.779 76.3184 161.044C76.4209 161.465 76.2956 161.909 75.9994 162.365L75.0765 163.379L76.9564 169.908L80.3402 158.913C82.7783 161.112 90.013 161.556 92.7018 163.049C93.5563 163.527 94.3197 164.131 94.9349 164.94C95.8691 166.182 96.4502 167.8 96.6097 169.851L97.168 175.296C97.0313 176.743 96.2109 177.587 94.5817 177.712H73.7549H52.5863C50.9684 177.587 50.1367 176.755 50 175.296L50.5583 169.851C50.7178 167.8 51.2874 166.182 52.2331 164.94C52.8483 164.12 53.623 163.516 54.4661 163.049C57.1549 161.568 64.3783 161.123 66.8278 158.924ZM83.61 142.438C84.0658 142.575 84.3962 142.849 84.6012 143.247C84.943 143.931 84.7949 144.956 84.1455 146.437C84.1341 146.46 84.1227 146.483 84.1113 146.506L81.7301 150.425C80.8073 151.94 79.8844 153.456 78.6312 154.618C77.3437 155.825 75.7487 156.623 73.584 156.623C71.556 156.623 70.0293 155.848 68.776 154.698C67.5684 153.592 66.6455 152.168 65.7682 150.767L63.6833 147.451C62.9199 146.312 62.5212 145.264 62.4984 144.409C62.487 144.011 62.5553 143.635 62.7035 143.316C62.863 142.974 63.1022 142.7 63.4212 142.473C63.5693 142.37 63.7402 142.279 63.9339 142.211C63.7972 140.41 63.7516 138.143 63.8314 136.241C63.877 135.785 63.9681 135.34 64.0934 134.885C64.6289 132.982 65.9619 131.444 67.6253 130.384C68.2064 130.008 68.8444 129.701 69.528 129.462C73.5384 128.015 78.8591 128.801 81.7074 131.888C82.8695 133.142 83.5986 134.805 83.7467 137.004L83.61 142.438ZM110.692 83.1481L114.429 94.1426L116.309 87.6143L115.397 86.6117C114.976 86.0078 114.896 85.4723 115.124 85.0166C115.625 84.0254 116.65 84.2077 117.619 84.2077C118.633 84.2077 119.875 84.014 120.194 85.2786C120.296 85.7002 120.171 86.1445 119.875 86.6003L118.952 87.6029L120.832 94.1312L124.215 83.1367C126.654 85.3356 133.888 85.7799 136.577 87.2725C137.432 87.751 138.195 88.3548 138.81 89.1637C139.744 90.4056 140.326 92.0234 140.485 94.0742L141.043 99.5202C140.907 100.979 140.086 101.81 138.457 101.936H117.63H96.4502C94.8324 101.81 94.0007 100.979 93.8639 99.5202L94.4336 94.0856C94.5931 92.0348 95.1628 90.417 96.1084 89.1751C96.7236 88.3548 97.4984 87.751 98.3415 87.2839C101.03 85.7913 108.254 85.347 110.692 83.1481ZM127.485 66.6621C127.941 66.7988 128.271 67.0723 128.477 67.471C128.818 68.1546 128.67 69.18 128.021 70.6611C128.009 70.6839 127.998 70.7067 127.987 70.7295L125.594 74.6488C124.671 76.1641 123.748 77.6794 122.495 78.8415C121.208 80.0492 119.613 80.8467 117.448 80.8467C115.42 80.8467 113.893 80.0719 112.64 78.9212C111.432 77.8161 110.509 76.3919 109.632 74.9906L107.547 71.6751C106.784 70.5358 106.385 69.4876 106.362 68.6331C106.351 68.2344 106.419 67.8584 106.567 67.5394C106.727 67.1976 106.966 66.9242 107.285 66.6963C107.433 66.5938 107.604 66.5026 107.798 66.4343C107.661 64.6341 107.616 62.3669 107.695 60.4642C107.741 60.0085 107.832 59.5641 107.957 59.1084C108.493 57.2057 109.826 55.6677 111.489 54.6081C112.07 54.2321 112.708 53.9245 113.392 53.6852C117.402 52.2383 122.723 53.0244 125.571 56.112C126.733 57.3652 127.463 59.0287 127.611 61.2275L127.485 66.6621Z" fill="url(#paint0_linear_1163_684)"/>
<path d="M120 136.353L100.677 149.295C99.3895 150.514 97.3501 150.469 96.131 149.181C94.9005 147.894 94.9575 145.854 96.2449 144.635L116.946 130.36L116.593 112.404C116.559 110.627 117.972 109.157 119.738 109.123C121.515 109.088 122.985 110.501 123.019 112.267L123.372 130.667L143.743 144.624C145.031 145.854 145.076 147.882 143.857 149.17C142.638 150.457 140.599 150.503 139.311 149.284L120 136.353Z" fill="#FFBA00"/>
</g>
<defs>
<linearGradient id="paint0_linear_1163_684" x1="102.972" y1="80.8085" x2="168.264" y2="107.496" gradientUnits="userSpaceOnUse">
<stop stop-color="#25D5E8"/>
<stop offset="1" stop-color="#437BFF"/>
</linearGradient>
<clipPath id="clip0_1163_684">
<rect width="140" height="124.722" fill="white" transform="translate(50 53)"/>
</clipPath>
</defs>
</svg>
