<svg width="240" height="240" viewBox="0 0 240 240" fill="none" xmlns="http://www.w3.org/2000/svg">
<rect x="24" y="24" width="192" height="192" rx="71" stroke="white" stroke-width="2"/>
<g clip-path="url(#clip0_1163_698)">
<path fill-rule="evenodd" clip-rule="evenodd" d="M113.653 59C119.596 62.8101 125.796 66.2022 132.21 69.1517C130.434 71.3792 128.948 73.8241 127.79 76.4274C122.936 74.051 118.219 71.4029 113.663 68.4958C99.8478 79.2327 83.9543 84.571 66.6076 83.6325C65.2957 133.604 83.9543 161.334 113.844 172.213C135.227 164.14 150.637 147.873 157.347 122.988H158.114C160.666 122.99 163.209 122.695 165.693 122.11C158.104 152.434 139.95 171.869 113.844 181.708C77.8189 168.58 56.4963 136.349 58.0806 76.1549C77.0317 77.1641 95.6297 73.0469 113.653 59.0505V59Z" fill="url(#paint0_linear_1163_698)"/>
<path fill-rule="evenodd" clip-rule="evenodd" d="M98.6672 112.573H100.181V109.233C100.173 105.522 101.597 101.951 104.157 99.2632C105.396 97.9378 106.895 96.8811 108.559 96.1587C110.224 95.4362 112.019 95.0635 113.834 95.0635C115.649 95.0635 117.444 95.4362 119.109 96.1587C120.774 96.8811 122.272 97.9378 123.512 99.2632C126.096 101.939 127.543 105.513 127.548 109.233V112.573H129.052C129.643 112.573 130.21 112.808 130.629 113.227C131.047 113.645 131.282 114.212 131.282 114.804V138.366C131.279 138.957 131.043 139.523 130.626 139.94C130.208 140.358 129.642 140.594 129.052 140.597H98.6672C98.0765 140.594 97.5108 140.358 97.0931 139.94C96.6755 139.523 96.4397 138.957 96.437 138.366V114.804C96.437 114.212 96.672 113.645 97.0902 113.227C97.5084 112.808 98.0757 112.573 98.6672 112.573ZM104.399 112.573H123.279V109.233C123.296 106.606 122.294 104.074 120.484 102.169C119.634 101.257 118.606 100.53 117.463 100.032C116.319 99.535 115.086 99.2783 113.839 99.2783C112.592 99.2783 111.359 99.535 110.216 100.032C109.073 100.53 108.044 101.257 107.194 102.169C105.384 104.074 104.382 106.606 104.399 109.233V112.573ZM112.008 127.619L109.606 133.926H118.072L115.842 127.529C116.722 127.074 117.422 126.334 117.828 125.431C118.233 124.527 118.32 123.512 118.075 122.553C117.829 121.593 117.266 120.745 116.477 120.147C115.687 119.549 114.718 119.236 113.728 119.259C112.738 119.283 111.785 119.641 111.025 120.276C110.264 120.911 109.742 121.785 109.542 122.755C109.342 123.725 109.478 124.734 109.925 125.618C110.373 126.501 111.107 127.207 112.008 127.619Z" fill="url(#paint1_linear_1163_698)"/>
<path fill-rule="evenodd" clip-rule="evenodd" d="M158.135 65.9834C162.855 65.9834 167.469 67.3831 171.394 70.0055C175.318 72.6279 178.377 76.3551 180.184 80.716C181.99 85.0769 182.462 89.8754 181.542 94.5049C180.621 99.1344 178.348 103.387 175.01 106.724C171.672 110.062 167.42 112.335 162.791 113.256C158.161 114.177 153.363 113.704 149.002 111.898C144.641 110.092 140.913 107.033 138.291 103.108C135.669 99.1833 134.269 94.5691 134.269 89.849C134.269 83.5194 136.783 77.4491 141.259 72.9735C145.735 68.4978 151.805 65.9834 158.135 65.9834ZM152.645 89.2738C153.331 89.849 153.976 90.4729 154.572 91.1406C156.399 88.2118 158.422 85.4102 160.627 82.7549C166.682 75.5094 163.907 76.9121 172.232 76.9121L171.021 78.224C168.202 81.4205 165.641 84.8353 163.362 88.4362C160.474 92.6079 157.855 96.9593 155.521 101.464L154.805 102.856L154.139 101.444C152.963 98.8755 151.475 96.4623 149.708 94.2588C148.115 92.2484 146.215 90.5014 144.078 89.082C145.157 85.5199 150.324 87.3464 152.635 89.304L152.645 89.2738Z" fill="#FFBA00"/>
</g>
<defs>
<linearGradient id="paint0_linear_1163_698" x1="98.7465" y1="86.3737" x2="151.931" y2="103.371" gradientUnits="userSpaceOnUse">
<stop stop-color="#25D5E8"/>
<stop offset="1" stop-color="#437BFF"/>
</linearGradient>
<linearGradient id="paint1_linear_1163_698" x1="109.621" y1="105.221" x2="127.22" y2="110.125" gradientUnits="userSpaceOnUse">
<stop stop-color="#25D5E8"/>
<stop offset="1" stop-color="#437BFF"/>
</linearGradient>
<clipPath id="clip0_1163_698">
<rect width="124" height="122.739" fill="white" transform="translate(58 59)"/>
</clipPath>
</defs>
</svg>
