<svg width="240" height="240" viewBox="0 0 240 240" fill="none" xmlns="http://www.w3.org/2000/svg">
<rect x="24" y="24" width="192" height="192" rx="71" stroke="url(#paint0_radial_1144_703)" stroke-width="2"/>
<g clip-path="url(#clip0_1144_703)">
<path d="M145.137 98.2028C144.37 98.5762 143.613 98.9798 142.857 99.4238C140.586 100.756 138.346 102.381 136.055 104.247L131.181 98.6569C132.866 97.0928 134.693 95.6699 136.63 94.4085C138.174 93.3994 139.789 92.5013 141.454 91.7344C142.12 91.4014 142.786 91.0886 143.472 90.7959C140.253 85.0944 135.621 81.0075 130.374 78.4847C125.126 75.972 119.253 75.0033 113.532 75.5583C107.85 76.1032 102.331 78.1719 97.7694 81.7139C92.5018 85.8008 88.4855 91.916 86.9416 100.019L86.4673 102.552L83.9445 102.996C81.4722 103.43 79.2723 104.025 77.3247 104.782C75.4478 105.509 73.7726 106.407 72.3094 107.466C71.1389 108.314 70.1297 109.263 69.272 110.292C66.6079 113.471 65.3768 117.457 65.4071 121.483C65.4374 125.58 66.7694 129.717 69.2316 133.128C70.1398 134.39 71.2095 135.55 72.4204 136.559C73.6516 137.578 75.034 138.426 76.5881 139.062C77.8495 139.577 79.2219 139.98 80.7154 140.253V147.75C78.1825 147.397 75.8716 146.782 73.7726 145.914C71.482 144.965 69.4536 143.744 67.6675 142.251C65.9722 140.838 64.4888 139.233 63.2274 137.488C59.857 132.836 58.0405 127.164 58.0002 121.513C57.9598 115.802 59.7359 110.12 63.5705 105.519C64.8117 104.025 66.2749 102.653 67.9501 101.442C69.8976 100.029 72.1278 98.8386 74.6405 97.8597C76.3762 97.1836 78.2329 96.6185 80.1906 96.1644C82.4107 87.3548 87.1434 80.5534 93.2284 75.8307C98.9198 71.4209 105.772 68.8477 112.825 68.1716C119.849 67.4955 127.074 68.6862 133.563 71.8044C140.647 75.2051 146.822 80.8662 150.829 88.8281C152.443 88.5759 154.058 88.4548 155.662 88.4649C162.444 88.5052 168.973 90.9372 174.129 96.4873C175.209 97.6478 176.228 98.9597 177.177 100.423C180.406 105.388 182.061 112.018 181.99 118.506C181.919 124.874 180.204 131.211 176.692 135.873C174.412 138.921 171.465 141.393 167.943 143.361C164.553 145.258 160.597 146.701 156.157 147.73L155.329 147.831H152.019V140.394H154.936C158.498 139.536 161.646 138.376 164.32 136.882C166.974 135.399 169.144 133.592 170.769 131.423C173.292 128.063 174.533 123.31 174.583 118.436C174.644 113.319 173.392 108.193 170.96 104.449C170.264 103.369 169.497 102.401 168.69 101.533C165.047 97.6074 160.425 95.8919 155.622 95.8617C152.151 95.8617 148.548 96.6891 145.137 98.2028ZM142.221 125.308C142.15 125.308 142.09 125.318 142.019 125.318H94.2879C94.2173 125.318 94.1467 125.318 94.0861 125.308C93.8641 125.348 93.6522 125.459 93.5008 125.62C93.299 125.822 93.1678 126.105 93.1678 126.408V139.738C93.1678 140.041 93.299 140.323 93.5008 140.525C93.7027 140.727 93.9852 140.858 94.2879 140.858H142.009C142.312 140.858 142.594 140.727 142.796 140.525C142.998 140.323 143.129 140.041 143.129 139.738V126.408C143.129 126.105 142.998 125.822 142.796 125.62C142.645 125.459 142.443 125.348 142.221 125.308ZM136.307 163.361V172.716H129.91V163.361H136.307ZM106.407 163.361V172.716H100.01V163.361H106.407ZM133.876 130.061C135.712 130.061 137.206 131.554 137.206 133.391C137.206 135.227 135.712 136.721 133.876 136.721C132.039 136.721 130.545 135.227 130.545 133.391C130.545 131.554 132.029 130.061 133.876 130.061ZM142.221 144.451C142.15 144.451 142.09 144.461 142.019 144.461H94.2879C94.2173 144.461 94.1467 144.461 94.0861 144.451C93.8641 144.491 93.6522 144.602 93.5008 144.763C93.299 144.965 93.1678 145.248 93.1678 145.55V158.881C93.1678 159.184 93.299 159.466 93.5008 159.668C93.7027 159.87 93.9852 160.001 94.2879 160.001H142.009C142.312 160.001 142.594 159.87 142.796 159.668C142.998 159.466 143.129 159.184 143.129 158.881V145.55C143.129 145.248 142.998 144.965 142.796 144.763C142.645 144.602 142.443 144.491 142.221 144.451ZM97.9208 148.588H100.726V155.843H97.9208V148.588ZM105.671 148.588H108.476V155.843H105.671V148.588ZM113.431 148.588H116.236V155.843H113.431V148.588ZM97.9208 129.445H100.726V136.701H97.9208V129.445ZM105.671 129.445H108.476V136.701H105.671V129.445ZM113.431 129.445H116.236V136.701H113.431V129.445Z" fill="url(#paint1_linear_1144_703)"/>
<path d="M142.221 125.308C142.15 125.308 142.09 125.318 142.019 125.318H94.2881C94.2174 125.318 94.1468 125.318 94.0863 125.308C93.8643 125.348 93.6523 125.459 93.501 125.62C93.2992 125.822 93.168 126.105 93.168 126.408V139.738C93.168 140.041 93.2992 140.323 93.501 140.525C93.7028 140.727 93.9854 140.858 94.2881 140.858H142.009C142.312 140.858 142.594 140.727 142.796 140.525C142.998 140.323 143.129 140.041 143.129 139.738V126.408C143.129 126.105 142.998 125.822 142.796 125.62C142.645 125.459 142.443 125.348 142.221 125.308ZM136.308 163.361V172.716H129.91V163.361H136.308ZM106.408 163.361V172.716H100.01V163.361H106.408ZM133.876 130.061C135.712 130.061 137.206 131.554 137.206 133.391C137.206 135.227 135.712 136.721 133.876 136.721C132.039 136.721 130.546 135.227 130.546 133.391C130.546 131.554 132.029 130.061 133.876 130.061ZM142.221 144.451C142.15 144.451 142.09 144.461 142.019 144.461H94.2881C94.2174 144.461 94.1468 144.461 94.0863 144.451C93.8643 144.491 93.6523 144.602 93.501 144.763C93.2992 144.965 93.168 145.248 93.168 145.55V158.881C93.168 159.184 93.2992 159.466 93.501 159.668C93.7028 159.87 93.9854 160.001 94.2881 160.001H142.009C142.312 160.001 142.594 159.87 142.796 159.668C142.998 159.466 143.129 159.184 143.129 158.881V145.55C143.129 145.248 142.998 144.965 142.796 144.763C142.645 144.602 142.443 144.491 142.221 144.451ZM97.9209 148.588H100.726V155.843H97.9209V148.588ZM105.671 148.588H108.476V155.843H105.671V148.588ZM113.431 148.588H116.236V155.843H113.431V148.588ZM97.9209 129.445H100.726V136.701H97.9209V129.445ZM105.671 129.445H108.476V136.701H105.671V129.445ZM113.431 129.445H116.236V136.701H113.431V129.445Z" fill="#364250"/>
</g>
<defs>
<radialGradient id="paint0_radial_1144_703" cx="0" cy="0" r="1" gradientUnits="userSpaceOnUse" gradientTransform="translate(212.012 59.0468) rotate(102.625) scale(245.158 165.066)">
<stop stop-color="#FBF432"/>
<stop offset="0.206" stop-color="#FFBA00"/>
<stop offset="0.719" stop-color="#82E397"/>
<stop offset="1" stop-color="#25D5E8"/>
</radialGradient>
<linearGradient id="paint1_linear_1144_703" x1="104.915" y1="91.3508" x2="161.824" y2="115.887" gradientUnits="userSpaceOnUse">
<stop stop-color="#25D5E8"/>
<stop offset="1" stop-color="#437BFF"/>
</linearGradient>
<clipPath id="clip0_1144_703">
<rect width="124" height="104.716" fill="white" transform="translate(58 68)"/>
</clipPath>
</defs>
</svg>
