<svg width="240" height="240" viewBox="0 0 240 240" fill="none" xmlns="http://www.w3.org/2000/svg">
<rect x="24" y="24" width="192" height="192" rx="71" stroke="url(#paint0_radial_1144_723)" stroke-width="2"/>
<g clip-path="url(#clip0_1144_723)">
<path fill-rule="evenodd" clip-rule="evenodd" d="M156.54 71.0729L172.393 71.7188V93.1019L156.54 82.6374V71.0729ZM171.021 174.648C171.021 174.9 170.971 175.149 170.875 175.381C170.778 175.613 170.637 175.823 170.459 176.001C170.28 176.178 170.069 176.318 169.836 176.413C169.604 176.509 169.355 176.557 169.103 176.556H145.198V171.127H165.561V118.027C165.547 117.906 165.547 117.784 165.561 117.664L120.151 82.3447L73.8632 117.684C73.9038 117.842 73.9242 118.005 73.9237 118.168V171.127H98.3039V176.556H70.3918C69.886 176.556 69.4009 176.355 69.0432 175.997C68.6855 175.639 68.4846 175.154 68.4846 174.648V120.156C66.6508 120.931 64.6009 121.028 62.7024 120.429C61.4452 120.011 60.337 119.236 59.5136 118.199C58.6984 117.158 58.1915 115.91 58.0504 114.596C57.949 113.388 58.0905 112.172 58.4666 111.019C58.8427 109.867 59.4457 108.801 60.2401 107.885C60.3317 107.772 60.4367 107.67 60.553 107.583L118.547 63.5046C118.877 63.1955 119.307 63.0152 119.759 62.9967C120.211 62.9782 120.655 63.1226 121.009 63.4037L179.144 107.401C179.226 107.466 179.304 107.537 179.376 107.613C180.415 108.62 181.182 109.874 181.605 111.257C182.029 112.64 182.095 114.109 181.798 115.524C181.518 116.699 180.951 117.785 180.148 118.687C179.345 119.589 178.331 120.277 177.197 120.691C176.191 121.04 175.125 121.184 174.063 121.115C173 121.046 171.963 120.764 171.011 120.287V174.659L171.021 174.648ZM111.554 168.594H130.414C130.706 168.221 130.969 167.826 131.201 167.413V167.353L132.089 165.879C132.828 164.695 133.457 163.445 133.966 162.146V162.085V162.024V161.944V161.863V161.591V161.49V161.429V161.369V161.308V161.247V161.066V160.884V160.824V160.773V160.662V160.551V160.44V160.369V160.309V160.188V160.127V159.774V159.653V159.532V159.411V159.27V159.148V159.027V158.866V158.765V158.644V158.513V158.382L134.693 154.537C134.693 154.476 134.693 154.426 134.693 154.365C134.693 154.305 134.693 153.952 134.693 153.467V153.346V153.235V152.771V152.65V152.529V152.408V151.802V151.681V151.499V151.378V150.793V150.682V150.571V150.46V150.127V149.905V149.804V149.754V149.653V149.542C134.612 149.047 134.382 148.589 134.034 148.228C133.686 147.868 133.236 147.622 132.745 147.523H130.979V148.472C130.979 149.098 130.898 149.713 130.898 150.288C130.898 150.588 130.779 150.876 130.567 151.088C130.355 151.3 130.068 151.419 129.768 151.419C129.468 151.419 129.181 151.3 128.969 151.088C128.757 150.876 128.638 150.588 128.638 150.288C128.638 149.713 128.638 149.037 128.729 148.331V148.22V148.119V148.008V147.907V147.796V148.775V148.664V148.573V148.452V148.351V148.24V148.149V148.028V147.806V147.584V147.473C128.729 145.768 128.426 144.294 127.054 144.042H125.611H125.368C125.368 144.678 125.368 145.324 125.368 145.969V146.666C125.368 147.291 125.298 147.897 125.298 148.472C125.298 148.772 125.179 149.059 124.967 149.271C124.755 149.483 124.467 149.602 124.168 149.602C123.868 149.602 123.58 149.483 123.368 149.271C123.156 149.059 123.037 148.772 123.037 148.472C123.037 147.897 123.037 147.221 123.128 146.524V146.413V146.323V146.212V146.111V146V145.747V145.646V145.546V145.435V145.313V145.213V145.112V145.001V144.95C123.189 143.043 122.977 141.277 121.463 140.994H119.899C119.802 141.005 119.704 141.005 119.606 140.994V145.243C119.606 145.543 119.487 145.83 119.275 146.042C119.063 146.254 118.776 146.373 118.476 146.373C118.176 146.373 117.889 146.254 117.677 146.042C117.465 145.83 117.346 145.543 117.346 145.243V139.693C117.346 138.139 115.802 137.463 114.319 137.463C113.911 137.462 113.51 137.559 113.148 137.745C112.396 138.191 111.852 138.917 111.634 139.763V139.915V139.985V140.066V140.147V140.228V140.298V140.359V140.439V140.702V140.762V140.843V140.924V141.015V141.095V141.257V141.348V141.438V141.519V141.59V154.113C111.634 154.413 111.515 154.7 111.303 154.912C111.091 155.124 110.804 155.243 110.504 155.243C110.204 155.243 109.917 155.124 109.705 154.912C109.493 154.7 109.374 154.413 109.374 154.113V152.024L109.202 151.913L107.023 150.147L103.854 147.766C103.549 147.511 103.209 147.3 102.845 147.14H102.098C101.768 147.046 101.419 147.046 101.089 147.14C100.85 147.247 100.662 147.442 100.564 147.685H100.494C100.374 148.125 100.336 148.583 100.383 149.037C100.45 149.716 100.634 150.379 100.928 150.995C101.33 151.85 101.824 152.659 102.401 153.407C102.43 153.44 102.454 153.477 102.472 153.518L111.019 166.232C111.125 166.385 111.191 166.562 111.211 166.747C111.274 167.364 111.389 167.975 111.554 168.574V168.594ZM121.433 101.054V113.809H133.391C133.389 112.138 133.038 110.485 132.361 108.958C131.683 107.43 130.693 106.061 129.455 104.939C127.289 102.76 124.438 101.395 121.382 101.074L121.433 101.054ZM121.433 116.645V124.223H133.391V116.624L121.433 116.645ZM118.617 124.213V116.645H106.609V124.223H118.597L118.617 124.213ZM118.617 113.829V101.034C115.562 101.356 112.712 102.721 110.544 104.898C109.308 106.023 108.32 107.392 107.643 108.919C106.965 110.446 106.613 112.098 106.609 113.769L118.617 113.829ZM120.02 98.1576C122.147 98.1585 124.253 98.5798 126.217 99.3972C128.181 100.215 129.964 101.412 131.463 102.921C132.958 104.305 134.151 105.983 134.967 107.849C135.784 109.716 136.205 111.731 136.206 113.769V127.008H103.794V113.769C103.795 111.728 104.219 109.709 105.036 107.839C105.854 105.969 107.049 104.288 108.546 102.9C110.047 101.391 111.832 100.193 113.798 99.3751C115.763 98.5577 117.871 98.137 120 98.1374L120.02 98.1576ZM133.835 168.664C134.187 168.763 134.496 168.975 134.717 169.266C134.937 169.558 135.056 169.914 135.056 170.279V176.202C135.056 176.649 134.878 177.078 134.562 177.394C134.246 177.71 133.818 177.888 133.371 177.888H109.021C108.575 177.885 108.147 177.707 107.832 177.391C107.517 177.076 107.338 176.649 107.336 176.202V170.279C107.338 169.838 107.512 169.415 107.821 169.101C108.13 168.786 108.55 168.604 108.99 168.594L100.605 154.829C99.9378 153.944 99.3725 152.986 98.9195 151.974C98.5175 151.116 98.2715 150.193 98.1929 149.249C98.1626 148.896 98.1626 148.542 98.1929 148.189C94.994 148.855 91.6942 148.926 88.4853 145.646C87.3834 144.44 86.5394 143.021 86.0049 141.477C85.4705 139.932 85.2569 138.295 85.3772 136.665C93.5813 146.191 103.541 134.415 91.4319 128.29C97.3554 125.565 102.825 128.128 105.761 133.517C107.154 136.06 107.971 137.402 109.031 138.3C109.221 138.469 109.424 138.624 109.636 138.764C110.071 137.476 110.971 136.397 112.159 135.737C112.84 135.389 113.594 135.21 114.359 135.212C116.498 135.212 119.162 136.484 119.606 138.674C119.707 138.658 119.809 138.658 119.909 138.674H121.463C121.547 138.664 121.632 138.664 121.715 138.674C122.538 138.747 123.314 139.089 123.923 139.647C124.532 140.205 124.941 140.948 125.086 141.761C125.253 141.698 125.434 141.681 125.611 141.711H127.165C127.248 141.7 127.333 141.7 127.417 141.711C128.303 141.798 129.131 142.189 129.76 142.819C130.39 143.448 130.781 144.276 130.868 145.162H132.594C132.677 145.152 132.762 145.152 132.846 145.162C135.399 145.556 136.408 147.18 136.802 149.199C141.423 148.543 146.56 145.747 151.545 150.793C152.623 151.998 153.448 153.408 153.968 154.939C154.488 156.47 154.694 158.091 154.572 159.703C146.368 150.177 136.408 161.954 148.517 168.079C143.472 170.461 138.699 168.866 135.591 164.941C135.165 166.089 134.638 167.196 134.017 168.251L133.795 168.614L133.835 168.664ZM109.132 148.008C108.678 147.826 108.324 147.675 108.062 147.584C107.58 147.388 107.088 147.216 106.589 147.069L108.203 148.401L109.132 149.148V148.008Z" fill="url(#paint1_linear_1144_723)"/>
<path fill-rule="evenodd" clip-rule="evenodd" d="M111.554 168.594H130.414C130.706 168.221 130.97 167.826 131.201 167.413V167.353L132.089 165.879C132.828 164.695 133.457 163.445 133.966 162.146V162.085V162.024V161.944V161.863V161.591V161.49V161.429V161.369V161.308V161.247V161.066V160.884V160.824V160.773V160.662V160.551V160.44V160.37V160.309V160.188V160.127V159.774V159.653V159.532V159.411V159.27V159.149V159.027V158.866V158.765V158.644V158.513V158.382L134.693 154.537C134.693 154.476 134.693 154.426 134.693 154.365C134.693 154.305 134.693 153.952 134.693 153.467V153.346V153.235V152.771V152.65V152.529V152.408V151.802V151.681V151.499V151.378V150.793V150.682V150.571V150.46V150.127V149.905V149.804V149.754V149.653V149.542C134.612 149.047 134.382 148.589 134.034 148.228C133.686 147.868 133.237 147.622 132.745 147.524H130.979V148.472C130.979 149.098 130.898 149.713 130.898 150.288C130.898 150.588 130.779 150.876 130.567 151.088C130.355 151.3 130.068 151.419 129.768 151.419C129.469 151.419 129.181 151.3 128.969 151.088C128.757 150.876 128.638 150.588 128.638 150.288C128.638 149.713 128.638 149.037 128.729 148.331V148.22V148.119V148.008V147.907V147.796V148.775V148.664V148.573V148.452V148.351V148.24V148.149V148.028V147.806V147.584V147.473C128.729 145.768 128.426 144.294 127.054 144.042H125.611H125.369C125.369 144.678 125.369 145.324 125.369 145.969V146.666C125.369 147.291 125.298 147.897 125.298 148.472C125.298 148.772 125.179 149.059 124.967 149.271C124.755 149.483 124.467 149.602 124.168 149.602C123.868 149.602 123.58 149.483 123.368 149.271C123.157 149.059 123.037 148.772 123.037 148.472C123.037 147.897 123.037 147.221 123.128 146.524V146.413V146.323V146.212V146.111V146V145.747V145.647V145.546V145.435V145.314V145.213V145.112V145.001V144.95C123.189 143.043 122.977 141.277 121.463 140.995H119.899C119.802 141.005 119.704 141.005 119.606 140.995V145.243C119.606 145.543 119.487 145.83 119.275 146.042C119.063 146.254 118.776 146.373 118.476 146.373C118.177 146.373 117.889 146.254 117.677 146.042C117.465 145.83 117.346 145.543 117.346 145.243V139.693C117.346 138.139 115.802 137.463 114.319 137.463C113.912 137.463 113.51 137.559 113.148 137.745C112.396 138.191 111.852 138.917 111.634 139.763V139.915V139.985V140.066V140.147V140.228V140.298V140.359V140.44V140.702V140.762V140.843V140.924V141.015V141.095V141.257V141.348V141.439V141.519V141.59V154.113C111.634 154.413 111.515 154.7 111.303 154.912C111.091 155.124 110.804 155.243 110.504 155.243C110.205 155.243 109.917 155.124 109.705 154.912C109.493 154.7 109.374 154.413 109.374 154.113V152.024L109.202 151.913L107.023 150.147L103.854 147.766C103.549 147.511 103.209 147.3 102.845 147.14H102.098C101.769 147.046 101.419 147.046 101.089 147.14C100.85 147.247 100.662 147.442 100.564 147.685H100.494C100.374 148.125 100.336 148.583 100.383 149.037C100.45 149.716 100.634 150.379 100.928 150.995C101.33 151.85 101.824 152.659 102.401 153.407C102.43 153.44 102.454 153.477 102.472 153.518L111.019 166.232C111.125 166.385 111.191 166.562 111.211 166.747C111.274 167.364 111.389 167.975 111.554 168.574V168.594ZM133.835 168.664C134.187 168.764 134.497 168.975 134.717 169.266C134.937 169.558 135.056 169.914 135.056 170.279V176.203C135.056 176.649 134.878 177.078 134.562 177.394C134.246 177.71 133.818 177.888 133.371 177.888H109.021C108.575 177.885 108.148 177.707 107.832 177.391C107.517 177.076 107.338 176.649 107.336 176.203V170.279C107.338 169.838 107.512 169.415 107.821 169.101C108.13 168.786 108.55 168.604 108.991 168.594L100.605 154.829C99.9379 153.944 99.3726 152.986 98.9196 151.974C98.5177 151.116 98.2716 150.193 98.1931 149.249C98.1628 148.897 98.1628 148.542 98.1931 148.19C94.9942 148.856 91.6944 148.926 88.4854 145.647C87.3835 144.44 86.5395 143.021 86.0051 141.477C85.4706 139.932 85.257 138.295 85.3773 136.665C93.5814 146.191 103.541 134.415 91.432 128.29C97.3555 125.565 102.825 128.128 105.761 133.517C107.154 136.06 107.971 137.402 109.031 138.3C109.221 138.469 109.424 138.624 109.636 138.764C110.071 137.476 110.971 136.397 112.159 135.737C112.84 135.39 113.594 135.21 114.359 135.212C116.498 135.212 119.162 136.484 119.606 138.674C119.707 138.658 119.809 138.658 119.909 138.674H121.463C121.547 138.664 121.632 138.664 121.716 138.674C122.538 138.747 123.314 139.089 123.923 139.647C124.532 140.205 124.941 140.948 125.086 141.761C125.253 141.698 125.434 141.681 125.611 141.711H127.165C127.249 141.7 127.333 141.7 127.417 141.711C128.303 141.798 129.131 142.189 129.76 142.819C130.39 143.448 130.781 144.276 130.868 145.162H132.594C132.678 145.152 132.762 145.152 132.846 145.162C135.399 145.556 136.408 147.18 136.802 149.199C141.424 148.543 146.56 145.747 151.545 150.793C152.624 151.998 153.448 153.408 153.968 154.939C154.488 156.471 154.694 158.091 154.572 159.704C146.368 150.177 136.408 161.954 148.518 168.079C143.472 170.461 138.699 168.866 135.591 164.941C135.165 166.089 134.638 167.196 134.017 168.251L133.795 168.614L133.835 168.664ZM109.132 148.008C108.678 147.826 108.325 147.675 108.062 147.584C107.58 147.388 107.088 147.216 106.589 147.069L108.203 148.401L109.132 149.148V148.008Z" fill="#364250"/>
</g>
<defs>
<radialGradient id="paint0_radial_1144_723" cx="0" cy="0" r="1" gradientUnits="userSpaceOnUse" gradientTransform="translate(212.012 59.0468) rotate(102.625) scale(245.158 165.066)">
<stop stop-color="#FBF432"/>
<stop offset="0.206" stop-color="#FFBA00"/>
<stop offset="0.719" stop-color="#82E397"/>
<stop offset="1" stop-color="#25D5E8"/>
</radialGradient>
<linearGradient id="paint1_linear_1144_723" x1="104.922" y1="88.6253" x2="163.371" y2="111.589" gradientUnits="userSpaceOnUse">
<stop stop-color="#25D5E8"/>
<stop offset="1" stop-color="#437BFF"/>
</linearGradient>
<clipPath id="clip0_1144_723">
<rect width="124" height="114.868" fill="white" transform="translate(58 63)"/>
</clipPath>
</defs>
</svg>
