<svg width="240" height="240" viewBox="0 0 240 240" fill="none" xmlns="http://www.w3.org/2000/svg">
<rect x="24" y="24" width="192" height="192" rx="71" stroke="url(#paint0_radial_1144_728)" stroke-width="2"/>
<path fill-rule="evenodd" clip-rule="evenodd" d="M128.292 128.386H165.75C168.159 128.386 170.469 129.343 172.172 131.046C173.875 132.749 174.832 135.059 174.832 137.468V172.938C174.832 175.347 173.875 177.657 172.172 179.36C170.469 181.063 168.159 182.02 165.75 182.02H128.292C125.883 182.02 123.573 181.063 121.87 179.36C120.167 177.657 119.21 175.347 119.21 172.938V137.438C119.21 135.029 120.167 132.719 121.87 131.016C123.573 129.312 125.883 128.355 128.292 128.355V128.386ZM150.23 86.447C150.89 86.6343 151.472 87.0305 151.889 87.5762C152.305 88.1219 152.534 88.7878 152.541 89.4743V94.8125H160.462C161.376 94.8052 162.282 94.9798 163.128 95.3263C163.973 95.6729 164.741 96.1843 165.387 96.8307C166.684 98.1408 167.41 99.9115 167.405 101.755V118.759H161.35V101.816C161.352 101.552 161.25 101.299 161.068 101.109C160.876 100.924 160.618 100.823 160.351 100.827H152.541V118.749H146.173V93.319H119.704C119.281 93.3244 118.86 93.2456 118.468 93.0872C118.075 92.9288 117.717 92.6941 117.416 92.3965C117.115 92.0989 116.875 91.7444 116.712 91.3537C116.549 90.9629 116.465 90.5436 116.465 90.1201V64.3473H71.3776V160.698H109.159V167.065H81.5192V175.057C81.5177 175.321 81.6191 175.574 81.8018 175.764C81.9914 175.946 82.2449 176.048 82.5082 176.046H109.139V182.03H82.5485C80.7048 182.009 78.9422 181.268 77.6374 179.965C76.3327 178.663 75.5891 176.901 75.5655 175.057V167.105H70.7116C69.1987 167.107 67.747 166.508 66.6752 165.44C66.142 164.913 65.7192 164.284 65.4316 163.591C65.144 162.898 64.9973 162.154 65 161.404V63.7015C65 62.9519 65.1478 62.2097 65.435 61.5173C65.7222 60.8249 66.143 60.1959 66.6735 59.6664C67.204 59.1368 67.8338 58.717 68.5267 58.4311C69.2196 58.1452 69.962 57.9987 70.7116 58H119.704C120.173 57.999 120.636 58.1037 121.059 58.3063C121.482 58.509 121.853 58.8044 122.146 59.1706L150.23 86.4167V86.447ZM85.1823 110.091C84.9071 110.097 84.636 110.158 84.3848 110.271C84.1336 110.383 83.9073 110.545 83.7194 110.746C83.5314 110.947 83.3855 111.184 83.2901 111.442C83.1948 111.7 83.1519 111.975 83.1641 112.25C83.1461 112.526 83.185 112.802 83.2784 113.063C83.3717 113.323 83.5175 113.561 83.7068 113.763C83.896 113.964 84.1246 114.125 84.3784 114.234C84.6323 114.344 84.9059 114.4 85.1823 114.399H122.52C122.794 114.393 123.064 114.332 123.315 114.22C123.565 114.108 123.791 113.947 123.979 113.747C124.167 113.547 124.313 113.312 124.409 113.055C124.505 112.798 124.549 112.524 124.538 112.25C124.557 111.973 124.519 111.696 124.427 111.434C124.334 111.173 124.188 110.933 123.999 110.731C123.81 110.528 123.581 110.367 123.326 110.256C123.071 110.146 122.797 110.09 122.52 110.091H85.1823ZM85.1823 125.5C84.9128 125.507 84.6476 125.569 84.4023 125.681C84.157 125.793 83.9366 125.953 83.7541 126.151C83.5716 126.35 83.4307 126.583 83.3398 126.836C83.2489 127.09 83.2097 127.36 83.2246 127.629C83.2041 127.901 83.239 128.175 83.3274 128.434C83.4157 128.692 83.5557 128.93 83.7387 129.133C83.9218 129.336 84.1441 129.5 84.3923 129.614C84.6404 129.728 84.9092 129.791 85.1823 129.799H109.098V125.5H85.1823ZM85.1823 140.899C84.9127 140.909 84.6479 140.973 84.4036 141.087C84.1592 141.202 83.9402 141.364 83.7596 141.564C83.579 141.765 83.4404 141.999 83.3519 142.254C83.2635 142.509 83.2271 142.779 83.2448 143.048C83.2271 143.317 83.2635 143.587 83.3519 143.842C83.4404 144.097 83.579 144.332 83.7596 144.532C83.9402 144.732 84.1592 144.895 84.4036 145.009C84.6479 145.123 84.9127 145.187 85.1823 145.198H109.098V140.899H85.1823ZM85.1823 94.6914C84.9059 94.6908 84.6323 94.747 84.3784 94.8566C84.1246 94.9661 83.896 95.1266 83.7068 95.3281C83.5175 95.5297 83.3717 95.7679 83.2784 96.0281C83.185 96.2884 83.1461 96.565 83.1641 96.8408C83.1461 97.1167 83.185 97.3933 83.2784 97.6535C83.3717 97.9137 83.5175 98.152 83.7068 98.3535C83.896 98.555 84.1246 98.7156 84.3784 98.8251C84.6323 98.9346 84.9059 98.9908 85.1823 98.9902H107.272C107.541 98.9787 107.804 98.9136 108.047 98.7987C108.291 98.6838 108.508 98.5215 108.688 98.3213C108.868 98.121 109.005 97.8869 109.093 97.6327C109.181 97.3784 109.217 97.1092 109.199 96.8408C109.217 96.5725 109.181 96.3032 109.093 96.049C109.005 95.7948 108.868 95.5606 108.688 95.3604C108.508 95.1602 108.291 94.9978 108.047 94.8829C107.804 94.768 107.541 94.7029 107.272 94.6914H85.1823ZM85.1823 79.2923C84.9127 79.3025 84.6479 79.3667 84.4036 79.481C84.1592 79.5953 83.9402 79.7574 83.7596 79.9578C83.579 80.1582 83.4404 80.3928 83.3519 80.6476C83.2635 80.9025 83.2271 81.1725 83.2448 81.4417C83.2271 81.7109 83.2635 81.981 83.3519 82.2358C83.4404 82.4907 83.579 82.7253 83.7596 82.9257C83.9402 83.126 84.1592 83.2882 84.4036 83.4025C84.6479 83.5168 84.9127 83.5809 85.1823 83.5912H97.2917C97.5604 83.5796 97.8241 83.5145 98.0673 83.3996C98.3105 83.2848 98.5283 83.1224 98.7079 82.9222C98.8874 82.7219 99.0252 82.4878 99.113 82.2336C99.2008 81.9793 99.2368 81.7101 99.2191 81.4417C99.2368 81.1734 99.2008 80.9041 99.113 80.6499C99.0252 80.3957 98.8874 80.1616 98.7079 79.9613C98.5283 79.7611 98.3105 79.5987 98.0673 79.4838C97.8241 79.369 97.5604 79.3038 97.2917 79.2923H85.1823ZM122.893 69.2012L141.935 86.9515H122.873V69.1608L122.893 69.2012ZM156.9 157.024C158.777 155.813 158.777 154.461 156.9 153.392L140.169 142.231C138.645 141.222 137.041 141.827 137.081 143.835L137.142 166.389C137.273 168.559 138.514 169.144 140.341 168.145L156.9 157.045V157.024Z" fill="url(#paint1_linear_1144_728)"/>
<path fill-rule="evenodd" clip-rule="evenodd" d="M128.292 128.386H165.75C168.159 128.386 170.469 129.343 172.172 131.046C173.875 132.749 174.832 135.059 174.832 137.468V172.938C174.832 175.347 173.875 177.657 172.172 179.36C170.469 181.063 168.159 182.02 165.75 182.02H128.292C125.883 182.02 123.573 181.063 121.87 179.36C120.166 177.657 119.209 175.347 119.209 172.938V137.438C119.209 135.029 120.166 132.719 121.87 131.016C123.573 129.312 125.883 128.355 128.292 128.355V128.386ZM156.9 157.024C158.777 155.813 158.777 154.461 156.9 153.392L140.169 142.231C138.645 141.222 137.041 141.827 137.081 143.835L137.141 166.389C137.273 168.559 138.514 169.144 140.34 168.145L156.9 157.045V157.024Z" fill="#364250"/>
<defs>
<radialGradient id="paint0_radial_1144_728" cx="0" cy="0" r="1" gradientUnits="userSpaceOnUse" gradientTransform="translate(212.012 59.0468) rotate(102.625) scale(245.158 165.066)">
<stop stop-color="#FBF432"/>
<stop offset="0.206" stop-color="#FFBA00"/>
<stop offset="0.719" stop-color="#82E397"/>
<stop offset="1" stop-color="#25D5E8"/>
</radialGradient>
<linearGradient id="paint1_linear_1144_728" x1="106.557" y1="85.6686" x2="160.707" y2="103.13" gradientUnits="userSpaceOnUse">
<stop stop-color="#25D5E8"/>
<stop offset="1" stop-color="#437BFF"/>
</linearGradient>
</defs>
</svg>
