<svg viewBox="0 0 431 270" xmlns="http://www.w3.org/2000/svg" xml:space="preserve" style="fill-rule:evenodd;clip-rule:evenodd;stroke-linecap:round"><text style="font-family:'Poppins-ExtraBold','Poppins';font-weight:800;font-size:28px;fill:#364250" transform="matrix(2 0 0 2 251.598 148.433)">Zhop</text><g opacity=".12"><path d="M38.675 31.547H16.224L10 5.327 4.67 0H0" style="fill:none;fill-rule:nonzero;stroke:#437bff;stroke-width:3px" transform="rotate(30 -96.877 254.006) scale(2)"/><path d="M9.177 23.409c-1.251 0-2.814-.47-3.795-4.132l-.002-.007L1.504 5.06a3.749 3.749 0 0 1 3.74-3.56h26.22c1 0 1.94.389 2.648 1.097a3.718 3.718 0 0 1 1.094 2.523L32.61 19.397l-.024.133v.135a3.748 3.748 0 0 1-3.744 3.744H9.177Z" style="fill:#25d5e8;fill-rule:nonzero" transform="rotate(30 -114.597 284.654) scale(2)"/><path d="M31.464 0v3H5.244a2.247 2.247 0 0 0-2.221 1.925l3.808 13.964c.393 1.468.849 2.185 1.162 2.528.278.304.572.492 1.184.492h19.665a2.246 2.246 0 0 0 2.244-2.244v-.27l2.612-14.366A2.247 2.247 0 0 0 31.464 3V0m0 0a5.244 5.244 0 0 1 5.244 5.244l-2.622 14.421a5.244 5.244 0 0 1-5.244 5.244H9.177c-2.896 0-4.42-2.17-5.244-5.244L0 5.244A5.244 5.244 0 0 1 5.244 0h26.22Z" style="fill:#437bff;fill-rule:nonzero" transform="rotate(30 -114.597 284.654) scale(2)"/><path d="M3.933 6.366A2.435 2.435 0 0 1 1.5 3.933 2.435 2.435 0 0 1 3.933 1.5a2.435 2.435 0 0 1 2.433 2.433 2.435 2.435 0 0 1-2.433 2.433Z" style="fill:#25d5e8;fill-rule:nonzero" transform="rotate(30 -218.655 262.017) scale(2)"/><path d="M3.933 3a.934.934 0 1 0 .933.933A.935.935 0 0 0 3.933 3m0-3A3.933 3.933 0 1 1 0 3.933 3.933 3.933 0 0 1 3.933 0Z" style="fill:#437bff;fill-rule:nonzero" transform="rotate(30 -218.655 262.017) scale(2)"/><path d="M3.933 6.366A2.435 2.435 0 0 1 1.5 3.933 2.435 2.435 0 0 1 3.933 1.5a2.435 2.435 0 0 1 2.433 2.433 2.435 2.435 0 0 1-2.433 2.433Z" style="fill:#25d5e8;fill-rule:nonzero" transform="rotate(30 -243.566 354.976) scale(2)"/><path d="M3.933 3a.934.934 0 1 0 .933.933A.935.935 0 0 0 3.933 3m0-3A3.933 3.933 0 1 1 0 3.933 3.933 3.933 0 0 1 3.933 0Z" style="fill:#437bff;fill-rule:nonzero" transform="rotate(30 -243.566 354.976) scale(2)"/><path d="M0 0h18.354" style="fill:none;fill-rule:nonzero;stroke:#437bff;stroke-width:3px" transform="rotate(30 -130.905 414.008) scale(2)"/><path d="M0 0h18.354" style="fill:none;fill-rule:nonzero;stroke:#437bff;stroke-width:3px" transform="rotate(120 74.302 119.032) scale(2)"/></g><path d="M38.675 30.047H17.41l-6.049-25.48L5.291-1.5H0a1.5 1.5 0 0 0 0 3h4.049l4.59 4.587 6.399 26.96h23.637a1.5 1.5 0 0 0 0-3Z" style="fill:#00d3bd" transform="rotate(30 -82.788 246.607) scale(2)"/><path d="M9.177 23.409c-1.251 0-2.814-.47-3.795-4.132l-.002-.007L1.504 5.06a3.749 3.749 0 0 1 3.74-3.56h26.22c1 0 1.94.389 2.648 1.097a3.718 3.718 0 0 1 1.094 2.523L32.61 19.397l-.024.133v.135a3.748 3.748 0 0 1-3.744 3.744H9.177Z" style="fill:#fff;fill-rule:nonzero" transform="rotate(30 -100.508 277.255) scale(2)"/><path d="M31.464 0v3H5.244a2.247 2.247 0 0 0-2.221 1.925l3.808 13.964c.393 1.468.849 2.185 1.162 2.528.278.304.572.492 1.184.492h19.665a2.246 2.246 0 0 0 2.244-2.244v-.27l2.612-14.366A2.247 2.247 0 0 0 31.464 3V0m0 0a5.244 5.244 0 0 1 5.244 5.244l-2.622 14.421a5.244 5.244 0 0 1-5.244 5.244H9.177c-2.896 0-4.42-2.17-5.244-5.244L0 5.244A5.244 5.244 0 0 1 5.244 0h26.22Z" style="fill:#00d3bd;fill-rule:nonzero" transform="rotate(30 -100.508 277.255) scale(2)"/><path d="M7.866 3.933A3.934 3.934 0 0 0 3.933 0 3.934 3.934 0 0 0 0 3.933a3.934 3.934 0 0 0 3.933 3.933 3.934 3.934 0 0 0 3.933-3.933Z" style="fill:#fff" transform="rotate(30 -204.566 254.617) scale(2)"/><path d="M7.866 3.933A3.934 3.934 0 0 0 3.933 0 3.934 3.934 0 0 0 0 3.933a3.934 3.934 0 0 0 3.933 3.933 3.934 3.934 0 0 0 3.933-3.933Zm-3 0a.933.933 0 1 1-1.867 0 .933.933 0 0 1 1.867 0Z" style="fill:#00d3bd" transform="rotate(30 -204.566 254.617) scale(2)"/><path d="M7.866 3.933A3.934 3.934 0 0 0 3.933 0 3.934 3.934 0 0 0 0 3.933a3.934 3.934 0 0 0 3.933 3.933 3.934 3.934 0 0 0 3.933-3.933Z" style="fill:#fff" transform="rotate(30 -229.475 347.578) scale(2)"/><path d="M7.866 3.933A3.934 3.934 0 0 0 3.933 0 3.934 3.934 0 0 0 0 3.933a3.934 3.934 0 0 0 3.933 3.933 3.934 3.934 0 0 0 3.933-3.933Zm-3 0a.933.933 0 1 1-1.867 0 .933.933 0 0 1 1.867 0Z" style="fill:#00d3bd" transform="rotate(30 -229.475 347.578) scale(2)"/><path d="M0 1.5h18.354a1.5 1.5 0 0 0 0-3H0a1.5 1.5 0 0 0 0 3Z" style="fill:#00d3bd" transform="rotate(30 -116.813 406.61) scale(2)"/><path d="M0 1.5h18.354a1.5 1.5 0 0 0 0-3H0a1.5 1.5 0 0 0 0 3Z" style="fill:#00d3bd" transform="rotate(120 75.717 114.491) scale(2)"/></svg>